<?xml version="1.0" encoding="UTF-8"?>
<svg width="1200px" height="800px" viewBox="0 0 1200 800" version="1.1" xmlns="http://www.w3.org/2000/svg" xmlns:xlink="http://www.w3.org/1999/xlink">
    <!-- Generator: Sketch 61.2 (89653) - https://sketch.com -->
    <title>Auftakt-Titel Copy</title>
    <desc>Created with Sketch.</desc>
    <g id="Auftakt-Titel-Copy" stroke="none" stroke-width="1" fill="none" fill-rule="evenodd" stroke-linecap="round" stroke-linejoin="round">
        <path d="M224.544764,136.171891 L263.586807,136.024785 L264.131025,98.9948975 C264.250512,90.9009166 275.070601,88.2852585 278.873095,95.430373 L303.885338,139.247549" id="Path-Copy-15" stroke="#F62A86" stroke-width="14"></path>
        <path d="M592.704471,710.217944 L631.746514,710.070837 L632.290732,673.04095 C632.410218,664.946969 643.230308,662.331311 647.032802,669.476426 L672.045045,713.293602" id="Path-Copy-17" stroke="#6C79F3" stroke-width="14"></path>
        <path d="M354.234608,132.757499 L354.778825,95.7276117 C354.898312,87.6336308 365.718401,85.0179727 369.520896,92.1630872 L394.533139,135.980263 L455.822838,135.980263" id="Path-Copy-16" stroke="#FFC100" stroke-width="14"></path>
        <path d="M722.394315,706.803552 L722.938532,669.773664 C723.058019,661.679683 733.878108,659.064025 737.680602,666.20914 L762.692846,710.026316 L823.982545,710.026316" id="Path-Copy-19" stroke="#FFC100" stroke-width="14"></path>
        <path d="M313.112312,150.17937 C318.945532,161.139366 327.695364,177.579359 339.361805,199.49935 C343.194422,206.698685 354.105883,203.975589 354.105883,195.820359 L353.864287,147.052632" id="Path-Copy-7" stroke="#6C79F3" stroke-width="14"></path>
        <path d="M681.272019,724.225423 C687.105239,735.185418 695.855071,751.625411 707.521512,773.545403 C711.354129,780.744738 722.26559,778.021642 722.26559,769.866412 L722.023994,721.098684" id="Path-Copy-11" stroke="#FFC100" stroke-width="14"></path>
        <path d="M298.469295,462.239121 C304.302515,473.199117 315.29635,491.939102 326.962791,513.859093 C330.795408,521.058429 341.706869,518.335333 341.706869,510.180103 L342.218139,406.323087 C342.337626,398.229106 353.157715,395.613448 356.960209,402.758563 C362.940956,413.552798 367.426516,421.648475 370.416889,427.045593" id="Path-Copy-5" stroke="#F62A86" stroke-width="14"></path>
        <path d="M845.445494,272.79706 C851.278715,283.757056 862.272549,302.497041 873.938991,324.417032 C877.771607,331.616368 888.683069,328.893272 888.683069,320.738041 L889.194338,216.881026 C889.313825,208.787045 900.133914,206.171387 903.936408,213.316501 C909.917155,224.110737 914.402715,232.206414 917.393089,237.603532" id="Path-Copy-8" stroke="#F62A86" stroke-width="14"></path>
        <path d="M207.012133,462.666212 C212.845354,473.626208 221.595185,490.066201 233.261627,511.986192 C237.094244,519.185527 248.005705,516.462432 248.005705,508.307201 L248.549923,400.832875 C248.669409,392.738894 259.489499,390.123236 263.291993,397.26835 C269.27274,408.062586 287.064523,444.300251 290.054896,449.697368" id="Path-Copy-6" stroke="#3ECF90" stroke-width="14"></path>
        <path d="M753.988333,273.224151 C759.821553,284.184146 768.571385,300.62414 780.237826,322.544131 C784.070443,329.743466 794.981904,327.02037 794.981904,318.86514 L795.526122,211.390814 C795.645609,203.296833 806.465698,200.681175 810.268192,207.826289 C816.248939,218.620525 834.040722,254.858189 837.031096,260.255307" id="Path-Copy-9" stroke="#3ECF90" stroke-width="14"></path>
        <path d="M378.581816,440.980268 C384.415037,451.940264 393.164868,468.380257 404.831309,490.300248 C408.663926,497.499583 419.575388,494.776488 419.575388,486.621257 L419.232528,459.539474 L505.966081,459.539474" id="Path-Copy-30" stroke="#FFC100" stroke-width="14"></path>
        <path d="M925.558015,251.538207 C931.391236,262.498202 940.141067,278.938196 951.807509,300.858187 C955.640126,308.057522 966.551587,305.334426 966.551587,297.179196 L966.208727,270.097412 L1052.94228,270.097412" id="Path-Copy-31" stroke="#FFC100" stroke-width="14"></path>
        <path d="M105.515423,459.539474 L168.873975,459.539474 L169.418193,429.128927 C169.53768,421.034947 180.357769,418.419288 184.160263,425.564403 C190.14101,436.358639 194.62657,444.454315 197.616943,449.851433" id="Path-Copy-4" stroke="#6C79F3" stroke-width="14"></path>
        <path d="M561,270 L715.850175,270.097412 L716.394392,239.686866 C716.513879,231.592885 727.333968,228.977227 731.136462,236.122342 C737.117209,246.916577 741.602769,255.012254 744.593143,260.409372" id="Path-Copy-10" stroke="#6C79F3" stroke-width="14"></path>
        <path d="M350.932858,639.472937 L393.822979,639.286184 L394.481306,594.727612 C394.600793,586.633631 405.420882,584.017973 409.223377,591.163087 C415.099083,602.202909 419.505864,610.482776 422.443717,616.002687" id="Path" stroke="#FFC100" stroke-width="14"></path>
        <path d="M428.791501,629.159754 C431.554976,634.352027 436.650609,643.926176 444.078402,657.882201 C447.911019,665.081536 458.82248,662.35844 458.82248,654.20321 L458.580884,605.435482" id="Path" stroke="#6C79F3" stroke-width="14"></path>
        <line x1="15.6773779" y1="459.539474" x2="90.5888705" y2="459.539474" id="Path-6-Copy-13" stroke="#FFC100" stroke-width="14"></line>
        <path d="M906.965206,448.317289 L907.407565,418.21813 C907.504688,411.639065 916.299627,409.512969 919.390424,415.320762 C924.25178,424.094686 949.81881,468.313167 959.301693,486.130486 C962.416975,491.982352 971.286184,489.768927 971.286184,483.140076 L971.007496,461.127076 L1041.5075,461.127076" id="Path-Copy-4" stroke="#6C79F3" stroke-width="14"></path>
        <path d="M721.331087,461.127076 L872.190462,460.936862 C881.197228,477.605784 888.861572,491.879351 895.183494,503.757564 C898.298776,509.60943 907.167985,507.396004 907.167985,500.767154 L906.971608,461.127076" id="Path-Copy-28" stroke="#F62A86" stroke-width="14"></path>
        <line x1="224.544764" y1="639.901316" x2="335.175122" y2="639.901316" id="Path-6-Copy-7" stroke="#F62A86" stroke-width="14"></line>
        <line x1="471.064992" y1="135.980263" x2="606.076644" y2="135.980263" id="Path-6-Copy-9" stroke="#3ECF90" stroke-width="14"></line>
        <line x1="839.224698" y1="710.026316" x2="974.236351" y2="710.026316" id="Path-6-Copy-16" stroke="#3ECF90" stroke-width="14"></line>
    </g>
</svg>