<?xml version="1.0" encoding="UTF-8"?>
<svg width="249px" height="37px" viewBox="0 0 249 37" version="1.1" xmlns="http://www.w3.org/2000/svg" xmlns:xlink="http://www.w3.org/1999/xlink">
    <!-- Generator: Sketch 60.1 (88133) - https://sketch.com -->
    <title>Sen_KuEu_logo_SW_quer</title>
    <desc>Created with Sketch.</desc>
    <defs>
        <polygon id="path-1" points="0.331019299 0.08288 127.855246 0.08288 127.855246 30.9232 0.331019299 30.9232"></polygon>
    </defs>
    <g id="componet-Structure" stroke="none" stroke-width="1" fill="none" fill-rule="evenodd">
        <g id="project" transform="translate(-826.000000, -8167.000000)">
            <g id="Sen_KuEu_logo_SW_quer" transform="translate(826.000000, 8166.988281)">
                <g id="Group-7" transform="translate(121.000000, 6.000000)">
                    <mask id="mask-2" fill="white">
                        <use xlink:href="#path-1"></use>
                    </mask>
                    <g id="Clip-2"></g>
                    <path d="M25.5114912,18.47136 C30.1265904,18.47136 32.5383024,16.36576 32.5383024,12.98656 C32.5383024,9.9504 30.4716684,8.22496 27.2343252,8.22496 C21.1366686,8.22496 18.0015707,13.53696 18.0015707,18.50464 C18.0015707,22.61088 20.5500359,25.336 24.2359805,25.336 C25.5817849,25.336 28.2670032,24.85344 29.7827904,24.33632 L29.7827904,21.02496 C27.6484189,21.43712 26.7167082,21.57664 25.5114912,21.57664 C23.5113167,21.57664 22.7892089,20.024 22.7892089,18.47136 L25.5114912,18.47136 Z M23.306826,15.77952 C23.6851337,13.60608 25.2354288,12.12384 26.3729082,12.12384 C27.0260003,12.12384 27.5781252,12.4336 27.5781252,13.33088 C27.5781252,14.50336 26.407416,15.77952 24.7535976,15.77952 L23.306826,15.77952 Z M7.2197993,14.50336 C8.04798657,13.60608 9.56249572,12.81376 10.4239127,12.81376 C11.5256063,12.81376 11.9051921,13.84928 11.9051921,14.70944 C11.9051921,16.84832 10.2871596,21.57664 7.42684612,21.57664 C6.97952274,21.57664 5.77430576,21.40384 5.77430576,21.40384 L7.2197993,14.50336 Z M9.11645041,4.25696 L9.11645041,0.152 L1.43271287,0.152 L1.43271287,4.25696 L4.25851854,4.25696 L0.331019299,24.99168 L2.81046887,24.99168 C4.15499513,24.99168 5.63499648,25.336 7.32460077,25.336 C13.2484403,25.336 16.6928303,18.98848 16.6928303,13.88384 C16.6928303,9.98496 15.0747978,8.22496 13.0746233,8.22496 C10.9760376,8.22496 8.94263333,9.67392 7.84093975,10.6736 L9.11645041,4.25696 L9.11645041,4.25696 Z" id="Fill-1" fill="#000000" mask="url(#mask-2)"></path>
                    <polyline id="Fill-3" fill="#000000" mask="url(#mask-2)" points="60.0921443 0.08288 60.0921443 11.98304 69.1127397 11.98304 69.1127397 14.99488 53.9318624 14.99488 53.9318624 31 56.8471327 31 56.8471327 17.83648 60.0921443 17.83648 60.0921443 31 63.0023024 31 63.0023024 17.83648 66.2025816 17.83648 66.2025816 31 69.1127397 31 69.1127397 25.04928 127.855246 25.04928 127.855246 0.08288 60.0921443 0.08288"></polyline>
                    <polygon id="Fill-4" fill="#000000" mask="url(#mask-2)" points="35.5634865 30.9232 38.4723665 30.9232 38.4723665 17.7776 35.5634865 17.7776"></polygon>
                    <polygon id="Fill-5" fill="#000000" mask="url(#mask-2)" points="41.696929 30.9232 44.604531 30.9232 44.604531 17.7776 41.696929 17.7776"></polygon>
                    <polygon id="Fill-6" fill="#000000" mask="url(#mask-2)" points="47.8290935 30.9232 50.7379735 30.9232 50.7379735 17.7776 47.8290935 17.7776"></polygon>
                </g>
                <polygon id="Fill-8" fill="#000000" points="157 21 175 21 175 18 157 18"></polygon>
                <path d="M171,14 C171,12.8958084 171.896614,12 172.999401,12 C174.105784,12 175,12.8958084 175,14 C175,15.1041916 174.105784,16 172.999401,16 C171.896614,16 171,15.1041916 171,14" id="Fill-9" fill="#000000"></path>
                <path d="M233.48533,24.8278822 L235.26823,24.8278822 L235.26823,20.6317159 C235.26823,20.6317159 235.193513,19.8400809 235.489805,19.0033529 C235.773214,18.1954343 236.427631,17.2760354 237.749348,17.198375 C239.295216,17.1069362 239.203752,18.7666139 239.203752,18.7666139 L239.203752,24.8278822 L240.998247,24.8278822 L240.998247,18.5762207 C240.998247,18.5762207 241.145105,16.0810675 238.750298,15.9846183 C235.836337,15.8693803 235.26823,17.6555693 235.26823,17.6555693 L235.26823,16.0810675 C235.26823,16.0810675 234.642154,16.0585209 233.634763,16.1136347 C232.676325,16.167496 231.981973,16.2288727 231.981973,16.2288727 L231.981973,17.1570397 L233.48533,17.3286441 L233.48533,24.8278822 Z M227.536315,17.3399174 L225.996888,17.1382509 L225.996888,16.2125891 C226.594624,16.1599805 226.89478,16.1349287 227.536315,16.1111296 C228.311825,16.0810675 228.897967,16.0585209 229.281857,16.0810675 L229.281857,23.6266513 L230.894713,23.8646428 L230.894713,24.8278822 L225.996888,24.8278822 L225.996888,23.8646428 L227.536315,23.6266513 L227.536315,17.3399174 Z M227.144695,13.6047031 C227.144695,12.955863 227.683172,12.4322817 228.349184,12.4322817 C229.012619,12.4322817 229.551096,12.955863 229.551096,13.6047031 C229.551096,14.2497854 229.012619,14.7733667 228.349184,14.7733667 C227.683172,14.7733667 227.144695,14.2497854 227.144695,13.6047031 L227.144695,13.6047031 Z M221.365726,13.1688028 C221.365726,13.1688028 220.934171,13.1024157 220.657203,13.0685959 C220.348029,13.0310182 219.863657,12.9909355 219.863657,12.9909355 L219.863657,12.0890729 C219.863657,12.0890729 220.958647,12.0176754 221.658152,12.0038969 C222.252023,11.9951288 223.174391,12.0038969 223.174391,12.0038969 L223.174391,23.6266513 L224.689341,23.8646428 L224.689341,24.8278822 L219.863657,24.8278822 L219.863657,23.8646428 L221.365726,23.6266513 L221.365726,13.1688028 Z M206.754698,20.4300494 L212.558144,20.4300494 C212.558144,20.4300494 213.132691,15.7979828 209.028412,15.8906743 C205.387893,15.973345 205.007867,19.1461478 204.983391,20.4776477 C204.964068,21.5636406 205.219136,23.4325003 206.67354,24.3819612 C207.269987,24.774021 208.482205,25.0470849 209.6751,24.9932237 C210.749478,24.9456254 212.166524,24.4345699 212.166524,24.4345699 L212.166524,23.0917967 C212.166524,23.0917967 211.013564,23.6015996 209.466408,23.6266513 C206.437795,23.6755022 206.754698,20.4300494 206.754698,20.4300494 L206.754698,20.4300494 Z M208.989765,17.0605905 C210.990376,17.1232198 210.786837,19.1298641 210.786837,19.1298641 L206.877079,19.1298641 C206.877079,19.1298641 207.072889,17.0029715 208.989765,17.0605905 L208.989765,17.0605905 Z M216.748734,17.7908487 L216.748734,16.0810675 C216.748734,16.0810675 215.702696,16.0810675 215.039261,16.1061192 C214.45312,16.124908 213.534617,16.1875374 213.534617,16.1875374 L213.534617,17.125725 L215.039261,17.3173708 L215.039261,24.8278822 L216.797686,24.8278822 L216.797686,20.8584341 C216.797686,20.8584341 216.724257,18.9745434 217.62859,18.0363557 C218.262396,17.3762424 219.594419,17.6380331 219.594419,17.6380331 L219.594419,15.9846183 C219.594419,15.9846183 218.526482,15.8505915 217.726495,16.3253219 C216.96902,16.7737481 216.748734,17.7908487 216.748734,17.7908487 L216.748734,17.7908487 Z M194.696929,13.6861212 C194.269239,13.6272496 194,13.5508418 194,13.5508418 L194,12.558793 C194,12.558793 194.81931,12.5750766 195.759713,12.5863499 C196.698828,12.5988757 197.519426,12.5274783 198.667233,12.5274783 C200.795377,12.5274783 203.123197,12.8118155 203.23656,15.4284697 C203.334465,17.6843788 201.013087,18.3382292 201.013087,18.3382292 C201.013087,18.3382292 203.603704,18.6826906 203.517393,21.3444379 C203.397588,25.077147 198.642756,24.8278822 198.642756,24.8278822 L194,24.8278822 L194,23.8646428 L195.527833,23.5803056 L195.527833,13.7863282 C195.527833,13.7863282 195.248288,13.7637816 194.696929,13.6861212 L194.696929,13.6861212 Z M197.384162,19.1361271 L197.384162,23.4249848 C197.384162,23.4249848 198.316836,23.4550469 198.911995,23.4299952 C200.660114,23.3598503 201.698422,22.5431636 201.623705,21.19538 C201.550276,19.8776585 200.591838,19.2764168 199.132281,19.1524107 C198.458541,19.0947917 197.384162,19.1361271 197.384162,19.1361271 L197.384162,19.1361271 Z M197.384162,13.9191024 L197.384162,17.8396996 C197.384162,17.8396996 198.075938,17.8396996 198.575769,17.8284263 C200.02502,17.7921013 201.340296,17.3286441 201.391825,15.7240802 C201.429183,14.5829735 200.518409,14.0130464 199.614077,13.9541748 C198.747103,13.8965558 197.384162,13.9191024 197.384162,13.9191024 L197.384162,13.9191024 Z" id="Fill-10" fill="#FFFFFE"></path>
                <g id="Group-14">
                    <line x1="107.074286" y1="0.833137931" x2="107.074286" y2="37" id="Stroke-11" stroke="#000000" stroke-width="0.6"></line>
                    <path d="M3.024,23.3584828 C2.95585714,23.3521034 2.88385714,23.3418966 2.808,23.3265862 C2.74628571,23.3202069 2.67814286,23.3125517 2.60228571,23.3074483 C2.52642857,23.301069 2.45185714,23.2972414 2.376,23.2972414 C1.81414286,23.2972414 1.41942857,23.4350345 1.19314286,23.7157241 C0.966857143,23.9951379 0.853714286,24.4238276 0.853714286,25.0017931 L0.853714286,26.0416207 L0,26.0416207 L0,26.6553103 L0.853714286,26.6553103 L0.853714286,31.145069 L1.59428571,31.145069 L1.59428571,26.6553103 L2.86971429,26.6553103 L2.86971429,26.0416207 L1.59428571,26.0416207 L1.59428571,25.114069 C1.59428571,24.9086552 1.60457143,24.7325862 1.62514286,24.5833103 C1.64571429,24.4327586 1.68685714,24.3115517 1.74857143,24.2145862 C1.81028571,24.1188966 1.90157143,24.0487241 2.02114286,24.0002414 C2.14071429,23.9530345 2.30014286,23.930069 2.49942857,23.930069 C2.55471429,23.930069 2.61257143,23.9338966 2.67428571,23.9402759 C2.736,23.9453793 2.79385714,23.9530345 2.84914286,23.9594138 C2.91085714,23.9747241 2.96871429,23.984931 3.024,23.9913103 L3.024,23.3584828 Z M4.29942857,24.6892069 C4.19657143,24.7887241 4.14514286,24.9150345 4.14514286,25.0719655 C4.14514286,25.2288966 4.19657143,25.353931 4.29942857,25.4496207 C4.40228571,25.5453103 4.52571429,25.5937931 4.66971429,25.5937931 C4.82785714,25.5937931 4.95771429,25.5453103 5.06057143,25.4496207 C5.16342857,25.353931 5.21485714,25.2288966 5.21485714,25.0719655 C5.21485714,24.9150345 5.16214286,24.7887241 5.05542857,24.6892069 C4.94871429,24.5909655 4.82014286,24.5412069 4.66971429,24.5412069 C4.52571429,24.5412069 4.40228571,24.5909655 4.29942857,24.6892069 L4.29942857,24.6892069 Z M6.58285714,24.6892069 C6.48,24.7887241 6.42857143,24.9150345 6.42857143,25.0719655 C6.42857143,25.2288966 6.48,25.353931 6.58285714,25.4496207 C6.68571429,25.5453103 6.80914286,25.5937931 6.95314286,25.5937931 C7.11128571,25.5937931 7.24114286,25.5453103 7.344,25.4496207 C7.44685714,25.353931 7.49828571,25.2288966 7.49828571,25.0719655 C7.49828571,24.9150345 7.44557143,24.7887241 7.33885714,24.6892069 C7.23214286,24.5909655 7.10357143,24.5412069 6.95314286,24.5412069 C6.80914286,24.5412069 6.68571429,24.5909655 6.58285714,24.6892069 L6.58285714,24.6892069 Z M3.87771429,26.0416207 L3.87771429,29.8079655 C3.87771429,29.9712759 3.89442857,30.1358621 3.92914286,30.3042759 C3.96385714,30.4714138 4.03071429,30.6245172 4.12971429,30.7623103 C4.22871429,30.9026552 4.37014286,31.0162069 4.55142857,31.1055172 C4.73271429,31.1922759 4.97185714,31.236931 5.26628571,31.236931 C5.47842857,31.236931 5.69185714,31.2075862 5.904,31.145069 C6.11614286,31.0838276 6.309,31.0162069 6.48,30.9422069 C6.67928571,30.8541724 6.87085714,30.7508276 7.056,30.636 L7.15885714,31.145069 L7.72457143,31.145069 L7.72457143,26.0416207 L6.984,26.0416207 L6.984,30.1039655 C6.81942857,30.2060345 6.64842857,30.294069 6.46971429,30.3706207 C6.31928571,30.4369655 6.15085714,30.496931 5.96571429,30.5479655 C5.78057143,30.599 5.59928571,30.6257931 5.42057143,30.6257931 C5.24957143,30.6257931 5.112,30.6002759 5.00914286,30.553069 C4.90628571,30.5045862 4.82528571,30.4369655 4.76742857,30.3476552 C4.70957143,30.2608966 4.66971429,30.1511724 4.64914286,30.0210345 C4.62857143,29.8921724 4.61828571,29.7454483 4.61828571,29.5808621 L4.61828571,26.0416207 L3.87771429,26.0416207 Z M12.0342857,25.9510345 C11.7938571,25.9357241 11.565,25.9625172 11.3451429,26.0263103 C11.1252857,26.0913793 10.9272857,26.1615517 10.7485714,26.2355517 C10.5428571,26.3248621 10.3474286,26.4307586 10.1622857,26.5519655 L10.0594286,26.0416207 L9.49371429,26.0416207 L9.49371429,31.145069 L10.2342857,31.145069 L10.2342857,27.092931 C10.4194286,26.9908621 10.611,26.9041034 10.8102857,26.8275517 C10.9812857,26.7612069 11.1741429,26.705069 11.3862857,26.6591379 C11.5984286,26.6144828 11.8144286,26.603 12.0342857,26.6234138 L12.0342857,25.9510345 Z M19.7794286,24.0002414 L18.8331429,24.0002414 L16.5291429,27.7066207 L16.5291429,24.0002414 L15.7474286,24.0002414 L15.7474286,31.145069 L16.5291429,31.145069 L16.5291429,28.6558621 L17.352,27.4807931 C17.4818571,27.610931 17.6091429,27.7538276 17.7325714,27.9107586 C17.8354286,28.046 17.9395714,28.2016552 18.0462857,28.379 C18.1517143,28.5576207 18.243,28.7464483 18.3188571,28.9505862 L19.0594286,31.145069 L19.9234286,31.145069 L19.0388571,28.7273103 C18.9424286,28.461931 18.819,28.2169655 18.6685714,27.9962414 C18.5168571,27.7755172 18.3728571,27.5866897 18.2365714,27.4310345 C18.072,27.2460345 17.9035714,27.0801724 17.7325714,26.9296207 L19.7794286,24.0002414 Z M21.24,26.0416207 L21.24,29.8079655 C21.24,29.9712759 21.2567143,30.1358621 21.2914286,30.3042759 C21.3248571,30.4714138 21.3917143,30.6245172 21.492,30.7623103 C21.591,30.9026552 21.7311429,31.0162069 21.9137143,31.1055172 C22.095,31.1922759 22.3328571,31.236931 22.6285714,31.236931 C22.8407143,31.236931 23.0528571,31.2075862 23.2662857,31.145069 C23.4784286,31.0838276 23.67,31.0162069 23.8422857,30.9422069 C24.0402857,30.8541724 24.2331429,30.7508276 24.4182857,30.636 L24.5211429,31.145069 L25.0868571,31.145069 L25.0868571,26.0416207 L24.3462857,26.0416207 L24.3462857,30.1039655 C24.1817143,30.2060345 24.0094286,30.294069 23.832,30.3706207 C23.6802857,30.4369655 23.5131429,30.496931 23.328,30.5479655 C23.1428571,30.599 22.9602857,30.6257931 22.7828571,30.6257931 C22.6105714,30.6257931 22.4742857,30.6002759 22.3714286,30.553069 C22.2685714,30.5045862 22.1875714,30.4369655 22.1297143,30.3476552 C22.0705714,30.2608966 22.032,30.1511724 22.0114286,30.0210345 C21.9908571,29.8921724 21.9805714,29.7454483 21.9805714,29.5808621 L21.9805714,26.0416207 L21.24,26.0416207 Z M26.856,31.145069 L27.5965714,31.145069 L27.5965714,23.3878276 L26.856,23.3878276 L26.856,31.145069 Z M31.8445714,30.5428621 C31.7892857,30.5568966 31.7314286,30.5683793 31.6697143,30.5747586 C31.5668571,30.5938966 31.4498571,30.6041034 31.32,30.6041034 C31.1207143,30.6041034 30.9612857,30.5811379 30.8417143,30.533931 C30.7208571,30.4854483 30.6308571,30.414 30.5691429,30.3183103 C30.5074286,30.2226207 30.4662857,30.1001379 30.4457143,29.9508621 C30.4251429,29.7990345 30.4148571,29.6229655 30.4148571,29.4188276 L30.4148571,26.6553103 L31.6902857,26.6553103 L31.6902857,26.0416207 L30.4148571,26.0416207 L30.4148571,24.0002414 L29.6742857,24.0002414 L29.6742857,26.0416207 L28.8205714,26.0416207 L28.8205714,26.6553103 L29.6742857,26.6553103 L29.6742857,29.5285517 C29.6742857,30.109069 29.7874286,30.5377586 30.0137143,30.8171724 C30.24,31.0965862 30.6334286,31.236931 31.1965714,31.236931 C31.2711429,31.236931 31.347,31.2356552 31.4228571,31.2318276 C31.4974286,31.228 31.5668571,31.2216207 31.6285714,31.2075862 C31.7031429,31.199931 31.7751429,31.1897241 31.8445714,31.1756897 L31.8445714,30.5428621 Z M32.904,26.0416207 L32.904,29.8079655 C32.904,29.9712759 32.9207143,30.1358621 32.9554286,30.3042759 C32.9888571,30.4714138 33.0557143,30.6245172 33.156,30.7623103 C33.255,30.9026552 33.3951429,31.0162069 33.5777143,31.1055172 C33.759,31.1922759 33.9968571,31.236931 34.2925714,31.236931 C34.5047143,31.236931 34.7168571,31.2075862 34.9302857,31.145069 C35.1424286,31.0838276 35.334,31.0162069 35.5062857,30.9422069 C35.7042857,30.8541724 35.8971429,30.7508276 36.0822857,30.636 L36.1851429,31.145069 L36.7508571,31.145069 L36.7508571,26.0416207 L36.0102857,26.0416207 L36.0102857,30.1039655 C35.8457143,30.2060345 35.6734286,30.294069 35.496,30.3706207 C35.3442857,30.4369655 35.1771429,30.496931 34.992,30.5479655 C34.8068571,30.599 34.6242857,30.6257931 34.4468571,30.6257931 C34.2745714,30.6257931 34.1382857,30.6002759 34.0354286,30.553069 C33.9325714,30.5045862 33.8515714,30.4369655 33.7937143,30.3476552 C33.7345714,30.2608966 33.696,30.1511724 33.6754286,30.0210345 C33.6548571,29.8921724 33.6445714,29.7454483 33.6445714,29.5808621 L33.6445714,26.0416207 L32.904,26.0416207 Z M41.0605714,25.9510345 C40.8201429,25.9357241 40.59,25.9625172 40.3714286,26.0263103 C40.1515714,26.0913793 39.9522857,26.1615517 39.7748571,26.2355517 C39.5691429,26.3248621 39.3737143,26.4307586 39.1885714,26.5519655 L39.0857143,26.0416207 L38.52,26.0416207 L38.52,31.145069 L39.2605714,31.145069 L39.2605714,27.092931 C39.4457143,26.9908621 39.6372857,26.9041034 39.8365714,26.8275517 C40.0075714,26.7612069 40.1991429,26.705069 40.4125714,26.6591379 C40.6247143,26.6144828 40.8407143,26.603 41.0605714,26.6234138 L41.0605714,25.9510345 Z M44.6901429,26.0416207 L44.6901429,29.8079655 C44.6901429,29.9712759 44.7081429,30.1358621 44.7415714,30.3042759 C44.7762857,30.4714138 44.8431429,30.6245172 44.9421429,30.7623103 C45.0424286,30.9026552 45.1825714,31.0162069 45.3638571,31.1055172 C45.5464286,31.1922759 45.7842857,31.236931 46.0787143,31.236931 C46.2921429,31.236931 46.5042857,31.2075862 46.7164286,31.145069 C46.9298571,31.0838276 47.1214286,31.0162069 47.2924286,30.9422069 C47.4917143,30.8541724 47.6832857,30.7508276 47.8684286,30.636 L47.9712857,31.145069 L48.537,31.145069 L48.537,26.0416207 L47.7964286,26.0416207 L47.7964286,30.1039655 C47.6318571,30.2060345 47.4608571,30.294069 47.2821429,30.3706207 C47.1317143,30.4369655 46.9632857,30.496931 46.7781429,30.5479655 C46.593,30.599 46.4117143,30.6257931 46.233,30.6257931 C46.062,30.6257931 45.9244286,30.6002759 45.8215714,30.553069 C45.7187143,30.5045862 45.639,30.4369655 45.5798571,30.3476552 C45.522,30.2608966 45.4821429,30.1511724 45.4615714,30.0210345 C45.441,29.8921724 45.4307143,29.7454483 45.4307143,29.5808621 L45.4307143,26.0416207 L44.6901429,26.0416207 Z M54.153,31.145069 L54.153,27.38 C54.153,27.2154138 54.1362857,27.0508276 54.1015714,26.8836897 C54.0681429,26.7165517 54.0012857,26.5634483 53.901,26.4256552 C53.802,26.2853103 53.6618571,26.1717586 53.4792857,26.0824483 C53.298,25.9956897 53.0601429,25.9510345 52.7644286,25.9510345 C52.5522857,25.9510345 52.3401429,25.9816552 52.1267143,26.048 C51.9145714,26.113069 51.723,26.1806897 51.5507143,26.2559655 C51.3527143,26.344 51.1598571,26.4435172 50.9747143,26.5519655 L50.8718571,26.0416207 L50.3061429,26.0416207 L50.3061429,31.145069 L51.0467143,31.145069 L51.0467143,27.084 C51.2112857,26.9883103 51.3835714,26.9041034 51.561,26.8288276 C51.7127143,26.7612069 51.8798571,26.6999655 52.065,26.6451034 C52.2501429,26.5902414 52.4327143,26.5621724 52.6101429,26.5621724 C52.7824286,26.5621724 52.9187143,26.5876897 53.0215714,26.6348966 C53.1244286,26.6821034 53.2054286,26.751 53.2632857,26.8390345 C53.3224286,26.927069 53.361,27.0367931 53.3815714,27.166931 C53.4021429,27.2957931 53.4124286,27.4437931 53.4124286,27.6071034 L53.4124286,31.145069 L54.153,31.145069 Z M59.4707143,31.145069 L59.4707143,23.3878276 L58.7301429,23.3878276 L58.7301429,25.9395517 L58.7815714,26.5430345 C58.6658571,26.4345862 58.5321429,26.335069 58.3804286,26.2457586 C58.2505714,26.1717586 58.095,26.1041379 57.9124286,26.0416207 C57.7311429,25.9803793 57.5241429,25.9510345 57.2901429,25.9510345 C57.0921429,25.9510345 56.889,26.0007931 56.6832857,26.0977586 C56.4775714,26.196 56.2911429,26.3542069 56.1227143,26.5723793 C55.9555714,26.7905517 55.8167143,27.0737931 55.7061429,27.4195517 C55.5968571,27.7678621 55.5415714,28.1927241 55.5415714,28.6954138 C55.5415714,29.5808621 55.6894286,30.2251724 55.9838571,30.6308966 C56.2795714,31.034069 56.6935714,31.236931 57.2284286,31.236931 C57.4007143,31.236931 57.5768571,31.2075862 57.7581429,31.145069 C57.9407143,31.0838276 58.1104286,31.0162069 58.2672857,30.9422069 C58.446,30.8541724 58.6247143,30.7508276 58.8021429,30.636 L58.905,31.145069 L59.4707143,31.145069 Z M58.7301429,30.0950345 C58.5655714,30.1894483 58.401,30.2736552 58.2364286,30.348931 C58.1001429,30.4178276 57.9522857,30.4777931 57.7941429,30.5288276 C57.6372857,30.5798621 57.4958571,30.6041034 57.3724286,30.6041034 C57.1744286,30.6041034 57.006,30.5568966 56.8684286,30.4624828 C56.7321429,30.3667931 56.6215714,30.2302759 56.5392857,30.0542069 C56.457,29.8768621 56.3978571,29.6663448 56.3592857,29.4213793 C56.322,29.1751379 56.3027143,28.8995517 56.3027143,28.5933448 C56.3027143,27.9758276 56.4081429,27.4858966 56.6164286,27.1248276 C56.826,26.7624828 57.0947143,26.5838621 57.4238571,26.5838621 C57.6437143,26.5838621 57.8352857,26.611931 57.9998571,26.6693448 C58.1644286,26.7267586 58.302,26.7943793 58.4112857,26.8696552 C58.5347143,26.9500345 58.6414286,27.0457241 58.7301429,27.1541724 L58.7301429,30.0950345 Z M63.7598571,31.145069 L67.2775714,31.145069 L67.2775714,30.4726897 L64.5415714,30.4726897 L64.5415714,27.787 L66.969,27.787 L66.969,27.1350345 L64.5415714,27.1350345 L64.5415714,24.6751724 L67.1747143,24.6751724 L67.1747143,24.0002414 L63.7598571,24.0002414 L63.7598571,31.145069 Z M68.769,26.0416207 L68.769,29.8079655 C68.769,29.9712759 68.7857143,30.1358621 68.8204286,30.3042759 C68.8551429,30.4714138 68.922,30.6245172 69.021,30.7623103 C69.12,30.9026552 69.2614286,31.0162069 69.4427143,31.1055172 C69.624,31.1922759 69.8631429,31.236931 70.1575714,31.236931 C70.3697143,31.236931 70.5831429,31.2075862 70.7952857,31.145069 C71.0074286,31.0838276 71.2002857,31.0162069 71.3712857,30.9422069 C71.5705714,30.8541724 71.7621429,30.7508276 71.9472857,30.636 L72.0501429,31.145069 L72.6158571,31.145069 L72.6158571,26.0416207 L71.8752857,26.0416207 L71.8752857,30.1039655 C71.7107143,30.2060345 71.5397143,30.294069 71.361,30.3706207 C71.2105714,30.4369655 71.0421429,30.496931 70.857,30.5479655 C70.6718571,30.599 70.4905714,30.6257931 70.3118571,30.6257931 C70.1408571,30.6257931 70.0032857,30.6002759 69.9004286,30.553069 C69.7975714,30.5045862 69.7165714,30.4369655 69.6587143,30.3476552 C69.6008571,30.2608966 69.561,30.1511724 69.5404286,30.0210345 C69.5198571,29.8921724 69.5095714,29.7454483 69.5095714,29.5808621 L69.5095714,26.0416207 L68.769,26.0416207 Z M76.9255714,25.9510345 C76.6851429,25.9357241 76.4562857,25.9625172 76.2364286,26.0263103 C76.0165714,26.0913793 75.8185714,26.1615517 75.6398571,26.2355517 C75.4341429,26.3248621 75.2387143,26.4307586 75.0535714,26.5519655 L74.9507143,26.0416207 L74.385,26.0416207 L74.385,31.145069 L75.1255714,31.145069 L75.1255714,27.092931 C75.3107143,26.9908621 75.5022857,26.9041034 75.7015714,26.8275517 C75.8725714,26.7612069 76.0654286,26.705069 76.2775714,26.6591379 C76.4897143,26.6144828 76.7057143,26.603 76.9255714,26.6234138 L76.9255714,25.9510345 Z M78.9158571,27.092931 C79.1794286,26.7407931 79.5175714,26.5621724 79.929,26.5621724 C80.1077143,26.5621724 80.2825714,26.5953448 80.4535714,26.6591379 C80.6245714,26.7242069 80.7762857,26.8364828 80.9061429,26.9959655 C81.036,27.1554483 81.1414286,27.3646897 81.2198571,27.6236897 C81.2982857,27.8826897 81.3381429,28.2054828 81.3381429,28.5933448 C81.3381429,28.9135862 81.3021429,29.2006552 81.2301429,29.452 C81.1581429,29.702069 81.0591429,29.9151379 80.9318571,30.089931 C80.8045714,30.2634483 80.6554286,30.3948621 80.4844286,30.4867241 C80.3134286,30.5798621 80.1282857,30.6257931 79.929,30.6257931 C79.7374286,30.6257931 79.5548571,30.5926207 79.3838571,30.5288276 C79.2128571,30.4637586 79.0637143,30.3502069 78.9364286,30.1907241 C78.8091429,30.0312414 78.7088571,29.8232759 78.633,29.5642759 C78.5571429,29.3052759 78.5198571,28.9824828 78.5198571,28.5933448 C78.5198571,27.9464828 78.6522857,27.4476207 78.9158571,27.092931 L78.9158571,27.092931 Z M78.3398571,30.6143103 C78.7268571,31.0289655 79.2565714,31.236931 79.929,31.236931 C80.244,31.236931 80.5358571,31.1769655 80.8032857,31.0595862 C81.0707143,30.940931 81.3008571,30.7623103 81.4924286,30.5288276 C81.684,30.2927931 81.8331429,30.0057241 81.9398571,29.6663448 C82.0465714,29.3244138 82.0992857,28.9352759 82.0992857,28.4912759 C82.0992857,27.6275172 81.9077143,26.9870345 81.5232857,26.5723793 C81.1388571,26.159 80.6078571,25.9510345 79.929,25.9510345 C79.5998571,25.9510345 79.3028571,26.0122759 79.0392857,26.1334828 C78.7757143,26.2559655 78.5468571,26.4358621 78.3552857,26.6693448 C78.1637143,26.9053793 78.0158571,27.1911724 77.913,27.5318276 C77.8101429,27.8737586 77.7587143,28.2603448 77.7587143,28.6954138 C77.7587143,29.5604483 77.9528571,30.200931 78.3398571,30.6143103 L78.3398571,30.6143103 Z M83.5084286,26.0416207 L83.5084286,33.1877241 L84.249,33.1877241 L84.249,31.2471379 L84.1975714,30.644931 C84.3145714,30.7610345 84.4482857,30.8592759 84.5987143,30.9422069 C84.7285714,31.0162069 84.8854286,31.0838276 85.0667143,31.145069 C85.248,31.2075862 85.4562857,31.236931 85.689,31.236931 C85.8805714,31.236931 86.0811429,31.1871724 86.2907143,31.088931 C86.5002857,30.9919655 86.688,30.8337586 86.8564286,30.6143103 C87.0248571,30.3961379 87.1637143,30.1141724 87.273,29.7671379 C87.3822857,29.4213793 87.4375714,28.9952414 87.4375714,28.4912759 C87.4375714,27.6083793 87.2897143,26.9627931 86.9952857,26.557069 C86.7008571,26.1526207 86.2855714,25.9510345 85.7507143,25.9510345 C85.5797143,25.9510345 85.4022857,25.9816552 85.221,26.048 C85.0397143,26.113069 84.87,26.1806897 84.7118571,26.2559655 C84.5331429,26.344 84.3557143,26.4435172 84.177,26.5519655 L84.0741429,26.0416207 L83.5084286,26.0416207 Z M84.249,27.092931 C84.4135714,26.9972414 84.5781429,26.9143103 84.7427143,26.8377586 C84.8802857,26.7765172 85.0268571,26.7191034 85.185,26.6642414 C85.3431429,26.6093793 85.4832857,26.5838621 85.6067143,26.5838621 C85.806,26.5838621 85.9731429,26.6297931 86.1107143,26.7254828 C86.2482857,26.8211724 86.3575714,26.9576897 86.4398571,27.1350345 C86.5221429,27.3111034 86.5825714,27.5216207 86.6198571,27.7678621 C86.6571429,28.0115517 86.6764286,28.2884138 86.6764286,28.5933448 C86.6764286,29.2121379 86.5722857,29.702069 86.3627143,30.0631379 C86.1531429,30.4254828 85.8844286,30.6041034 85.5552857,30.6041034 C85.3354286,30.6041034 85.1438571,30.5760345 84.9792857,30.5186207 C84.8147143,30.4612069 84.6771429,30.3935862 84.5678571,30.3195862 C84.4444286,30.2366552 84.3377143,30.1422414 84.249,30.0325172 L84.249,27.092931 Z M88.929,26.9002759 C89.1347143,26.8377586 89.3404286,26.7828966 89.5461429,26.7356897 C89.7248571,26.6961379 89.9164286,26.6565862 90.1221429,26.6183103 C90.3278571,26.5825862 90.5194286,26.5621724 90.6981429,26.5621724 C91.0748571,26.5621724 91.3307143,26.6285172 91.4644286,26.7624828 C91.5981429,26.8964483 91.665,27.1375862 91.665,27.4884483 L91.665,28.0842759 L90.4512857,28.0842759 C90.1902857,28.0842759 89.9485714,28.1212759 89.7261429,28.1965517 C89.5037143,28.2705517 89.3134286,28.3777241 89.1552857,28.5167931 C88.9971429,28.6571379 88.8737143,28.8293793 88.785,29.0335172 C88.6962857,29.2376552 88.6512857,29.4685862 88.6512857,29.7275862 C88.6512857,29.9317241 88.6808571,30.1243793 88.7387143,30.3093793 C88.7965714,30.4918276 88.8865714,30.6513103 89.0061429,30.7891034 C89.1257143,30.9243448 89.2787143,31.0327931 89.4638571,31.1157241 C89.649,31.1961034 89.8714286,31.236931 90.1324286,31.236931 C90.3111429,31.236931 90.4924286,31.2075862 90.6775714,31.145069 C90.8627143,31.0838276 91.0337143,31.0162069 91.1918571,30.9422069 C91.3705714,30.8541724 91.5518571,30.7508276 91.737,30.636 L91.8398571,31.145069 L92.4055714,31.145069 L92.4055714,27.3072759 C92.4055714,27.0418966 92.3747143,26.8224483 92.313,26.6502069 C92.2512857,26.4766897 92.1574286,26.3376207 92.0301429,26.2355517 C91.9028571,26.1334828 91.7421429,26.0620345 91.5467143,26.0173793 C91.3512857,25.9714483 91.1198571,25.9510345 90.8524286,25.9510345 C90.5991429,25.9510345 90.3574286,25.9663448 90.1272857,26.002069 C89.8971429,26.0339655 89.694,26.0684138 89.5152857,26.1028621 C89.3031429,26.1487931 89.1077143,26.1985517 88.929,26.2534138 L88.929,26.9002759 Z M89.7158571,28.9148621 C89.9318571,28.7477241 90.2044286,28.666069 90.5335714,28.666069 L91.665,28.666069 L91.665,30.0835517 C91.5004286,30.1856207 91.3358571,30.2736552 91.1712857,30.348931 C91.0337143,30.4178276 90.8832857,30.4777931 90.7187143,30.5288276 C90.5541429,30.5798621 90.4037143,30.6041034 90.2661429,30.6041034 C89.9845714,30.6041034 89.7685714,30.5198966 89.6181429,30.348931 C89.4677143,30.1792414 89.3918571,29.9521379 89.3918571,29.6663448 C89.3918571,29.332069 89.4998571,29.0832759 89.7158571,28.9148621 L89.7158571,28.9148621 Z" id="Fill-13" fill="#000000"></path>
                </g>
                <path d="M21.5932717,12.6695046 C21.4230776,12.6501548 21.2516038,12.624355 21.0814096,12.5985552 C20.9380883,12.5766254 20.7806907,12.5572755 20.6104965,12.5417957 C20.4403024,12.5237358 20.2829048,12.5147059 20.1395834,12.5147059 C19.7979155,12.5147059 19.4984762,12.5624355 19.2387062,12.6604747 C18.9789362,12.7572239 18.7613948,12.8875129 18.5835228,13.0565015 C18.4056507,13.2267802 18.2712869,13.4215686 18.1791517,13.6447368 C18.0870166,13.8679051 18.040949,14.1091331 18.040949,14.3632611 C18.040949,14.7605779 18.1164486,15.0856553 18.2661683,15.3384933 C18.4158879,15.5887513 18.6027176,15.8003096 18.8240979,15.9731682 C19.0454783,16.1447368 19.2860534,16.2917957 19.5458234,16.4117647 C19.8055934,16.5304438 20.0461686,16.6581527 20.267549,16.7936017 C20.4889293,16.9264706 20.675759,17.0825593 20.8254786,17.2631579 C20.9751983,17.4424665 21.0506979,17.6746646 21.0506979,17.9649123 C21.0506979,18.3570691 20.9291307,18.6679567 20.6872758,18.8975748 C20.445421,19.128483 20.0883972,19.2432921 19.6174841,19.2432921 C19.4268155,19.2432921 19.2348672,19.2291022 19.0441986,19.2033024 C18.85353,19.1749226 18.6794969,19.1452528 18.5220993,19.1091331 C18.3442272,19.0678535 18.1701941,19.0201238 18,18.9646543 L18,19.6883385 C18.1637959,19.743808 18.33399,19.7876677 18.5118621,19.8212074 C18.6692597,19.8573271 18.8394538,19.8844169 19.0237241,19.9102167 C19.2079945,19.9334365 19.3986631,19.9463364 19.5970096,19.9463364 C19.9860248,19.9463364 20.3225741,19.8960268 20.6053779,19.7966976 C20.8881817,19.6973684 21.1223586,19.5567595 21.306629,19.377451 C21.4908993,19.1994324 21.6252631,18.9865841 21.711,18.7376161 C21.7967369,18.4899381 21.8389655,18.2177503 21.8389655,17.9236326 C21.8389655,17.5314757 21.7634658,17.2128483 21.6137462,16.9677503 C21.4640265,16.7252322 21.2759172,16.5214138 21.0506979,16.3601651 C20.8254786,16.1989164 20.5810645,16.0583075 20.3187352,15.9409185 C20.0564059,15.8248194 19.8119917,15.6971104 19.5867724,15.5603715 C19.3615531,15.4210526 19.1734438,15.2585139 19.0237241,15.0701754 C18.8740045,14.879257 18.7985048,14.6354489 18.7985048,14.3310114 C18.7985048,14.002064 18.9175128,13.7298762 19.1568083,13.5170279 C19.3961038,13.3041796 19.7160176,13.1971104 20.119109,13.1971104 C20.2624303,13.1971104 20.4198279,13.2061404 20.5900221,13.2280702 C20.7602162,13.24871 20.9214527,13.2680599 21.0711724,13.2899897 C21.2490445,13.3157895 21.4230776,13.3454592 21.5932717,13.371259 L21.5932717,12.6695046 Z M26.6504689,18.9453044 C26.4802748,19.0123839 26.3062417,19.0717234 26.1283696,19.119453 C25.970972,19.1620227 25.8020576,19.1994324 25.6216262,19.2329721 C25.4411948,19.2690918 25.2620431,19.2845717 25.084171,19.2845717 C24.8384772,19.2845717 24.6337324,19.2432921 24.4699365,19.1633127 C24.3061407,19.0794634 24.1730565,18.9672343 24.0706841,18.8240454 C23.9683117,18.6795666 23.892812,18.5079979 23.8454648,18.3054696 C23.7981176,18.1042312 23.7635669,17.8836429 23.7430924,17.6449948 L24.746342,17.6449948 C24.9856376,17.6449948 25.2236534,17.623065 25.4629489,17.5830753 C25.7022444,17.5417957 25.9146672,17.4592363 26.1027765,17.3379773 C26.2908858,17.2192982 26.4444444,17.0528896 26.5634524,16.8426213 C26.6824603,16.6323529 26.7426041,16.3575851 26.7426041,16.0183179 C26.7426041,15.5436017 26.5992827,15.1836945 26.31264,14.9411765 C26.0259972,14.7012384 25.636982,14.5799794 25.1455945,14.5799794 C24.8320789,14.5799794 24.5428769,14.6367389 24.2805476,14.750258 C24.0182182,14.8624871 23.7904396,15.0366357 23.599771,15.2714138 C23.4091024,15.504902 23.2606624,15.7951496 23.154451,16.1434469 C23.0482396,16.4891641 22.9944941,16.8955108 22.9944941,17.3547472 C22.9944941,18.1597007 23.154451,18.7892157 23.4718055,19.2432921 C23.78916,19.6986584 24.2818272,19.9244066 24.9510869,19.9244066 C25.1827045,19.9244066 25.4015255,19.9102167 25.6062703,19.877967 C25.8110151,19.8482972 25.9914465,19.8108875 26.1488441,19.7696078 C26.3267162,19.7218782 26.4930713,19.6664087 26.6504689,19.6044892 L26.6504689,18.9453044 Z M23.7328551,17.0245098 C23.7392534,16.7768318 23.7750838,16.5407637 23.8403462,16.3188854 C23.9056086,16.0982972 23.9951845,15.9035088 24.1116331,15.7371001 C24.2280817,15.5719814 24.3726827,15.4416925 24.5467158,15.3449432 C24.7207489,15.246904 24.9203751,15.1978844 25.1455945,15.1978844 C25.4258389,15.1978844 25.6382617,15.2752838 25.785422,15.4262126 C25.9325824,15.5784314 26.0055227,15.7925697 26.0055227,16.0699174 C26.0055227,16.3614551 25.9031503,16.5923633 25.6984055,16.7652219 C25.4936607,16.9393705 25.1763062,17.0245098 24.746342,17.0245098 L23.7328551,17.0245098 Z M32.0762068,19.8431373 L32.0762068,16.0350877 C32.0762068,15.869969 32.0595713,15.7035604 32.0250206,15.5332817 C31.9904699,15.3642931 31.9239279,15.2094943 31.8253944,15.0701754 C31.726861,14.9282766 31.5860989,14.8121775 31.4056675,14.7231682 C31.2252361,14.6354489 30.9872203,14.5902993 30.6941793,14.5902993 C30.4830362,14.5902993 30.2706134,14.621259 30.0594703,14.6883385 C29.8483272,14.754128 29.6563789,14.8224974 29.4861848,14.8998968 C29.2878382,14.9876161 29.0971696,15.0882353 28.9128993,15.1978844 L28.8105268,14.6831785 L28.2474786,14.6831785 L28.2474786,19.8431373 L28.98456,19.8431373 L28.98456,15.7358101 C29.1483558,15.6390609 29.3185499,15.5539216 29.496422,15.4765222 C29.6461417,15.4081527 29.8137765,15.3462332 29.9980468,15.2920537 C30.1823172,15.2365841 30.3627486,15.2082043 30.5406206,15.2082043 C30.7108148,15.2082043 30.8477379,15.2340041 30.9501103,15.2817337 C31.0524827,15.3307534 31.133101,15.3991228 31.1906855,15.4894221 C31.2482699,15.5771414 31.2879393,15.6880805 31.3084137,15.8196594 C31.3288882,15.9499484 31.3391255,16.0995872 31.3391255,16.2634159 L31.3391255,19.8431373 L32.0762068,19.8431373 Z M33.8984358,15.5500516 C34.1031806,15.4881321 34.3079254,15.4326625 34.5113906,15.3849329 C34.6892627,15.3436533 34.881211,15.3023736 35.0859558,15.2649639 C35.2907006,15.2288442 35.4813692,15.2082043 35.6592413,15.2082043 C36.0341803,15.2082043 36.2888316,15.2765738 36.4219158,15.4107327 C36.5549999,15.5474716 36.621542,15.7899897 36.621542,16.1447368 L36.621542,16.745872 L35.4135475,16.745872 C35.1537775,16.745872 34.9132023,16.7845717 34.691822,16.8593911 C34.469162,16.9367905 34.279773,17.0451496 34.1236551,17.1844685 C33.9662575,17.3263674 33.8434106,17.499226 33.7551144,17.7069143 C33.6655385,17.9133127 33.6220303,18.1455108 33.6220303,18.4086687 C33.6220303,18.6150671 33.6501827,18.8098555 33.7090468,18.996904 C33.7666313,19.1813725 33.8549275,19.3426213 33.9752151,19.4819401 C34.094223,19.6186791 34.246502,19.7283282 34.4307723,19.8108875 C34.6150427,19.8947368 34.836423,19.9347265 35.096193,19.9347265 C35.2727854,19.9347265 35.4544965,19.9050568 35.6387668,19.8431373 C35.8230372,19.7799278 35.9932313,19.7115583 36.1506289,19.6367389 C36.3272213,19.5464396 36.5089323,19.4432405 36.6932027,19.3258514 L36.7955751,19.8431373 L37.3586234,19.8431373 L37.3586234,15.9615583 C37.3586234,15.6932405 37.3279116,15.4713622 37.2664882,15.2959236 C37.2050647,15.121775 37.1103703,14.9811662 36.9849641,14.877967 C36.8582782,14.7747678 36.6983213,14.7012384 36.5038137,14.6560888 C36.3093061,14.6109391 36.0789682,14.5902993 35.8127999,14.5902993 C35.5594282,14.5902993 35.318853,14.6057792 35.0910744,14.6418989 C34.8620161,14.6741486 34.658551,14.7076883 34.4819585,14.743808 C34.2695358,14.7915377 34.0750282,14.8418473 33.8984358,14.8973168 L33.8984358,15.5500516 Z M34.6815848,17.5882353 C34.8965668,17.4192466 35.1678537,17.3353973 35.4954454,17.3353973 L36.621542,17.3353973 L36.621542,18.7698658 C36.4577461,18.873065 36.2939503,18.9607843 36.1301544,19.0381837 C35.9932313,19.1065531 35.8435116,19.1658927 35.6797158,19.2174923 C35.5159199,19.2703818 35.3649206,19.2948916 35.2292772,19.2948916 C34.9490327,19.2948916 34.7340506,19.2097523 34.584331,19.0381837 C34.4333316,18.8653251 34.3591116,18.6344169 34.3591116,18.3467492 C34.3591116,18.0100619 34.4666027,17.7572239 34.6815848,17.5882353 L34.6815848,17.5882353 Z M41.5661295,19.2329721 C41.5111044,19.248452 41.4535199,19.2587719 41.3920964,19.2652219 C41.289724,19.2845717 41.1732754,19.2948916 41.0440302,19.2948916 C40.8456837,19.2948916 40.6870064,19.2703818 40.5679985,19.2226522 C40.4477109,19.1749226 40.3581351,19.1026832 40.2967116,19.004644 C40.2352882,18.9091847 40.1943392,18.7853457 40.1738647,18.6331269 C40.1533902,18.4809082 40.143153,18.3028896 40.143153,18.0952012 L40.143153,15.3010836 L41.4125709,15.3010836 L41.4125709,14.6831785 L40.143153,14.6831785 L40.143153,12.6179051 L39.4060716,12.6179051 L39.4060716,14.6831785 L38.5563806,14.6831785 L38.5563806,15.3010836 L39.4060716,15.3010836 L39.4060716,18.2074303 C39.4060716,18.7930857 39.5186813,19.2278122 39.7439006,19.5103199 C39.9691199,19.7954076 40.3606944,19.9347265 40.9211833,19.9347265 C40.9954033,19.9347265 41.070903,19.9334365 41.1464027,19.9295666 C41.2206227,19.9256966 41.289724,19.9179567 41.3511475,19.9050568 C41.4253675,19.8986068 41.4970282,19.8869969 41.5661295,19.872807 L41.5661295,19.2329721 Z M45.3027226,14.7244582 C45.1721978,14.7038184 45.0391137,14.6831785 44.9034702,14.6612487 C44.7870216,14.6483488 44.6500985,14.6328689 44.4939806,14.6148091 C44.336583,14.5980392 44.1766261,14.5902993 44.0128302,14.5902993 C43.7121113,14.5902993 43.4549006,14.626419 43.2399185,14.6986584 C43.0249364,14.7696078 42.848344,14.870227 42.7127006,14.997936 C42.5757775,15.126935 42.4746847,15.2752838 42.410702,15.4442724 C42.3454395,15.6132611 42.3134482,15.7925697 42.3134482,15.9860681 C42.3134482,16.2969556 42.3748716,16.5420537 42.4977185,16.7265222 C42.6205654,16.9071207 42.774124,17.0554696 42.9583944,17.1651187 C43.1426647,17.2760578 43.3435706,17.3624871 43.5623916,17.4295666 C43.779933,17.495356 43.9821185,17.5675955 44.1663888,17.6514448 C44.3506592,17.7327141 44.5042178,17.8372033 44.6270647,17.9623323 C44.7499116,18.0861713 44.8113351,18.2603199 44.8113351,18.4886481 C44.8113351,18.5712074 44.7985385,18.6602167 44.7755047,18.751806 C44.7511913,18.8446852 44.703844,18.9324045 44.6321833,19.0110939 C44.5605226,19.0910733 44.4632688,19.1581527 44.3404219,19.2136223 C44.2175751,19.2690918 44.0537792,19.2948916 43.8490344,19.2948916 C43.6775606,19.2948916 43.5060868,19.2832817 43.3320537,19.2600619 C43.1580206,19.2342621 42.9993433,19.2071723 42.856022,19.1710526 C42.6845482,19.1362229 42.5207523,19.0962332 42.3646344,19.0485036 L42.3646344,19.7425181 C42.5079558,19.7837977 42.6615144,19.8160475 42.8253102,19.8444272 C42.9609537,19.870227 43.1183513,19.8934469 43.2962233,19.9102167 C43.4728157,19.9256966 43.6570861,19.9347265 43.8490344,19.9347265 C44.1766261,19.9347265 44.4491926,19.8934469 44.6680137,19.8070175 C44.8855551,19.7205882 45.0595882,19.6070691 45.190113,19.4677503 C45.3193582,19.3258514 45.4114933,19.1658927 45.4665185,18.9891641 C45.520264,18.8085655 45.5484164,18.630547 45.5484164,18.4525284 C45.5484164,18.1158411 45.486993,17.8488132 45.3641461,17.6501548 C45.2412992,17.4502064 45.0851813,17.2941176 44.8983516,17.1805986 C44.7102423,17.0670795 44.5067771,16.9754902 44.2892357,16.9071207 C44.0704147,16.8400413 43.8669495,16.7665119 43.6801199,16.6916925 C43.4920106,16.6168731 43.3371723,16.5188338 43.2143254,16.3988648 C43.0914785,16.2776058 43.0300551,16.1073271 43.0300551,15.8880289 C43.0300551,15.7177503 43.0978768,15.5616615 43.2347999,15.4197626 C43.3704433,15.2804438 43.6302133,15.2082043 44.0128302,15.2082043 C44.1625499,15.2082043 44.3122695,15.2198142 44.4632688,15.2391641 L44.8829957,15.2817337 C45.0263171,15.3075335 45.1657995,15.3333333 45.3027226,15.3526832 L45.3027226,14.7244582 Z M48.1691502,18.3364293 C48.0936506,18.1016512 48.0168712,17.8655831 47.9388123,17.623065 C47.8594737,17.3831269 47.8070078,17.1934985 47.780135,17.0567595 L47.3092219,14.6831785 L46.4902426,14.6831785 L47.0225792,17.0567595 C47.0635281,17.247678 47.1377481,17.500516 47.2477985,17.8152735 C47.3565692,18.128741 47.4691788,18.4344685 47.5856275,18.7376161 C47.7212709,19.0897833 47.8722702,19.4561404 48.0360661,19.8431373 L48.8448081,19.8431373 C49.008604,19.4651703 49.1583237,19.1001032 49.2952468,18.747936 C49.4104157,18.4460784 49.5255847,18.1390609 49.6381943,17.8243034 C49.750804,17.5108359 49.8301426,17.255418 49.8787695,17.0567595 L50.4213433,14.6831785 L49.6330757,14.6831785 L49.1621626,17.0567595 C49.1276119,17.2076883 49.0751461,17.4011868 49.0034854,17.6398349 C48.9318247,17.875903 48.8550454,18.1119711 48.7731474,18.3467492 C48.6771733,18.621517 48.5748009,18.9066047 48.4660302,19.2033024 C48.3559799,18.8988648 48.2574464,18.6111971 48.1691502,18.3364293 L48.1691502,18.3364293 Z M54.9973902,18.9453044 C54.8259164,19.0123839 54.6518833,19.0717234 54.4752909,19.119453 C54.3178933,19.1620227 54.1489788,19.1994324 53.9685474,19.2329721 C53.7868364,19.2690918 53.6076847,19.2845717 53.4310923,19.2845717 C53.1853985,19.2845717 52.9806536,19.2432921 52.8168578,19.1633127 C52.6530619,19.0794634 52.5199778,18.9672343 52.4176054,18.8240454 C52.3152329,18.6795666 52.2397333,18.5079979 52.1923861,18.3054696 C52.1437592,18.1042312 52.1104881,17.8836429 52.0900136,17.6449948 L53.0932633,17.6449948 C53.3312792,17.6449948 53.5705747,17.623065 53.8098702,17.5830753 C54.047886,17.5417957 54.2615885,17.4592363 54.4496978,17.3379773 C54.6365274,17.2192982 54.790086,17.0528896 54.9103736,16.8426213 C55.0293816,16.6323529 55.0895253,16.3575851 55.0895253,16.0183179 C55.0895253,15.5436017 54.946204,15.1836945 54.6595612,14.9411765 C54.3729185,14.7012384 53.9839033,14.5799794 53.4925157,14.5799794 C53.1777205,14.5799794 52.8897981,14.6367389 52.6274688,14.750258 C52.3638598,14.8624871 52.1373609,15.0366357 51.9466923,15.2714138 C51.754744,15.504902 51.606304,15.7951496 51.5013723,16.1434469 C51.3951609,16.4891641 51.342695,16.8955108 51.342695,17.3547472 C51.342695,18.1597007 51.5013723,18.7892157 51.8187267,19.2432921 C52.1360812,19.6986584 52.6287485,19.9244066 53.2980081,19.9244066 C53.5296257,19.9244066 53.7484467,19.9102167 53.9531916,19.877967 C54.1579364,19.8482972 54.3383678,19.8108875 54.4957654,19.7696078 C54.6723578,19.7218782 54.8399926,19.6664087 54.9973902,19.6044892 L54.9973902,18.9453044 Z M52.0797764,17.0245098 C52.0861747,16.7768318 52.122005,16.5407637 52.1872674,16.3188854 C52.2512502,16.0982972 52.3421057,15.9035088 52.4585543,15.7371001 C52.5737233,15.5719814 52.719604,15.4416925 52.8936371,15.3449432 C53.0676702,15.246904 53.2672964,15.1978844 53.4925157,15.1978844 C53.7714805,15.1978844 53.9851829,15.2752838 54.1323433,15.4262126 C54.278224,15.5784314 54.352444,15.7925697 54.352444,16.0699174 C54.352444,16.3614551 54.2500716,16.5923633 54.0453267,16.7652219 C53.8405819,16.9393705 53.5232274,17.0245098 53.0932633,17.0245098 L52.0797764,17.0245098 Z M59.1229984,14.5902993 C58.8837029,14.5761094 58.6546446,14.6006192 58.4371033,14.6664087 C58.2182822,14.7334881 58.0199357,14.8031476 57.8433433,14.877967 C57.6385984,14.9682663 57.4440909,15.0753354 57.2598205,15.1978844 L57.1574481,14.6831785 L56.5943998,14.6831785 L56.5943998,19.8431373 L57.3314812,19.8431373 L57.3314812,15.74484 C57.5157515,15.6416409 57.7064202,15.5539216 57.9047667,15.4765222 C58.0749609,15.4081527 58.2656295,15.3513932 58.4780522,15.3062436 C58.6891953,15.2610939 58.9041774,15.249484 59.1229984,15.2714138 L59.1229984,14.5902993 Z M65.0183698,19.8431373 C65.1412167,19.4561404 65.2538263,19.0897833 65.3561988,18.7376161 C65.4457746,18.4344685 65.5276725,18.130031 65.6018925,17.8191434 C65.6773922,17.5095459 65.7285784,17.255418 65.7554512,17.0567595 L66.0420939,14.6831785 L65.2640636,14.6831785 L65.028607,17.0567595 C65.0158105,17.1999484 64.9850988,17.3921569 64.9364719,17.6346749 C64.8891246,17.874613 64.8379384,18.1119711 64.7829132,18.3467492 C64.7214898,18.621517 64.6536681,18.9066047 64.5781684,19.2033024 L63.3804112,14.6831785 L62.6433298,14.6831785 L61.4455726,19.2033024 C61.3713526,18.8988648 61.3022512,18.6111971 61.2408277,18.3364293 C61.1870822,18.1016512 61.135896,17.8655831 61.0872691,17.623065 C61.0399219,17.3831269 61.0092101,17.1934985 60.9951339,17.0567595 L60.7596774,14.6831785 L59.9406981,14.6831785 L60.2375781,17.0567595 C60.2580526,17.247678 60.3079591,17.500516 60.3860181,17.8152735 C60.4653567,18.128741 60.5485343,18.4344685 60.6368305,18.7376161 C60.7392029,19.0897833 60.8492533,19.4561404 60.9644222,19.8431373 L61.8755367,19.8431373 L62.991396,15.6016512 L64.1277298,19.8431373 L65.0183698,19.8431373 Z M67.5162567,15.5500516 C67.7210015,15.4881321 67.9257463,15.4326625 68.1304912,15.3849329 C68.3083632,15.3436533 68.4990318,15.3023736 68.7037767,15.2649639 C68.9085215,15.2288442 69.1004698,15.2082043 69.2770622,15.2082043 C69.6532808,15.2082043 69.9066525,15.2765738 70.0397367,15.4107327 C70.1728208,15.5474716 70.2393629,15.7899897 70.2393629,16.1447368 L70.2393629,16.745872 L69.0313684,16.745872 C68.772878,16.745872 68.5323029,16.7845717 68.3096429,16.8593911 C68.0882625,16.9367905 67.8988736,17.0451496 67.741476,17.1844685 C67.5853581,17.3263674 67.4625112,17.499226 67.3729353,17.7069143 C67.2846391,17.9133127 67.2398512,18.1455108 67.2398512,18.4086687 C67.2398512,18.6150671 67.2692832,18.8098555 67.3268677,18.996904 C67.3857318,19.1813725 67.4740281,19.3426213 67.593036,19.4819401 C67.7133236,19.6186791 67.8643229,19.7283282 68.0485932,19.8108875 C68.2328636,19.8947368 68.4555236,19.9347265 68.7140139,19.9347265 C68.891886,19.9347265 69.0723174,19.9050568 69.2565877,19.8431373 C69.440858,19.7799278 69.6123318,19.7115583 69.7684498,19.6367389 C69.9463218,19.5464396 70.1267532,19.4432405 70.3110236,19.3258514 L70.413396,19.8431373 L70.9764442,19.8431373 L70.9764442,15.9615583 C70.9764442,15.6932405 70.9457325,15.4713622 70.8843091,15.2959236 C70.8228856,15.121775 70.7294708,14.9811662 70.6027849,14.877967 C70.4773787,14.7747678 70.3161422,14.7012384 70.1216346,14.6560888 C69.927127,14.6109391 69.6967891,14.5902993 69.4306208,14.5902993 C69.1785287,14.5902993 68.9379536,14.6057792 68.7088953,14.6418989 C68.4811167,14.6741486 68.2776515,14.7076883 68.0997794,14.743808 C67.8886363,14.7915377 67.6941287,14.8418473 67.5162567,14.8973168 L67.5162567,15.5500516 Z M68.2994056,17.5882353 C68.5143877,17.4192466 68.7856746,17.3353973 69.1132663,17.3353973 L70.2393629,17.3353973 L70.2393629,18.7698658 C70.075567,18.873065 69.9117711,18.9607843 69.7479753,19.0381837 C69.6123318,19.1065531 69.4613325,19.1658927 69.2975367,19.2174923 C69.1337408,19.2703818 68.9840211,19.2948916 68.847098,19.2948916 C68.5681332,19.2948916 68.3531512,19.2097523 68.2021518,19.0381837 C68.0524322,18.8653251 67.9769325,18.6344169 67.9769325,18.3467492 C67.9769325,18.0100619 68.0844236,17.7572239 68.2994056,17.5882353 L68.2994056,17.5882353 Z M72.7167753,19.8431373 L73.4538566,19.8431373 L73.4538566,12 L72.7167753,12 L72.7167753,19.8431373 Z M77.6818373,19.2329721 C77.6280918,19.248452 77.5692277,19.2587719 77.5078042,19.2652219 C77.4054318,19.2845717 77.2902628,19.2948916 77.159738,19.2948916 C76.9626711,19.2948916 76.8039939,19.2703818 76.6837063,19.2226522 C76.5646984,19.1749226 76.4738428,19.1026832 76.4124194,19.004644 C76.3509959,18.9091847 76.310047,18.7853457 76.2895725,18.6331269 C76.269098,18.4809082 76.2588608,18.3028896 76.2588608,18.0952012 L76.2588608,15.3010836 L77.5282787,15.3010836 L77.5282787,14.6831785 L76.2588608,14.6831785 L76.2588608,12.6179051 L75.5217794,12.6179051 L75.5217794,14.6831785 L74.6720884,14.6831785 L74.6720884,15.3010836 L75.5217794,15.3010836 L75.5217794,18.2074303 C75.5217794,18.7930857 75.634389,19.2278122 75.8596084,19.5103199 C76.0848277,19.7954076 76.4776818,19.9347265 77.0368911,19.9347265 C77.1123908,19.9347265 77.1878904,19.9334365 77.2621104,19.9295666 C77.3376101,19.9256966 77.4054318,19.9179567 77.4668552,19.9050568 C77.5423549,19.8986068 77.6140156,19.8869969 77.6818373,19.872807 L77.6818373,19.2329721 Z M78.7362732,14.6831785 L78.7362732,18.4899381 C78.7362732,18.6563467 78.7529087,18.8227554 78.7874594,18.9917441 C78.8220101,19.1607327 78.8885521,19.3155315 78.9870856,19.4548504 C79.085619,19.5954592 79.2263811,19.7115583 79.4068125,19.8018576 C79.5872439,19.8895769 79.8252597,19.9347265 80.1183008,19.9347265 C80.3294439,19.9347265 80.5418666,19.9050568 80.7530097,19.8431373 C80.9641528,19.7799278 81.1561011,19.7115583 81.3262952,19.6367389 C81.5246418,19.5464396 81.7153104,19.4432405 81.8995807,19.3258514 L82.0019532,19.8431373 L82.5650014,19.8431373 L82.5650014,14.6831785 L81.8279201,14.6831785 L81.8279201,18.7879257 C81.6641242,18.8924149 81.4939301,18.9827141 81.316058,19.0575335 C81.1663383,19.125903 80.9987035,19.1865325 80.8144332,19.2381321 C80.6301628,19.2897317 80.4497314,19.3168215 80.2718594,19.3168215 C80.1016652,19.3168215 79.9647421,19.2910217 79.8623697,19.2432921 C79.7599973,19.1968524 79.679379,19.125903 79.6217945,19.0381837 C79.5642101,18.9478844 79.5245408,18.8382353 79.5040663,18.7053664 C79.4835918,18.5737874 79.4733545,18.4267286 79.4733545,18.2603199 L79.4733545,14.6831785 L78.7362732,14.6831785 Z M88.1545352,19.8431373 L88.1545352,16.0350877 C88.1545352,15.869969 88.1378997,15.7035604 88.103349,15.5332817 C88.0687983,15.3642931 88.0022562,15.2094943 87.9037228,15.0701754 C87.8051893,14.9282766 87.6644273,14.8121775 87.4839959,14.7231682 C87.3035645,14.6354489 87.0655487,14.5902993 86.7725076,14.5902993 C86.5613645,14.5902993 86.3489418,14.621259 86.1377987,14.6883385 C85.9266556,14.754128 85.7347073,14.8224974 85.5645131,14.8998968 C85.3661666,14.9876161 85.175498,15.0882353 84.9912276,15.1978844 L84.8888552,14.6831785 L84.3258069,14.6831785 L84.3258069,19.8431373 L85.0628883,19.8431373 L85.0628883,15.7358101 C85.2266842,15.6390609 85.3968783,15.5539216 85.5747504,15.4765222 C85.72447,15.4081527 85.8921049,15.3462332 86.0763752,15.2920537 C86.2606456,15.2365841 86.4410769,15.2082043 86.618949,15.2082043 C86.7891431,15.2082043 86.9260662,15.2340041 87.0284387,15.2817337 C87.1308111,15.3307534 87.2114293,15.3991228 87.2690138,15.4894221 C87.3265983,15.5771414 87.3662676,15.6880805 87.3867421,15.8196594 C87.4072166,15.9499484 87.4174538,16.0995872 87.4174538,16.2634159 L87.4174538,19.8431373 L88.1545352,19.8431373 Z M90.4579145,15.9267286 C90.5257362,15.7577399 90.6153121,15.6171311 90.7240828,15.5074819 C90.8328535,15.3991228 90.9582597,15.3165635 91.0977421,15.2649639 C91.2372245,15.2133643 91.3754273,15.1875645 91.5123504,15.1875645 C91.7439679,15.1875645 91.9461535,15.2211042 92.1163476,15.2868937 C92.2865417,15.3513932 92.4298631,15.4210526 92.5463117,15.498452 C92.6755569,15.5861713 92.7881666,15.6893705 92.8841407,15.8080495 L92.8841407,16.5291538 C92.8841407,16.9909701 92.7612938,17.3341073 92.5156,17.5559856 C92.2699062,17.7791538 91.9691873,17.8913829 91.6147228,17.8913829 C91.2602583,17.8913829 90.960819,17.7791538 90.7189642,17.5559856 C90.4771093,17.3341073 90.3555421,16.9909701 90.3555421,16.5291538 C90.3555421,16.2969556 90.3900928,16.0957172 90.4579145,15.9267286 L90.4579145,15.9267286 Z M90.6421848,19.9347265 C90.6831338,19.9411765 90.7292014,19.9476264 90.7803876,19.9514964 C90.8315738,19.9553664 90.8878786,19.9566563 90.9493021,19.9566563 L92.2391945,19.9566563 C92.3825159,19.9566563 92.519439,19.9656863 92.6486841,19.9811662 C92.7779293,19.999226 92.890539,20.0301858 92.9865131,20.0779154 C93.0824872,20.126935 93.1592666,20.1940144 93.216851,20.2843137 C93.2744355,20.372033 93.3038676,20.4894221 93.3038676,20.6313209 C93.3038676,20.7757998 93.261639,20.8996388 93.1759021,21.0067079 C93.0901652,21.1124871 92.9724369,21.2002064 92.8227172,21.2672859 C92.6729976,21.3356553 92.4964052,21.3872549 92.2954993,21.4207946 C92.0945935,21.4569143 91.8770521,21.4736842 91.6454345,21.4736842 C91.4138169,21.4736842 91.2001145,21.4594943 91.0056069,21.4311146 C90.8110993,21.4053148 90.6434645,21.3614551 90.5039821,21.2995356 C90.3644997,21.2376161 90.2544493,21.1563467 90.1763904,21.0570175 C90.0983314,20.9576883 90.0586621,20.8338493 90.0586621,20.6829205 C90.0586621,20.5668215 90.0829755,20.4597523 90.1303228,20.3604231 C90.17767,20.2610939 90.2288562,20.1785346 90.2838814,20.1101651 C90.3517031,20.0340557 90.4272028,19.9669763 90.5091007,19.9050568 C90.5500497,19.9179567 90.5948376,19.9282766 90.6421848,19.9347265 L90.6421848,19.9347265 Z M89.8795104,21.6904025 C90.2237376,21.8968008 90.7893452,22 91.5737738,22 C92.3658804,22 92.9673183,21.8658411 93.3806469,21.6013932 C93.7939755,21.3369453 94,20.9886481 94,20.5552116 C94,20.128225 93.8669159,19.8173375 93.6007476,19.626419 C93.3345793,19.4329205 92.9417252,19.3361713 92.4234648,19.3361713 L91.1438097,19.3361713 C90.8776414,19.3361713 90.6895321,19.2948916 90.5807614,19.2136223 C90.4719907,19.129773 90.4169655,19.0201238 90.4169655,18.8833849 C90.4169655,18.5995872 90.6664983,18.4602683 91.1642842,18.4602683 L91.6147228,18.4602683 C91.880891,18.4602683 92.1329831,18.4189886 92.3722786,18.3415893 C92.6115741,18.2616099 92.8214376,18.1416409 93.001869,17.9803922 C93.1823003,17.8191434 93.328181,17.6114551 93.4369517,17.3599071 C93.5457224,17.1096491 93.6007476,16.8116615 93.6007476,16.4685243 L93.6007476,14.6831785 L93.0479366,14.6831785 L92.9455641,15.1978844 C92.8291155,15.0882353 92.6934721,14.9876161 92.5360745,14.8998968 C92.3991514,14.8224974 92.2353555,14.754128 92.0446869,14.6883385 C91.8540183,14.621259 91.6351973,14.5902993 91.3895035,14.5902993 C91.1847586,14.5902993 90.9787342,14.630289 90.7701504,14.7076883 C90.5615666,14.7876677 90.3747369,14.9102167 90.2071021,15.0753354 C90.0394673,15.2391641 89.9012645,15.4481424 89.7924938,15.6996904 C89.6837231,15.9499484 89.628698,16.245356 89.628698,16.5820433 C89.628698,16.8851909 89.6709266,17.1328689 89.7566635,17.3302374 C89.8424004,17.5263158 89.9396542,17.6811146 90.0484248,17.7997936 C90.1712717,17.9365325 90.3145931,18.0423117 90.478389,18.119711 C90.3350676,18.1455108 90.2083817,18.1984004 90.0996111,18.2732198 C90.0036369,18.3377193 89.9166204,18.4254386 89.8385614,18.5428277 C89.7605024,18.6615067 89.7208331,18.8124355 89.7208331,19.000774 C89.7208331,19.1155831 89.7374686,19.2187822 89.7720193,19.3052116 C89.80657,19.3903509 89.84368,19.4625903 89.884629,19.5180599 C89.9319762,19.5864293 89.9908404,19.6393189 90.0586621,19.6715686 C89.9294169,19.7425181 89.8129683,19.8302374 89.7105959,19.9398865 C89.6222997,20.0353457 89.5416814,20.1527348 89.4700207,20.2907637 C89.39836,20.4287926 89.3625297,20.5848813 89.3625297,20.7641899 C89.3625297,21.1756966 89.5352831,21.4840041 89.8795104,21.6904025 L89.8795104,21.6904025 Z" id="Fill-15" fill="#000000"></path>
            </g>
        </g>
    </g>
</svg>