<?xml version="1.0" encoding="UTF-8"?>
<svg width="400px" height="500px" viewBox="0 0 400 500" version="1.1" xmlns="http://www.w3.org/2000/svg" xmlns:xlink="http://www.w3.org/1999/xlink">
    <!-- Generator: Sketch 61.1 (89650) - https://sketch.com -->
    <title>bg-slides-red</title>
    <desc>Created with Sketch.</desc>
    <g id="bg-slides-red" stroke="none" stroke-width="1" fill="none" fill-rule="evenodd" stroke-linecap="round" stroke-linejoin="round">
        <path d="M141.5,449.5 L177.016506,449.651799 C180.494979,449.651799 183.329503,446.8589 183.380921,443.380427 L183.823279,413.281267 C183.920402,406.702203 192.715341,404.576106 195.806138,410.3839 L224.137496,463.615479 C227.252778,469.467345 236.121987,467.253919 236.121987,460.625069 L235.92561,420.984991" id="Path-Copy-3" stroke="#F62A86" stroke-width="10"></path>
        <path d="M235.5,409.5 L236.019657,376.781267 C236.11678,370.202203 244.911719,368.076106 248.002516,373.8839 L289.621987,449 L400,449" id="Path-Copy-4" stroke="#F62A86" stroke-width="10"></path>
        <path d="M209,103 L274.354881,102.915499 L274.88624,46.438891 C274.954876,41.7895504 281.170146,40.2870653 283.354373,44.3913585 L312,96.5" id="Path-Copy-11" stroke="#F62A86" stroke-width="10"></path>
        <path d="M318.586991,105.277843 C321.937707,111.573479 326.963781,121.016932 333.665213,133.608202 C335.866743,137.743641 342.134499,136.179442 342.134499,131.494918 L342.100198,102.994697 L400,103" id="Path-Copy-12" stroke="#FC0287" stroke-width="10"></path>
        <path d="M0,208.5 L64.8277697,208.380427 L65.2707009,178.281267 C65.3679496,171.702203 74.1742712,169.576106 77.2690689,175.3839 C103.759584,221.670079 120.169894,250.752275 126.5,262.630488 C129.619312,268.482354 138.5,266.268928 138.5,259.640078 L138.303368,220" id="Path-Copy-13" stroke="#F62A86" stroke-width="10"></path>
        <path d="M138.5,207 L138.867968,176.281267 C138.965091,169.702203 147.76003,167.576106 150.850828,173.3839 L171.181635,209 L221,209" id="Path-Copy-14" stroke="#F62A86" stroke-width="10"></path>
        <line x1="0" y1="103" x2="197.125" y2="103" id="Path-6-Copy-7" stroke="#F62A86" stroke-width="10"></line>
        <line x1="-7.38964445e-13" y1="449" x2="128.3125" y2="449" id="Path-6-Copy-9" stroke="#F62A86" stroke-width="10"></line>
        <line x1="232.9375" y1="209" x2="400" y2="209" id="Path-6-Copy-8" stroke="#F62A86" stroke-width="10"></line>
    </g>
</svg>