<?xml version="1.0" encoding="UTF-8"?>
<svg width="400px" height="500px" viewBox="0 0 400 500" version="1.1" xmlns="http://www.w3.org/2000/svg" xmlns:xlink="http://www.w3.org/1999/xlink">
    <!-- Generator: Sketch 61.1 (89650) - https://sketch.com -->
    <title>bg-slides-green</title>
    <desc>Created with Sketch.</desc>
    <g id="bg-slides-green" stroke="none" stroke-width="1" fill="none" fill-rule="evenodd" stroke-linecap="round" stroke-linejoin="round">
        <path d="M285.5,64.5 C290.241441,73.4086595 299.85756,93.8131687 309.340443,111.630488 C312.455725,117.482354 321.324934,115.268928 321.324934,108.640078 L321.128556,71.5 L400,71.5" id="Path-Copy-8" stroke="#3ECF90" stroke-width="10"></path>
        <path d="M216,70.5 C220.741441,79.4086595 229.536582,96.8131687 239.019465,114.630488 C242.134747,120.482354 251.003956,118.268928 251.003956,111.640078 L251.446315,29.2812673 C251.543438,22.7022026 260.338376,20.5761061 263.429174,26.3838997 C270.244945,38.6852121 275.356773,47.9111964 278.764658,54.0618526" id="Path" stroke="#3ECF90" stroke-width="10"></path>
        <path d="M183,105 L183.446315,34.9008403 C183.543438,28.3217756 192.338376,26.1956791 195.429174,32.0034727 C202.244945,44.3047851 206.592115,53.8493438 210,60" id="Path-Copy" stroke="#3ECF90" stroke-width="10"></path>
        <path d="M2.77111667e-13,456 L34.8404135,456.151799 C38.3188868,456.151799 41.15341,453.3589 41.2048281,449.880427 L41.6471867,419.781267 C41.7443098,413.202203 50.5392485,411.076106 53.6300459,416.8839 L81.9614034,470.115479 C85.0766856,475.967345 93.9458949,473.753919 93.9458949,467.125069 L93.7495172,427.484991" id="Path-Copy-5" stroke="#3ECF90" stroke-width="10"></path>
        <path d="M93.5,415 L93.8435645,383.281267 C93.9406875,376.702203 102.735626,374.576106 105.826424,380.3839 L147.445895,455.5 L219,455.5" id="Path-Copy-7" stroke="#3ECF90" stroke-width="10"></path>
        <path d="M-2.55795385e-13,302.5 L181.424773,302.540691 C186.164668,311.446445 193.27451,324.805075 202.7543,342.616583 C205.868566,348.46654 214.734883,346.253836 214.734883,339.627148 L214.538569,302 L260.5,302" id="Path-Copy-23" stroke="#3ECF90" stroke-width="10"></path>
        <path d="M274,302 L311.536346,301.641573 L312.103472,263.052907 C312.227989,254.618208 323.503552,251.892444 327.466112,259.338333 L351.495014,302 L400,302" id="Path-Copy-17" stroke="#3ECF90" stroke-width="10"></path>
        <line x1="0" y1="72" x2="168" y2="72" id="Path-6-Copy-9" stroke="#3ECF90" stroke-width="10"></line>
        <line x1="232" y1="455.5" x2="400" y2="455.5" id="Path-6-Copy-10" stroke="#3ECF90" stroke-width="10"></line>
    </g>
</svg>