<?xml version="1.0" encoding="UTF-8"?>
<svg width="400px" height="500px" viewBox="0 0 400 500" version="1.1" xmlns="http://www.w3.org/2000/svg" xmlns:xlink="http://www.w3.org/1999/xlink">
    <!-- Generator: Sketch 61.1 (89650) - https://sketch.com -->
    <title>bg-slides-black</title>
    <desc>Created with Sketch.</desc>
    <g id="bg-slides-black" stroke="none" stroke-width="1" fill="none" fill-rule="evenodd" stroke-linecap="round" stroke-linejoin="round">
        <path d="M82.1764097,95 L146.920385,94.880427 L147.362743,64.7812673 C147.459866,58.2022026 156.254805,56.0761061 159.345602,61.8838997 L179.67641,97.5" id="Path-Copy-15" stroke="#484848" stroke-width="10"></path>
        <path d="M186.5,107.5 C191.241441,116.408659 200.030013,130.313169 209.512896,148.130488 C212.628179,153.982354 221.497388,151.768928 221.497388,145.140078 L221.044378,62.2812673 C221.141501,55.7022026 229.93644,53.5761061 233.027237,59.3838997 L253.358045,95 L400,95" id="Path-Copy-16" stroke="#484848" stroke-width="10"></path>
        <path d="M265.274745,415.380427 L265.717103,385.281267 C265.814226,378.702203 274.609165,376.576106 277.699962,382.3839 C282.561318,391.157824 308.128348,435.376305 317.611231,453.193624 C320.726514,459.04549 329.595723,456.832064 329.595723,450.203214 L329.317035,428.190214 L399.817035,428.190214" id="Path-Copy-4" stroke="#484848" stroke-width="10"></path>
        <path d="M79.640625,428.190214 L230.5,428 C239.506766,444.668921 247.17111,458.942489 253.493032,470.820701 C256.608314,476.672567 265.477524,474.459142 265.477524,467.830291 L265.281146,428.190214" id="Path-Copy-28" stroke="#484848" stroke-width="10"></path>
        <path d="M-2.4158453e-13,286.5 L79.1853805,286.380427 L79.6277391,256.281267 C79.7248621,249.702203 88.5198009,247.576106 91.6105983,253.3839 C96.471954,262.157824 101.069322,269.613038 103.5,274" id="Path-Copy-4" stroke="#484848" stroke-width="10"></path>
        <path d="M109.5,284 C114.241441,292.908659 122.038984,305.813169 131.521867,323.630488 C134.637149,329.482354 143.506359,327.268928 143.506359,320.640078 L143.18538,266" id="Path-Copy-28" stroke="#484848" stroke-width="10"></path>
        <line x1="157" y1="286.5" x2="342" y2="286.5" id="Path-6-Copy-12" stroke="#484848" stroke-width="10"></line>
        <line x1="354.140625" y1="286.5" x2="400" y2="286.5" id="Path-6-Copy-15" stroke="#484848" stroke-width="10"></line>
        <line x1="0" y1="428.190214" x2="65.53125" y2="428.190214" id="Path-6-Copy-13" stroke="#484848" stroke-width="10"></line>
        <line x1="-1.84741111e-13" y1="95" x2="69.0982847" y2="95" id="Path-6-Copy-14" stroke="#484848" stroke-width="10"></line>
    </g>
</svg>