<?xml version="1.0" encoding="UTF-8"?>
<svg width="400px" height="500px" viewBox="0 0 400 500" version="1.1" xmlns="http://www.w3.org/2000/svg" xmlns:xlink="http://www.w3.org/1999/xlink">
    <!-- Generator: Sketch 61.1 (89650) - https://sketch.com -->
    <title>bg-slides-yellow</title>
    <desc>Created with Sketch.</desc>
    <g id="bg-slides-yellow" stroke="none" stroke-width="1" fill="none" fill-rule="evenodd" stroke-linecap="round" stroke-linejoin="round">
        <path d="M-5.68434189e-14,431.5 L179.757786,431.380427 L180.200145,401.281267 C180.297268,394.702203 189.092207,392.576106 192.183004,398.3839 C197.04436,407.157824 200.690377,413.738267 203.121054,418.125229" id="Path" stroke="#FFC100" stroke-width="10"></path>
        <path d="M53,245.380427 L53.4423586,215.281267 C53.5394817,208.702203 62.3344204,206.576106 65.4252178,212.3839 C70.2865735,221.157824 95.8536037,264.813169 105.336487,282.630488 C108.451769,288.482354 118.320978,286.268928 118.320978,279.640078 L117.763337,192.281267 C117.86046,185.702203 126.655399,183.576106 129.746196,189.3839 C134.607552,198.157824 149.069322,227.613038 151.5,232" id="Path-Copy" stroke="#FFC100" stroke-width="10"></path>
        <path d="M157.339511,242.54152 C162.080952,251.45018 169.193115,264.813169 178.675998,282.630488 C181.79128,288.482354 190.660489,286.268928 190.660489,279.640078 L190.900069,197.091054 C190.997192,190.511989 199.79213,188.385893 202.882928,194.193686 C207.744284,202.96761 211.3903,209.548053 213.820978,213.935015" id="Path-Copy-3" stroke="#FFC100" stroke-width="10"></path>
        <path d="M209.5,428.5 C214.241441,437.408659 222.61139,450.813169 232.094273,468.630488 C235.209555,474.482354 244.078764,472.268928 244.078764,465.640078 L243.757786,411" id="Path-Copy-24" stroke="#FFC100" stroke-width="10"></path>
        <path d="M220.5,224 C225.241441,232.908659 233.353604,247.186091 242.836487,265.00341 C245.951769,270.855276 254.820978,268.641851 254.820978,262.013 L254.54229,240 L400,240" id="Path-Copy-27" stroke="#FFC100" stroke-width="10"></path>
        <path d="M134.410489,70 L171.946835,69.6415731 L172.513962,31.0529068 C172.638478,22.6182084 183.914041,19.8924438 187.876601,27.338333 L212.03125,70.197718 L252.5,70" id="Path-Copy-18" stroke="#FFC100" stroke-width="10"></path>
        <path d="M264.5,70.5 L320.242196,70.5406911 C324.982091,79.4464447 332.091933,92.8050752 341.571723,110.616583 C344.685989,116.46654 353.552306,114.253836 353.552306,107.627148 L353.246617,70.4813401 L400,70.5" id="Path-Copy-24" stroke="#FFC100" stroke-width="10"></path>
        <line x1="-4.68958206e-13" y1="70.25" x2="121.5" y2="70.25" id="Path-6-Copy-12" stroke="#FFC100" stroke-width="10"></line>
        <line x1="258.976536" y1="431.5" x2="400" y2="431.5" id="Path-6-Copy-10" stroke="#FFC100" stroke-width="10"></line>
        <line x1="0.109375" y1="240" x2="39.265625" y2="240" id="Path-6-Copy-11" stroke="#FFC100" stroke-width="10"></line>
    </g>
</svg>