<?xml version="1.0" encoding="UTF-8"?>
<svg width="400px" height="500px" viewBox="0 0 400 500" version="1.1" xmlns="http://www.w3.org/2000/svg" xmlns:xlink="http://www.w3.org/1999/xlink">
    <!-- Generator: Sketch 61.1 (89650) - https://sketch.com -->
    <title>bg-slides-c</title>
    <desc>Created with Sketch.</desc>
    <g id="bg-slides-c" stroke="none" stroke-width="1" fill="none" fill-rule="evenodd" stroke-linecap="round" stroke-linejoin="round">
        <path d="M30.5,52.1557617 L62.2347085,52.0361887 L62.6770671,21.937029 C62.7741901,15.3579643 71.5691289,13.2318678 74.6599263,19.0396615 L94.9907336,54.6557617" id="Path-Copy-15" stroke="#F62A86" stroke-width="10"></path>
        <path d="M135.916343,49.380427 L136.358702,19.2812673 C136.455825,12.7022026 145.250764,10.5761061 148.341561,16.3838997 L168.672368,52 L218.490734,52" id="Path-Copy-16" stroke="#FFC100" stroke-width="10"></path>
        <path d="M102.490734,63.54152 C107.232175,72.4501795 114.344337,85.8131687 123.82722,103.630488 C126.942502,109.482354 135.811712,107.268928 135.811712,100.640078 L135.615334,61" id="Path-Copy-7" stroke="#FFC100" stroke-width="10"></path>
        <path d="M231.339511,317.194366 C236.080952,326.103026 245.017117,341.335527 254.5,359.152846 C257.615282,365.004712 266.484491,362.791287 266.484491,356.162436 L266.900069,271.7439 C266.997192,265.164835 275.79213,263.038739 278.882928,268.846532 C283.744284,277.620456 287.3903,284.200899 289.820978,288.587862" id="Path-Copy-5" stroke="#F62A86" stroke-width="10"></path>
        <path d="M157,317.54152 C161.741441,326.45018 168.853604,339.813169 178.336487,357.630488 C181.451769,363.482354 190.320978,361.268928 190.320978,354.640078 L190.763337,267.281267 C190.86046,260.702203 199.655399,258.576106 202.746196,264.3839 C207.607552,273.157824 222.069322,302.613038 224.5,307" id="Path-Copy-6" stroke="#3ECF90" stroke-width="10"></path>
        <path d="M296.45771,299.914443 C301.199151,308.823102 308.311314,322.186091 317.794197,340.00341 C320.909479,345.855276 329.778688,343.641851 329.778688,337.013 L329.5,315 L400,315" id="Path-Copy-30" stroke="#FFC100" stroke-width="10"></path>
        <path d="M74.5,315 L126,315 L126.442359,290.281267 C126.539482,283.702203 135.33442,281.576106 138.425218,287.3839 C143.286574,296.157824 146.93259,302.738267 149.363268,307.125229" id="Path-Copy-4" stroke="#6C79F3" stroke-width="10"></path>
        <path d="M158,158.5 L264.84474,158.380427 L265.287099,128.281267 C265.384222,121.702203 274.179161,119.576106 277.269958,125.3839 L296,158.5 L345,158.5" id="Path-Copy-18" stroke="#3ECF90" stroke-width="10"></path>
        <path d="M102.637441,450.651799 L137.5,450.5 L138.035111,414.281267 C138.132234,407.702203 146.927173,405.576106 150.01797,411.3839 C154.793946,420.357445 158.375927,427.087604 160.763915,431.574377" id="Path" stroke="#FFC100" stroke-width="10"></path>
        <path d="M165.923611,442.268891 C168.169858,446.489348 172.311764,454.271544 178.349328,465.615479 C181.46461,471.467345 190.333819,469.253919 190.333819,462.625069 L190.137441,422.984991" id="Path" stroke="#6C79F3" stroke-width="10"></path>
        <line x1="203" y1="451" x2="367.978227" y2="451" id="Path-6-Copy-6" stroke="#6C79F3" stroke-width="10"></line>
        <line x1="357.100397" y1="158.197718" x2="425.87783" y2="158.197718" id="Path-6-Copy-10" stroke="#3ECF90" stroke-width="10"></line>
        <line x1="-10.8778303" y1="158.197718" x2="146.100397" y2="158.197718" id="Path-6-Copy-11" stroke="#3ECF90" stroke-width="10"></line>
        <line x1="230.880078" y1="52" x2="340.62217" y2="52" id="Path-6-Copy-9" stroke="#F62A86" stroke-width="10"></line>
        <line x1="357.060954" y1="52" x2="466.803046" y2="52" id="Path-6-Copy-12" stroke="#6C79F3" stroke-width="10"></line>
        <line x1="-2.50926641" y1="52" x2="18.0712129" y2="52" id="Path-6-Copy-14" stroke="#6C79F3" stroke-width="10"></line>
        <line x1="1.4765625" y1="315" x2="62.3671875" y2="315" id="Path-6-Copy-13" stroke="#FFC100" stroke-width="10"></line>
        <line x1="-0.0951264139" y1="451" x2="89.8290144" y2="451" id="Path-6-Copy-7" stroke="#F62A86" stroke-width="10"></line>
        <line x1="380.787379" y1="451" x2="400.098227" y2="451" id="Path-6-Copy-8" stroke="#F62A86" stroke-width="10"></line>
    </g>
</svg>