<?xml version="1.0" encoding="UTF-8"?>
<svg width="24px" height="24px" viewBox="0 0 36 36" version="1.1" xmlns="http://www.w3.org/2000/svg" xmlns:xlink="http://www.w3.org/1999/xlink">
    <title>facebook</title>

    <g id="facebook" stroke="none" stroke-width="1" fill="none" fill-rule="evenodd">
        <path d="M31,1 C33.209139,1 35,2.790861 35,5 L35,31 C35,33.209139 33.209139,35 31,35 L5,35 C2.790861,35 1,33.209139 1,31 L1,5 C1,2.790861 2.790861,1 5,1 L31,1 Z M26,4 L21.6363636,4 C17.6197473,4 14.3636364,7.24593556 14.3636364,11.25 L14.3636364,15.6 L10,15.6 L10,21.4 L14.3636364,21.4 L14.3636364,33 L20.1818182,33 L20.1818182,21.4 L24.5454545,21.4 L26,15.6 L20.1818182,15.6 L20.1818182,11.25 C20.1818182,10.4491871 20.8330404,9.8 21.6363636,9.8 L26,9.8 L26,4 Z" id="Combined-Shape" fill="#000"></path>
    </g>
</svg>