<?xml version="1.0" encoding="UTF-8"?>
<svg width="24px" height="24px" viewBox="0 0 36 36" version="1.1" xmlns="http://www.w3.org/2000/svg" xmlns:xlink="http://www.w3.org/1999/xlink">
    <title>instagram</title>

    <g id="instagram" stroke="none" stroke-width="1" fill="none" fill-rule="evenodd">
        <g transform="translate(1.000000, 1.000000)" fill="#000" id="Combined-Shape">
            <path d="M29,0 C31.7614237,-5.07265313e-16 34,2.23857625 34,5 L34,29 C34,31.7614237 31.7614237,34 29,34 L5,34 C2.23857625,34 2.11453371e-15,31.7614237 0,29 L0,5 C-3.38176876e-16,2.23857625 2.23857625,2.28362215e-15 5,0 L29,0 Z M18.1733491,9.08689927 C14.7595317,8.58067305 11.4059094,10.3208021 9.85430798,13.4034871 C8.30270651,16.4861722 8.90294941,20.216392 11.3432787,22.6567213 C13.783608,25.0970506 17.5138278,25.6972935 20.5965129,24.145692 C23.6791979,22.5940906 25.4193269,19.2404683 24.9131007,15.8266509 C24.3961967,12.3408258 21.6591742,9.60380333 18.1733491,9.08689927 Z M28,4 C26.8954305,4 26,4.8954305 26,6 C26,7.1045695 26.8954305,8 28,8 C29.1045695,8 30,7.1045695 30,6 C30,4.8954305 29.1045695,4 28,4 Z"></path>
        </g>
    </g>
</svg>