<svg width="200" height="100" viewBox="0 0 200 120" fill="none" xmlns="http://www.w3.org/2000/svg">
<path d="M92.031 57.7304L91.8112 56.5017C89.8613 45.485 92.3853 34.1481 98.8279 24.9849C105.271 15.8217 115.104 9.58278 126.165 7.64069C137.227 5.69859 148.609 8.21238 157.81 14.6291C167.01 21.0457 173.274 30.8397 175.224 41.8563L175.444 43.0801L155.23 46.632L155.015 45.4082C154.587 42.5364 153.585 39.7792 152.069 37.2995C150.554 34.8197 148.554 32.6676 146.189 30.9704C143.824 29.2731 141.142 28.0651 138.3 27.4177C135.458 26.7702 132.515 26.6965 129.645 27.2008C126.774 27.7052 124.034 28.7773 121.586 30.354C119.139 31.9307 117.033 33.9799 115.394 36.3806C113.755 38.7814 112.615 41.4849 112.042 44.3316C111.47 47.1783 111.476 50.1104 112.06 52.9547L112.275 54.1785L92.031 57.7304Z" fill="white"/>
<path d="M198.143 102.662L129.635 90.6285L133.201 70.4961L201.704 82.5248L198.143 102.662Z" fill="white"/>
<path d="M17.719 85.7971L17.759 86.016L19.5721 96.2588L24.3471 95.4181L22.494 84.9714H22.539L22.7188 84.9415L27.4838 84.0958L26.8395 80.4395L12 83.0362L12.6493 86.6926L17.719 85.7971Z" fill="white"/>
<path d="M29.3105 79.5689L31.8779 94.0948L36.533 93.279L35.534 87.782C35.3299 86.9663 35.433 86.1045 35.8237 85.3593C36.0385 85.0409 36.3205 84.773 36.6501 84.5745C36.9797 84.376 37.3488 84.2517 37.7317 84.2102C37.9195 84.1752 38.1101 84.1569 38.3012 84.1555C39.2202 84.1555 40.399 84.6082 40.7985 86.7722L41.7975 92.3537L46.4576 91.5578L45.2789 84.8967C44.7045 81.6682 43.1461 80.0315 40.6487 80.0315C40.2566 80.0328 39.8654 80.0694 39.4799 80.1409C38.4173 80.251 37.4262 80.7255 36.6763 81.4833C35.9264 82.2411 35.4643 83.235 35.3692 84.2948L35.1445 85.5484L33.9707 78.748L29.3105 79.5689Z" fill="white"/>
<path d="M56.3015 77.3268C55.6567 77.331 55.0135 77.3892 54.3785 77.5009C52.3991 77.7596 50.5833 78.7311 49.2739 80.232C48.7491 80.8997 48.3763 81.6731 48.1814 82.4986C47.9865 83.3241 47.9741 84.1819 48.145 85.0126C48.4292 86.6055 49.3082 88.0322 50.6055 89.0058C51.9028 89.9794 53.522 90.4279 55.1377 90.2609C55.8629 90.2585 56.5865 90.1936 57.3005 90.0669C59.2817 89.7612 61.1454 88.9353 62.6998 87.674L62.1504 84.5798C60.9624 85.5524 59.5342 86.1897 58.0147 86.4254C57.4476 86.5272 56.8728 86.5805 56.2965 86.5846C55.7082 86.6338 55.1164 86.5497 54.5653 86.3386C54.0143 86.1276 53.5184 85.795 53.1148 85.3658L52.8751 85.0673L53.2497 85.0027L62.3602 83.4008L62.1504 82.2318C62.006 80.8178 61.3148 79.5152 60.2232 78.5997C59.1315 77.6843 57.7251 77.2277 56.3015 77.3268ZM52.5155 83.2964L52.5454 83.0029C52.6578 82.3727 52.9802 81.7987 53.4606 81.3735C53.9409 80.9484 54.5511 80.6969 55.1927 80.6598C55.4627 80.6084 55.7369 80.5817 56.0118 80.5802C56.5 80.5358 56.9895 80.6506 57.4065 80.9072C57.8236 81.1637 58.1457 81.5483 58.3244 82.003L58.4243 82.2616L58.1496 82.3064L52.5155 83.2964Z" fill="white"/>
<path d="M70.7885 80.0762C70.3831 80.0802 69.9787 80.1185 69.5798 80.1906C66.8227 80.6881 65.3043 82.459 65.7039 84.7374C65.8441 85.6359 66.3162 86.4497 67.0277 87.0194C67.7392 87.589 68.6387 87.8734 69.5498 87.8167C69.9065 87.8161 70.2625 87.7844 70.6137 87.7222C71.3983 87.6477 72.1507 87.3746 72.7994 86.9288C73.4481 86.483 73.9715 85.8793 74.3198 85.1752L74.6195 84.5185L74.7494 85.2299L74.9742 86.5283L79.4695 85.7373L78.4355 79.8473C78.3167 78.3286 77.6002 76.918 76.442 75.9229C75.2839 74.9278 73.7779 74.4288 72.252 74.5344C71.572 74.5375 70.8935 74.5991 70.2241 74.7185C68.2654 75.0109 66.4382 75.8767 64.9746 77.2058L65.549 80.4393C66.5139 79.4181 67.7871 78.7387 69.1752 78.5042C69.5739 78.4305 69.9784 78.3922 70.384 78.3898C71.1798 78.3051 71.9796 78.5104 72.6352 78.9677C73.2908 79.425 73.758 80.1033 73.9502 80.8771L74.125 81.5537L73.5856 81.1059C72.8158 80.4257 71.8175 80.0582 70.7885 80.0762V80.0762ZM71.6576 84.9862C71.2528 85.0358 70.8441 84.9318 70.5128 84.6949C70.1814 84.458 69.9518 84.1055 69.8695 83.7077C69.8263 83.4825 69.8387 83.2503 69.9057 83.0311C69.9727 82.8118 70.0923 82.6121 70.2541 82.4491C70.6487 82.0635 71.1592 81.8172 71.7076 81.7477C71.9444 81.7008 72.1854 81.6775 72.4268 81.678C73.4707 81.678 74.2 82.1456 74.3348 82.9018C74.3745 83.1473 74.3493 83.3989 74.2617 83.6318C74.1741 83.8647 74.0272 84.0708 73.8353 84.23C73.382 84.6099 72.8293 84.8532 72.242 84.9314C72.0491 84.9657 71.8536 84.984 71.6576 84.9862V84.9862Z" fill="white"/>
<path d="M82.8957 76.3502L82.9356 76.5641L83.6349 80.514C83.6632 81.0761 83.8045 81.6269 84.0505 82.1336C84.2965 82.6403 84.6422 83.0927 85.067 83.4638C85.4918 83.835 85.9872 84.1174 86.5237 84.2943C87.0602 84.4712 87.6269 84.539 88.1901 84.4937C89.8855 84.4683 91.5509 84.0439 93.0501 83.255L92.5506 80.3498C92.1186 80.6027 91.6423 80.7715 91.1471 80.8473C90.9066 80.8924 90.6625 80.9157 90.4178 80.9169C89.9128 80.9681 89.4071 80.8258 89.0035 80.5191C88.6 80.2123 88.3288 79.764 88.2451 79.2653L87.5808 75.5144H87.6257L87.8055 75.4846L91.6965 74.7981L91.1321 71.5994L87.0164 72.3257L86.9764 72.1068L86.5169 69.4951L81.9667 70.9875L82.3463 73.1415H82.3013L82.1265 73.1714L79.3594 73.6688L79.9238 76.8675L82.8957 76.3502Z" fill="white"/>
<path d="M102.538 69.2048C101.893 69.2068 101.249 69.2651 100.615 69.3789C98.6353 69.6334 96.8197 70.6058 95.515 72.11C94.9902 72.7778 94.6171 73.5511 94.4214 74.3764C94.2256 75.2017 94.2119 76.0595 94.3812 76.8906C94.6664 78.483 95.5458 79.9089 96.8428 80.8824C98.1398 81.8558 99.7584 82.3047 101.374 82.1389C102.099 82.1348 102.823 82.0682 103.537 81.9399C105.517 81.6347 107.381 80.8107 108.936 79.5521L108.387 76.4578C107.198 77.4287 105.77 78.0659 104.251 78.3034C103.691 78.4085 103.123 78.4634 102.553 78.4676C101.962 78.5173 101.368 78.4331 100.816 78.2211C100.263 78.0091 99.7654 77.675 99.361 77.2438L99.1262 76.9503L99.5008 76.8856L108.611 75.2838L108.402 74.1098C108.257 72.693 107.564 71.3881 106.469 70.4722C105.374 69.5564 103.964 69.1017 102.538 69.2048V69.2048ZM98.7566 75.1744L98.7866 74.8809C98.9006 74.2515 99.2235 73.6784 99.7035 73.2536C100.184 72.8287 100.793 72.5767 101.434 72.5378C101.704 72.4876 101.978 72.461 102.253 72.4582C102.742 72.415 103.231 72.5308 103.648 72.7883C104.065 73.0457 104.387 73.4308 104.566 73.8859L104.66 74.1396L104.391 74.1844L98.7566 75.1744Z" fill="white"/>
<path d="M110.721 68.1756L112.794 79.8958L117.464 79.075L116.829 75.4684C116.657 74.839 116.619 74.1804 116.72 73.5357C116.821 72.891 117.057 72.2748 117.414 71.7274C118.001 71.0284 118.833 70.5769 119.741 70.4639C120.375 70.3427 121.027 70.3579 121.654 70.5087L120.945 66.5289C120.604 66.4084 120.243 66.3494 119.881 66.3548C119.652 66.3551 119.423 66.3751 119.197 66.4145C117.329 66.7429 116.43 68.2004 116.38 70.9912V71.031H116.34L115.94 71.0608V71.021L115.291 67.3746L110.721 68.1756Z" fill="white"/>
<path d="M31.004 113.243C32.4193 113.759 33.9171 114.016 35.4243 113.999C36.3286 113.997 37.2311 113.918 38.1215 113.76C39.9626 113.519 41.6912 112.742 43.0913 111.527C43.6163 111.059 44.0121 110.465 44.2412 109.801C44.4703 109.138 44.5249 108.427 44.4 107.736C43.9704 105.318 42.3521 104.284 38.9856 104.284L36.4083 104.324H35.9838C35.0297 104.324 34.4553 104.199 34.3455 103.557C34.1706 102.563 35.8139 102.17 37.0626 101.951C37.8295 101.816 38.6065 101.748 39.3852 101.747C40.4413 101.738 41.4936 101.876 42.5119 102.155L41.9675 99.0206C40.8451 98.6264 39.6612 98.4344 38.4712 98.4534C37.5768 98.4594 36.6845 98.5409 35.8039 98.6972C33.8613 98.9202 32.0264 99.7035 30.5245 100.951C30.0437 101.389 29.6834 101.943 29.478 102.56C29.2726 103.176 29.2287 103.835 29.3507 104.473C29.7752 106.861 31.5534 107.955 34.9498 107.955H37.1725C38.4512 107.955 39.2753 108.119 39.4202 108.95C39.6 109.99 38.1015 110.378 36.9577 110.577C34.7656 110.939 32.5165 110.73 30.4296 109.97L31.004 113.243Z" fill="white"/>
<path d="M48.3657 102.718L48.4057 102.937L49.105 106.887C49.1332 107.449 49.2745 108 49.5206 108.507C49.7666 109.013 50.1122 109.466 50.5371 109.837C50.9619 110.208 51.4573 110.49 51.9937 110.667C52.5302 110.844 53.0969 110.912 53.6602 110.867C54.218 110.863 54.7745 110.811 55.3235 110.713C56.4421 110.53 57.5225 110.164 58.5201 109.628L58.0206 106.728C57.3718 107.1 56.6367 107.297 55.8879 107.3C55.3836 107.351 54.8785 107.21 54.4751 106.904C54.0716 106.598 53.8 106.151 53.7151 105.653L53.0508 101.897H53.0958L53.2756 101.863L57.1665 101.176L56.6021 97.9824L52.4864 98.7037L52.4465 98.4848L51.962 95.8682L47.4117 97.3606L47.7913 99.5146H47.7564L44.8145 100.012L45.3789 103.211L48.3657 102.718Z" fill="white"/>
<path d="M59.9492 97.389L62.0221 109.114L66.6972 108.288L66.0578 104.687C65.4185 101.085 67.2915 99.9758 68.9698 99.6823C69.6031 99.5586 70.256 99.5739 70.8828 99.7271L70.1785 95.7474C69.8341 95.6322 69.4729 95.575 69.1096 95.5783C68.8803 95.579 68.6514 95.599 68.4254 95.6379C66.5573 95.9663 65.6632 97.4189 65.6083 100.215V100.254H65.5683L65.1688 100.284V100.244L64.5194 96.5981L59.9492 97.389Z" fill="white"/>
<path d="M78.5605 99.0154C78.1518 99.0201 77.7441 99.0584 77.3417 99.1298C74.5846 99.6273 73.0662 101.398 73.4708 103.677C73.6099 104.576 74.0818 105.39 74.7935 105.96C75.5053 106.53 76.4054 106.814 77.3168 106.756C77.6718 106.755 78.0261 106.724 78.3757 106.661C79.1596 106.587 79.9115 106.314 80.56 105.87C81.2086 105.425 81.7324 104.822 82.0818 104.119L82.3815 103.458L82.5113 104.169L82.7361 105.467L87.2314 104.672L86.1925 98.7865C86.0724 97.2669 85.355 95.8559 84.1962 94.8602C83.0374 93.8644 81.5308 93.3643 80.004 93.4687C79.3238 93.4738 78.6454 93.537 77.9761 93.6577C76.0174 93.9502 74.1901 94.8159 72.7266 96.145L73.301 99.3736C74.2665 98.3569 75.5372 97.6796 76.9222 97.4434C77.3209 97.3697 77.7254 97.3314 78.1309 97.329C78.9236 97.2421 79.721 97.4435 80.3764 97.896C81.0317 98.3485 81.5008 99.0217 81.6972 99.7914L81.872 100.463L81.3326 100.015C80.5649 99.3512 79.577 98.9949 78.5605 99.0154V99.0154ZM79.4196 103.925C79.0148 103.975 78.606 103.871 78.2747 103.634C77.9434 103.397 77.7137 103.045 77.6314 102.647C77.5887 102.421 77.6013 102.188 77.6683 101.968C77.7352 101.748 77.8545 101.548 78.016 101.383C78.4132 101.001 78.9224 100.756 79.4695 100.682C79.7051 100.638 79.9442 100.617 80.1838 100.617C81.2327 100.617 81.9619 101.085 82.0968 101.841C82.2666 102.806 81.4275 103.622 80.0139 103.871C79.8176 103.905 79.6189 103.923 79.4196 103.925V103.925Z" fill="white"/>
<path d="M87.9082 89.5626L90.4805 104.089L95.1307 103.273L94.1317 97.7758C94.0215 97.3507 93.997 96.908 94.0596 96.4734C94.1222 96.0388 94.2706 95.6208 94.4963 95.2437C94.7171 94.957 94.9936 94.7175 95.3095 94.5397C95.6253 94.362 95.9739 94.2495 96.3344 94.209C96.5205 94.1738 96.7094 94.1554 96.8988 94.1542C97.8228 94.1542 99.0016 94.6069 99.3962 96.7709L100.395 102.352L105.065 101.527L103.891 94.8855C103.322 91.657 101.759 90.0203 99.2563 90.0203C98.8661 90.0216 98.4767 90.0566 98.0926 90.1248C97.0307 90.2366 96.0406 90.7118 95.291 91.4692C94.5414 92.2266 94.0788 93.2195 93.9819 94.2786L93.7621 95.5322L92.5633 88.7617L87.9082 89.5626Z" fill="white"/>
<path d="M105.857 86.433L108.43 100.959L113.08 100.143L110.508 85.6172L105.857 86.433Z" fill="white"/>
</svg>
