<svg width="300" height="120" viewBox="0 0 300 120" fill="none" xmlns="http://www.w3.org/2000/svg">
<path d="M19 23.4602V75.4957H264V23.4602H19ZM117 74.4558H19.9801V24.5009H117V74.4558ZM215 74.4558H117.98V24.5009H215L215 74.4558ZM263.021 74.4558H215.98V24.5009H263.02L263.021 74.4558Z" fill="black"/>
<path d="M200.933 41.0853V52.5463C200.933 52.6948 200.839 52.7441 200.769 52.5956L194.61 40.986C194.572 40.9243 194.52 40.8739 194.458 40.8393C194.397 40.8047 194.329 40.7871 194.259 40.7881H191.623C191.586 40.7865 191.549 40.793 191.514 40.8074C191.48 40.8217 191.448 40.8436 191.422 40.8715C191.396 40.8994 191.375 40.9328 191.361 40.9696C191.348 41.0064 191.342 41.0458 191.343 41.0853V57.8185C191.342 57.858 191.348 57.8974 191.361 57.9341C191.375 57.9709 191.396 58.0043 191.422 58.0322C191.448 58.0601 191.48 58.082 191.514 58.0963C191.549 58.1107 191.586 58.1173 191.623 58.1157H193.909C193.947 58.1173 193.984 58.1107 194.018 58.0963C194.053 58.082 194.084 58.0601 194.111 58.0322C194.137 58.0043 194.158 57.9709 194.171 57.9341C194.185 57.8974 194.191 57.858 194.189 57.8185V46.3822C194.189 46.2337 194.283 46.1843 194.353 46.3324L200.512 57.9169C200.55 57.9787 200.602 58.0293 200.663 58.064C200.724 58.0987 200.793 58.1164 200.862 58.1154H203.498C203.535 58.117 203.572 58.1103 203.607 58.096C203.642 58.0816 203.673 58.0598 203.699 58.0319C203.726 58.0039 203.746 57.9706 203.76 57.9338C203.774 57.897 203.78 57.8577 203.778 57.8182V41.0853C203.78 41.0458 203.774 41.0064 203.76 40.9696C203.746 40.9328 203.726 40.8994 203.7 40.8715C203.673 40.8436 203.642 40.8217 203.607 40.8074C203.572 40.793 203.535 40.7865 203.498 40.7881H201.213C201.176 40.7865 201.139 40.7931 201.104 40.8075C201.07 40.8219 201.038 40.8437 201.012 40.8716C200.986 40.8996 200.965 40.933 200.951 40.9697C200.938 41.0065 200.932 41.0458 200.933 41.0853H200.933ZM184.449 58.1157H186.759C186.796 58.1172 186.833 58.1106 186.868 58.0962C186.902 58.0818 186.934 58.0599 186.96 58.032C186.986 58.0041 187.007 57.9707 187.02 57.934C187.034 57.8973 187.04 57.858 187.038 57.8185V41.0853C187.04 41.0459 187.034 41.0065 187.02 40.9698C187.007 40.933 186.986 40.8996 186.96 40.8717C186.934 40.8438 186.902 40.8219 186.868 40.8076C186.833 40.7932 186.796 40.7865 186.759 40.7881H184.449C184.412 40.7865 184.375 40.7932 184.34 40.8076C184.305 40.8219 184.274 40.8438 184.248 40.8717C184.222 40.8996 184.201 40.933 184.187 40.9698C184.174 41.0065 184.168 41.0458 184.169 41.0853V57.8185C184.168 57.858 184.174 57.8973 184.188 57.934C184.201 57.9707 184.222 58.0041 184.248 58.032C184.274 58.0599 184.306 58.0818 184.34 58.0962C184.375 58.1106 184.412 58.1172 184.449 58.1157ZM175.238 55.0958V41.0853C175.24 41.0458 175.234 41.0065 175.22 40.9697C175.207 40.933 175.186 40.8996 175.16 40.8716C175.133 40.8437 175.102 40.8219 175.067 40.8075C175.033 40.7931 174.996 40.7865 174.959 40.7881H172.649C172.612 40.7865 172.574 40.7931 172.54 40.8075C172.505 40.8219 172.474 40.8437 172.448 40.8716C172.421 40.8996 172.401 40.933 172.387 40.9697C172.374 41.0065 172.367 41.0458 172.369 41.0853V57.8185C172.368 57.858 172.374 57.8973 172.387 57.934C172.401 57.9708 172.421 58.0042 172.448 58.0321C172.474 58.06 172.505 58.0818 172.54 58.0962C172.575 58.1106 172.612 58.1173 172.649 58.1157H180.604C180.641 58.1173 180.678 58.1107 180.713 58.0963C180.748 58.082 180.779 58.0601 180.806 58.0322C180.832 58.0043 180.852 57.9709 180.866 57.9341C180.88 57.8974 180.886 57.858 180.884 57.8185V55.5412C180.886 55.5017 180.88 55.4624 180.866 55.4256C180.852 55.3888 180.832 55.3554 180.806 55.3275C180.779 55.2996 180.748 55.2778 180.713 55.2634C180.678 55.249 180.641 55.2424 180.604 55.244H175.378C175.36 55.2448 175.341 55.2416 175.324 55.2345C175.307 55.2273 175.291 55.2165 175.278 55.2025C175.265 55.1886 175.254 55.1719 175.247 55.1536C175.241 55.1352 175.238 55.1156 175.238 55.0958ZM160.149 43.6595H162.272C164.161 43.6595 165.677 44.7242 165.677 46.927C165.677 49.1298 164.161 50.1945 162.248 50.1945H160.149C160.13 50.1954 160.111 50.1921 160.094 50.1849C160.077 50.1777 160.061 50.1667 160.048 50.1528C160.035 50.1388 160.025 50.1221 160.018 50.1037C160.011 50.0853 160.008 50.0656 160.009 50.0459V43.808C160.006 43.7878 160.008 43.7673 160.014 43.7479C160.02 43.7286 160.03 43.7111 160.044 43.6966C160.057 43.6822 160.074 43.6713 160.092 43.6649C160.11 43.6584 160.13 43.6565 160.149 43.6593V43.6595ZM165.562 58.1157H168.5C168.734 58.1157 168.803 57.9423 168.664 57.7444L165.164 52.7192C165.151 52.7024 165.141 52.6825 165.136 52.6611C165.131 52.6396 165.131 52.6173 165.135 52.5957C165.14 52.5742 165.149 52.554 165.162 52.5369C165.175 52.5197 165.192 52.506 165.211 52.4969C167.287 51.6056 168.664 49.6499 168.664 46.9272C168.664 43.0654 165.911 40.7881 162.411 40.7881H157.419C157.381 40.7865 157.344 40.7931 157.31 40.8074C157.275 40.8218 157.244 40.8436 157.217 40.8715C157.191 40.8995 157.17 40.9329 157.157 40.9697C157.143 41.0064 157.137 41.0458 157.138 41.0853V57.8185C157.137 57.858 157.143 57.8974 157.157 57.9341C157.17 57.9709 157.191 58.0043 157.217 58.0322C157.244 58.0601 157.275 58.082 157.31 58.0963C157.344 58.1107 157.381 58.1173 157.419 58.1157H159.728C159.765 58.1173 159.802 58.1106 159.837 58.0962C159.872 58.0818 159.903 58.06 159.929 58.0321C159.956 58.0042 159.976 57.9708 159.99 57.9341C160.003 57.8973 160.01 57.858 160.008 57.8185V53.2144C160.007 53.1947 160.01 53.1751 160.017 53.1567C160.024 53.1383 160.034 53.1216 160.047 53.1076C160.06 53.0936 160.076 53.0827 160.093 53.0755C160.111 53.0683 160.129 53.065 160.148 53.0658H161.922C161.993 53.073 162.06 53.1084 162.108 53.1651L165.235 57.9173C165.268 57.9783 165.315 58.0288 165.373 58.0637C165.43 58.0986 165.495 58.1165 165.561 58.1157H165.562ZM152.898 43.3626V41.0853C152.9 41.0458 152.893 41.0064 152.88 40.9697C152.866 40.9329 152.846 40.8995 152.819 40.8715C152.793 40.8436 152.762 40.8218 152.727 40.8074C152.692 40.7931 152.655 40.7865 152.618 40.7881H144.126C144.089 40.7865 144.051 40.7931 144.017 40.8074C143.982 40.8218 143.951 40.8436 143.924 40.8716C143.898 40.8995 143.878 40.9329 143.864 40.9697C143.85 41.0065 143.844 41.0458 143.846 41.0853V57.8185C143.844 57.858 143.85 57.8974 143.864 57.9341C143.878 57.9709 143.898 58.0043 143.924 58.0322C143.951 58.0601 143.982 58.082 144.017 58.0963C144.051 58.1107 144.089 58.1173 144.126 58.1157H152.618C152.655 58.1173 152.692 58.1107 152.727 58.0963C152.761 58.082 152.793 58.0601 152.819 58.0322C152.845 58.0043 152.866 57.9709 152.879 57.9341C152.893 57.8974 152.899 57.858 152.898 57.8185V55.5412C152.899 55.5017 152.893 55.4624 152.879 55.4256C152.866 55.3888 152.845 55.3554 152.819 55.3275C152.793 55.2996 152.761 55.2778 152.727 55.2634C152.692 55.249 152.655 55.2424 152.618 55.244H146.832C146.813 55.2449 146.795 55.2417 146.778 55.2346C146.76 55.2275 146.744 55.2166 146.731 55.2027C146.718 55.1887 146.708 55.172 146.701 55.1536C146.694 55.1353 146.691 55.1156 146.692 55.0958V50.9369C146.691 50.9172 146.694 50.8975 146.701 50.8791C146.708 50.8607 146.718 50.844 146.731 50.83C146.745 50.8161 146.76 50.8052 146.778 50.798C146.795 50.7908 146.813 50.7876 146.832 50.7884H152.618C152.655 50.79 152.692 50.7835 152.726 50.7691C152.761 50.7548 152.793 50.733 152.819 50.7052C152.845 50.6773 152.866 50.644 152.879 50.6072C152.893 50.5705 152.899 50.5312 152.898 50.4917V48.2392C152.899 48.1997 152.893 48.1603 152.88 48.1235C152.866 48.0867 152.845 48.0533 152.819 48.0254C152.793 47.9975 152.761 47.9757 152.727 47.9613C152.692 47.947 152.655 47.9404 152.618 47.942H146.832C146.813 47.9449 146.794 47.9431 146.775 47.9366C146.757 47.9302 146.741 47.9193 146.727 47.9049C146.713 47.8904 146.703 47.8728 146.697 47.8535C146.691 47.8341 146.689 47.8135 146.692 47.7933V43.808C146.691 43.7882 146.694 43.7686 146.701 43.7501C146.708 43.7317 146.718 43.715 146.731 43.7011C146.744 43.6871 146.76 43.6762 146.778 43.669C146.795 43.6618 146.813 43.6585 146.832 43.6593H152.618C152.655 43.6609 152.692 43.6544 152.726 43.64C152.761 43.6257 152.793 43.6039 152.819 43.5761C152.845 43.5482 152.866 43.5149 152.879 43.4781C152.893 43.4414 152.899 43.4021 152.898 43.3626H152.898ZM134.709 55.244H132.236C132.217 55.2448 132.199 55.2416 132.182 55.2345C132.164 55.2273 132.149 55.2164 132.135 55.2025C132.122 55.1886 132.112 55.1719 132.105 55.1536C132.099 55.1352 132.096 55.1155 132.096 55.0958V50.9369C132.094 50.9167 132.095 50.8962 132.101 50.8769C132.107 50.8576 132.118 50.84 132.131 50.8256C132.145 50.8112 132.161 50.8003 132.179 50.7939C132.198 50.7874 132.217 50.7855 132.236 50.7884H134.709C136.226 50.7884 137.066 51.7044 137.066 53.0164C137.066 54.3529 136.226 55.244 134.709 55.244ZM134.476 43.6593C135.945 43.6593 136.762 44.5011 136.762 45.7887C136.762 47.0763 135.946 47.9425 134.476 47.9425H132.236C132.217 47.9454 132.198 47.9435 132.179 47.937C132.161 47.9306 132.145 47.9197 132.131 47.9053C132.118 47.8908 132.107 47.8732 132.101 47.8539C132.095 47.8346 132.094 47.814 132.096 47.7938V43.8085C132.094 43.7884 132.095 43.7678 132.101 43.7485C132.107 43.7292 132.118 43.7116 132.131 43.6972C132.145 43.6828 132.161 43.6719 132.179 43.6654C132.198 43.6589 132.217 43.657 132.236 43.6598L134.476 43.6593ZM137.881 49.1054C138.466 48.7261 138.946 48.1902 139.274 47.5514C139.601 46.9127 139.765 46.1937 139.748 45.4665C139.748 42.8182 138.022 40.7881 134.849 40.7881H129.53C129.493 40.7865 129.455 40.7932 129.421 40.8076C129.386 40.8219 129.355 40.8438 129.329 40.8717C129.302 40.8996 129.282 40.933 129.268 40.9698C129.255 41.0065 129.248 41.0458 129.25 41.0853V57.8185C129.249 57.858 129.255 57.8973 129.268 57.934C129.282 57.9707 129.302 58.0041 129.329 58.032C129.355 58.0599 129.386 58.0818 129.421 58.0962C129.456 58.1106 129.493 58.1172 129.53 58.1157H135.059C138.325 58.1157 140.051 56.0115 140.051 53.2394C140.051 51.4322 139.235 50.0708 137.882 49.3033C137.788 49.229 137.788 49.1548 137.882 49.1054" fill="black"/>
<path d="M246.7 64.2415C246.7 64.2415 245.843 58.2082 245.438 55.6645C245.552 55.6397 245.615 55.625 245.615 55.625C245.697 55.6071 245.774 55.5686 245.839 55.5128C245.904 55.457 245.956 55.3855 245.99 55.3042C246.024 55.2229 246.04 55.1341 246.035 55.0452C246.031 54.9563 246.006 54.8699 245.964 54.7931C244.994 53.0205 244.647 50.812 244.647 48.6169C244.646 47.3021 244.85 45.9961 245.253 44.7527C245.275 44.6832 245.299 44.6143 245.322 44.5457C245.335 44.5034 245.364 44.4102 245.369 44.3957C245.824 43.3231 246.119 42.1819 246.243 41.0131C246.372 39.428 246.128 37.8339 245.534 36.3732C245.509 36.323 245.483 36.2742 245.456 36.2263C245.629 36.0336 245.737 35.7857 245.764 35.521C245.791 35.2563 245.735 34.9896 245.604 34.7622C245.288 34.1817 244.636 33.9519 244.152 34.2496C244.101 34.2807 243.981 34.3702 243.928 34.4115C243.839 34.3425 243.787 34.3078 243.787 34.3078C243.785 34.306 243.651 34.2125 243.533 34.1472C243.533 34.1472 243.489 34.1231 243.488 34.1224C242.978 33.8829 242.426 33.7605 241.868 33.7634C241.589 33.7632 241.311 33.7935 241.038 33.8537C240.469 33.9796 239.932 34.2353 239.465 34.6032C239.303 34.6552 239.136 34.6888 238.967 34.7034L238.31 34.7368C238.001 34.7508 237.648 34.7346 237.648 34.7346C237.574 34.7348 237.503 34.7661 237.451 34.8219C237.398 34.8776 237.369 34.9531 237.369 35.0318C237.369 35.0465 237.47 36.0058 237.471 36.009C237.477 36.1267 237.508 36.2414 237.561 36.3447C237.615 36.448 237.689 36.5372 237.78 36.6059L237.802 36.6224C237.847 36.6481 237.883 36.688 237.906 36.7364C237.968 36.9251 238.078 37.0917 238.224 37.2176C238.234 37.2252 238.246 37.2303 238.259 37.2324C238.272 37.2345 238.285 37.2337 238.297 37.2299C238.309 37.2261 238.32 37.2195 238.33 37.2106C238.339 37.2016 238.347 37.1905 238.352 37.1781C238.477 36.6557 238.771 37.2194 239.33 36.8978C239.474 36.815 239.55 37.1853 239.49 37.3468L239.438 37.4869C239.381 37.6404 239.286 37.7752 239.164 37.8776C239.042 37.9801 238.897 38.0464 238.743 38.0701C238.495 38.1083 238.353 38.1351 238.356 38.1714C238.386 38.4675 238.353 38.7221 238.636 38.8996C238.676 38.9236 238.717 38.9432 238.76 38.958C239.194 39.079 240.46 39.5944 238.85 41.6117C238.754 41.7271 238.664 41.8478 238.58 41.9733C238.546 42.0251 238.516 42.0797 238.491 42.1365L238.457 42.2099L233.617 40.2865C233.449 40.2043 233.304 40.0787 233.194 39.9212L232.718 39.0514C232.606 38.8559 232.449 38.694 232.262 38.5812C232.075 38.4683 231.864 38.4083 231.649 38.4067C231.425 38.3873 231.2 38.3865 230.976 38.4044C230.832 38.4122 230.748 38.448 230.718 38.5373C230.678 38.7583 230.715 38.9872 230.822 39.1812L231.238 39.9911C231.275 40.0486 231.798 41.2923 231.798 41.2923C231.85 41.4454 231.94 41.581 232.057 41.6851C232.068 41.6945 237.026 45.6728 237.026 45.6728L231.792 48.4458C231.717 48.4888 231.635 48.5158 231.551 48.525C231.466 48.5342 231.381 48.5255 231.3 48.4994L230.83 48.3483C229.974 47.943 229.329 48.2249 228.951 48.5612L228.803 48.7103C228.772 48.7402 228.748 48.778 228.734 48.8202C228.721 48.8624 228.717 48.9076 228.724 48.9516C228.732 48.9956 228.749 49.037 228.775 49.0718C228.802 49.1067 228.836 49.1339 228.875 49.1509C228.875 49.1509 229.701 49.6667 229.883 49.7989L231.17 50.608C231.37 50.731 231.605 50.7717 231.831 50.7224L236.915 49.6337C236.996 50.9143 237.202 52.1826 237.528 53.4183C236.183 54.8187 235.277 56.6256 234.934 58.5928C234.687 60.0501 234.767 61.3711 235.141 62.9239C234.431 62.9654 233.746 63.077 233.177 63.4968C232.635 63.8966 232.524 64.6089 232.521 64.9654L236.491 64.9749L236.826 64.9729C236.947 64.9674 237.064 64.9212 237.158 64.8409C237.253 64.7606 237.321 64.6504 237.353 64.5263C237.387 64.3826 237.412 64.2364 237.426 64.0888C237.552 62.9612 237.868 61.8668 238.359 60.858C238.786 60.0122 239.317 59.2311 239.94 58.5358C241.15 60.3079 242.676 61.8109 244.43 62.9599C243.855 63.0013 243.294 63.1612 242.776 63.4307C242.524 63.5922 242.316 63.8202 242.172 64.0927C242.028 64.3652 241.952 64.6727 241.954 64.9852H246.066C246.199 64.9852 246.329 64.941 246.437 64.8587C246.546 64.7764 246.627 64.6601 246.67 64.5263C246.679 64.4986 246.686 64.4704 246.691 64.4418C246.695 64.4213 246.698 64.4003 246.7 64.3796C246.704 64.3337 246.704 64.2874 246.7 64.2415V64.2415Z" fill="black"/>
<path d="M31.8045 46.2667C31.454 46.0082 31.1939 45.6338 31.0647 45.202L31.0569 45.1662C31.0574 45.1473 31.0635 45.129 31.0744 45.114C31.0852 45.0991 31.1003 45.0881 31.1174 45.0828L31.5582 44.8908C31.5716 44.8841 31.5863 44.8809 31.6011 44.8815C31.6172 44.8814 31.6328 44.888 31.6446 44.8998C31.6563 44.9132 31.6651 44.929 31.6705 44.9463C31.7485 45.2558 31.9236 45.5278 32.167 45.7172C32.4157 45.904 32.7145 46.0005 33.019 45.9926C33.3628 46.0162 33.7018 45.8978 33.9653 45.6622C34.1726 45.4384 34.2916 45.1389 34.2981 44.825C34.3045 44.5112 34.1978 44.2065 33.9998 43.9733C33.7731 43.75 33.489 43.603 33.1836 43.5511L32.7428 43.4593C32.3275 43.3928 31.9438 43.1849 31.6495 42.8668C31.3757 42.5483 31.2313 42.1281 31.2474 41.6973C31.2453 41.3816 31.3262 41.0716 31.4807 40.802C31.6372 40.5289 31.8597 40.3053 32.1252 40.1545C32.4481 39.9802 32.8085 39.8991 33.1703 39.9193C33.5321 39.9394 33.8825 40.0602 34.1865 40.2695C34.5056 40.5086 34.7471 40.8468 34.878 41.2376C34.885 41.2483 34.8881 41.2614 34.8868 41.2743C34.8861 41.2931 34.8799 41.3113 34.869 41.3262C34.8582 41.3411 34.8433 41.352 34.8263 41.3575L34.3769 41.5594C34.3635 41.566 34.3489 41.5692 34.3342 41.5688C34.3261 41.5691 34.318 41.5676 34.3105 41.5645C34.3029 41.5613 34.2961 41.5565 34.2904 41.5504C34.2784 41.5378 34.2695 41.5222 34.2645 41.5051C34.1716 41.2332 34.0047 40.9967 33.785 40.8259C33.5757 40.663 33.3225 40.5762 33.0631 40.5782C32.9116 40.5694 32.7599 40.5924 32.6167 40.646C32.4736 40.6995 32.3418 40.7825 32.2289 40.8903C32.1277 40.9929 32.0481 41.1171 31.9953 41.2546C31.9424 41.3921 31.9174 41.54 31.9221 41.6885C31.9133 41.9512 32 42.2075 32.1641 42.4044C32.3566 42.6115 32.609 42.744 32.8809 42.7809L33.3219 42.8727C33.7645 42.9574 34.1753 43.1738 34.5065 43.4968C34.6642 43.6609 34.7873 43.8586 34.8678 44.077C34.9482 44.2953 34.9842 44.5293 34.9732 44.7634C34.9772 45.1017 34.8948 45.4348 34.7348 45.7273C34.5729 46.018 34.3363 46.2536 34.0527 46.4066C33.7296 46.5778 33.3721 46.6628 33.0111 46.6544C32.5806 46.6623 32.1586 46.5267 31.8045 46.2667V46.2667Z" fill="black"/>
<path d="M36.7656 46.3216C36.4585 46.1398 36.2077 45.8672 36.0435 45.537C35.8738 45.1742 35.7851 44.7747 35.7844 44.3696C35.7837 43.9645 35.871 43.5647 36.0396 43.2013C36.199 42.8763 36.4417 42.6058 36.7397 42.4209C37.0434 42.2404 37.3856 42.1456 37.7336 42.1456C38.0816 42.1456 38.4239 42.2404 38.7276 42.4209C39.0204 42.6006 39.2609 42.8625 39.4226 43.178C39.5931 43.5117 39.6796 43.8865 39.6738 44.2662C39.6748 44.3366 39.6718 44.407 39.6648 44.4771C39.6615 44.4985 39.6508 44.5179 39.6349 44.5314C39.6189 44.545 39.5988 44.5518 39.5784 44.5505H36.5282C36.4591 44.5505 36.4328 44.5894 36.4498 44.6697C36.4795 45.0368 36.6349 45.3797 36.8866 45.6334C37.1438 45.8767 37.4798 46.0048 37.824 45.9908C38.0373 45.9911 38.2482 45.9438 38.4432 45.8521C38.6382 45.7604 38.8129 45.6263 38.9561 45.4584C39.0197 45.3909 39.0693 45.3793 39.103 45.4217L39.3891 45.7522C39.4287 45.7889 39.4287 45.8282 39.3891 45.8713C39.1874 46.0988 38.945 46.2813 38.676 46.4081C38.4076 46.5335 38.1173 46.5975 37.824 46.5958C37.4548 46.6035 37.09 46.509 36.7656 46.3216V46.3216ZM39.0002 43.9077C38.9548 43.5832 38.8032 43.286 38.5722 43.0684C38.3354 42.8622 38.0383 42.7503 37.7322 42.752C37.426 42.7537 37.1301 42.8689 36.8954 43.0777C36.6627 43.294 36.5111 43.592 36.4684 43.9172L36.4596 43.9625C36.4596 43.9993 36.4883 44.0185 36.546 44.0185H38.9224C38.9908 44.0185 39.0168 43.9816 39.0002 43.9077Z" fill="black"/>
<path d="M41.2127 46.4964H40.7549C40.7432 46.4982 40.7312 46.4971 40.72 46.4931C40.7087 46.4891 40.6985 46.4824 40.6901 46.4735C40.6817 46.4646 40.6754 46.4537 40.6716 46.4418C40.6679 46.4298 40.6668 46.4171 40.6685 46.4047V42.3294C40.6668 42.317 40.6679 42.3042 40.6716 42.2923C40.6754 42.2803 40.6817 42.2695 40.6901 42.2606C40.6985 42.2517 40.7087 42.245 40.72 42.241C40.7312 42.237 40.7432 42.2359 40.7549 42.2376H41.1698C41.1815 42.2359 41.1935 42.237 41.2047 42.241C41.216 42.245 41.2262 42.2517 41.2346 42.2606C41.243 42.2695 41.2493 42.2803 41.2531 42.2923C41.2568 42.3042 41.2579 42.317 41.2562 42.3294V42.6321C41.2562 42.6573 41.2631 42.6721 41.2771 42.6784C41.2911 42.6846 41.3079 42.6753 41.3248 42.651C41.4525 42.4943 41.6084 42.3663 41.7834 42.2745C41.9674 42.1852 42.1681 42.1412 42.3703 42.146C42.5528 42.1344 42.7355 42.1636 42.9067 42.2315C43.0779 42.2994 43.2338 42.4047 43.3644 42.5405C43.4832 42.6758 43.5756 42.8346 43.6364 43.0078C43.6972 43.1811 43.7252 43.3654 43.7188 43.5502V46.4047C43.7205 46.4171 43.7194 46.4298 43.7156 46.4418C43.7119 46.4537 43.7056 46.4646 43.6972 46.4735C43.6888 46.4824 43.6786 46.4891 43.6673 46.4931C43.6561 46.4971 43.6441 46.4982 43.6324 46.4964H43.1745C43.1627 46.4982 43.1507 46.4971 43.1395 46.4931C43.1282 46.4891 43.118 46.4824 43.1096 46.4735C43.1013 46.4646 43.0949 46.4537 43.0912 46.4418C43.0874 46.4298 43.0864 46.4171 43.088 46.4047V43.6597C43.0962 43.5363 43.0812 43.4124 43.044 43.2951C43.0069 43.1779 42.9482 43.0696 42.8714 42.9765C42.7882 42.8945 42.6901 42.8314 42.5831 42.7911C42.4761 42.7509 42.3624 42.7343 42.2491 42.7425C42.0657 42.7403 41.8856 42.7945 41.7305 42.8985C41.5678 43.0114 41.4343 43.1658 41.3423 43.3477C41.3136 43.4074 41.2986 43.4735 41.2986 43.5406V46.4043C41.3003 46.4167 41.2993 46.4294 41.2956 46.4414C41.2919 46.4533 41.2856 46.4642 41.2773 46.4731C41.2689 46.4821 41.2588 46.4888 41.2475 46.4929C41.2363 46.4969 41.2244 46.4981 41.2127 46.4964V46.4964Z" fill="black"/>
<path d="M45.6718 46.3079C45.372 46.1207 45.1267 45.8492 44.9631 45.5233C44.7926 45.1646 44.7039 44.7685 44.7039 44.3668C44.7039 43.9651 44.7926 43.569 44.9631 43.2103C45.1267 42.8844 45.372 42.6129 45.6718 42.4257C45.976 42.2378 46.3225 42.1409 46.6744 42.1452C46.9182 42.1296 47.1622 42.1726 47.3881 42.2711C47.6141 42.3697 47.8161 42.5212 47.9791 42.7143C47.9831 42.7197 47.9887 42.7234 47.995 42.725C48.0013 42.7265 48.0079 42.7257 48.0137 42.7227C48.0197 42.7194 48.0246 42.7142 48.0277 42.7078C48.0308 42.7014 48.032 42.6941 48.031 42.687V42.3284C48.0293 42.316 48.0304 42.3033 48.0342 42.2913C48.0379 42.2794 48.0442 42.2685 48.0526 42.2596C48.061 42.2507 48.0712 42.244 48.0825 42.24C48.0937 42.236 48.1057 42.2349 48.1174 42.2367H48.5421C48.5539 42.2349 48.5659 42.236 48.5771 42.24C48.5884 42.244 48.5986 42.2507 48.607 42.2596C48.6154 42.2685 48.6217 42.2794 48.6254 42.2913C48.6292 42.3033 48.6303 42.316 48.6286 42.3284V46.4037C48.6303 46.4161 48.6292 46.4289 48.6254 46.4408C48.6217 46.4528 48.6154 46.4636 48.607 46.4725C48.5986 46.4814 48.5884 46.4881 48.5771 46.4921C48.5659 46.4961 48.5539 46.4972 48.5421 46.4955H48.1192C48.1074 46.4972 48.0955 46.4961 48.0842 46.4921C48.073 46.4881 48.0627 46.4814 48.0543 46.4725C48.046 46.4636 48.0396 46.4528 48.0359 46.4408C48.0321 46.4289 48.0311 46.4161 48.0327 46.4037V46.0463C48.0335 46.039 48.0323 46.0317 48.0292 46.0252C48.0261 46.0187 48.0213 46.0133 48.0154 46.0096C48.0095 46.0071 48.0029 46.0067 47.9967 46.0084C47.9905 46.0101 47.985 46.0139 47.9809 46.0191C47.8115 46.2036 47.6084 46.3492 47.384 46.4471C47.1596 46.545 46.9187 46.593 46.6761 46.5882C46.3236 46.593 45.9765 46.4961 45.6718 46.3079V46.3079ZM47.4958 45.7985C47.6968 45.6897 47.8602 45.5162 47.9625 45.3028C47.9862 45.2514 47.9981 45.1948 47.9971 45.1376V43.5956C47.9981 43.5384 47.9862 43.4818 47.9625 43.4304C47.8512 43.2195 47.6846 43.0473 47.483 42.9348C47.2639 42.8102 47.0185 42.747 46.77 42.7512C46.5779 42.7429 46.3864 42.7783 46.2083 42.8551C46.0302 42.9318 45.8696 43.0482 45.7373 43.1964C45.483 43.5265 45.344 43.9398 45.344 44.3663C45.344 44.7928 45.483 45.2062 45.7373 45.5363C45.8696 45.6844 46.0302 45.8008 46.2083 45.8775C46.3864 45.9543 46.5779 45.9897 46.77 45.9813C47.0225 45.986 47.2722 45.9232 47.4958 45.7985V45.7985Z" fill="black"/>
<path d="M50.2097 40.5767L50.6764 40.3098C50.6899 40.3038 50.7045 40.3009 50.7191 40.3013C50.7599 40.3013 50.7796 40.3255 50.7796 40.3747V42.1921C50.7789 42.1983 50.7795 42.2047 50.7814 42.2106C50.7834 42.2166 50.7866 42.222 50.7908 42.2264C50.7951 42.2308 50.8002 42.234 50.8059 42.236C50.8115 42.2379 50.8175 42.2384 50.8234 42.2374H51.2991C51.3108 42.2356 51.3228 42.2368 51.334 42.2408C51.3453 42.2447 51.3555 42.2515 51.3639 42.2604C51.3723 42.2693 51.3786 42.2801 51.3824 42.2921C51.3861 42.304 51.3872 42.3167 51.3855 42.3292V42.7235C51.3872 42.736 51.3861 42.7487 51.3824 42.7606C51.3786 42.7726 51.3723 42.7834 51.3639 42.7923C51.3555 42.8012 51.3453 42.808 51.334 42.8119C51.3228 42.8159 51.3108 42.8171 51.2991 42.8153H50.8239C50.818 42.8144 50.8119 42.8151 50.8062 42.8171C50.8006 42.8191 50.7954 42.8225 50.7912 42.827C50.787 42.8315 50.7838 42.837 50.7818 42.843C50.7799 42.849 50.7794 42.8554 50.7801 42.8617V46.4046C50.7818 46.4171 50.7807 46.4298 50.777 46.4417C50.7732 46.4537 50.7669 46.4645 50.7585 46.4735C50.7502 46.4824 50.7399 46.4891 50.7287 46.4931C50.7174 46.497 50.7055 46.4982 50.6937 46.4964H50.2362C50.2244 46.4982 50.2124 46.497 50.2012 46.4931C50.1899 46.4891 50.1797 46.4824 50.1713 46.4735C50.163 46.4645 50.1566 46.4537 50.1529 46.4417C50.1491 46.4298 50.148 46.4171 50.1497 46.4046V42.8617C50.1505 42.8554 50.1499 42.849 50.148 42.843C50.1461 42.837 50.1429 42.8315 50.1387 42.827C50.1344 42.8225 50.1293 42.8191 50.1236 42.8171C50.118 42.8151 50.1119 42.8144 50.106 42.8153H49.6311C49.6194 42.8171 49.6074 42.8159 49.5962 42.8119C49.5849 42.808 49.5747 42.8012 49.5663 42.7923C49.5579 42.7834 49.5516 42.7726 49.5479 42.7606C49.5441 42.7487 49.543 42.736 49.5447 42.7235V42.3292C49.543 42.3167 49.5441 42.304 49.5479 42.2921C49.5516 42.2801 49.5579 42.2693 49.5663 42.2604C49.5747 42.2515 49.5849 42.2447 49.5962 42.2408C49.6074 42.2368 49.6194 42.2356 49.6311 42.2374H50.1058C50.1117 42.2384 50.1177 42.2379 50.1233 42.236C50.129 42.234 50.1341 42.2308 50.1384 42.2264C50.1426 42.222 50.1458 42.2166 50.1478 42.2106C50.1497 42.2047 50.1503 42.1983 50.1496 42.1921V40.6868C50.147 40.664 50.1515 40.641 50.1624 40.6211C50.1732 40.6013 50.1898 40.5857 50.2097 40.5767V40.5767Z" fill="black"/>
<path d="M52.4698 46.3216C52.237 46.1389 52.0656 45.8814 51.9811 45.5874L51.9731 45.5506C51.973 45.5328 51.979 45.5155 51.9899 45.502C52.0009 45.4885 52.0161 45.4797 52.0328 45.4772L52.4477 45.3212L52.4822 45.3116C52.5168 45.3116 52.5429 45.3359 52.5597 45.3851C52.6057 45.5704 52.7115 45.7328 52.8585 45.844C52.9952 45.9503 53.1599 46.0081 53.3292 46.0092C53.5295 46.0243 53.7275 45.9571 53.8824 45.8216C53.9448 45.7604 53.9941 45.6857 54.0269 45.6025C54.0597 45.5194 54.0753 45.4297 54.0725 45.3395C54.0767 45.253 54.0621 45.1665 54.0297 45.0869C53.9973 45.0073 53.9481 44.9367 53.8859 44.8806C53.7363 44.7581 53.5594 44.6788 53.3725 44.6506L53.0267 44.5772C52.7546 44.5291 52.5069 44.3813 52.3267 44.1596C52.153 43.94 52.0608 43.6606 52.0674 43.3739C52.0654 43.1534 52.1226 42.937 52.2323 42.7497C52.3435 42.5579 52.5036 42.4033 52.694 42.3039C52.9022 42.1947 53.1319 42.1397 53.3642 42.1434C53.6533 42.1345 53.9372 42.2264 54.1725 42.405C54.4016 42.5916 54.5645 42.8551 54.6343 43.1527L54.6432 43.1894C54.6432 43.2261 54.6203 43.2536 54.574 43.2727L54.168 43.3829L54.1334 43.3924C54.0988 43.3924 54.0748 43.3682 54.0642 43.319C54.0269 43.1513 53.9408 43.0004 53.8181 42.8876C53.6893 42.7795 53.5282 42.7241 53.3642 42.7316C53.1866 42.7228 53.0123 42.7849 52.8757 42.9056C52.8159 42.9598 52.7683 43.0275 52.7362 43.1037C52.7041 43.1799 52.6883 43.2627 52.69 43.3462C52.6852 43.4235 52.6958 43.5011 52.7211 43.5739C52.7465 43.6466 52.7859 43.7129 52.8369 43.7684C52.963 43.8801 53.1155 43.953 53.2779 43.9791L53.6145 44.0525C53.9107 44.1053 54.1841 44.2545 54.397 44.4795C54.4979 44.5944 54.5762 44.7294 54.6274 44.8768C54.6785 45.0242 54.7014 45.181 54.6948 45.3379C54.6995 45.5079 54.6691 45.6769 54.6056 45.833C54.5421 45.9892 54.4472 46.1286 54.3275 46.2416C54.0494 46.4902 53.6924 46.6166 53.3294 46.595C53.0224 46.606 52.7205 46.51 52.4698 46.3216V46.3216Z" fill="black"/>
<path d="M58.1257 42.2375H58.6097C58.6732 42.2375 58.6963 42.2713 58.6789 42.3389L57.4097 46.4229C57.4015 46.4468 57.386 46.467 57.3657 46.4803C57.3453 46.4936 57.3213 46.4993 57.2976 46.4963H56.6319C56.608 46.4992 56.5839 46.4935 56.5634 46.4802C56.5429 46.4669 56.5272 46.4468 56.5186 46.4229L55.249 42.3389L55.24 42.3021C55.24 42.2588 55.2657 42.2377 55.3185 42.2377H55.8025C55.825 42.2357 55.8476 42.2418 55.8664 42.2551C55.8853 42.2685 55.8993 42.2882 55.9062 42.3111L56.9349 45.6984C56.9409 45.7167 56.9508 45.7257 56.9657 45.7257C56.9805 45.7257 56.9895 45.7162 56.9954 45.6984L58.0243 42.3111C58.031 42.2886 58.0446 42.2691 58.063 42.2557C58.0814 42.2424 58.1035 42.236 58.1257 42.2375V42.2375Z" fill="black"/>
<path d="M60.2133 46.3215C59.9067 46.1394 59.6564 45.8669 59.4925 45.5369C59.3228 45.1742 59.234 44.7748 59.2332 44.3697C59.2323 43.9646 59.3193 43.5648 59.4874 43.2012C59.6468 42.8761 59.8895 42.6056 60.1875 42.4209C60.4912 42.2403 60.8334 42.1455 61.1815 42.1455C61.5295 42.1455 61.8717 42.2403 62.1754 42.4209C62.4686 42.6004 62.7095 42.8623 62.8715 43.1779C63.0413 43.5119 63.1275 43.8866 63.1218 44.2661C63.1218 44.3579 63.1187 44.4275 63.1139 44.477C63.1105 44.4984 63.0998 44.5177 63.0839 44.5313C63.0679 44.5448 63.0479 44.5516 63.0275 44.5504H59.9759C59.9068 44.5504 59.8807 44.5894 59.8985 44.6696C59.9279 45.0367 60.083 45.3795 60.3345 45.6333C60.5921 45.8765 60.9283 46.0046 61.2728 45.9907C61.486 45.991 61.697 45.9438 61.892 45.8521C62.087 45.7604 62.2617 45.6263 62.4048 45.4584C62.4684 45.3908 62.517 45.3793 62.5518 45.4217L62.8368 45.7521C62.8776 45.7888 62.8776 45.8281 62.8368 45.8712C62.6353 46.099 62.3929 46.2816 62.1237 46.408C61.8556 46.5333 61.5657 46.5973 61.2728 46.5958C60.9032 46.6034 60.5381 46.5089 60.2133 46.3215V46.3215ZM62.4475 43.9076C62.4026 43.5832 62.2515 43.286 62.0205 43.0683C61.7838 42.8621 61.4867 42.7503 61.1806 42.752C60.8744 42.7537 60.5785 42.8689 60.3438 43.0777C60.1107 43.2937 59.9588 43.5918 59.9158 43.9171L59.9068 43.9625C59.9068 43.9992 59.9357 44.0185 59.9932 44.0185H62.3704C62.44 44.0185 62.4657 43.9815 62.4475 43.9076Z" fill="black"/>
<path d="M65.9824 42.1552C66.0342 42.1552 66.0607 42.1859 66.0607 42.247V42.7331C66.0607 42.7881 66.0399 42.8153 66.0002 42.8153C65.9581 42.8154 65.9162 42.8107 65.875 42.8015C65.8364 42.7934 65.7972 42.7888 65.7578 42.788C65.5687 42.7828 65.3815 42.8301 65.2148 42.9251C65.0481 43.0201 64.9076 43.1596 64.8071 43.3299C64.7646 43.3975 64.7434 43.4776 64.7464 43.5588V46.4041C64.7481 46.4166 64.747 46.4293 64.7433 46.4412C64.7395 46.4532 64.7332 46.464 64.7248 46.4729C64.7164 46.4818 64.7062 46.4885 64.6949 46.4925C64.6837 46.4965 64.6717 46.4977 64.66 46.4959H64.2012C64.1895 46.4977 64.1775 46.4965 64.1663 46.4925C64.155 46.4885 64.1448 46.4818 64.1364 46.4729C64.128 46.464 64.1217 46.4532 64.1179 46.4412C64.1142 46.4293 64.1131 46.4166 64.1148 46.4041V42.3289C64.1131 42.3164 64.1142 42.3037 64.1179 42.2917C64.1217 42.2798 64.128 42.2689 64.1364 42.26C64.1448 42.2511 64.155 42.2444 64.1663 42.2404C64.1775 42.2364 64.1895 42.2353 64.2012 42.2371H64.6161C64.6278 42.2353 64.6398 42.2364 64.651 42.2404C64.6623 42.2444 64.6725 42.2511 64.6809 42.26C64.6893 42.2689 64.6956 42.2798 64.6993 42.2917C64.7031 42.3037 64.7042 42.3164 64.7025 42.3289V42.6593C64.7025 42.6846 64.7084 42.6993 64.7198 42.7057C64.7312 42.7121 64.7455 42.7057 64.7625 42.6874C64.8922 42.5138 65.0581 42.3745 65.247 42.2804C65.436 42.1864 65.6429 42.1401 65.8515 42.1453C65.8953 42.1442 65.9391 42.1475 65.9824 42.1552V42.1552Z" fill="black"/>
<path d="M70.9704 42.2376H71.4372C71.4493 42.2361 71.4617 42.2378 71.473 42.2427C71.4844 42.2477 71.4944 42.2555 71.5021 42.2656C71.5098 42.2757 71.515 42.2878 71.5172 42.3006C71.5194 42.3134 71.5185 42.3266 71.5146 42.3389L70.5466 46.4141C70.5461 46.4265 70.5432 46.4386 70.538 46.4497C70.5328 46.4608 70.5255 46.4706 70.5165 46.4784C70.5075 46.4863 70.4971 46.4921 70.4858 46.4953C70.4746 46.4986 70.4629 46.4994 70.4513 46.4975H69.8463C69.8192 46.4982 69.7928 46.4883 69.7721 46.4696C69.7514 46.451 69.7379 46.4249 69.7341 46.3963L69.0254 43.4679C69.0194 43.4495 69.0095 43.4405 68.9955 43.4405C68.9815 43.4405 68.9708 43.45 68.9647 43.4679L68.256 46.3963C68.2519 46.4249 68.2382 46.4509 68.2174 46.4695C68.1966 46.4881 68.1702 46.4981 68.143 46.4975H67.5379C67.515 46.4993 67.4923 46.4916 67.4746 46.4761C67.4569 46.4606 67.4454 46.4384 67.4427 46.4141L66.4755 42.3389L66.4666 42.3114C66.4666 42.2618 66.4952 42.2379 66.553 42.2379H67.0197C67.0831 42.2379 67.1179 42.2653 67.1234 42.3202L67.8413 45.5427C67.8474 45.567 67.8553 45.5795 67.8672 45.5795C67.8792 45.5795 67.8869 45.5677 67.893 45.5427L68.6709 42.3202C68.6755 42.297 68.6875 42.2761 68.7048 42.2612C68.7221 42.2462 68.7438 42.238 68.7661 42.2379H69.224C69.2464 42.2377 69.2682 42.2458 69.2856 42.2608C69.303 42.2758 69.3149 42.2968 69.3193 42.3202L70.0971 45.5427C70.102 45.567 70.111 45.5795 70.1229 45.5795C70.1348 45.5795 70.1428 45.5677 70.1487 45.5427L70.8657 42.3202C70.8698 42.2948 70.883 42.272 70.9025 42.2566C70.922 42.2412 70.9463 42.2344 70.9704 42.2376V42.2376Z" fill="black"/>
<path d="M73.1312 46.3078C72.8312 46.1209 72.5859 45.8493 72.4225 45.5232C72.2519 45.1646 72.1631 44.7685 72.1631 44.3667C72.1631 43.965 72.2519 43.5689 72.4225 43.2102C72.5859 42.8842 72.8312 42.6126 73.1312 42.4257C73.4354 42.2376 73.7819 42.1407 74.1338 42.1452C74.3776 42.1297 74.6215 42.1728 74.8474 42.2713C75.0733 42.3698 75.2754 42.5212 75.4385 42.7142C75.4425 42.7196 75.4481 42.7234 75.4544 42.725C75.4607 42.7265 75.4673 42.7257 75.4731 42.7227C75.4791 42.7193 75.4839 42.714 75.487 42.7076C75.4901 42.7012 75.4913 42.694 75.4904 42.6869V42.3284C75.4887 42.3159 75.4898 42.3032 75.4936 42.2913C75.4973 42.2793 75.5036 42.2684 75.512 42.2595C75.5204 42.2506 75.5306 42.2439 75.5419 42.2399C75.5531 42.236 75.5651 42.2348 75.5768 42.2366H76.0009C76.0126 42.2348 76.0246 42.236 76.0358 42.2399C76.0471 42.2439 76.0573 42.2506 76.0657 42.2595C76.0741 42.2684 76.0804 42.2793 76.0841 42.2913C76.0879 42.3032 76.089 42.3159 76.0873 42.3284V46.4036C76.089 46.4161 76.0879 46.4288 76.0841 46.4407C76.0804 46.4527 76.0741 46.4635 76.0657 46.4724C76.0573 46.4814 76.0471 46.4881 76.0358 46.492C76.0246 46.496 76.0126 46.4972 76.0009 46.4954H75.5777C75.566 46.4972 75.554 46.496 75.5427 46.492C75.5315 46.4881 75.5213 46.4814 75.5129 46.4724C75.5045 46.4635 75.4982 46.4527 75.4944 46.4407C75.4907 46.4288 75.4896 46.4161 75.4913 46.4036V46.0462C75.4919 46.039 75.4906 46.0317 75.4876 46.0252C75.4845 46.0187 75.4798 46.0133 75.474 46.0095C75.468 46.007 75.4614 46.0066 75.4552 46.0083C75.449 46.01 75.4435 46.0138 75.4394 46.019C75.2701 46.2035 75.0669 46.3492 74.8425 46.447C74.6181 46.5449 74.3772 46.5929 74.1347 46.5881C73.7824 46.5929 73.4356 46.496 73.1312 46.3078V46.3078ZM74.9544 45.7984C75.1555 45.6899 75.3189 45.5163 75.4211 45.3027C75.4452 45.2515 75.4571 45.1948 75.4557 45.1375V43.5956C75.4571 43.5383 75.4452 43.4816 75.4211 43.4303C75.3096 43.2194 75.143 43.0473 74.9414 42.9347C74.7223 42.8101 74.477 42.7469 74.2285 42.7511C74.0365 42.7429 73.8449 42.7783 73.6668 42.8551C73.4887 42.9319 73.3281 43.0482 73.1958 43.1963C72.9415 43.5264 72.8026 43.9398 72.8026 44.3663C72.8026 44.7928 72.9415 45.2062 73.1958 45.5363C73.3282 45.6843 73.4888 45.8006 73.6669 45.8773C73.845 45.9541 74.0365 45.9895 74.2285 45.9812C74.4811 45.9862 74.7308 45.9233 74.9544 45.7984Z" fill="black"/>
<path d="M78.4818 46.0285V46.4417C78.4833 46.4542 78.4821 46.4668 78.4783 46.4787C78.4745 46.4906 78.4682 46.5013 78.4598 46.5102C78.4515 46.5191 78.4413 46.5258 78.4302 46.5298C78.419 46.5339 78.4071 46.5351 78.3953 46.5335H78.2398C78.0126 46.5482 77.7881 46.4748 77.6081 46.3268C77.5287 46.2446 77.4674 46.1448 77.4285 46.0346C77.3897 45.9243 77.3743 45.8063 77.3834 45.6889V39.9432C77.3817 39.9307 77.3828 39.918 77.3866 39.9061C77.3903 39.8941 77.3966 39.8833 77.405 39.8744C77.4134 39.8654 77.4236 39.8587 77.4349 39.8548C77.4461 39.8508 77.4581 39.8496 77.4698 39.8514H77.9276C77.9394 39.8496 77.9514 39.8508 77.9627 39.8547C77.974 39.8587 77.9842 39.8654 77.9927 39.8743C78.0011 39.8832 78.0075 39.894 78.0114 39.906C78.0152 39.9179 78.0164 39.9307 78.0149 39.9432V45.6059C78.0149 45.8262 78.1013 45.9364 78.2742 45.9364H78.3952C78.4069 45.9346 78.4189 45.9358 78.4302 45.9398C78.4415 45.9438 78.4517 45.9506 78.4601 45.9595C78.4685 45.9684 78.4748 45.9793 78.4786 45.9913C78.4824 46.0033 78.4834 46.016 78.4818 46.0285V46.0285Z" fill="black"/>
<path d="M79.7075 40.5766L80.1742 40.3097C80.1881 40.3039 80.203 40.301 80.2179 40.3013C80.2575 40.3013 80.2784 40.3255 80.2784 40.3747V42.192C80.2775 42.1982 80.278 42.2045 80.2798 42.2105C80.2816 42.2164 80.2848 42.2218 80.2889 42.2263C80.2931 42.2307 80.2982 42.234 80.3038 42.2359C80.3094 42.2379 80.3153 42.2384 80.3211 42.2374H80.7977C80.8095 42.2356 80.8214 42.2368 80.8327 42.2407C80.8439 42.2447 80.8542 42.2514 80.8625 42.2603C80.8709 42.2692 80.8772 42.2801 80.881 42.2921C80.8847 42.304 80.8858 42.3167 80.8841 42.3292V42.7235C80.8858 42.736 80.8847 42.7487 80.881 42.7606C80.8772 42.7726 80.8709 42.7834 80.8625 42.7923C80.8542 42.8012 80.8439 42.8079 80.8327 42.8119C80.8214 42.8159 80.8095 42.817 80.7977 42.8153H80.322C80.3161 42.8145 80.3101 42.8151 80.3045 42.8172C80.2989 42.8192 80.2939 42.8226 80.2897 42.8272C80.2856 42.8317 80.2825 42.8371 80.2807 42.8431C80.2789 42.8491 80.2784 42.8555 80.2793 42.8617V46.4046C80.281 46.4171 80.2799 46.4298 80.2761 46.4417C80.2724 46.4537 80.2661 46.4645 80.2577 46.4734C80.2493 46.4823 80.2391 46.489 80.2278 46.493C80.2166 46.497 80.2046 46.4982 80.1929 46.4964H79.7341C79.7224 46.4982 79.7104 46.497 79.6991 46.493C79.6879 46.489 79.6777 46.4823 79.6693 46.4734C79.6609 46.4645 79.6546 46.4537 79.6508 46.4417C79.6471 46.4298 79.646 46.4171 79.6477 46.4046V42.8617C79.6486 42.8555 79.6481 42.8491 79.6463 42.8431C79.6445 42.8371 79.6414 42.8317 79.6373 42.8272C79.6331 42.8226 79.628 42.8192 79.6224 42.8172C79.6168 42.8151 79.6109 42.8145 79.605 42.8153H79.1294C79.1177 42.817 79.1057 42.8159 79.0945 42.8119C79.0832 42.8079 79.073 42.8012 79.0646 42.7923C79.0562 42.7834 79.0499 42.7726 79.0462 42.7606C79.0424 42.7487 79.0413 42.736 79.043 42.7235V42.3292C79.0413 42.3167 79.0424 42.304 79.0462 42.2921C79.0499 42.2801 79.0562 42.2692 79.0646 42.2603C79.073 42.2514 79.0832 42.2447 79.0945 42.2407C79.1057 42.2368 79.1177 42.2356 79.1294 42.2374H79.605C79.6108 42.2384 79.6167 42.2379 79.6223 42.2359C79.6279 42.234 79.633 42.2307 79.6372 42.2263C79.6414 42.2218 79.6445 42.2164 79.6463 42.2105C79.6481 42.2045 79.6486 42.1982 79.6477 42.192V40.6868C79.6453 40.6641 79.6499 40.6411 79.6606 40.6213C79.6714 40.6015 79.6878 40.5859 79.7075 40.5766V40.5766Z" fill="black"/>
<path d="M84.2554 42.2375H84.7131C84.7248 42.2357 84.7368 42.2369 84.7481 42.2409C84.7593 42.2448 84.7695 42.2516 84.7779 42.2605C84.7863 42.2694 84.7926 42.2802 84.7964 42.2922C84.8001 42.3041 84.8012 42.3168 84.7995 42.3293V46.4045C84.8012 46.417 84.8001 46.4297 84.7964 46.4417C84.7926 46.4536 84.7863 46.4645 84.7779 46.4734C84.7695 46.4823 84.7593 46.489 84.7481 46.493C84.7368 46.4969 84.7248 46.4981 84.7131 46.4963H84.2982C84.2865 46.4981 84.2745 46.4969 84.2633 46.493C84.252 46.489 84.2418 46.4823 84.2334 46.4734C84.225 46.4645 84.2187 46.4536 84.215 46.4417C84.2112 46.4297 84.2101 46.417 84.2118 46.4045V46.1009C84.2118 46.0767 84.2049 46.0618 84.19 46.0556C84.1752 46.0493 84.1572 46.0587 84.1344 46.0829C84.0075 46.2457 83.8474 46.3758 83.6663 46.4633C83.4852 46.5508 83.2877 46.5935 83.0887 46.5881C82.9069 46.6 82.7247 46.571 82.5541 46.503C82.3835 46.4351 82.2283 46.3296 82.0988 46.1936C81.8616 45.9191 81.736 45.5563 81.7492 45.184V42.3295C81.7475 42.317 81.7485 42.3042 81.7522 42.2923C81.756 42.2803 81.7623 42.2694 81.7707 42.2605C81.7791 42.2515 81.7893 42.2448 81.8006 42.2409C81.8119 42.2369 81.8239 42.2358 81.8357 42.2377H82.2934C82.3051 42.2359 82.3171 42.2371 82.3284 42.241C82.3396 42.245 82.3498 42.2517 82.3582 42.2606C82.3666 42.2695 82.3729 42.2804 82.3767 42.2924C82.3804 42.3043 82.3815 42.317 82.3798 42.3295V45.0744C82.3714 45.1978 82.3862 45.3218 82.4234 45.4391C82.4605 45.5564 82.5193 45.6647 82.5963 45.7576C82.6794 45.8398 82.7775 45.903 82.8845 45.9432C82.9916 45.9835 83.1053 46 83.2186 45.9917C83.402 45.9942 83.5822 45.94 83.7371 45.8356C83.9005 45.7231 84.0344 45.5686 84.1264 45.3865C84.1551 45.3267 84.1701 45.2606 84.1701 45.1935V42.3298C84.1684 42.3175 84.1694 42.3048 84.1731 42.2929C84.1767 42.281 84.1829 42.2701 84.1912 42.2612C84.1994 42.2523 84.2095 42.2455 84.2207 42.2414C84.2318 42.2372 84.2437 42.2359 84.2554 42.2375V42.2375Z" fill="black"/>
<path d="M86.6567 46.4964H86.199C86.1873 46.4982 86.1753 46.4971 86.1641 46.4931C86.1528 46.4891 86.1426 46.4824 86.1342 46.4735C86.1258 46.4646 86.1195 46.4537 86.1157 46.4418C86.112 46.4298 86.1109 46.4171 86.1126 46.4047V42.3294C86.1109 42.317 86.112 42.3042 86.1157 42.2923C86.1195 42.2804 86.1258 42.2695 86.1342 42.2606C86.1426 42.2517 86.1528 42.245 86.1641 42.241C86.1753 42.237 86.1873 42.2359 86.199 42.2376H86.6139C86.6256 42.2359 86.6376 42.237 86.6488 42.241C86.6601 42.245 86.6703 42.2517 86.6787 42.2606C86.6871 42.2695 86.6934 42.2804 86.6972 42.2923C86.7009 42.3042 86.702 42.317 86.7003 42.3294V42.6321C86.7003 42.6573 86.7072 42.6721 86.7211 42.6784C86.7349 42.6846 86.7518 42.6753 86.7688 42.651C86.8965 42.4942 87.0525 42.3662 87.2275 42.2745C87.4115 42.1852 87.6121 42.1412 87.8144 42.146C87.9968 42.1344 88.1795 42.1636 88.3507 42.2315C88.5219 42.2994 88.6778 42.4047 88.8083 42.5405C88.9271 42.6758 89.0195 42.8346 89.0804 43.0078C89.1412 43.1811 89.1693 43.3654 89.1629 43.5502V46.4047C89.1646 46.4171 89.1635 46.4298 89.1597 46.4418C89.156 46.4537 89.1497 46.4646 89.1413 46.4735C89.1329 46.4824 89.1227 46.4891 89.1114 46.4931C89.1002 46.4971 89.0882 46.4982 89.0765 46.4964H88.6187C88.607 46.4982 88.595 46.4971 88.5838 46.4931C88.5725 46.4891 88.5623 46.4824 88.5539 46.4735C88.5455 46.4646 88.5392 46.4537 88.5354 46.4418C88.5317 46.4298 88.5306 46.4171 88.5323 46.4047V43.6598C88.5405 43.5363 88.5255 43.4124 88.4884 43.2952C88.4512 43.1779 88.3926 43.0696 88.3159 42.9765C88.2327 42.8945 88.1345 42.8314 88.0275 42.7911C87.9205 42.7509 87.8068 42.7343 87.6936 42.7425C87.5102 42.7404 87.3301 42.7945 87.175 42.8985C87.0123 43.0115 86.8788 43.1659 86.7867 43.3477C86.7582 43.4075 86.7433 43.4736 86.7432 43.5406V46.4043C86.7449 46.4168 86.7439 46.4295 86.7402 46.4415C86.7364 46.4535 86.7301 46.4644 86.7217 46.4734C86.7133 46.4823 86.7031 46.4891 86.6918 46.4931C86.6805 46.4971 86.6685 46.4982 86.6567 46.4964V46.4964Z" fill="black"/>
<path d="M91.2118 48.1987C90.9563 48.0802 90.7268 47.9068 90.5377 47.6893C90.5294 47.681 90.5229 47.6711 90.5184 47.66C90.5139 47.649 90.5116 47.6371 90.5116 47.625C90.5116 47.613 90.5139 47.6011 90.5184 47.5901C90.5229 47.579 90.5294 47.5691 90.5377 47.5608L90.8315 47.2214C90.8379 47.2104 90.8467 47.2013 90.8573 47.1949C90.8679 47.1886 90.8799 47.1853 90.892 47.1853C90.9042 47.1853 90.9161 47.1886 90.9267 47.1949C90.9373 47.2013 90.9462 47.2104 90.9525 47.2214C91.2195 47.5239 91.5793 47.7156 91.9673 47.7619C92.3553 47.8083 92.7461 47.7063 93.0697 47.4743C93.1871 47.3607 93.2784 47.2201 93.3369 47.0633C93.3954 46.9065 93.4195 46.7377 93.4073 46.5695V45.9369C93.4085 45.9272 93.4066 45.9174 93.4019 45.909C93.3972 45.9006 93.39 45.8941 93.3814 45.8905C93.3641 45.8852 93.3437 45.8936 93.3209 45.9178C93.1543 46.0827 92.9584 46.2107 92.7447 46.2943C92.531 46.378 92.3038 46.4156 92.0763 46.405C91.7341 46.4095 91.397 46.3174 91.0993 46.1383C90.8063 45.9621 90.5665 45.7011 90.4079 45.3857C90.2358 45.0412 90.1493 44.6558 90.1567 44.2659C90.1496 43.8794 90.2391 43.4978 90.416 43.1599C90.5817 42.8462 90.8257 42.5871 91.1211 42.4111C91.4233 42.2325 91.7642 42.1409 92.11 42.1453C92.3412 42.1325 92.5723 42.1717 92.7883 42.2603C93.0042 42.3488 93.2002 42.4848 93.3632 42.6593C93.3871 42.6846 93.4049 42.6931 93.4198 42.6878C93.4346 42.6824 93.4417 42.6624 93.4417 42.6327V42.33C93.4416 42.3179 93.4439 42.306 93.4483 42.2949C93.4527 42.2838 93.4593 42.2738 93.4675 42.2655C93.4754 42.2569 93.4848 42.25 93.4952 42.2453C93.5056 42.2406 93.5168 42.2382 93.5282 42.2382H93.9511C93.9629 42.2364 93.9749 42.2376 93.9861 42.2415C93.9974 42.2455 94.0076 42.2522 94.016 42.2611C94.0243 42.2701 94.0307 42.2809 94.0344 42.2929C94.0382 42.3048 94.0393 42.3175 94.0376 42.33V46.6255C94.0498 46.8708 94.0081 47.1157 93.9159 47.341C93.8237 47.5663 93.6834 47.7657 93.5062 47.9235C93.11 48.2474 92.6185 48.4118 92.119 48.3876C91.8074 48.3932 91.4983 48.3288 91.2118 48.1987V48.1987ZM92.8969 45.6151C93.0915 45.5062 93.2555 45.3446 93.3726 45.1469C93.4018 45.0974 93.4169 45.04 93.4161 44.9816V43.5581C93.4185 43.4995 93.4032 43.4416 93.3726 43.3928C93.2555 43.1951 93.0915 43.0335 92.8969 42.9246C92.681 42.8049 92.4402 42.745 92.1968 42.7505C92.0105 42.7425 91.8247 42.776 91.6513 42.8487C91.4779 42.9214 91.3207 43.0318 91.1899 43.1727C90.942 43.4775 90.8056 43.8668 90.8056 44.2695C90.8056 44.6722 90.942 45.0615 91.1899 45.3662C91.3208 45.5072 91.4779 45.6175 91.6513 45.6902C91.8247 45.7629 92.0105 45.7964 92.1968 45.7884C92.4402 45.7941 92.681 45.7345 92.8969 45.6151Z" fill="black"/>
<path d="M31.4798 58.2829V54.74C31.4807 54.7338 31.4803 54.7274 31.4785 54.7214C31.4767 54.7154 31.4736 54.71 31.4694 54.7055C31.4653 54.701 31.4602 54.6975 31.4546 54.6955C31.449 54.6934 31.443 54.6928 31.4371 54.6936H31.0914C31.0693 54.6942 31.0478 54.6863 31.0307 54.6714C31.0223 54.6642 31.0156 54.655 31.0112 54.6446C31.0067 54.6342 31.0046 54.6228 31.005 54.6113V54.2075C31.0032 54.195 31.0043 54.1823 31.008 54.1703C31.0117 54.1583 31.018 54.1474 31.0264 54.1385C31.0348 54.1296 31.0451 54.1228 31.0564 54.1189C31.0677 54.1149 31.0797 54.1138 31.0914 54.1157H31.4371C31.4429 54.1166 31.4489 54.1161 31.4545 54.1142C31.46 54.1122 31.4651 54.1089 31.4693 54.1045C31.4734 54.1001 31.4765 54.0947 31.4784 54.0888C31.4802 54.0828 31.4807 54.0765 31.4798 54.0704V52.711C31.4642 52.4236 31.5505 52.1403 31.7218 51.9171C31.8102 51.8181 31.9179 51.741 32.0373 51.691C32.1568 51.6411 32.2851 51.6197 32.4133 51.6282C32.5778 51.6332 32.7397 51.6738 32.889 51.7473C32.9409 51.7789 32.9606 51.8148 32.9497 51.8574L32.8287 52.2888C32.8114 52.3439 32.774 52.3562 32.7165 52.3255C32.6392 52.2806 32.5532 52.2554 32.4651 52.2521C32.4154 52.2501 32.366 52.2607 32.3209 52.2831C32.2758 52.3054 32.2363 52.3389 32.2058 52.3806C32.1364 52.4882 32.1032 52.6176 32.1115 52.7477V54.0694C32.1104 54.0758 32.1107 54.0823 32.1125 54.0884C32.1143 54.0946 32.1175 54.1001 32.1217 54.1047C32.126 54.1093 32.1312 54.1127 32.137 54.1146C32.1428 54.1166 32.1489 54.117 32.1549 54.1159H32.6907C32.7025 54.1141 32.7144 54.1153 32.7257 54.1192C32.7369 54.1232 32.7472 54.1299 32.7555 54.1388C32.7639 54.1477 32.7702 54.1586 32.774 54.1705C32.7777 54.1825 32.7788 54.1952 32.7772 54.2077V54.6115C32.7773 54.6229 32.7751 54.6342 32.7706 54.6446C32.7662 54.655 32.7596 54.6642 32.7514 54.6716C32.7342 54.6862 32.7128 54.694 32.6907 54.6938H32.1549C32.149 54.6929 32.143 54.6936 32.1374 54.6957C32.1318 54.6977 32.1267 54.7011 32.1226 54.7057C32.1184 54.7102 32.1153 54.7156 32.1135 54.7216C32.1117 54.7276 32.1112 54.734 32.1122 54.7402V58.2831C32.112 58.3066 32.1043 58.3293 32.0904 58.3475C32.0834 58.3562 32.0747 58.3632 32.0649 58.3679C32.0551 58.3727 32.0444 58.375 32.0337 58.3749H31.567C31.5551 58.3768 31.5431 58.3757 31.5317 58.3718C31.5204 58.3679 31.51 58.3612 31.5016 58.3522C31.4931 58.3433 31.4867 58.3323 31.4829 58.3203C31.4792 58.3083 31.4781 58.2955 31.4798 58.2829V58.2829Z" fill="black"/>
<path d="M36.1044 54.116H36.563C36.5747 54.1142 36.5867 54.1154 36.598 54.1193C36.6092 54.1233 36.6194 54.13 36.6278 54.1389C36.6362 54.1479 36.6425 54.1587 36.6463 54.1707C36.65 54.1826 36.6511 54.1953 36.6494 54.2078V58.283C36.6511 58.2955 36.65 58.3082 36.6463 58.3201C36.6425 58.3321 36.6362 58.3429 36.6278 58.3518C36.6194 58.3608 36.6092 58.3675 36.598 58.3714C36.5867 58.3754 36.5747 58.3766 36.563 58.3748H36.1481C36.1364 58.3766 36.1244 58.3754 36.1132 58.3714C36.1019 58.3675 36.0917 58.3608 36.0833 58.3518C36.0749 58.3429 36.0686 58.3321 36.0649 58.3201C36.0611 58.3082 36.06 58.2955 36.0617 58.283V57.9794C36.0617 57.9552 36.0548 57.9403 36.0399 57.9341C36.0251 57.9278 36.0071 57.9372 35.9843 57.9614C35.8573 58.1243 35.6972 58.2544 35.516 58.3419C35.3347 58.4294 35.1371 58.4721 34.9381 58.4666C34.7562 58.4785 34.5741 58.4495 34.4035 58.3815C34.2329 58.3136 34.0777 58.2081 33.9481 58.0721C33.711 57.7976 33.5854 57.4348 33.5986 57.0625V54.2078C33.5969 54.1953 33.5979 54.1826 33.6016 54.1706C33.6053 54.1586 33.6116 54.1477 33.6201 54.1388C33.6285 54.1298 33.6387 54.1231 33.65 54.1192C33.6613 54.1152 33.6733 54.1141 33.685 54.116H34.1429C34.1547 54.1142 34.1667 54.1154 34.1779 54.1193C34.1892 54.1233 34.1994 54.13 34.2078 54.1389C34.2161 54.1479 34.2225 54.1587 34.2262 54.1707C34.23 54.1826 34.231 54.1953 34.2294 54.2078V56.9521C34.221 57.0756 34.2358 57.1996 34.273 57.3169C34.3102 57.4342 34.369 57.5425 34.446 57.6354C34.5291 57.7175 34.6272 57.7807 34.7343 57.821C34.8413 57.8612 34.955 57.8777 35.0683 57.8694C35.2517 57.8719 35.4319 57.8177 35.5869 57.7134C35.7501 57.6008 35.884 57.4463 35.9761 57.2642C36.0048 57.2045 36.0198 57.1383 36.0199 57.0713V54.2078C36.0183 54.1955 36.0193 54.183 36.023 54.1712C36.0266 54.1594 36.0328 54.1487 36.0409 54.1399C36.0491 54.131 36.059 54.1242 36.07 54.1201C36.0811 54.116 36.0928 54.1146 36.1044 54.116V54.116ZM33.9516 52.9724C33.9075 52.9263 33.8726 52.8713 33.8488 52.8106C33.8251 52.7499 33.813 52.6849 33.8133 52.6192C33.8133 52.4877 33.8625 52.3617 33.95 52.2687C34.0375 52.1758 34.1562 52.1235 34.28 52.1235C34.4038 52.1235 34.5225 52.1758 34.61 52.2687C34.6976 52.3617 34.7467 52.4877 34.7467 52.6192C34.7472 52.6849 34.7353 52.75 34.7115 52.8107C34.6877 52.8714 34.6527 52.9264 34.6085 52.9724C34.5664 53.0202 34.5156 53.0583 34.4591 53.0843C34.4026 53.1104 34.3416 53.1238 34.28 53.1238C34.2184 53.1238 34.1575 53.1104 34.101 53.0843C34.0445 53.0583 33.9936 53.0202 33.9516 52.9724ZM35.6544 52.9724C35.6102 52.9264 35.5752 52.8714 35.5514 52.8107C35.5276 52.75 35.5157 52.6849 35.5162 52.6192C35.5178 52.4883 35.5675 52.3632 35.6546 52.2706C35.7418 52.178 35.8596 52.1252 35.9829 52.1235C36.1061 52.1253 36.2239 52.1781 36.3111 52.2706C36.3982 52.3632 36.4479 52.4883 36.4496 52.6192C36.4499 52.6849 36.4378 52.7499 36.414 52.8106C36.3903 52.8713 36.3554 52.9263 36.3113 52.9724C36.2693 53.0202 36.2184 53.0583 36.1619 53.0843C36.1054 53.1104 36.0445 53.1238 35.9829 53.1238C35.9213 53.1238 35.8603 53.1104 35.8038 53.0843C35.7473 53.0583 35.6965 53.0202 35.6544 52.9724V52.9724Z" fill="black"/>
<path d="M39.829 54.0332C39.8808 54.0332 39.9066 54.0638 39.9065 54.125V54.6116C39.9065 54.6667 39.8866 54.6939 39.846 54.6939C39.8039 54.6938 39.762 54.6892 39.7208 54.6801C39.6828 54.6721 39.6441 54.6676 39.6053 54.6667C39.4162 54.6617 39.2291 54.709 39.0624 54.804C38.8957 54.899 38.7552 55.0384 38.6546 55.2086C38.6122 55.2762 38.5909 55.3563 38.5939 55.4375V58.2828C38.5956 58.2953 38.5945 58.308 38.5908 58.32C38.587 58.3319 38.5807 58.3428 38.5723 58.3517C38.5639 58.3606 38.5537 58.3673 38.5425 58.3713C38.5312 58.3753 38.5192 58.3764 38.5075 58.3746H38.0496C38.0379 58.3764 38.0259 58.3753 38.0146 58.3713C38.0034 58.3673 37.9932 58.3606 37.9848 58.3517C37.9764 58.3428 37.9701 58.3319 37.9663 58.32C37.9626 58.308 37.9615 58.2953 37.9632 58.2828V54.2078C37.9615 54.1953 37.9626 54.1826 37.9663 54.1707C37.9701 54.1587 37.9764 54.1479 37.9848 54.139C37.9932 54.13 38.0034 54.1233 38.0146 54.1194C38.0259 54.1154 38.0379 54.1142 38.0496 54.116H38.4645C38.4762 54.1142 38.4882 54.1154 38.4994 54.1194C38.5107 54.1233 38.5209 54.13 38.5293 54.139C38.5377 54.1479 38.544 54.1587 38.5477 54.1707C38.5515 54.1826 38.5526 54.1953 38.5509 54.2078V54.5382C38.5509 54.5635 38.5559 54.5782 38.5682 54.5847C38.5805 54.5911 38.5939 54.5847 38.6119 54.5663C38.7415 54.3926 38.9074 54.2532 39.0964 54.1592C39.2853 54.0651 39.4923 54.0189 39.7009 54.0242C39.7438 54.023 39.7867 54.026 39.829 54.0332V54.0332Z" fill="black"/>
<path d="M43.4502 58.3748H42.9835C42.9717 58.3766 42.9598 58.3754 42.9485 58.3714C42.9373 58.3675 42.927 58.3608 42.9187 58.3518C42.9103 58.3429 42.9039 58.3321 42.9002 58.3201C42.8964 58.3082 42.8954 58.2955 42.897 58.283V52.0417C42.8953 52.0292 42.8964 52.0165 42.9001 52.0045C42.9039 51.9925 42.9102 51.9816 42.9186 51.9727C42.927 51.9638 42.9372 51.9571 42.9485 51.9531C42.9597 51.9492 42.9717 51.9481 42.9835 51.9499H43.4502C43.4619 51.9481 43.4739 51.9492 43.4852 51.9531C43.4965 51.9571 43.5067 51.9638 43.5151 51.9727C43.5235 51.9816 43.5298 51.9925 43.5335 52.0045C43.5373 52.0165 43.5383 52.0292 43.5366 52.0417V55.0889C43.5366 55.1073 43.5427 55.1174 43.5539 55.1205C43.5651 55.1236 43.5767 55.1164 43.5885 55.0974L45.6801 52.0046C45.6914 51.9866 45.7069 51.972 45.7251 51.9624C45.7433 51.9527 45.7635 51.9483 45.7838 51.9495H46.3543C46.3674 51.9477 46.3807 51.9497 46.3929 51.9552C46.4051 51.9608 46.4156 51.9697 46.4234 51.9811C46.4353 52.0033 46.4295 52.0286 46.4061 52.0591L44.6256 54.6658C44.6141 54.6847 44.6072 54.7063 44.6056 54.7288C44.6041 54.7513 44.6079 54.7738 44.6167 54.7943L46.4925 58.2637C46.5015 58.2808 46.5074 58.2995 46.5098 58.3188C46.5098 58.3555 46.4841 58.3739 46.4324 58.3739H45.8792C45.8593 58.3737 45.8398 58.3676 45.823 58.3562C45.8061 58.3449 45.7926 58.3287 45.784 58.3096L44.1937 55.3443C44.1878 55.3259 44.1798 55.3169 44.1679 55.3169C44.1546 55.3181 44.1422 55.3246 44.1333 55.3353L43.5722 56.1705C43.5478 56.2046 43.5355 56.2468 43.5377 56.2896V58.283C43.5394 58.2956 43.5383 58.3084 43.5345 58.3205C43.5307 58.3325 43.5243 58.3434 43.5157 58.3524C43.5072 58.3613 43.4969 58.368 43.4855 58.3719C43.4741 58.3758 43.462 58.3768 43.4502 58.3748V58.3748Z" fill="black"/>
<path d="M49.6299 54.116H50.0878C50.0995 54.1142 50.1115 54.1154 50.1228 54.1193C50.134 54.1233 50.1442 54.13 50.1526 54.1389C50.161 54.1478 50.1673 54.1587 50.1711 54.1707C50.1748 54.1826 50.1759 54.1953 50.1742 54.2078V58.283C50.1759 58.2955 50.1748 58.3082 50.1711 58.3201C50.1673 58.3321 50.161 58.3429 50.1526 58.3518C50.1442 58.3608 50.134 58.3675 50.1228 58.3714C50.1115 58.3754 50.0995 58.3766 50.0878 58.3748H49.6729C49.6612 58.3766 49.6492 58.3754 49.638 58.3714C49.6267 58.3675 49.6165 58.3608 49.6081 58.3518C49.5997 58.3429 49.5934 58.3321 49.5897 58.3201C49.5859 58.3082 49.5848 58.2955 49.5865 58.283V57.9794C49.5865 57.9552 49.5794 57.9403 49.5645 57.9341C49.5497 57.9278 49.5319 57.9372 49.5091 57.9614C49.3822 58.1242 49.2221 58.2543 49.041 58.3418C48.8599 58.4293 48.6624 58.472 48.4634 58.4666C48.2815 58.4785 48.0993 58.4495 47.9287 58.3816C47.7581 58.3136 47.6029 58.2081 47.4733 58.0721C47.2361 57.7975 47.1105 57.4348 47.1237 57.0625V54.2078C47.122 54.1953 47.123 54.1826 47.1268 54.1706C47.1305 54.1586 47.1368 54.1477 47.1452 54.1388C47.1536 54.1298 47.1639 54.1231 47.1751 54.1192C47.1864 54.1152 47.1984 54.1141 47.2102 54.116H47.6679C47.6797 54.1142 47.6916 54.1154 47.7029 54.1193C47.7141 54.1233 47.7243 54.13 47.7327 54.1389C47.7411 54.1478 47.7474 54.1587 47.7512 54.1707C47.7549 54.1826 47.756 54.1953 47.7543 54.2078V56.9521C47.746 57.0756 47.7608 57.1995 47.798 57.3168C47.8351 57.4341 47.8939 57.5424 47.9708 57.6354C48.0539 57.7175 48.152 57.7807 48.2591 57.821C48.3661 57.8612 48.4798 57.8777 48.5931 57.8694C48.7765 57.8719 48.9567 57.8177 49.1117 57.7134C49.2749 57.6008 49.4088 57.4463 49.5009 57.2642C49.5295 57.2044 49.5445 57.1383 49.5447 57.0713V54.2078C49.543 54.1954 49.5441 54.1829 49.5478 54.171C49.5515 54.1592 49.5577 54.1484 49.5659 54.1395C49.5742 54.1306 49.5842 54.1239 49.5953 54.1198C49.6064 54.1157 49.6182 54.1144 49.6299 54.116Z" fill="black"/>
<path d="M52.5591 57.9063V58.3197C52.5607 58.3322 52.5596 58.3448 52.5558 58.3568C52.552 58.3687 52.5457 58.3795 52.5373 58.3884C52.529 58.3973 52.5188 58.404 52.5076 58.408C52.4963 58.412 52.4844 58.4132 52.4727 58.4115H52.3171C52.0903 58.426 51.8662 58.3526 51.6865 58.2048C51.6071 58.1226 51.5458 58.0228 51.5069 57.9126C51.4681 57.8023 51.4527 57.6842 51.4618 57.5669V51.8214C51.4601 51.8089 51.4612 51.7962 51.4649 51.7842C51.4687 51.7723 51.475 51.7614 51.4834 51.7525C51.4918 51.7436 51.502 51.7369 51.5133 51.7329C51.5245 51.7289 51.5365 51.7278 51.5482 51.7296H52.006C52.0177 51.7278 52.0297 51.7289 52.0409 51.7329C52.0522 51.7369 52.0624 51.7436 52.0708 51.7525C52.0792 51.7614 52.0855 51.7723 52.0892 51.7842C52.093 51.7962 52.0941 51.8089 52.0924 51.8214V57.4841C52.0924 57.7044 52.1788 57.8145 52.3517 57.8145H52.4727C52.4844 57.8127 52.4964 57.8139 52.5076 57.8179C52.5189 57.8219 52.5291 57.8286 52.5375 57.8375C52.5459 57.8464 52.5522 57.8572 52.556 57.8692C52.5597 57.8811 52.5608 57.8938 52.5591 57.9063V57.9063Z" fill="black"/>
<path d="M53.7862 52.4545L54.253 52.1878C54.2668 52.182 54.2816 52.1791 54.2965 52.1793C54.3363 52.1793 54.3572 52.2036 54.3572 52.2528V54.0701C54.3563 54.0763 54.3567 54.0826 54.3586 54.0885C54.3604 54.0945 54.3635 54.0999 54.3677 54.1043C54.3718 54.1087 54.3769 54.112 54.3825 54.114C54.3881 54.1159 54.3941 54.1164 54.3999 54.1154H54.8756C54.8873 54.1137 54.8993 54.1148 54.9106 54.1188C54.9218 54.1228 54.932 54.1295 54.9404 54.1384C54.9488 54.1473 54.9551 54.1582 54.9589 54.1701C54.9626 54.182 54.9637 54.1948 54.962 54.2072V54.6015C54.9637 54.614 54.9626 54.6267 54.9589 54.6387C54.9551 54.6506 54.9488 54.6615 54.9404 54.6704C54.932 54.6793 54.9218 54.686 54.9106 54.69C54.8993 54.6939 54.8873 54.6951 54.8756 54.6933H54.3999C54.394 54.6925 54.388 54.6932 54.3824 54.6952C54.3768 54.6973 54.3717 54.7007 54.3676 54.7052C54.3635 54.7097 54.3604 54.7152 54.3586 54.7212C54.3567 54.7272 54.3563 54.7335 54.3572 54.7398V58.2826C54.3589 58.2951 54.3578 58.3078 54.354 58.3198C54.3503 58.3317 54.344 58.3426 54.3356 58.3515C54.3272 58.3604 54.317 58.3671 54.3057 58.3711C54.2945 58.3751 54.2825 58.3762 54.2708 58.3744H53.812C53.8002 58.3762 53.7883 58.3751 53.777 58.3711C53.7658 58.3671 53.7556 58.3604 53.7472 58.3515C53.7388 58.3426 53.7325 58.3317 53.7287 58.3198C53.725 58.3078 53.7239 58.2951 53.7256 58.2826V54.7401C53.7265 54.7339 53.726 54.7275 53.7242 54.7215C53.7224 54.7155 53.7193 54.7101 53.7151 54.7056C53.711 54.7011 53.7059 54.6976 53.7003 54.6956C53.6947 54.6935 53.6887 54.6929 53.6829 54.6937H53.2073C53.1956 54.6955 53.1836 54.6943 53.1724 54.6903C53.1611 54.6863 53.1509 54.6796 53.1425 54.6707C53.1341 54.6618 53.1278 54.651 53.124 54.639C53.1203 54.6271 53.1192 54.6144 53.1209 54.6019V54.2078C53.1192 54.1953 53.1203 54.1826 53.124 54.1707C53.1278 54.1587 53.1341 54.1478 53.1425 54.1389C53.1509 54.13 53.1611 54.1233 53.1724 54.1193C53.1836 54.1154 53.1956 54.1142 53.2073 54.116H53.6829C53.6887 54.117 53.6946 54.1165 53.7002 54.1145C53.7058 54.1126 53.7109 54.1093 53.7151 54.1049C53.7192 54.1004 53.7224 54.095 53.7242 54.0891C53.726 54.0831 53.7265 54.0768 53.7256 54.0707V52.5654C53.7232 52.5424 53.7278 52.5193 53.7387 52.4994C53.7497 52.4794 53.7663 52.4637 53.7862 52.4545V52.4545Z" fill="black"/>
<path d="M58.3335 54.116H58.7912C58.803 54.1142 58.8149 54.1154 58.8262 54.1193C58.8374 54.1233 58.8477 54.13 58.8561 54.1389C58.8644 54.1478 58.8708 54.1587 58.8745 54.1707C58.8783 54.1826 58.8793 54.1953 58.8777 54.2078V58.283C58.8793 58.2955 58.8783 58.3082 58.8745 58.3201C58.8708 58.3321 58.8644 58.3429 58.8561 58.3518C58.8477 58.3608 58.8374 58.3675 58.8262 58.3714C58.8149 58.3754 58.803 58.3766 58.7912 58.3748H58.3764C58.3646 58.3766 58.3527 58.3754 58.3414 58.3714C58.3302 58.3675 58.3199 58.3608 58.3116 58.3518C58.3032 58.3429 58.2969 58.3321 58.2931 58.3201C58.2893 58.3082 58.2883 58.2955 58.2899 58.283V57.9794C58.2899 57.9552 58.283 57.9403 58.2682 57.934C58.2533 57.9278 58.2353 57.9372 58.2125 57.9614C58.0856 58.1242 57.9256 58.2543 57.7444 58.3418C57.5633 58.4293 57.3658 58.472 57.1669 58.4666C56.985 58.4785 56.8028 58.4495 56.6322 58.3815C56.4616 58.3136 56.3065 58.2081 56.1769 58.0721C55.9397 57.7975 55.8141 57.4347 55.8274 57.0625V54.2078C55.8256 54.1953 55.8266 54.1826 55.8304 54.1706C55.8341 54.1586 55.8404 54.1477 55.8488 54.1388C55.8572 54.1298 55.8675 54.1231 55.8788 54.1192C55.89 54.1152 55.902 54.1141 55.9138 54.116H56.3717C56.3834 54.1142 56.3954 54.1154 56.4067 54.1193C56.4179 54.1233 56.4281 54.13 56.4365 54.1389C56.4449 54.1478 56.4512 54.1587 56.455 54.1707C56.4587 54.1826 56.4598 54.1953 56.4581 54.2078V56.9521C56.4498 57.0756 56.4646 57.1996 56.5018 57.3169C56.539 57.4342 56.5978 57.5424 56.6747 57.6354C56.7579 57.7175 56.856 57.7807 56.963 57.821C57.0701 57.8612 57.1837 57.8777 57.297 57.8694C57.4805 57.8719 57.6607 57.8177 57.8156 57.7134C57.9789 57.6008 58.1128 57.4463 58.2049 57.2642C58.2336 57.2044 58.2486 57.1383 58.2486 57.0713V54.2078C58.247 54.1955 58.2481 54.1829 58.2517 54.1711C58.2554 54.1593 58.2616 54.1486 58.2698 54.1397C58.278 54.1308 58.288 54.1241 58.299 54.12C58.3101 54.1159 58.3219 54.1145 58.3335 54.116Z" fill="black"/>
<path d="M62.0583 54.0332C62.1099 54.0332 62.1357 54.0638 62.1357 54.125V54.6116C62.1357 54.6667 62.116 54.6939 62.0752 54.6939C62.0332 54.6938 61.9913 54.6892 61.9501 54.6801C61.9118 54.672 61.873 54.6674 61.8339 54.6665C61.6448 54.6615 61.4577 54.7088 61.291 54.8038C61.1243 54.8988 60.9838 55.0383 60.8832 55.2084C60.8408 55.276 60.8195 55.3561 60.8225 55.4373V58.2827C60.8242 58.2951 60.8231 58.3078 60.8194 58.3198C60.8156 58.3317 60.8093 58.3426 60.8009 58.3515C60.7925 58.3604 60.7823 58.3671 60.7711 58.3711C60.7598 58.3751 60.7478 58.3762 60.7361 58.3744H60.2784C60.2666 58.3762 60.2546 58.3751 60.2434 58.3711C60.2321 58.3671 60.2219 58.3604 60.2135 58.3515C60.2052 58.3426 60.1988 58.3317 60.1951 58.3198C60.1913 58.3078 60.1903 58.2951 60.1919 58.2827V54.2078C60.1903 54.1953 60.1913 54.1826 60.1951 54.1707C60.1988 54.1587 60.2052 54.1479 60.2135 54.139C60.2219 54.13 60.2321 54.1233 60.2434 54.1194C60.2546 54.1154 60.2666 54.1142 60.2784 54.116H60.6932C60.705 54.1142 60.7169 54.1154 60.7282 54.1194C60.7394 54.1233 60.7497 54.13 60.758 54.139C60.7664 54.1479 60.7727 54.1587 60.7765 54.1707C60.7802 54.1826 60.7813 54.1953 60.7797 54.2078V54.5382C60.7797 54.5635 60.7847 54.5782 60.7969 54.5847C60.8092 54.5911 60.8227 54.5847 60.8407 54.5663C60.9703 54.3926 61.1361 54.2532 61.3251 54.1592C61.5141 54.0651 61.721 54.0189 61.9297 54.0242C61.9727 54.0229 62.0158 54.0259 62.0583 54.0332V54.0332Z" fill="black"/>
<path d="M67.3906 54.1159H67.8494C67.8611 54.1142 67.873 54.1154 67.8842 54.1194C67.8955 54.1234 67.9056 54.1302 67.914 54.139C67.9224 54.1479 67.9287 54.1588 67.9325 54.1707C67.9363 54.1826 67.9374 54.1953 67.9358 54.2077V58.283C67.9374 58.2954 67.9363 58.3081 67.9325 58.32C67.9287 58.3319 67.9224 58.3427 67.914 58.3516C67.9056 58.3605 67.8955 58.3672 67.8842 58.3712C67.873 58.3752 67.8611 58.3764 67.8494 58.3747H67.4345C67.4227 58.3765 67.4108 58.3754 67.3995 58.3714C67.3883 58.3674 67.3781 58.3607 67.3697 58.3518C67.3613 58.3429 67.355 58.332 67.3512 58.3201C67.3475 58.3081 67.3464 58.2954 67.3481 58.283V57.9793C67.3493 57.9703 67.3479 57.9611 67.344 57.953C67.3401 57.9449 67.3339 57.9382 67.3263 57.934C67.3114 57.9276 67.2926 57.9371 67.2696 57.9613C67.1429 58.1243 66.9828 58.2545 66.8017 58.3421C66.6205 58.4296 66.4229 58.4722 66.2239 58.4665C66.0422 58.4783 65.8602 58.4493 65.6898 58.3813C65.5194 58.3133 65.3644 58.208 65.235 58.072C64.9975 57.7976 64.8716 57.4348 64.8844 57.0624V54.2077C64.8828 54.1952 64.8838 54.1825 64.8876 54.1706C64.8913 54.1586 64.8977 54.1478 64.9061 54.1389C64.9144 54.13 64.9247 54.1233 64.9359 54.1193C64.9472 54.1153 64.9591 54.1141 64.9709 54.1159H65.4286C65.4403 54.1141 65.4523 54.1153 65.4636 54.1193C65.4748 54.1233 65.485 54.13 65.4934 54.1389C65.5018 54.1478 65.5081 54.1586 65.5119 54.1706C65.5156 54.1825 65.5167 54.1952 65.515 54.2077V56.9521C65.5069 57.0755 65.5218 57.1994 65.5589 57.3167C65.5961 57.4339 65.6547 57.5422 65.7315 57.6353C65.8147 57.7173 65.9128 57.7804 66.0198 57.8206C66.1269 57.8609 66.2405 57.8774 66.3538 57.8694C66.5372 57.8716 66.7173 57.8174 66.8723 57.7133C67.0353 57.6005 67.1691 57.446 67.2615 57.2641C67.2898 57.2043 67.3044 57.1382 67.3041 57.0712V54.2077C67.3025 54.1952 67.3036 54.1825 67.3073 54.1706C67.3111 54.1586 67.3174 54.1478 67.3258 54.1389C67.3341 54.13 67.3444 54.1233 67.3556 54.1193C67.3669 54.1153 67.3788 54.1141 67.3906 54.1159Z" fill="black"/>
<path d="M69.7935 58.3748H69.3348C69.323 58.3766 69.311 58.3755 69.2998 58.3715C69.2885 58.3675 69.2783 58.3608 69.2699 58.3519C69.2616 58.343 69.2552 58.3321 69.2515 58.3202C69.2477 58.3082 69.2467 58.2955 69.2483 58.2831V54.2078C69.2467 54.1954 69.2477 54.1826 69.2515 54.1707C69.2552 54.1588 69.2616 54.1479 69.2699 54.139C69.2783 54.1301 69.2885 54.1234 69.2998 54.1194C69.311 54.1154 69.323 54.1143 69.3348 54.116H69.7496C69.7614 54.1143 69.7733 54.1154 69.7846 54.1194C69.7958 54.1234 69.8061 54.1301 69.8144 54.139C69.8228 54.1479 69.8291 54.1588 69.8329 54.1707C69.8366 54.1826 69.8377 54.1954 69.8361 54.2078V54.5103C69.8361 54.5357 69.843 54.5506 69.8578 54.5568C69.8727 54.563 69.8877 54.5537 69.9055 54.5294C70.0329 54.3727 70.1885 54.2447 70.3633 54.1529C70.5476 54.0636 70.7485 54.0197 70.951 54.0244C71.1295 54.0091 71.3091 54.0348 71.4775 54.0996C71.6458 54.1644 71.7992 54.2668 71.927 54.4C72.0549 54.5332 72.1543 54.694 72.2185 54.8716C72.2827 55.0491 72.3103 55.2393 72.2993 55.4291V58.2831C72.301 58.2955 72.2999 58.3082 72.2962 58.3202C72.2924 58.3321 72.2861 58.343 72.2777 58.3519C72.2693 58.3608 72.2591 58.3675 72.2478 58.3715C72.2366 58.3755 72.2246 58.3766 72.2129 58.3748H71.7541C71.7424 58.3766 71.7304 58.3755 71.7192 58.3715C71.7079 58.3675 71.6977 58.3608 71.6893 58.3519C71.6809 58.343 71.6746 58.3321 71.6708 58.3202C71.6671 58.3082 71.666 58.2955 71.6677 58.2831V55.538C71.6761 55.4146 71.6613 55.2907 71.6244 55.1735C71.5874 55.0562 71.5289 54.9479 71.4523 54.8547C71.3691 54.7727 71.2709 54.7097 71.1639 54.6694C71.0569 54.6292 70.9433 54.6126 70.83 54.6207C70.6466 54.6185 70.4665 54.6727 70.3114 54.7767C70.1483 54.8895 70.0145 55.044 69.9221 55.2259C69.8938 55.2857 69.8791 55.3518 69.8794 55.4188V58.2825C69.8812 58.295 69.8802 58.3077 69.8765 58.3197C69.8728 58.3316 69.8666 58.3425 69.8582 58.3515C69.8499 58.3604 69.8397 58.3672 69.8285 58.3713C69.8172 58.3753 69.8053 58.3766 69.7935 58.3748V58.3748Z" fill="black"/>
<path d="M76.6642 51.7296H77.123C77.1347 51.7278 77.1467 51.7289 77.158 51.7329C77.1692 51.7369 77.1794 51.7436 77.1878 51.7525C77.1962 51.7614 77.2025 51.7723 77.2063 51.7842C77.21 51.7962 77.2111 51.8089 77.2094 51.8214V58.283C77.2111 58.2955 77.21 58.3082 77.2063 58.3201C77.2025 58.3321 77.1962 58.3429 77.1878 58.3518C77.1794 58.3607 77.1692 58.3674 77.158 58.3714C77.1467 58.3754 77.1347 58.3766 77.123 58.3748H76.699C76.6872 58.3766 76.6753 58.3754 76.664 58.3714C76.6528 58.3674 76.6425 58.3607 76.6342 58.3518C76.6258 58.3429 76.6195 58.3321 76.6157 58.3201C76.612 58.3082 76.6109 58.2955 76.6125 58.283V57.9614C76.6125 57.9309 76.6056 57.914 76.5908 57.9107C76.5759 57.9074 76.5579 57.9192 76.5351 57.9434C76.2412 58.2914 75.8149 58.4658 75.2559 58.4666C74.904 58.471 74.5575 58.3741 74.2533 58.1861C73.9534 57.9991 73.708 57.7275 73.5446 57.4015C73.3742 57.0428 73.2854 56.6467 73.2854 56.245C73.2854 55.8433 73.3742 55.4472 73.5446 55.0885C73.708 54.7625 73.9534 54.4909 74.2533 54.3039C74.5575 54.1158 74.904 54.0189 75.2559 54.0235C75.4834 54.013 75.7105 54.0506 75.9241 54.134C76.1378 54.2175 76.3337 54.3451 76.5005 54.5095C76.5234 54.5349 76.5422 54.5433 76.5562 54.5371C76.5702 54.5308 76.578 54.5129 76.578 54.482V51.8214C76.5763 51.8089 76.5774 51.7962 76.5811 51.7843C76.5849 51.7724 76.5912 51.7615 76.5995 51.7526C76.6079 51.7437 76.6181 51.737 76.6293 51.733C76.6406 51.729 76.6525 51.7278 76.6642 51.7296ZM76.0592 57.6772C76.2602 57.5621 76.4276 57.3907 76.5432 57.1816C76.5659 57.1364 76.5777 57.0859 76.5778 57.0347V55.456C76.5777 55.4048 76.5659 55.3544 76.5432 55.3092C76.4276 55.1001 76.2602 54.9286 76.0592 54.8135C75.8418 54.6885 75.5977 54.6253 75.3505 54.63C75.1584 54.6217 74.9669 54.6571 74.7888 54.7338C74.6107 54.8106 74.4501 54.9269 74.3178 55.0749C74.0635 55.405 73.9245 55.8184 73.9245 56.2449C73.9245 56.6714 74.0635 57.0848 74.3178 57.4149C74.4501 57.563 74.6107 57.6793 74.7888 57.7561C74.9669 57.8329 75.1584 57.8683 75.3505 57.8601C75.5977 57.8649 75.842 57.8019 76.0596 57.6772H76.0592Z" fill="black"/>
<path d="M81.0113 51.9498H83.9586C83.9703 51.948 83.9823 51.9492 83.9936 51.9532C84.0048 51.9572 84.015 51.9639 84.0234 51.9728C84.0318 51.9817 84.0381 51.9925 84.0419 52.0045C84.0456 52.0164 84.0467 52.0291 84.045 52.0416V52.5097C84.0467 52.5222 84.0456 52.5349 84.0419 52.5468C84.0381 52.5588 84.0318 52.5696 84.0234 52.5785C84.015 52.5875 84.0048 52.5942 83.9936 52.5981C83.9823 52.6021 83.9703 52.6033 83.9586 52.6015H81.6077C81.6018 52.6005 81.5958 52.601 81.5902 52.6029C81.5846 52.6049 81.5794 52.6082 81.5752 52.6126C81.5709 52.617 81.5677 52.6223 81.5658 52.6283C81.5638 52.6342 81.5632 52.6406 81.564 52.6468V54.7305C81.5632 54.7368 81.5637 54.7432 81.5657 54.7493C81.5676 54.7553 81.5708 54.7608 81.575 54.7652C81.5792 54.7697 81.5844 54.7731 81.5901 54.7752C81.5957 54.7772 81.6018 54.7778 81.6077 54.777H83.9586C83.9703 54.7752 83.9823 54.7763 83.9936 54.7803C84.0048 54.7843 84.015 54.791 84.0234 54.7999C84.0318 54.8088 84.0381 54.8197 84.0419 54.8316C84.0456 54.8436 84.0467 54.8563 84.045 54.8688V55.3369C84.0467 55.3493 84.0456 55.362 84.0419 55.374C84.0381 55.3859 84.0318 55.3968 84.0234 55.4057C84.015 55.4146 84.0048 55.4213 83.9936 55.4253C83.9823 55.4293 83.9703 55.4304 83.9586 55.4286H81.6077C81.6018 55.4277 81.5958 55.4282 81.5902 55.4301C81.5846 55.432 81.5794 55.4353 81.5752 55.4397C81.5709 55.4441 81.5677 55.4495 81.5658 55.4554C81.5638 55.4614 81.5632 55.4677 81.564 55.474V57.6768C81.5632 57.6831 81.5637 57.6895 81.5657 57.6956C81.5676 57.7016 81.5708 57.707 81.575 57.7115C81.5792 57.716 81.5844 57.7194 81.5901 57.7215C81.5957 57.7235 81.6018 57.7241 81.6077 57.7233H83.9586C83.9703 57.7215 83.9823 57.7226 83.9936 57.7266C84.0048 57.7306 84.015 57.7373 84.0234 57.7462C84.0318 57.7551 84.0381 57.766 84.0419 57.7779C84.0456 57.7899 84.0467 57.8026 84.045 57.815V58.2832C84.0467 58.2956 84.0456 58.3083 84.0419 58.3203C84.0381 58.3322 84.0318 58.3431 84.0234 58.352C84.015 58.3609 84.0048 58.3676 83.9936 58.3716C83.9823 58.3756 83.9703 58.3767 83.9586 58.3749H81.0113C80.9996 58.3767 80.9876 58.3756 80.9764 58.3716C80.9651 58.3676 80.9549 58.3609 80.9465 58.352C80.9381 58.3431 80.9318 58.3322 80.9281 58.3203C80.9243 58.3083 80.9232 58.2956 80.9249 58.2832V52.0418C80.9232 52.0293 80.9242 52.0166 80.9279 52.0046C80.9316 51.9926 80.938 51.9817 80.9463 51.9727C80.9547 51.9638 80.965 51.9571 80.9763 51.9531C80.9876 51.9491 80.9996 51.948 81.0113 51.9498V51.9498Z" fill="black"/>
<path d="M87.6587 54.116H88.1164C88.1282 54.1142 88.1401 54.1154 88.1514 54.1193C88.1626 54.1233 88.1729 54.13 88.1813 54.1389C88.1896 54.1478 88.196 54.1587 88.1997 54.1707C88.2035 54.1826 88.2045 54.1953 88.2029 54.2078V58.283C88.2045 58.2955 88.2035 58.3082 88.1997 58.3201C88.196 58.3321 88.1896 58.3429 88.1813 58.3518C88.1729 58.3608 88.1626 58.3675 88.1514 58.3714C88.1401 58.3754 88.1282 58.3766 88.1164 58.3748H87.7016C87.6898 58.3766 87.6779 58.3754 87.6666 58.3714C87.6554 58.3675 87.6451 58.3608 87.6368 58.3518C87.6284 58.3429 87.622 58.3321 87.6183 58.3201C87.6145 58.3082 87.6135 58.2955 87.6151 58.283V57.9794C87.6151 57.9552 87.6082 57.9403 87.5934 57.934C87.5785 57.9278 87.5605 57.9372 87.5377 57.9614C87.4108 58.1242 87.2508 58.2543 87.0696 58.3418C86.8885 58.4293 86.691 58.472 86.4921 58.4666C86.3102 58.4785 86.128 58.4495 85.9574 58.3815C85.7868 58.3136 85.6317 58.2081 85.5021 58.0721C85.2649 57.7975 85.1393 57.4347 85.1526 57.0625V54.2078C85.1508 54.1953 85.1518 54.1826 85.1556 54.1706C85.1593 54.1586 85.1656 54.1477 85.174 54.1388C85.1824 54.1298 85.1927 54.1231 85.2039 54.1192C85.2152 54.1152 85.2272 54.1141 85.239 54.116H85.6967C85.7085 54.1142 85.7204 54.1154 85.7317 54.1193C85.7429 54.1233 85.7532 54.13 85.7615 54.1389C85.7699 54.1478 85.7762 54.1587 85.78 54.1707C85.7837 54.1826 85.7848 54.1953 85.7832 54.2078V56.9521C85.7747 57.0756 85.7895 57.1996 85.8267 57.3169C85.8639 57.4342 85.9226 57.5424 85.9996 57.6354C86.0827 57.7175 86.1808 57.7807 86.2879 57.821C86.3949 57.8612 86.5086 57.8777 86.6219 57.8694C86.8053 57.8719 86.9855 57.8177 87.1405 57.7134C87.3036 57.6008 87.4375 57.4463 87.5296 57.2642C87.5583 57.2044 87.5732 57.1383 87.5733 57.0713V54.2078C87.5717 54.1954 87.5727 54.1828 87.5764 54.171C87.5801 54.1591 87.5863 54.1483 87.5946 54.1394C87.6029 54.1306 87.613 54.1238 87.6241 54.1198C87.6352 54.1157 87.647 54.1144 87.6587 54.116Z" fill="black"/>
<path d="M91.3833 54.0332C91.4351 54.0332 91.4607 54.0639 91.4607 54.125V54.6116C91.4607 54.6667 91.4408 54.6939 91.4 54.6939C91.358 54.6938 91.316 54.6892 91.2749 54.6801C91.2366 54.672 91.1977 54.6674 91.1587 54.6665C90.9696 54.6615 90.7825 54.7088 90.6158 54.8038C90.4491 54.8988 90.3086 55.0383 90.208 55.2084C90.1657 55.2761 90.1445 55.3562 90.1475 55.4373V58.2827C90.1492 58.2951 90.1481 58.3078 90.1443 58.3198C90.1406 58.3317 90.1343 58.3426 90.1259 58.3515C90.1175 58.3604 90.1073 58.3671 90.096 58.3711C90.0848 58.3751 90.0728 58.3762 90.0611 58.3744H89.6033C89.5916 58.3762 89.5796 58.3751 89.5684 58.3711C89.5571 58.3671 89.5469 58.3604 89.5385 58.3515C89.5301 58.3426 89.5238 58.3317 89.52 58.3198C89.5163 58.3078 89.5152 58.2951 89.5169 58.2827V54.2078C89.5152 54.1953 89.5163 54.1826 89.52 54.1707C89.5238 54.1587 89.5301 54.1479 89.5385 54.139C89.5469 54.13 89.5571 54.1233 89.5684 54.1194C89.5796 54.1154 89.5916 54.1142 89.6033 54.116H90.0182C90.0299 54.1142 90.0419 54.1154 90.0531 54.1194C90.0644 54.1233 90.0746 54.13 90.083 54.139C90.0914 54.1479 90.0977 54.1587 90.1015 54.1707C90.1052 54.1826 90.1063 54.1953 90.1046 54.2078V54.5382C90.1046 54.5635 90.1094 54.5782 90.1219 54.5847C90.1343 54.5911 90.1478 54.5847 90.1656 54.5663C90.2953 54.3926 90.4611 54.2532 90.6501 54.1592C90.839 54.0651 91.046 54.0189 91.2547 54.0242C91.2977 54.023 91.3408 54.026 91.3833 54.0332V54.0332Z" fill="black"/>
<path d="M92.8133 58.168C92.5081 57.972 92.2575 57.6932 92.0873 57.3603C91.9146 57.0172 91.8242 56.6342 91.8242 56.2451C91.8242 55.8561 91.9146 55.473 92.0873 55.1299C92.2575 54.797 92.5081 54.5182 92.8133 54.3222C93.1266 54.1268 93.4832 54.0238 93.8465 54.0238C94.2098 54.0238 94.5665 54.1268 94.8797 54.3222C95.185 54.5182 95.4356 54.797 95.6057 55.1299C95.7785 55.473 95.8688 55.8561 95.8688 56.2451C95.8688 56.6342 95.7785 57.0172 95.6057 57.3603C95.4355 57.6932 95.1849 57.972 94.8797 58.168C94.5665 58.3634 94.2098 58.4665 93.8465 58.4665C93.4832 58.4665 93.1266 58.3634 92.8133 58.168V58.168ZM94.5592 57.6357C94.7699 57.4921 94.9402 57.2909 95.0524 57.0532C95.1687 56.8019 95.2292 56.5256 95.2292 56.2455C95.2292 55.9654 95.1687 55.6891 95.0524 55.4378C94.9402 55.2005 94.7701 54.9995 94.5599 54.8557C94.3457 54.7144 94.0986 54.6394 93.8464 54.6394C93.5943 54.6394 93.3471 54.7144 93.133 54.8557C92.9228 54.9996 92.7527 55.2005 92.6405 55.4378C92.5242 55.6892 92.4638 55.9655 92.4638 56.2455C92.4638 56.5255 92.5242 56.8018 92.6405 57.0532C92.7524 57.291 92.9225 57.4924 93.133 57.6364C93.3471 57.7777 93.5943 57.8526 93.8464 57.8526C94.0986 57.8526 94.3457 57.7777 94.5599 57.6364L94.5592 57.6357Z" fill="black"/>
<path d="M97.4416 60.1821H96.9837C96.9719 60.1839 96.96 60.1827 96.9487 60.1787C96.9375 60.1748 96.9272 60.168 96.9189 60.1591C96.9105 60.1502 96.9042 60.1394 96.9004 60.1274C96.8967 60.1155 96.8956 60.1028 96.8973 60.0903V54.2078C96.8956 54.1954 96.8967 54.1826 96.9004 54.1707C96.9042 54.1588 96.9105 54.1479 96.9189 54.139C96.9272 54.1301 96.9375 54.1234 96.9487 54.1194C96.96 54.1154 96.9719 54.1143 96.9837 54.116H97.3985C97.4103 54.1143 97.4223 54.1154 97.4335 54.1194C97.4448 54.1234 97.455 54.1301 97.4634 54.139C97.4718 54.1479 97.4781 54.1588 97.4818 54.1707C97.4856 54.1826 97.4867 54.1954 97.485 54.2078V54.5294C97.485 54.5599 97.4921 54.5768 97.5059 54.5801C97.5197 54.5834 97.5396 54.5717 97.5624 54.5472C97.8505 54.1982 98.2769 54.0239 98.8416 54.0243C99.1966 54.0189 99.5463 54.1159 99.8535 54.3047C100.153 54.4919 100.399 54.7634 100.562 55.0893C100.733 55.448 100.821 55.8441 100.821 56.2458C100.821 56.6475 100.733 57.0437 100.562 57.4023C100.399 57.7282 100.153 57.9997 99.8535 58.1869C99.5462 58.3757 99.1966 58.4726 98.8416 58.4674C98.6152 58.4795 98.3888 58.4425 98.1763 58.3587C97.9637 58.275 97.7695 58.1462 97.6053 57.9802C97.5825 57.9559 97.5636 57.9475 97.5498 57.9526C97.536 57.9578 97.5278 57.978 97.5278 58.0077V60.0903C97.5295 60.1028 97.5284 60.1154 97.5247 60.1274C97.521 60.1393 97.5146 60.1502 97.5063 60.1591C97.4979 60.168 97.4877 60.1747 97.4765 60.1787C97.4653 60.1827 97.4533 60.1838 97.4416 60.1821ZM99.788 57.415C100.042 57.0849 100.181 56.6715 100.181 56.245C100.181 55.8185 100.042 55.4051 99.788 55.075C99.6557 54.927 99.495 54.8107 99.317 54.734C99.1389 54.6573 98.9474 54.6218 98.7553 54.63C98.5032 54.6252 98.2539 54.6864 98.0293 54.8083C97.8265 54.9167 97.6626 55.0927 97.5626 55.3092C97.5404 55.3547 97.5286 55.405 97.528 55.4561V57.0348C97.5286 57.0859 97.5404 57.1362 97.5626 57.1816C97.6629 57.398 97.8267 57.5738 98.0293 57.6826C98.2539 57.8045 98.5032 57.8657 98.7553 57.8609C98.9474 57.869 99.139 57.8335 99.3171 57.7566C99.4952 57.6796 99.6558 57.5632 99.788 57.415V57.415Z" fill="black"/>
<path d="M102.533 58.1861C102.233 57.9991 101.987 57.7275 101.824 57.4015C101.653 57.0429 101.565 56.6467 101.565 56.245C101.565 55.8433 101.653 55.4472 101.824 55.0885C101.987 54.7625 102.233 54.4909 102.533 54.3039C102.837 54.1158 103.183 54.0189 103.535 54.0235C103.779 54.008 104.023 54.0511 104.249 54.1497C104.475 54.2482 104.677 54.3996 104.84 54.5925C104.844 54.5979 104.85 54.6017 104.856 54.6032C104.862 54.6047 104.869 54.6039 104.875 54.601C104.881 54.5974 104.885 54.592 104.888 54.5854C104.892 54.5789 104.893 54.5715 104.892 54.5642V54.2079C104.89 54.1955 104.891 54.1828 104.895 54.1708C104.899 54.1589 104.905 54.148 104.913 54.1391C104.922 54.1302 104.932 54.1235 104.943 54.1195C104.955 54.1155 104.967 54.1144 104.978 54.1162H105.402C105.414 54.1144 105.426 54.1155 105.437 54.1195C105.449 54.1235 105.459 54.1302 105.467 54.1391C105.476 54.148 105.482 54.1589 105.486 54.1708C105.489 54.1828 105.49 54.1955 105.489 54.2079V58.2832C105.49 58.2957 105.489 58.3084 105.486 58.3203C105.482 58.3323 105.476 58.3431 105.467 58.352C105.459 58.3609 105.449 58.3676 105.437 58.3716C105.426 58.3756 105.414 58.3767 105.402 58.375H104.978C104.967 58.3767 104.955 58.3756 104.943 58.3716C104.932 58.3676 104.922 58.3609 104.913 58.352C104.905 58.3431 104.899 58.3323 104.895 58.3203C104.891 58.3084 104.89 58.2957 104.892 58.2832V57.9247C104.893 57.9174 104.891 57.9102 104.888 57.9037C104.885 57.8972 104.88 57.8917 104.875 57.888C104.869 57.8854 104.862 57.885 104.856 57.8867C104.85 57.8884 104.844 57.8922 104.84 57.8975C104.671 58.082 104.467 58.2276 104.243 58.3255C104.019 58.4234 103.778 58.4714 103.535 58.4666C103.183 58.4711 102.837 58.3741 102.533 58.1861V58.1861ZM104.356 57.6767C104.557 57.5682 104.72 57.3946 104.822 57.181C104.846 57.1298 104.858 57.0731 104.857 57.0158V55.4738C104.858 55.4166 104.846 55.3598 104.822 55.3086C104.711 55.0977 104.544 54.9256 104.343 54.813C104.124 54.6883 103.878 54.6251 103.63 54.6294C103.438 54.6212 103.246 54.6566 103.068 54.7334C102.89 54.8101 102.729 54.9264 102.597 55.0744C102.343 55.4045 102.204 55.8179 102.204 56.2444C102.204 56.6709 102.343 57.0842 102.597 57.4143C102.729 57.5624 102.89 57.6788 103.068 57.7555C103.246 57.8323 103.438 57.8678 103.63 57.8595C103.882 57.8647 104.132 57.802 104.356 57.6774V57.6767Z" fill="black"/>
</svg>
