<?xml version="1.0" encoding="UTF-8"?>
<svg width="160px" height="100px" viewBox="0 0 230 100" version="1.1" xmlns="http://www.w3.org/2000/svg" xmlns:xlink="http://www.w3.org/1999/xlink">
    <!-- Generator: Sketch 60.1 (88133) - https://sketch.com -->
    <title>logo-tanzkomplizen-inv</title>
    <desc>Created with Sketch.</desc>
    <g id="logo-tanzkomplizen-inv" stroke="none" stroke-width="1" fill="none" fill-rule="evenodd">
        <g id="Group" transform="translate(15.000000, 24.000000)" fill="#FFFFFF">
            <polyline id="Fill-1" points="15.1481286 0.1311 15.1481286 3.7306 9.59888571 3.7306 9.59888571 21.1284571 5.54924286 21.1284571 5.54924286 3.7306 -1.71418435e-13 3.7306 -1.71418435e-13 0.1311 15.1481286 0.1311"></polyline>
            <path d="M25.5868429,12.8796714 L30.9261286,12.8796714 L28.2564857,6.67032857 L25.5868429,12.8796714 Z M17.8476714,21.1284571 L26.8469143,0.1311 L29.6962857,0.1311 L38.6952,21.1284571 L34.4658286,21.1284571 L32.4861857,16.4791714 L24.0570143,16.4791714 L22.0773714,21.1284571 L17.8476714,21.1284571 L17.8476714,21.1284571 Z" id="Fill-2"></path>
            <polyline id="Fill-3" points="44.6939286 0.1311 47.5439571 0.1311 59.2424143 13.8095286 59.2424143 0.1311 63.2917286 0.1311 63.2917286 21.1284571 60.4423571 21.1284571 48.7435714 7.45002857 48.7435714 21.1284571 44.6939286 21.1284571 44.6939286 0.1311"></polyline>
            <polyline id="Fill-4" points="70.4910571 18.7289 80.6899143 3.7306 71.3910143 3.7306 71.3910143 0.1311 86.0893286 0.1311 86.0893286 2.53065714 75.8602429 17.5289571 86.6889714 17.5289571 86.6889714 21.1284571 70.4910571 21.1284571 70.4910571 18.7289"></polyline>
            <polyline id="Fill-5" points="5.6994 36.5634286 5.6994 46.8825429 1.65008571 46.8825429 1.65008571 25.8848571 5.6994 25.8848571 5.6994 34.2841286 13.6482 25.8848571 18.9874857 25.8848571 9.74871429 35.4837429 20.0977286 46.8825429 14.9082714 46.8825429 5.6994 36.5634286"></polyline>
            <path d="M34.0459143,43.5830286 C38.0055286,43.5830286 40.9449286,40.3429857 40.9449286,36.3833714 C40.9449286,32.4240857 38.0055286,29.1843714 34.0459143,29.1843714 C30.0863,29.1843714 27.1469,32.4240857 27.1469,36.3833714 C27.1469,40.3429857 30.0863,43.5830286 34.0459143,43.5830286 Z M34.0459143,25.5848714 C40.5250143,25.5848714 44.9945714,30.4145429 44.9945714,36.3833714 C44.9945714,42.3528571 40.5250143,47.1825286 34.0459143,47.1825286 C27.5664857,47.1825286 23.0972571,42.3528571 23.0972571,36.3833714 C23.0972571,30.4145429 27.5664857,25.5848714 34.0459143,25.5848714 L34.0459143,25.5848714 Z" id="Fill-6"></path>
            <polyline id="Fill-7" points="62.3921 38.4533714 70.0412429 25.8848571 72.8909429 25.8848571 72.8909429 46.8825429 68.8413 46.8825429 68.8413 35.1837571 63.802 43.4328714 60.9822 43.4328714 55.9429 35.1837571 55.9429 46.8825429 51.8932571 46.8825429 51.8932571 25.8848571 54.7429571 25.8848571 62.3921 38.4533714"></polyline>
            <path d="M88.9985,34.7339429 C90.3781714,34.7339429 91.0681714,34.4040571 91.5482143,33.8937857 C91.9980286,33.4137429 92.2382143,32.8141 92.2382143,32.1241 C92.2382143,31.4341 91.9980286,30.8042286 91.5482143,30.3241857 C91.0681714,29.8142429 90.3781714,29.4843571 88.9985,29.4843571 L85.3388714,29.4843571 L85.3388714,34.7339429 L88.9985,34.7339429 Z M85.3388714,38.3334429 L85.3388714,46.8825429 L81.2892286,46.8825429 L81.2892286,25.8848571 L89.1785571,25.8848571 C91.8781,25.8848571 93.4680571,26.5446286 94.6377714,27.7744714 C95.6878857,28.8544857 96.2875286,30.4743429 96.2875286,32.1241 C96.2875286,33.7738571 95.6878857,35.3937143 94.6377714,36.4737286 C93.4979571,37.6733429 91.8781,38.3334429 89.1785571,38.3334429 L85.3388714,38.3334429 L85.3388714,38.3334429 Z" id="Fill-8"></path>
            <polyline id="Fill-9" points="102.886557 25.8848571 106.935871 25.8848571 106.935871 43.2830429 115.784957 43.2830429 115.784957 46.8825429 102.886557 46.8825429 102.886557 25.8848571"></polyline>
            <polygon id="Fill-10" points="122.533486 46.8825429 126.5828 46.8825429 126.5828 25.8848571 122.533486 25.8848571"></polygon>
            <polyline id="Fill-11" points="133.782457 44.4826571 143.981314 29.4843571 134.682414 29.4843571 134.682414 25.8848571 149.3804 25.8848571 149.3804 28.2844143 139.151643 43.2830429 149.980371 43.2830429 149.980371 46.8825429 133.782457 46.8825429 133.782457 44.4826571"></polyline>
            <polyline id="Fill-12" points="161.078857 29.4843571 161.078857 33.8339857 167.528057 33.8339857 167.528057 37.4334857 161.078857 37.4334857 161.078857 43.2830429 169.927614 43.2830429 169.927614 46.8825429 157.029214 46.8825429 157.029214 25.8848571 169.627629 25.8848571 169.627629 29.4843571 161.078857 29.4843571"></polyline>
            <polyline id="Fill-13" points="177.126286 25.8848571 179.975986 25.8848571 191.674771 39.5632857 191.674771 25.8848571 195.724086 25.8848571 195.724086 46.8825429 192.874386 46.8825429 181.175929 33.2041143 181.175929 46.8825429 177.126286 46.8825429 177.126286 25.8848571"></polyline>
            <polyline id="Fill-14" points="96.9719429 1.72302857 96.9719429 3.64517143 99.8219714 3.64517143 99.8219714 5.23611429 96.9719429 5.23611429 96.9719429 9.4116 95.1825429 9.4116 95.1825429 0.132414286 100.749857 0.132414286 100.749857 1.72302857 96.9719429 1.72302857"></polyline>
            <path d="M105.720814,8.58984286 C104.951629,7.9005 104.527443,6.91971429 104.527443,5.50127143 L104.527443,0.132414286 L106.3175,0.132414286 L106.3175,5.63368571 C106.3175,6.48205714 106.542571,6.9989 106.927,7.35704286 C107.324571,7.74147143 107.8815,7.9534 108.504471,7.9534 C109.127443,7.9534 109.684371,7.74147143 110.081943,7.35704286 C110.466371,6.9989 110.691771,6.48205714 110.691771,5.63368571 L110.691771,0.132414286 L112.481171,0.132414286 L112.481171,5.50127143 C112.481171,6.91971429 112.056986,7.9005 111.288457,8.58984286 C110.5725,9.22595714 109.551629,9.54401429 108.504471,9.54401429 C107.457314,9.54401429 106.436443,9.22595714 105.720814,8.58984286" id="Fill-15"></path>
            <path d="M120.328443,3.71154286 C120.845286,3.71154286 121.071014,3.60541429 121.229714,3.43324286 C121.389071,3.26074286 121.4952,2.99558571 121.4952,2.73075714 C121.4952,2.45245714 121.389071,2.18697143 121.229714,2.0148 C121.071014,1.8423 120.845286,1.72302857 120.328443,1.72302857 L118.843957,1.72302857 L118.843957,3.71154286 L120.328443,3.71154286 Z M118.843957,5.30215714 L118.843957,9.4116 L117.054229,9.4116 L117.054229,0.132414286 L120.434571,0.132414286 C121.389071,0.132414286 121.9989,0.397571429 122.462514,0.821757143 C122.966543,1.29884286 123.2846,1.97504286 123.2846,2.71728571 C123.2846,3.45952857 122.966543,4.13572857 122.462514,4.61314286 C122.211157,4.85168571 121.905914,5.03732857 121.534957,5.15627143 L125.007629,9.4116 L122.794043,9.4116 L119.493214,5.30215714 L118.843957,5.30215714 L118.843957,5.30215714 Z" id="Fill-16"></path>
            <path d="M138.462629,6.49552857 C138.462629,7.23744286 138.382786,7.74147143 138.170857,8.13904286 C137.693771,9.02717143 136.712657,9.54401429 135.638886,9.54401429 C134.4327,9.54401429 133.451914,8.9079 133.027729,7.91364286 L134.565114,7.14478571 C134.711,7.51607143 135.0422,7.9534 135.652357,7.9534 C135.983557,7.9534 136.275,7.82098571 136.460971,7.58244286 C136.593386,7.40994286 136.6729,7.18454286 136.6729,6.69431429 L136.6729,0.132414286 L138.462629,0.132414286 L138.462629,6.49552857" id="Fill-17"></path>
            <path d="M144.162357,8.58984286 C143.3935,7.9005 142.968986,6.91971429 142.968986,5.50127143 L142.968986,0.132414286 L144.759043,0.132414286 L144.759043,5.63368571 C144.759043,6.48205714 144.984114,6.9989 145.368543,7.35704286 C145.766114,7.74147143 146.323043,7.9534 146.946014,7.9534 C147.568986,7.9534 148.125914,7.74147143 148.523486,7.35704286 C148.907914,6.9989 149.133314,6.48205714 149.133314,5.63368571 L149.133314,0.132414286 L150.923043,0.132414286 L150.923043,5.50127143 C150.923043,6.91971429 150.498857,7.9005 149.73,8.58984286 C149.014043,9.22595714 147.9935,9.54401429 146.946014,9.54401429 C145.898857,9.54401429 144.877986,9.22595714 144.162357,8.58984286" id="Fill-18"></path>
            <polyline id="Fill-19" points="155.495771 0.132414286 156.755186 0.132414286 161.924929 6.17714286 161.924929 0.132414286 163.714329 0.132414286 163.714329 9.4116 162.454914 9.4116 157.285171 3.36687143 157.285171 9.4116 155.495771 9.4116 155.495771 0.132414286"></polyline>
            <path d="M169.480757,4.77184286 C169.480757,6.57471429 170.859114,7.9534 172.648843,7.9534 C173.497214,7.9534 174.186229,7.66162857 174.716871,7.23744286 L174.716871,5.23611429 L172.330786,5.23611429 L172.330786,3.64517143 L176.506271,3.64517143 L176.506271,7.76808571 C175.684514,8.81524286 174.305829,9.54401429 172.608757,9.54401429 C169.7193,9.54401429 167.691029,7.43655714 167.691029,4.77184286 C167.691029,2.10778571 169.692686,-7.46069873e-14 172.582471,-7.46069873e-14 C173.961157,-7.46069873e-14 175.141057,0.516842857 175.976286,1.32545714 L174.823,2.54511429 C174.265743,1.98818571 173.484071,1.59061429 172.569,1.59061429 C170.806214,1.59061429 169.480757,3.00905714 169.480757,4.77184286" id="Fill-20"></path>
            <polyline id="Fill-21" points="182.669943 1.72302857 182.669943 3.64517143 185.519643 3.64517143 185.519643 5.23611429 182.669943 5.23611429 182.669943 7.82098571 186.580271 7.82098571 186.580271 9.4116 180.880214 9.4116 180.880214 0.132414286 186.447857 0.132414286 186.447857 1.72302857 182.669943 1.72302857"></polyline>
            <path d="M191.126714,6.93285714 C191.6567,7.51607143 192.465314,7.9534 193.313686,7.9534 C194.109157,7.9534 194.665757,7.46317143 194.665757,6.78697143 C194.665757,5.59392857 192.9424,5.44804286 191.696457,4.71894286 C190.967357,4.29475714 190.384143,3.65864286 190.384143,2.61115714 C190.384143,0.954171429 191.908714,-7.46069873e-14 193.4461,-7.46069873e-14 C194.387786,-7.46069873e-14 195.262443,0.2254 196.137429,0.874657143 L195.209543,2.20044286 C194.838257,1.85577143 194.214957,1.59061429 193.605457,1.59061429 C192.929257,1.59061429 192.173543,1.88238571 192.173543,2.59801429 C192.173543,4.09597143 196.455486,3.63202857 196.455486,6.76035714 C196.455486,8.4042 194.984143,9.54401429 193.313686,9.54401429 C192.067743,9.54401429 190.914457,9.02717143 189.959957,8.15251429 L191.126714,6.93285714" id="Fill-22"></path>
            <path d="M98.5891714,15.7839143 C99.1993286,15.7839143 99.5039143,15.6380286 99.7161714,15.4126286 C99.9149571,15.2003714 100.021086,14.9355429 100.021086,14.6303 C100.021086,14.3257143 99.9149571,14.0474143 99.7161714,13.8351571 C99.5039143,13.6097571 99.1993286,13.4642 98.5891714,13.4642 L96.9719429,13.4642 L96.9719429,15.7839143 L98.5891714,15.7839143 Z M96.9719429,17.3745286 L96.9719429,21.1524429 L95.1825429,21.1524429 L95.1825429,11.8732571 L98.6686857,11.8732571 C99.8617286,11.8732571 100.564543,12.1647 101.081386,12.7084857 C101.545329,13.1855714 101.810486,13.9015286 101.810486,14.6303 C101.810486,15.3597286 101.545329,16.0753571 101.081386,16.5524429 C100.577686,17.0827571 99.8617286,17.3745286 98.6686857,17.3745286 L96.9719429,17.3745286 L96.9719429,17.3745286 Z" id="Fill-23"></path>
            <path d="M106.781443,20.3306857 C106.012257,19.6413429 105.588071,18.6602286 105.588071,17.2421143 L105.588071,11.8732571 L107.3778,11.8732571 L107.3778,17.3745286 C107.3778,18.2229 107.6032,18.7397429 107.987629,19.0978857 C108.3852,19.4823143 108.9418,19.6942429 109.564771,19.6942429 C110.188071,19.6942429 110.744671,19.4823143 111.142243,19.0978857 C111.526671,18.7397429 111.7524,18.2229 111.7524,17.3745286 L111.7524,11.8732571 L113.5418,11.8732571 L113.5418,17.2421143 C113.5418,18.6602286 113.117614,19.6413429 112.348757,20.3306857 C111.6328,20.9668 110.612257,21.2848571 109.564771,21.2848571 C108.517614,21.2848571 107.497071,20.9668 106.781443,20.3306857" id="Fill-24"></path>
            <path d="M121.693986,19.5618286 C122.316957,19.5618286 122.661629,19.4028 122.8867,19.1507857 C123.099286,18.9253857 123.218229,18.6336143 123.218229,18.3024143 C123.218229,17.9708857 123.099286,17.6794429 122.8867,17.4540429 C122.661629,17.2023571 122.316957,17.043 121.693986,17.043 L119.904257,17.043 L119.904257,19.5618286 L121.693986,19.5618286 Z M119.904257,15.4523857 L121.163671,15.4523857 C121.7206,15.4523857 121.972286,15.3199714 122.157929,15.1211857 C122.316957,14.9486857 122.423086,14.7101429 122.423086,14.4581286 C122.423086,14.2061143 122.316957,13.9675714 122.157929,13.7954 C121.972286,13.5966143 121.7206,13.4642 121.163671,13.4642 L119.904257,13.4642 L119.904257,15.4523857 Z M121.269471,11.8732571 C122.316957,11.8732571 122.900171,12.1249429 123.350643,12.5228429 C123.868143,12.9733143 124.212814,13.6363714 124.212814,14.3917571 C124.212814,15.0015857 123.921043,15.6245571 123.616129,15.9429429 C124.437886,16.3536571 125.007629,17.2818714 125.007629,18.3155571 C125.007629,19.0978857 124.676757,19.8135143 124.159257,20.3172143 C123.642414,20.8343857 122.926457,21.1524429 121.733743,21.1524429 L118.114857,21.1524429 L118.114857,11.8732571 L121.269471,11.8732571 L121.269471,11.8732571 Z" id="Fill-25"></path>
            <polyline id="Fill-26" points="128.918286 11.8732571 130.707686 11.8732571 130.707686 19.5618286 134.618014 19.5618286 134.618014 21.1524429 128.918286 21.1524429 128.918286 11.8732571"></polyline>
            <polygon id="Fill-27" points="138.528343 21.1524429 140.317743 21.1524429 140.317743 11.8732571 138.528343 11.8732571"></polygon>
            <polyline id="Fill-28" points="146.7469 16.5925286 146.7469 21.1524429 144.957171 21.1524429 144.957171 11.8732571 146.7469 11.8732571 146.7469 15.5851286 150.259657 11.8732571 152.619457 11.8732571 148.5363 16.1151143 153.109686 21.1524429 150.816257 21.1524429 146.7469 16.5925286"></polyline>
            <path d="M157.483957,20.3306857 C156.714771,19.6413429 156.290586,18.6602286 156.290586,17.2421143 L156.290586,11.8732571 L158.080643,11.8732571 L158.080643,17.3745286 C158.080643,18.2229 158.305714,18.7397429 158.690143,19.0978857 C159.087714,19.4823143 159.644314,19.6942429 160.267614,19.6942429 C160.890586,19.6942429 161.447514,19.4823143 161.845086,19.0978857 C162.229514,18.7397429 162.454914,18.2229 162.454914,17.3745286 L162.454914,11.8732571 L164.244314,11.8732571 L164.244314,17.2421143 C164.244314,18.6602286 163.820129,19.6413429 163.0516,20.3306857 C162.335643,20.9668 161.314771,21.2848571 160.267614,21.2848571 C159.220129,21.2848571 158.199586,20.9668 157.483957,20.3306857" id="Fill-29"></path>
            <polyline id="Fill-30" points="173.457129 17.4274286 176.837471 11.8732571 178.096886 11.8732571 178.096886 21.1524429 176.307157 21.1524429 176.307157 15.9827 174.0801 19.6278714 172.834157 19.6278714 170.6071 15.9827 170.6071 21.1524429 168.817371 21.1524429 168.817371 11.8732571 170.076786 11.8732571 173.457129 17.4274286"></polyline>
            <path d="M107.6515,4.89932857 C107.6515,4.31578571 108.101971,3.8387 108.685514,3.8387 C109.268729,3.8387 109.719529,4.31578571 109.719529,4.89932857 C109.719529,5.48221429 109.268729,5.95962857 108.685514,5.95962857 C108.101971,5.95962857 107.6515,5.48221429 107.6515,4.89932857" id="Fill-31"></path>
            <path d="M107.6515,1.4582 C107.6515,0.874985714 108.101971,0.397571429 108.685514,0.397571429 C109.268729,0.397571429 109.719529,0.874985714 109.719529,1.4582 C109.719529,2.04174286 109.268729,2.51882857 108.685514,2.51882857 C108.101971,2.51882857 107.6515,2.04174286 107.6515,1.4582" id="Fill-32"></path>
        </g>
    </g>
</svg>