<?xml version="1.0" encoding="UTF-8"?>
<svg width="180px" height="100px" viewBox="0 0 275 100" version="1.1" xmlns="http://www.w3.org/2000/svg" xmlns:xlink="http://www.w3.org/1999/xlink">
    <!-- Generator: Sketch 60.1 (88133) - https://sketch.com -->
    <title>logo-theater_strahl-inv</title>
    <desc>Created with Sketch.</desc>
    <g id="logo-theater_strahl-inv" stroke="none" stroke-width="1" fill="none" fill-rule="evenodd">
        <g id="Group" transform="translate(16.000000, 20.500000)">
            <path d="M93.8071023,24.5453006 L94.8274714,24.5453006 C95.8949542,24.5453006 96.7591378,23.681117 96.7591378,22.6149249 L96.7591378,19.8945861 L98.5914135,23.491371 C98.9218556,24.1387019 99.5859667,24.5453006 100.312681,24.5453006 L101.425987,24.5453006 C102.099779,24.5453006 102.726458,24.1942059 103.076261,23.6191592 C103.427356,23.0428217 103.451881,22.3264335 103.141446,21.7281526 L101.295617,18.1649282 C102.35471,17.3007447 102.940083,16.0422249 102.940083,14.4952138 C102.940083,11.5302703 100.78511,9.53922757 97.5774983,9.53922757 L93.8071023,9.53922757 C92.7402648,9.53922757 91.8760812,10.4027657 91.8760812,11.4689578 L91.8760812,22.6149249 C91.8760812,23.681117 92.7402648,24.5453006 93.8071023,24.5453006" id="Fill-1" fill="#FFFFFF"></path>
            <path d="M39.1802464,24.570471 L45.84072,24.570471 C46.9082029,24.570471 47.7723865,23.7062874 47.7723865,22.6407407 L47.7723865,21.8075361 C47.7723865,20.7406986 46.9082029,19.8771605 45.84072,19.8771605 L42.1322819,19.8771605 L42.1322819,19.0846157 L44.0478135,19.0846157 C45.114651,19.0846157 45.9794799,18.2210776 45.9794799,17.1548855 L45.9794799,16.5469236 C45.9794799,15.4813769 45.114651,14.8475993 44.0478135,14.8475993 L42.1322819,14.8475993 L42.1322819,14.0847427 L45.5470654,14.0847427 C46.6145483,14.0847427 47.4793773,13.3935249 47.4793773,12.3279782 L47.4793773,11.4941282 C47.4793773,10.4279361 46.6145483,9.56439797 45.5470654,9.56439797 L39.1802464,9.56439797 C38.1134089,9.56439797 37.2492253,10.4279361 37.2492253,11.4941282 L37.2492253,22.6407407 C37.2492253,23.7062874 38.1134089,24.570471 39.1802464,24.570471" id="Fill-2" fill="#FFFFFF"></path>
            <path d="M51.9287286,24.5453006 L53.011701,24.5453006 C53.8552319,24.5453006 54.6019536,23.9973605 54.8543029,23.1925532 L55.5726273,20.9020473 L56.9486089,20.9020473 L57.6559615,23.1860993 C57.9063746,23.9941335 58.6543871,24.5453006 59.501145,24.5453006 L60.5828266,24.5453006 C61.1985332,24.5453006 61.7768069,24.2522914 62.1408095,23.7559828 C62.5048121,23.2596743 62.6100115,22.6207335 62.4247832,22.0340697 L58.9015733,10.8881026 C58.6485786,10.0845861 57.9025023,9.53922757 57.0596167,9.53922757 L55.4990523,9.53922757 C54.6587483,9.53922757 53.9146082,10.0820045 53.6583865,10.8810032 L50.0893536,22.0269703 C49.9008983,22.6142795 50.0048069,23.2551565 50.3688095,23.7527559 C50.7321667,24.2510006 51.3117312,24.5453006 51.9287286,24.5453006" id="Fill-3" fill="#FFFFFF"></path>
            <path d="M79.8891648,24.570471 L86.5502839,24.570471 C87.6171214,24.570471 88.4813049,23.7062874 88.4813049,22.6407407 L88.4813049,21.8075361 C88.4813049,20.7406986 87.6171214,19.8771605 86.5502839,19.8771605 L82.8418457,19.8771605 L82.8418457,19.0846157 L84.7573773,19.0846157 C85.8248602,19.0846157 86.6896891,18.2210776 86.6896891,17.1548855 L86.6896891,16.5469236 C86.6896891,15.4813769 85.8248602,14.8475993 84.7573773,14.8475993 L82.8418457,14.8475993 L82.8418457,14.0847427 L86.2566292,14.0847427 C87.3234667,14.0847427 88.1876503,13.3935249 88.1876503,12.3279782 L88.1876503,11.4941282 C88.1876503,10.4279361 87.3234667,9.56439797 86.2566292,9.56439797 L79.8891648,9.56439797 C78.8229727,9.56439797 77.9587891,10.4279361 77.9587891,11.4941282 L77.9587891,22.6407407 C77.9587891,23.7062874 78.8229727,24.570471 79.8891648,24.570471" id="Fill-4" fill="#FFFFFF"></path>
            <path d="M65.5078339,14.2325381 L66.88317,14.2325381 L66.88317,22.6149249 C66.88317,23.681117 67.7473536,24.5453006 68.8148365,24.5453006 L69.8345602,24.5453006 C70.9020431,24.5453006 71.7662266,23.681117 71.7662266,22.6149249 L71.7662266,14.2325381 L73.1415628,14.2325381 C74.2084003,14.2325381 75.0732292,13.3683545 75.0732292,12.3028078 L75.0732292,11.4683124 C75.0732292,10.4027657 74.2084003,9.53922757 73.1415628,9.53922757 L65.5078339,9.53922757 C64.4409964,9.53922757 63.5761674,10.4027657 63.5761674,11.4683124 L63.5761674,12.3028078 C63.5761674,13.3683545 64.4409964,14.2325381 65.5078339,14.2325381" id="Fill-5" fill="#FFFFFF"></path>
            <path d="M23.6785102,24.5453006 L24.6988792,24.5453006 C25.7657167,24.5453006 26.6305457,23.681117 26.6305457,22.6149249 L26.6305457,19.1723894 L28.7939089,19.1723894 L28.7939089,22.6149249 C28.7939089,23.681117 29.6580924,24.5453006 30.7249299,24.5453006 L31.745299,24.5453006 C32.8121365,24.5453006 33.6769654,23.681117 33.6769654,22.6149249 L33.6769654,11.4689578 C33.6769654,10.4027657 32.8121365,9.53922757 31.745299,9.53922757 L30.7249299,9.53922757 C29.6580924,9.53922757 28.7939089,10.4027657 28.7939089,11.4689578 L28.7939089,14.4790789 L26.6305457,14.4790789 L26.6305457,11.4689578 C26.6305457,10.4027657 25.7657167,9.53922757 24.6988792,9.53922757 L23.6785102,9.53922757 C22.6116727,9.53922757 21.7474891,10.4027657 21.7474891,11.4689578 L21.7474891,22.6149249 C21.7474891,23.681117 22.6116727,24.5453006 23.6785102,24.5453006" id="Fill-6" fill="#FFFFFF"></path>
            <path d="M10.0987595,14.2325381 L11.4747411,14.2325381 L11.4747411,22.6149249 C11.4747411,23.681117 12.3389246,24.5453006 13.4057621,24.5453006 L14.4254858,24.5453006 C15.4929687,24.5453006 16.3571523,23.681117 16.3571523,22.6149249 L16.3571523,14.2325381 L17.7324885,14.2325381 C18.799326,14.2325381 19.6641549,13.3683545 19.6641549,12.3028078 L19.6641549,11.4683124 C19.6641549,10.4027657 18.799326,9.53922757 17.7324885,9.53922757 L10.0987595,9.53922757 C9.03192201,9.53922757 8.16709306,10.4027657 8.16709306,11.4683124 L8.16709306,12.3028078 C8.16709306,13.3683545 9.03192201,14.2325381 10.0987595,14.2325381" id="Fill-7" fill="#FFFFFF"></path>
            <path d="M70.8504115,28.3705552 L69.8306878,28.3705552 C68.7644957,28.3705552 67.8990214,29.2353842 67.8990214,30.302867 L67.8990214,41.4598059 C67.8990214,42.5266434 68.7644957,43.3908269 69.8306878,43.3908269 L70.8504115,43.3908269 C71.9178944,43.3908269 72.7827233,42.5266434 72.7827233,41.4598059 L72.7827233,30.302867 C72.7827233,29.2353842 71.9178944,28.3705552 70.8504115,28.3705552" id="Fill-8" fill="#FFFFFF"></path>
            <path d="M78.9888391,43.3908269 L80.0092082,43.3908269 C81.0760457,43.3908269 81.9408746,42.5266434 81.9408746,41.4598059 L81.9408746,38.2870453 L84.3320621,42.4259618 C84.6773483,43.0235973 85.3149983,43.3908269 86.0049253,43.3908269 L87.0556279,43.3908269 C88.1224654,43.3908269 88.986649,42.5266434 88.986649,41.4598059 L88.986649,30.3022217 C88.986649,29.2353842 88.1224654,28.3705552 87.0556279,28.3705552 L86.0352589,28.3705552 C84.9684214,28.3705552 84.1035924,29.2353842 84.1035924,30.3022217 L84.1035924,32.366194 L82.38297,29.3457467 C82.03962,28.7423026 81.3987431,28.3705552 80.7042983,28.3705552 L78.9888391,28.3705552 C77.9220016,28.3705552 77.0571727,29.2353842 77.0571727,30.3022217 L77.0571727,41.4598059 C77.0571727,42.5266434 77.9220016,43.3908269 78.9888391,43.3908269" id="Fill-9" fill="#FFFFFF"></path>
            <path d="M14.9876246,28.3705552 L11.8664957,28.3705552 C10.8003036,28.3705552 9.93547464,29.2353842 9.93547464,30.302867 L9.93547464,41.4598059 C9.93547464,42.5266434 10.8003036,43.3908269 11.8664957,43.3908269 L15.4213299,43.3908269 C20.5560904,43.3908269 21.3241102,40.2645348 21.3241102,38.3999894 C21.3241102,37.2608677 20.9613983,36.241144 20.3076135,35.3989039 C20.6793608,34.7438282 20.8749154,33.9803263 20.8749154,33.098717 C20.8749154,31.332917 20.1107681,28.3705552 14.9876246,28.3705552" id="Fill-10" fill="#FFFFFF"></path>
            <path d="M41.2797154,28.3705552 C40.2128779,28.3705552 39.348049,29.2353842 39.348049,30.302867 L39.348049,41.4598059 C39.348049,42.5266434 40.2128779,43.3908269 41.2797154,43.3908269 L42.3000845,43.3908269 C43.366922,43.3908269 44.2311056,42.5266434 44.2311056,41.4598059 L44.2311056,38.7375309 L46.0640266,42.3362519 C46.3938233,42.9835828 47.0585799,43.3908269 47.7852944,43.3908269 L48.8986003,43.3908269 C49.5730378,43.3908269 50.1977799,43.0397322 50.5488746,42.4640401 C50.899324,41.888348 50.923849,41.170669 50.6134141,40.5717427 L48.768876,37.0052914 C49.8273233,36.139817 50.412051,34.8793611 50.412051,33.3310592 C50.412051,30.3635342 48.2577233,28.3705552 45.0501115,28.3705552 L41.2797154,28.3705552" id="Fill-11" fill="#FFFFFF"></path>
            <path d="M59.5837556,30.3022217 C59.5837556,29.2347388 58.7189266,28.3705552 57.6520891,28.3705552 L56.6323654,28.3705552 C55.5648825,28.3705552 54.700699,29.2347388 54.700699,30.3022217 L54.700699,41.4591605 C54.700699,42.525998 55.5648825,43.3914723 56.6323654,43.3914723 L62.6280825,43.3914723 C63.69492,43.3914723 64.559749,42.525998 64.559749,41.4591605 L64.559749,40.6253105 C64.559749,39.558473 63.69492,38.6929986 62.6280825,38.6929986 L59.5837556,38.6929986 L59.5837556,30.3022217" id="Fill-12" fill="#FFFFFF"></path>
            <path d="M27.0190733,28.3363493 C25.9528812,28.3363493 25.0880523,29.2011782 25.0880523,30.2680157 L25.0880523,41.4255999 C25.0880523,42.4924374 25.9528812,43.356621 27.0190733,43.356621 L33.6801924,43.356621 C34.7470299,43.356621 35.6112135,42.4924374 35.6112135,41.4255999 L35.6112135,40.5911045 C35.6112135,39.5236217 34.7470299,38.6594381 33.6801924,38.6594381 L29.9711089,38.6594381 L29.9711089,37.8656026 L31.8866404,37.8656026 C32.9547687,37.8656026 33.8189523,37.001419 33.8189523,35.9339361 L33.8189523,35.3259743 C33.8189523,34.2591368 32.9547687,33.6247138 31.8866404,33.6247138 L29.9711089,33.6247138 L29.9711089,32.8612118 L33.3858924,32.8612118 C34.4540207,32.8612118 35.3182042,32.1693486 35.3182042,31.1025111 L35.3182042,30.2680157 C35.3182042,29.2011782 34.4540207,28.3363493 33.3858924,28.3363493 L27.0190733,28.3363493" id="Fill-13" fill="#FFFFFF"></path>
            <path d="M202.532236,24.5730526 L203.551314,24.5730526 C204.618152,24.5730526 205.482981,23.7075782 205.482981,22.6420315 L205.482981,19.1949782 L207.645698,19.1949782 L207.645698,22.6420315 C207.645698,23.7075782 208.510527,24.5730526 209.57801,24.5730526 L210.599025,24.5730526 C211.664571,24.5730526 212.530691,23.7075782 212.530691,22.6420315 L212.530691,11.4838019 C212.530691,10.4169644 211.664571,9.55278086 210.599025,9.55278086 L209.57801,9.55278086 C208.510527,9.55278086 207.645698,10.4169644 207.645698,11.4838019 L207.645698,14.4965045 L205.482981,14.4965045 L205.482981,11.4838019 C205.482981,10.4169644 204.618152,9.55278086 203.551314,9.55278086 L202.532236,9.55278086 C201.463462,9.55278086 200.601215,10.4169644 200.601215,11.4838019 L200.601215,22.6420315 C200.601215,23.7075782 201.463462,24.5730526 202.532236,24.5730526" id="Fill-14" fill="#FFFFFF"></path>
            <path d="M226.142066,24.5730526 L232.137138,24.5730526 C233.203975,24.5730526 234.068804,23.7075782 234.068804,22.6420315 L234.068804,21.8068907 C234.068804,20.7394078 233.203975,19.8745789 232.137138,19.8745789 L229.092165,19.8745789 L229.092165,11.4838019 C229.092165,10.4169644 228.228627,9.55278086 227.161144,9.55278086 L226.142066,9.55278086 C225.074583,9.55278086 224.209754,10.4169644 224.209754,11.4838019 L224.209754,22.6420315 C224.209754,23.7075782 225.074583,24.5730526 226.142066,24.5730526" id="Fill-15" fill="#FFFFFF"></path>
            <path d="M180.046038,24.5730526 L181.128365,24.5730526 C181.972541,24.5730526 182.719263,24.024467 182.970967,23.2190144 L183.689936,20.9252815 L185.065273,20.9252815 L185.773271,23.2125605 C186.023684,24.0212401 186.771051,24.5730526 187.618454,24.5730526 L188.700136,24.5730526 C189.316488,24.5730526 189.894761,24.2800434 190.258119,23.7830894 C190.621476,23.2867809 190.726675,22.6452585 190.541447,22.0598855 L187.018883,10.9023013 C186.765242,10.0987848 186.019811,9.55278086 185.177571,9.55278086 L183.615716,9.55278086 C182.776703,9.55278086 182.033208,10.0955578 181.776986,10.8945565 L178.206663,22.0527809 C178.018208,22.6400953 178.122761,23.2822631 178.486119,23.7805078 C178.849476,24.2787526 179.42904,24.5730526 180.046038,24.5730526" id="Fill-16" fill="#FFFFFF"></path>
            <path d="M118.472798,20.373469 C119.348599,23.2629013 121.306081,24.7279473 124.293613,24.7279473 C127.381827,24.7279473 129.623929,22.6736559 129.623929,19.8448907 C129.623929,18.0210052 128.937874,16.8625217 127.634822,15.9518697 L127.966555,15.8544151 C128.98886,15.548498 129.570361,14.4745611 129.267025,13.4522559 C128.510623,10.913273 126.484729,9.39724073 123.844419,9.39724073 C120.814936,9.39724073 118.698686,11.379248 118.698686,14.2183394 C118.698686,15.9247631 119.458961,17.013544 120.425763,17.7583295 L119.746162,17.9687282 C118.733538,18.2849717 118.164945,19.3589085 118.472798,20.373469" id="Fill-17" fill="#FFFFFF"></path>
            <path d="M139.126721,14.2493184 L140.502057,14.2493184 L140.502057,22.6413861 C140.502057,23.7082236 141.366886,24.5724072 142.434369,24.5724072 L143.454092,24.5724072 C144.519639,24.5724072 145.385113,23.7082236 145.385113,22.6413861 L145.385113,14.2493184 L146.761095,14.2493184 C147.827287,14.2493184 148.692116,13.3851348 148.692116,12.3182973 L148.692116,11.4838019 C148.692116,10.416319 147.827287,9.55213547 146.761095,9.55213547 L139.126721,9.55213547 C138.059883,9.55213547 137.1957,10.416319 137.1957,11.4838019 L137.1957,12.3182973 C137.1957,13.3851348 138.059883,14.2493184 139.126721,14.2493184" id="Fill-18" fill="#FFFFFF"></path>
            <path d="M159.567017,24.2922472 L160.587386,24.2922472 C161.652933,24.2922472 162.517762,23.4366078 162.517762,22.3831696 L162.517762,19.6911914 L164.351329,23.2490179 C164.68048,23.8883548 165.344591,24.2922472 166.072596,24.2922472 L167.185257,24.2922472 C167.859694,24.2922472 168.485082,23.9451422 168.834886,23.3747159 C169.185335,22.8062038 169.20986,22.0966803 168.899425,21.50456 L167.054887,17.9792746 C168.113335,17.122359 168.699353,15.8775026 168.699353,14.346795 C168.699353,11.4123538 166.54438,9.44266038 163.336123,9.44266038 L159.567017,9.44266038 C158.499535,9.44266038 157.634706,10.2970237 157.634706,11.351738 L157.634706,22.3831696 C157.634706,23.4366078 158.499535,24.2922472 159.567017,24.2922472" id="Fill-19" fill="#FFFFFF"></path>
            <rect id="Rectangle" stroke="#FFFFFF" stroke-width="1.5" fill-rule="nonzero" x="0" y="0" width="243" height="54"></rect>
        </g>
    </g>
</svg>