<?xml version="1.0" encoding="UTF-8"?>
<svg width="240px" height="100px" viewBox="0 0 288 100" version="1.1" xmlns="http://www.w3.org/2000/svg" xmlns:xlink="http://www.w3.org/1999/xlink">
    <!-- Generator: Sketch 60.1 (88133) - https://sketch.com -->
    <title>logo-bkm</title>
    <desc>Created with Sketch.</desc>
    <g id="logo-bkm" stroke="none" stroke-width="1" fill="none" fill-rule="evenodd">
        <g id="Group-12" transform="translate(17.000000, 7.500000)">
            <path d="M52.4979651,12.4506835 L52.4979651,1.72830035 L54.5114579,1.72830035 C55.3795895,1.72830035 56.1357882,1.82101612 56.7800538,2.00775352 C57.425621,2.19449092 57.9631598,2.48961436 58.3913686,2.89442971 C58.8195775,3.2979392 59.1371549,3.82289329 59.3441008,4.47059784 C59.5510468,5.11830239 59.6538689,5.90312181 59.6538689,6.82505611 C59.6538689,7.8096715 59.530222,8.65586615 59.2816266,9.36625179 C59.0343327,10.0753316 58.6829151,10.6590492 58.2286753,11.1147929 C57.7744355,11.5705366 57.2199766,11.9074475 56.563997,12.1242195 C55.9080175,12.3422975 55.1726436,12.4506835 54.3565738,12.4506835 L52.4979651,12.4506835 Z M53.845066,2.80040808 L53.845066,11.331565 L54.3565738,11.331565 C54.9761101,11.331565 55.5240612,11.2519078 55.9991258,11.0912875 C56.4728888,10.9306672 56.8763683,10.6708019 57.2069611,10.3143032 C57.537554,9.95649867 57.787451,9.4903081 57.9579536,8.91573148 C58.1284562,8.33984901 58.2130567,7.64382779 58.2130567,6.82505611 C58.2130567,6.06896552 58.1310593,5.43431953 57.9657629,4.92111814 C57.8004664,4.40922261 57.5596803,3.99396042 57.2460075,3.67794328 C56.9297317,3.36192614 56.5431723,3.13731891 56.0837263,3.00281575 C55.6242803,2.86831259 55.099757,2.80040808 54.5114579,2.80040808 L53.845066,2.80040808 Z M61.341975,12.4506835 L62.5966661,12.4506835 L62.5966661,4.99163436 L61.341975,4.99163436 L61.341975,12.4506835 Z M61.9771298,3.18955315 C61.7194236,3.18955315 61.5124776,3.10597837 61.3575936,2.94013467 C61.2027095,2.77429096 61.1246167,2.55751887 61.1246167,2.28720669 C61.1246167,2.02864721 61.2027095,1.8157927 61.3575936,1.64994899 C61.5124776,1.48541114 61.7194236,1.40183636 61.9771298,1.40183636 C62.2244237,1.40183636 62.4261634,1.48541114 62.5810475,1.64994899 C62.7359316,1.8157927 62.8140244,2.02864721 62.8140244,2.28720669 C62.8140244,2.55751887 62.7359316,2.77429096 62.5810475,2.94013467 C62.4261634,3.10597837 62.2244237,3.18955315 61.9771298,3.18955315 Z M69.2879177,7.50932463 C69.2879177,7.83056519 69.2775053,8.10740665 69.2566806,8.33984901 C69.2358558,8.57359723 69.2150311,8.77861661 69.1942064,8.95490716 L65.4001977,8.95490716 C65.4418472,9.83505407 65.6292699,10.4827586 65.965069,10.896715 C66.300868,11.3106713 66.7837418,11.5183024 67.4136904,11.5183024 C67.6297472,11.5183024 67.8262808,11.4921853 68.0019896,11.4412569 C68.1776984,11.3890226 68.3299793,11.3263416 68.4588325,11.2545195 C68.5876856,11.1813916 68.6970155,11.1095695 68.7842191,11.0364415 C68.8714228,10.9646195 68.9365001,10.9071618 68.9781496,10.8653744 L69.4428018,11.7520506 C69.3907399,11.802979 69.3126471,11.8787186 69.2098249,11.9766578 C69.1070027,12.074597 68.9677372,12.1738421 68.7920284,12.2717813 C68.6163196,12.3697205 68.3989613,12.455907 68.1412551,12.5290349 C67.8835488,12.600857 67.5789869,12.6374209 67.2275693,12.6374209 C66.7629171,12.6374209 66.3425175,12.5590696 65.965069,12.4036727 C65.588922,12.2482759 65.2687415,12.0079984 65.0045275,11.6815344 C64.741615,11.3550704 64.5372722,10.9411141 64.3928005,10.4383595 C64.2483288,9.93560498 64.1767438,9.33229953 64.1767438,8.62844317 C64.1767438,7.96506835 64.2509319,7.39310345 64.4006098,6.9112426 C64.5502877,6.42938176 64.7546305,6.03240155 65.0123368,5.72160784 C65.2713446,5.41081412 65.5707003,5.18098347 65.910404,5.03081004 C66.2514092,4.8806366 66.6184454,4.80489696 67.010211,4.80489696 C67.7234586,4.80489696 68.2805206,5.03081004 68.684,5.48133034 C69.086178,5.93185064 69.2879177,6.60828402 69.2879177,7.50932463 Z M66.9334197,5.83129973 C66.4895923,5.83129973 66.1329685,6.01673128 65.8648499,6.39020608 C65.5967312,6.76368088 65.4418472,7.30169353 65.4001977,8.00685574 L68.1100179,8.00685574 C68.1204303,7.95462151 68.1282396,7.87888186 68.1334458,7.78094266 C68.138652,7.68300347 68.1412551,7.57592328 68.1412551,7.46231381 C68.1412551,6.943889 68.0384329,6.54299123 67.8314869,6.25831463 C67.624541,5.97363803 67.3251853,5.83129973 66.9334197,5.83129973 Z M80.1141833,4.4627627 C80.1141833,4.8362375 80.0673276,5.16270149 79.9749178,5.44215466 C79.8812064,5.72160784 79.7549564,5.96319119 79.5948661,6.164293 C79.4347759,6.36670067 79.2486547,6.52993267 79.0378041,6.65398898 C78.825652,6.7780453 78.6056906,6.87206693 78.3792215,6.93344215 L78.3792215,6.9647827 C78.6577525,7.01701694 78.9193634,7.11495613 79.1614511,7.25990614 C79.4035388,7.40485615 79.6156909,7.58637013 79.7966059,7.80444807 C79.9775209,8.02252602 80.1219926,8.27847378 80.2300209,8.57359723 C80.3380493,8.86872067 80.3927143,9.19257294 80.3927143,9.54515405 C80.3927143,9.96955723 80.3198277,10.3573964 80.175356,10.7099776 C80.0308843,11.0625587 79.8070183,11.368129 79.5024563,11.6266884 C79.1978944,11.8865538 78.8126366,12.0876556 78.3479844,12.2326056 C77.8833322,12.3788615 77.3314764,12.4506835 76.6911154,12.4506835 L74.50712,12.4506835 L74.50712,1.72830035 L76.5674685,1.72830035 C77.1974171,1.72830035 77.7362574,1.79359314 78.1852911,1.92287288 C78.6343247,2.05215262 79.0039639,2.23627831 79.2929073,2.47394409 C79.5818507,2.71291573 79.7913997,3.00020404 79.9202528,3.33711487 C80.0491059,3.67402571 80.1141833,4.04880637 80.1141833,4.4627627 Z M78.7514639,4.50977352 C78.7514639,4.0122424 78.5757551,3.60350949 78.2243375,3.28226892 C77.8729198,2.96102836 77.321064,2.80040808 76.5674685,2.80040808 L75.8542209,2.80040808 L75.8542209,6.49859212 L76.5518499,6.49859212 C77.2742084,6.49859212 77.8221595,6.32230157 78.1931003,5.97102632 C78.5653427,5.61844522 78.7514639,5.13136095 78.7514639,4.50977352 Z M78.9519021,9.45113242 C78.9519021,8.87133238 78.7631778,8.41297694 78.3870308,8.07606611 C78.0095822,7.73915527 77.4707419,7.57069986 76.7679067,7.57069986 L75.8542209,7.57069986 L75.8542209,11.331565 L76.6911154,11.331565 C77.4863605,11.331565 78.0616441,11.1735564 78.4182679,10.8575393 C78.7748917,10.5415221 78.9519021,10.0727199 78.9519021,9.45113242 Z M86.8210535,7.50932463 C86.8210535,7.83056519 86.8106411,8.10740665 86.7898164,8.33984901 C86.7689916,8.57359723 86.7481669,8.77861661 86.7273421,8.95490716 L82.9333335,8.95490716 C82.9736814,9.83505407 83.1624057,10.4827586 83.4982047,10.896715 C83.8340038,11.3106713 84.3168776,11.5183024 84.9468262,11.5183024 C85.162883,11.5183024 85.3594165,11.4921853 85.5351253,11.4412569 C85.7108342,11.3890226 85.8631151,11.3263416 85.9919682,11.2545195 C86.1208214,11.1813916 86.2288497,11.1095695 86.3173549,11.0364415 C86.4045585,10.9646195 86.4696359,10.9071618 86.5112854,10.8653744 L86.974636,11.7520506 C86.9238757,11.802979 86.8457829,11.8787186 86.7429607,11.9766578 C86.6401385,12.074597 86.500873,12.1738421 86.3251642,12.2717813 C86.1494554,12.3697205 85.9320971,12.455907 85.6743908,12.5290349 C85.4166846,12.600857 85.1108211,12.6374209 84.7607051,12.6374209 C84.2960529,12.6374209 83.8756533,12.5590696 83.4982047,12.4036727 C83.1207562,12.2482759 82.8018772,12.0079984 82.5376633,11.6815344 C82.2747508,11.3550704 82.070408,10.9411141 81.9259363,10.4383595 C81.7814646,9.93560498 81.708578,9.33229953 81.708578,8.62844317 C81.708578,7.96506835 81.7840677,7.39310345 81.9337456,6.9112426 C82.0834235,6.42938176 82.2877663,6.03240155 82.5454725,5.72160784 C82.8031788,5.41081412 83.1025345,5.18098347 83.4435398,5.03081004 C83.784545,4.8806366 84.1515812,4.80489696 84.5433467,4.80489696 C85.2565943,4.80489696 85.8136563,5.03081004 86.2158343,5.48133034 C86.6193138,5.93185064 86.8210535,6.60828402 86.8210535,7.50932463 Z M84.4665555,5.83129973 C84.0227281,5.83129973 83.6661043,6.01673128 83.3979856,6.39020608 C83.1285655,6.76368088 82.9736814,7.30169353 82.9333335,8.00685574 L85.6431537,8.00685574 C85.6535661,7.95462151 85.6613754,7.87888186 85.6665816,7.78094266 C85.6717877,7.68300347 85.6743908,7.57592328 85.6743908,7.46231381 C85.6743908,6.943889 85.5715687,6.54299123 85.3646227,6.25831463 C85.1576768,5.97363803 84.8583211,5.83129973 84.4665555,5.83129973 Z M88.0588244,10.5545807 C88.0588244,10.1197307 88.1421234,9.75670271 88.3074198,9.46680269 C88.4727163,9.17690267 88.6939792,8.9418486 88.9738118,8.76033463 C89.2523428,8.57882065 89.5803325,8.44954091 89.9564795,8.37118955 C90.3339281,8.29414405 90.7335029,8.25496837 91.1578071,8.25496837 L91.5443665,8.25496837 L91.5443665,7.54066517 C91.5443665,6.90863089 91.4337351,6.47378086 91.2111706,6.23480922 C90.9899076,5.99714344 90.6775364,5.87700469 90.2740569,5.87700469 C89.9031161,5.87700469 89.593348,5.95796776 89.3447526,6.11858804 C89.0974587,6.27920832 88.9009251,6.42154662 88.7564535,6.54560294 L88.229327,5.70593756 C88.312626,5.62366864 88.4180513,5.53095287 88.5469044,5.42648439 C88.6770591,5.32332177 88.8332447,5.22407672 89.0193659,5.13136095 C89.2054871,5.03864517 89.4176392,4.96029382 89.6545207,4.89891859 C89.8927037,4.8362375 90.1608224,4.80489696 90.4601781,4.80489696 C91.224186,4.80489696 91.8020728,5.01775148 92.1951399,5.44215466 C92.5869054,5.86655785 92.783439,6.55082636 92.783439,7.49365436 L92.783439,10.896715 C92.783439,11.2179555 92.7938514,11.5313609 92.8146761,11.8369312 C92.8355009,12.1425015 92.8563256,12.3475209 92.8758488,12.4506835 L91.683632,12.4506835 L91.6367763,11.6266884 L91.6068408,11.6266884 C91.5651913,11.7207101 91.502717,11.8264844 91.4207196,11.9453173 C91.3374206,12.0641502 91.2345984,12.1738421 91.1109515,12.2717813 C90.9873045,12.3697205 90.8376267,12.455907 90.6619179,12.5290349 C90.486209,12.600857 90.2792631,12.6374209 90.0423816,12.6374209 C89.7638506,12.6374209 89.5022397,12.5851867 89.260152,12.4820241 C89.0167628,12.3788615 88.8059122,12.2326056 88.6249972,12.047174 C88.4440823,11.8604366 88.3048168,11.639747 88.2072007,11.3864109 C88.1082832,11.1330749 88.0588244,10.8549276 88.0588244,10.5545807 Z M90.3052941,11.5653132 C90.4810029,11.5653132 90.6358869,11.5391961 90.7699462,11.4869618 C90.9040055,11.4360335 91.0198432,11.3733524 91.1187607,11.3002244 C91.2163768,11.2284024 91.2996757,11.1474393 91.3660546,11.0599469 C91.4337351,10.9724546 91.4923047,10.896715 91.5443665,10.8340339 L91.5443665,9.18734952 L91.1421886,9.20301979 C90.5434771,9.22391349 90.0879357,9.32707611 89.7781676,9.51381351 C89.4683995,9.70055091 89.3135155,10.0008978 89.3135155,10.4148541 C89.3135155,10.7987758 89.4020206,11.0860641 89.5777294,11.2780249 C89.7534382,11.4686799 89.9955259,11.5653132 90.3052941,11.5653132 Z M99.8768686,12.4506835 L98.7315075,12.4506835 L98.7315075,11.6110182 L98.7002704,11.6110182 C98.6690332,11.6736992 98.6013528,11.7638033 98.4985306,11.8839421 C98.3957084,12.0027749 98.2642522,12.1163844 98.104162,12.2247705 C97.9440717,12.3344624 97.7501413,12.4297898 97.5223706,12.5133646 C97.2959015,12.5956335 97.0434014,12.6374209 96.7635688,12.6374209 C96.432976,12.6374209 96.1362233,12.5877984 95.8733109,12.4898592 C95.6103985,12.3906142 95.3852309,12.2326056 95.1991097,12.0158335 C95.0142901,11.7977556 94.8711199,11.5156907 94.7735039,11.168333 C94.6758879,10.8222812 94.6264291,10.3939604 94.6264291,9.88598245 L94.6264291,4.99163436 L95.8811202,4.99163436 L95.8811202,9.79326668 C95.8811202,10.4148541 95.9813393,10.8575393 96.183079,11.122628 C96.3848188,11.3864109 96.69719,11.5183024 97.1201926,11.5183024 C97.4820226,11.5183024 97.7865846,11.4281983 98.0338784,11.2466844 C98.2824739,11.0651704 98.4777059,10.8862681 98.6221776,10.7099776 L98.6221776,4.99163436 L99.8768686,4.99163436 L99.8768686,12.4506835 Z M104.92687,6.01673128 L103.407965,6.01673128 L103.407965,12.4506835 L102.154575,12.4506835 L102.154575,6.01673128 L101.255207,6.01673128 L101.255207,5.17837176 L102.154575,5.00730463 L102.154575,3.51601714 C102.154575,3.1112018 102.210542,2.76384411 102.323776,2.47394409 C102.438313,2.18404407 102.58799,1.94637829 102.77281,1.75964089 C102.958931,1.57290349 103.17629,1.43840033 103.423583,1.35482555 C103.672179,1.27255662 103.935091,1.23076923 104.213622,1.23076923 C104.483042,1.23076923 104.709512,1.2673332 104.895633,1.34046113 C105.081754,1.41228321 105.205401,1.46974087 105.266574,1.5102224 L105.003661,2.55229545 C104.942488,2.51050806 104.853983,2.46610896 104.740749,2.41909814 C104.627514,2.37339319 104.486947,2.34988778 104.321651,2.34988778 C104.022295,2.34988778 103.795826,2.44260355 103.640942,2.62934095 C103.486058,2.81607835 103.407965,3.15821261 103.407965,3.65574373 L103.407965,4.99163436 L105.081754,4.99163436 L104.92687,6.01673128 Z M109.340415,6.01673128 L107.714783,6.01673128 L107.714783,10.1510712 C107.714783,10.678637 107.781162,11.0390533 107.915221,11.2310141 C108.04928,11.4229749 108.277051,11.5183024 108.597232,11.5183024 C108.783353,11.5183024 108.943443,11.4921853 109.077502,11.4412569 C109.211562,11.3890226 109.309178,11.3420118 109.371652,11.3002244 L109.542154,12.3109569 C109.490093,12.3527443 109.366446,12.4167313 109.169912,12.5055295 C108.973379,12.5930218 108.710466,12.6374209 108.379873,12.6374209 C107.739512,12.6374209 107.260543,12.4585187 106.940363,12.1007141 C106.620182,11.7442155 106.460092,11.150051 106.460092,10.3221383 L106.460092,6.01673128 L105.562025,6.01673128 L105.562025,5.17837176 L106.460092,4.99163436 L106.599357,2.90879412 L107.714783,2.90879412 L107.714783,4.99163436 L109.495299,4.99163436 L109.340415,6.01673128 Z M114.033792,6.09508264 C114.002555,6.07418894 113.934875,6.04807182 113.832052,6.01673128 C113.72923,5.98669659 113.589965,5.97102632 113.414256,5.97102632 C113.021189,5.97102632 112.714024,6.07680065 112.492761,6.28965517 C112.270196,6.50120384 112.112709,6.73234034 112.020299,6.98045297 L112.020299,12.4506835 L110.765608,12.4506835 L110.765608,4.99163436 L111.912271,4.99163436 L111.912271,6.00236686 L111.942207,6.00236686 C111.994268,5.856111 112.060647,5.7137727 112.143946,5.57404611 C112.227245,5.43431953 112.330068,5.31026321 112.453714,5.20187717 C112.577361,5.09218527 112.724436,5.00730463 112.894939,4.94462355 C113.065441,4.88324832 113.269784,4.85190777 113.506666,4.85190777 C113.682375,4.85190777 113.824243,4.86757805 113.933573,4.89891859 C114.041601,4.92895327 114.126202,4.95507039 114.188676,4.97596409 L114.033792,6.09508264 Z M114.761357,10.5545807 C114.761357,10.1197307 114.844656,9.75670271 115.008651,9.46680269 C115.173947,9.17690267 115.396512,8.9418486 115.675043,8.76033463 C115.953574,8.57882065 116.281563,8.44954091 116.659012,8.37118955 C117.035159,8.29414405 117.436035,8.25496837 117.859038,8.25496837 L118.246899,8.25496837 L118.246899,7.54066517 C118.246899,6.90863089 118.134966,6.47378086 117.913703,6.23480922 C117.691138,5.99714344 117.378767,5.87700469 116.976589,5.87700469 C116.604347,5.87700469 116.294579,5.95796776 116.047285,6.11858804 C115.79869,6.27920832 115.603458,6.42154662 115.458986,6.54560294 L114.931859,5.70593756 C115.015158,5.62366864 115.120584,5.53095287 115.249437,5.42648439 C115.37829,5.32332177 115.535777,5.22407672 115.721898,5.13136095 C115.908019,5.03864517 116.11887,4.96029382 116.357053,4.89891859 C116.593935,4.8362375 116.863355,4.80489696 117.16271,4.80489696 C117.926718,4.80489696 118.504605,5.01775148 118.896371,5.44215466 C119.289438,5.86655785 119.485971,6.55082636 119.485971,7.49365436 L119.485971,10.896715 C119.485971,11.2179555 119.495082,11.5313609 119.515907,11.8369312 C119.536732,12.1425015 119.557556,12.3475209 119.578381,12.4506835 L118.386164,12.4506835 L118.339309,11.6266884 L118.308072,11.6266884 C118.267724,11.7207101 118.205249,11.8264844 118.12195,11.9453173 C118.039953,12.0641502 117.937131,12.1738421 117.812182,12.2717813 C117.688535,12.3697205 117.538857,12.455907 117.363149,12.5290349 C117.18744,12.600857 116.981795,12.6374209 116.743612,12.6374209 C116.465081,12.6374209 116.204772,12.5851867 115.961383,12.4820241 C115.719295,12.3788615 115.507143,12.2326056 115.32753,12.047174 C115.146615,11.8604366 115.006048,11.639747 114.908432,11.3864109 C114.810816,11.1330749 114.761357,10.8549276 114.761357,10.5545807 Z M117.007826,11.5653132 C117.182234,11.5653132 117.337118,11.5391961 117.472479,11.4869618 C117.606538,11.4360335 117.722376,11.3733524 117.819992,11.3002244 C117.918909,11.2284024 118.000907,11.1474393 118.068587,11.0599469 C118.134966,10.9724546 118.194837,10.896715 118.246899,10.8340339 L118.246899,9.18734952 L117.843419,9.20301979 C117.244708,9.22391349 116.790468,9.32707611 116.4807,9.51381351 C116.170932,9.70055091 116.016048,10.0008978 116.016048,10.4148541 C116.016048,10.7987758 116.103251,11.0860641 116.27896,11.2780249 C116.454669,11.4686799 116.698058,11.5653132 117.007826,11.5653132 Z M126.703048,5.97102632 L125.773744,5.97102632 C126.011927,6.36408896 126.130367,6.80938584 126.130367,7.30691696 C126.130367,7.70128545 126.06529,8.05517241 125.936437,8.37118955 C125.807584,8.68720669 125.626669,8.95490716 125.394993,9.17167925 C125.162017,9.38975719 124.888692,9.5556009 124.573717,9.66921037 C124.258743,9.78281983 123.920341,9.84027749 123.558511,9.84027749 C123.486926,9.84027749 123.419246,9.84027749 123.358073,9.84027749 C123.295599,9.84027749 123.227918,9.83505407 123.156333,9.82460722 C123.032686,9.87684146 122.903833,9.95911039 122.768472,10.0727199 C122.634413,10.1876352 122.568034,10.3378086 122.568034,10.5232402 C122.568034,10.678637 122.626604,10.8066109 122.746346,10.9045501 C122.864787,11.0024893 123.057416,11.0521118 123.326836,11.0521118 L124.271759,11.0521118 C124.621875,11.0521118 124.947261,11.0886758 125.246617,11.1604979 C125.545973,11.2336258 125.807584,11.349847 126.028847,11.5104673 C126.251411,11.6710875 126.424517,11.8761069 126.548164,12.1242195 C126.671811,12.3723322 126.734285,12.6739849 126.734285,13.0252602 C126.734285,13.4300755 126.648383,13.797021 126.479182,14.1287084 C126.308679,14.4603958 126.067893,14.7450724 125.758125,14.9840441 C125.448357,15.2217099 125.07221,15.4084473 124.627081,15.5429504 C124.183253,15.6774536 123.687364,15.7453581 123.140715,15.7453581 C122.34547,15.7453581 121.741552,15.5716792 121.328962,15.2243216 C120.91507,14.8769639 120.709425,14.3781269 120.709425,13.7251989 C120.709425,13.4457458 120.757583,13.2041624 120.8565,13.0030606 C120.954116,12.8006529 121.069954,12.6243624 121.205315,12.4741889 C121.339374,12.3240155 121.476036,12.2051826 121.615302,12.1163844 C121.754567,12.0288921 121.865199,11.9583758 121.948498,11.9074475 L121.948498,11.8761069 C121.628317,11.6371353 121.468227,11.2910835 121.468227,10.8340339 C121.468227,10.6381555 121.507273,10.4670883 121.584065,10.3221383 C121.662157,10.1771883 121.749361,10.0570496 121.846977,9.96433381 C121.945895,9.87161804 122.043511,9.79587839 122.142428,9.73842073 C122.240044,9.68226892 122.314232,9.64309325 122.366294,9.62219955 L122.366294,9.59085901 C121.98364,9.41456846 121.676474,9.13772699 121.444799,8.76033463 C121.213124,8.3816364 121.095985,7.89716384 121.095985,7.30691696 C121.095985,6.89296062 121.163665,6.52732095 121.297724,6.21130382 C121.431784,5.89528668 121.612699,5.63411549 121.839168,5.42648439 C122.066939,5.22015915 122.332454,5.06345644 122.637016,4.96029382 C122.941578,4.8571312 123.269568,4.80489696 123.620985,4.80489696 C123.972403,4.80489696 124.301694,4.86757805 124.612764,4.99163436 L126.873551,4.99163436 L126.703048,5.97102632 Z M123.248743,12.2182412 C123.032686,12.2182412 122.841359,12.2025709 122.676062,12.1712304 C122.583653,12.2234646 122.492544,12.2848398 122.405341,12.3579678 C122.316835,12.4297898 122.237441,12.518588 122.164555,12.6217507 C122.092969,12.7249133 122.033098,12.8463579 121.986243,12.9873903 C121.940688,13.1271169 121.917261,13.2903489 121.917261,13.4757805 C121.917261,14.2736584 122.355882,14.6732504 123.233124,14.6732504 C123.988021,14.6732504 124.545083,14.5256886 124.906913,14.2305652 C125.267442,13.9354417 125.448357,13.5959192 125.448357,13.2119976 C125.448357,12.8489696 125.335122,12.5930218 125.107352,12.4428484 C124.880883,12.292675 124.576321,12.2182412 124.193666,12.2182412 L123.248743,12.2182412 Z M124.906913,7.30691696 C124.906913,6.76890431 124.779362,6.38498266 124.526862,6.15645787 C124.274362,5.92923893 123.977609,5.81562946 123.636604,5.81562946 C123.274774,5.81562946 122.965006,5.92923893 122.707299,6.15645787 C122.449593,6.38498266 122.319439,6.76890431 122.319439,7.30691696 C122.319439,7.84623546 122.449593,8.22885125 122.707299,8.45737605 C122.965006,8.68459498 123.264361,8.79820445 123.605367,8.79820445 C123.967197,8.79820445 124.274362,8.68459498 124.526862,8.45737605 C124.779362,8.22885125 124.906913,7.84623546 124.906913,7.30691696 Z M131.302714,6.01673128 L129.677082,6.01673128 L129.677082,10.1510712 C129.677082,10.678637 129.743461,11.0390533 129.878822,11.2310141 C130.012881,11.4229749 130.23935,11.5183024 130.559531,11.5183024 C130.745652,11.5183024 130.905742,11.4921853 131.039802,11.4412569 C131.173861,11.3890226 131.272778,11.3420118 131.333951,11.3002244 L131.504454,12.3109569 C131.452392,12.3527443 131.328745,12.4167313 131.132211,12.5055295 C130.936979,12.5930218 130.672765,12.6374209 130.342173,12.6374209 C129.703113,12.6374209 129.222842,12.4585187 128.902662,12.1007141 C128.582481,11.7442155 128.422391,11.150051 128.422391,10.3221383 L128.422391,6.01673128 L127.524324,6.01673128 L127.524324,5.17837176 L128.422391,4.99163436 L128.561657,2.90879412 L129.677082,2.90879412 L129.677082,4.99163436 L131.457598,4.99163436 L131.302714,6.01673128 Z M137.390048,7.50932463 C137.390048,7.83056519 137.379636,8.10740665 137.358811,8.33984901 C137.337986,8.57359723 137.318463,8.77861661 137.297638,8.95490716 L133.502328,8.95490716 C133.543977,9.83505407 133.732702,10.4827586 134.068501,10.896715 C134.402998,11.3106713 134.885872,11.5183024 135.515821,11.5183024 C135.733179,11.5183024 135.928411,11.4921853 136.10412,11.4412569 C136.279829,11.3890226 136.43211,11.3263416 136.560963,11.2545195 C136.689816,11.1813916 136.799146,11.1095695 136.886349,11.0364415 C136.974855,10.9646195 137.03863,10.9071618 137.08028,10.8653744 L137.544932,11.7520506 C137.49287,11.802979 137.416079,11.8787186 137.313257,11.9766578 C137.209133,12.074597 137.069867,12.1738421 136.894159,12.2717813 C136.71845,12.3697205 136.502393,12.455907 136.243385,12.5290349 C135.985679,12.600857 135.681117,12.6374209 135.3297,12.6374209 C134.865047,12.6374209 134.444648,12.5590696 134.068501,12.4036727 C133.691052,12.2482759 133.370872,12.0079984 133.107959,11.6815344 C132.843745,11.3550704 132.640704,10.9411141 132.496232,10.4383595 C132.351761,9.93560498 132.278874,9.33229953 132.278874,8.62844317 C132.278874,7.96506835 132.354364,7.39310345 132.504042,6.9112426 C132.653719,6.42938176 132.856761,6.03240155 133.115769,5.72160784 C133.373475,5.41081412 133.672831,5.18098347 134.013836,5.03081004 C134.354841,4.8806366 134.720576,4.80489696 135.113643,4.80489696 C135.825589,4.80489696 136.383952,5.03081004 136.78613,5.48133034 C137.188308,5.93185064 137.390048,6.60828402 137.390048,7.50932463 Z M135.03555,5.83129973 C134.591723,5.83129973 134.235099,6.01673128 133.96698,6.39020608 C133.698861,6.76368088 133.543977,7.30169353 133.502328,8.00685574 L136.21345,8.00685574 C136.223862,7.95462151 136.231671,7.87888186 136.235576,7.78094266 C136.240782,7.68300347 136.243385,7.57592328 136.243385,7.46231381 C136.243385,6.943889 136.140563,6.54299123 135.933617,6.25831463 C135.727973,5.97363803 135.428617,5.83129973 135.03555,5.83129973 Z M142.005333,8.82954499 C142.005333,8.0734544 142.10425,7.44142012 142.299482,6.93344215 C142.496016,6.42677005 142.748516,6.01673128 143.058284,5.70593756 C143.368052,5.39514385 143.71947,5.17576005 144.112537,5.04648031 C144.504302,4.91589472 144.897369,4.85190777 145.289135,4.85190777 C145.526016,4.85190777 145.732962,4.87018976 145.908671,4.90675372 C146.08438,4.94201183 146.228852,4.98641094 146.342086,5.03864517 L146.342086,1.46451745 L147.596777,1.32479086 L147.596777,12.4506835 L146.451416,12.4506835 L146.451416,11.658029 L146.420179,11.658029 C146.388942,11.7207101 146.331674,11.8055907 146.249676,11.9139767 C146.166377,12.0236686 146.053143,12.1320547 145.908671,12.2404407 C145.7642,12.3501326 145.583285,12.4428484 145.365926,12.5211998 C145.149869,12.5982453 144.897369,12.6374209 144.607124,12.6374209 C144.257008,12.6374209 143.923812,12.5669047 143.608838,12.4271781 C143.293864,12.2874515 143.017936,12.0641502 142.779753,11.7585799 C142.542871,11.4530096 142.354147,11.0599469 142.214882,10.5780861 C142.075616,10.0962253 142.005333,9.51381351 142.005333,8.82954499 Z M144.94813,11.5183024 C145.144663,11.5183024 145.320372,11.4921853 145.475256,11.4412569 C145.63014,11.3890226 145.7642,11.3237299 145.877434,11.2466844 C145.99197,11.168333 146.086983,11.0886758 146.163774,11.005101 C146.241867,10.9228321 146.301738,10.8497041 146.342086,10.7883289 L146.342086,6.18779841 C146.228852,6.11597633 146.097395,6.05329525 145.947718,6.00236686 C145.79804,5.95013263 145.609315,5.92401551 145.381545,5.92401551 C145.092601,5.92401551 144.82188,5.97363803 144.56938,6.07157723 C144.315578,6.16951643 144.096918,6.33274842 143.910797,6.56127321 C143.724676,6.78849214 143.577601,7.08492144 143.469573,7.44664354 C143.360243,7.8096715 143.306879,8.25496837 143.306879,8.78384003 C143.306879,9.30095899 143.34983,9.73319731 143.438336,10.080555 C143.525539,10.4279127 143.647885,10.7073658 143.802769,10.9202204 C143.957653,11.1330749 144.13206,11.2845542 144.328594,11.3785758 C144.525127,11.4712916 144.732073,11.5183024 144.94813,11.5183024 Z M154.288029,7.50932463 C154.288029,7.83056519 154.277617,8.10740665 154.256792,8.33984901 C154.235967,8.57359723 154.215142,8.77861661 154.195619,8.95490716 L150.400309,8.95490716 C150.441958,9.83505407 150.630683,10.4827586 150.96518,10.896715 C151.300979,11.3106713 151.783853,11.5183024 152.413802,11.5183024 C152.63116,11.5183024 152.826392,11.4921853 153.002101,11.4412569 C153.17781,11.3890226 153.330091,11.3263416 153.458944,11.2545195 C153.587797,11.1813916 153.697127,11.1095695 153.78433,11.0364415 C153.872836,10.9646195 153.936611,10.9071618 153.978261,10.8653744 L154.442913,11.7520506 C154.390851,11.802979 154.31406,11.8787186 154.209936,11.9766578 C154.107114,12.074597 153.967848,12.1738421 153.79214,12.2717813 C153.616431,12.3697205 153.400374,12.455907 153.141366,12.5290349 C152.88366,12.600857 152.579098,12.6374209 152.227681,12.6374209 C151.763028,12.6374209 151.342629,12.5590696 150.96518,12.4036727 C150.589033,12.2482759 150.268853,12.0079984 150.00594,11.6815344 C149.741726,11.3550704 149.538685,10.9411141 149.394213,10.4383595 C149.24844,9.93560498 149.176855,9.33229953 149.176855,8.62844317 C149.176855,7.96506835 149.251043,7.39310345 149.402023,6.9112426 C149.5517,6.42938176 149.754742,6.03240155 150.01375,5.72160784 C150.271456,5.41081412 150.570812,5.18098347 150.911817,5.03081004 C151.25152,4.8806366 151.618557,4.80489696 152.011624,4.80489696 C152.72357,4.80489696 153.280632,5.03081004 153.684111,5.48133034 C154.086289,5.93185064 154.288029,6.60828402 154.288029,7.50932463 Z M151.933531,5.83129973 C151.489704,5.83129973 151.13308,6.01673128 150.864961,6.39020608 C150.596842,6.76368088 150.441958,7.30169353 150.400309,8.00685574 L153.110129,8.00685574 C153.120542,7.95462151 153.128351,7.87888186 153.133557,7.78094266 C153.138763,7.68300347 153.141366,7.57592328 153.141366,7.46231381 C153.141366,6.943889 153.038544,6.54299123 152.831598,6.25831463 C152.625954,5.97363803 152.326598,5.83129973 151.933531,5.83129973 Z M159.2287,6.09508264 C159.197463,6.07418894 159.131084,6.04807182 159.026961,6.01673128 C158.924138,5.98669659 158.784873,5.97102632 158.609164,5.97102632 C158.216097,5.97102632 157.910233,6.07680065 157.687669,6.28965517 C157.465104,6.50120384 157.307617,6.73234034 157.215208,6.98045297 L157.215208,12.4506835 L155.960516,12.4506835 L155.960516,4.99163436 L157.107179,4.99163436 L157.107179,6.00236686 L157.138416,6.00236686 C157.189177,5.856111 157.256857,5.7137727 157.338854,5.57404611 C157.422153,5.43431953 157.524976,5.31026321 157.648623,5.20187717 C157.77227,5.09218527 157.919344,5.00730463 158.089847,4.94462355 C158.26035,4.88324832 158.464692,4.85190777 158.701574,4.85190777 C158.877283,4.85190777 159.019151,4.86757805 159.128481,4.89891859 C159.23651,4.92895327 159.32111,4.95507039 159.383584,4.97596409 L159.2287,6.09508264 Z M169.264927,4.4627627 C169.264927,4.8362375 169.218071,5.16270149 169.125661,5.44215466 C169.033252,5.72160784 168.9057,5.96319119 168.746911,6.164293 C168.586821,6.36670067 168.4007,6.52993267 168.188548,6.65398898 C167.977697,6.7780453 167.757736,6.87206693 167.529965,6.93344215 L167.529965,6.9647827 C167.809798,7.01701694 168.070107,7.11495613 168.312195,7.25990614 C168.555584,7.40485615 168.766435,7.58637013 168.94735,7.80444807 C169.128265,8.02252602 169.272736,8.27847378 169.382066,8.57359723 C169.490095,8.86872067 169.543458,9.19257294 169.543458,9.54515405 C169.543458,9.96955723 169.471873,10.3573964 169.327401,10.7099776 C169.18293,11.0625587 168.957762,11.368129 168.6532,11.6266884 C168.348638,11.8865538 167.964682,12.0876556 167.50003,12.2326056 C167.035377,12.3788615 166.48222,12.4506835 165.841859,12.4506835 L163.657864,12.4506835 L163.657864,1.72830035 L165.718212,1.72830035 C166.348161,1.72830035 166.888303,1.79359314 167.337336,1.92287288 C167.78637,2.05215262 168.154708,2.23627831 168.443651,2.47394409 C168.733896,2.71291573 168.942143,3.00020404 169.072298,3.33711487 C169.201151,3.67402571 169.264927,4.04880637 169.264927,4.4627627 Z M167.902208,4.50977352 C167.902208,4.0122424 167.726499,3.60350949 167.375081,3.28226892 C167.024965,2.96102836 166.471808,2.80040808 165.718212,2.80040808 L165.006266,2.80040808 L165.006266,6.49859212 L165.702594,6.49859212 C166.426254,6.49859212 166.972903,6.32230157 167.345146,5.97102632 C167.716086,5.61844522 167.902208,5.13136095 167.902208,4.50977352 Z M168.103947,9.45113242 C168.103947,8.87133238 167.915223,8.41297694 167.537775,8.07606611 C167.161628,7.73915527 166.621486,7.57069986 165.919952,7.57069986 L165.006266,7.57069986 L165.006266,11.331565 L165.841859,11.331565 C166.637104,11.331565 167.212388,11.1735564 167.569012,10.8575393 C167.925635,10.5415221 168.103947,10.0727199 168.103947,9.45113242 Z M176.405212,12.4506835 L175.259851,12.4506835 L175.259851,11.6110182 L175.228614,11.6110182 C175.197377,11.6736992 175.129696,11.7638033 175.026874,11.8839421 C174.924052,12.0027749 174.791294,12.1163844 174.632506,12.2247705 C174.472415,12.3344624 174.278485,12.4297898 174.050714,12.5133646 C173.824245,12.5956335 173.570444,12.6374209 173.291913,12.6374209 C172.96132,12.6374209 172.664567,12.5877984 172.401655,12.4898592 C172.138742,12.3906142 171.913575,12.2326056 171.727453,12.0158335 C171.542634,11.7977556 171.399464,11.5156907 171.301848,11.168333 C171.204232,10.8222812 171.154773,10.3939604 171.154773,9.88598245 L171.154773,4.99163436 L172.409464,4.99163436 L172.409464,9.79326668 C172.409464,10.4148541 172.509683,10.8575393 172.711423,11.122628 C172.913162,11.3864109 173.225534,11.5183024 173.648536,11.5183024 C174.010366,11.5183024 174.314928,11.4281983 174.562222,11.2466844 C174.809516,11.0651704 175.00605,10.8862681 175.150521,10.7099776 L175.150521,4.99163436 L176.405212,4.99163436 L176.405212,12.4506835 Z M182.384518,12.4506835 L182.384518,7.64905121 C182.384518,7.01701694 182.277791,6.56388492 182.06694,6.28965517 C181.854788,6.01411957 181.532005,5.87700469 181.09859,5.87700469 C180.726347,5.87700469 180.416579,5.97102632 180.169285,6.15645787 C179.92069,6.34319527 179.725458,6.52470924 179.580986,6.7009998 L179.580986,12.4506835 L178.326295,12.4506835 L178.326295,4.99163436 L179.471656,4.99163436 L179.471656,5.83129973 L179.502893,5.83129973 C179.534131,5.76861865 179.601811,5.67851459 179.704633,5.55837584 C179.807455,5.43954295 179.941515,5.32593348 180.106811,5.21754744 C180.272108,5.10785554 180.468641,5.01252806 180.69511,4.92895327 C180.922881,4.84668435 181.180587,4.80489696 181.469531,4.80489696 C181.800123,4.80489696 182.099479,4.85451949 182.368899,4.95245868 C182.637018,5.05170373 182.863487,5.2097123 183.049608,5.42648439 C183.235729,5.64456233 183.380201,5.92662722 183.483023,6.2739849 C183.587147,6.62134258 183.637907,7.04835748 183.637907,7.55633544 L183.637907,12.4506835 L182.384518,12.4506835 Z M185.172431,8.82954499 C185.172431,8.0734544 185.270047,7.44142012 185.46658,6.93344215 C185.661812,6.42677005 185.915614,6.01673128 186.225382,5.70593756 C186.53515,5.39514385 186.885266,5.17576005 187.278334,5.04648031 C187.670099,4.91589472 188.063166,4.85190777 188.454932,4.85190777 C188.693115,4.85190777 188.898759,4.87018976 189.074468,4.90675372 C189.250177,4.94201183 189.394648,4.98641094 189.509185,5.03864517 L189.509185,1.46451745 L190.762574,1.32479086 L190.762574,12.4506835 L189.617213,12.4506835 L189.617213,11.658029 L189.585976,11.658029 C189.554739,11.7207101 189.498772,11.8055907 189.415473,11.9139767 C189.333476,12.0236686 189.21894,12.1320547 189.074468,12.2404407 C188.929996,12.3501326 188.749081,12.4428484 188.533025,12.5211998 C188.315666,12.5982453 188.063166,12.6374209 187.774223,12.6374209 C187.422805,12.6374209 187.089609,12.5669047 186.774635,12.4271781 C186.459661,12.2874515 186.183733,12.0641502 185.946851,11.7585799 C185.708668,11.4530096 185.519944,11.0599469 185.380678,10.5780861 C185.241413,10.0962253 185.172431,9.51381351 185.172431,8.82954499 Z M188.115228,11.5183024 C188.31046,11.5183024 188.486169,11.4921853 188.641053,11.4412569 C188.795937,11.3890226 188.929996,11.3237299 189.043231,11.2466844 C189.157767,11.168333 189.25278,11.0886758 189.330873,11.005101 C189.407664,10.9228321 189.467535,10.8497041 189.509185,10.7883289 L189.509185,6.18779841 C189.394648,6.11597633 189.263192,6.05329525 189.113514,6.00236686 C188.963837,5.95013263 188.775112,5.92401551 188.548643,5.92401551 C188.2597,5.92401551 187.987676,5.97363803 187.735176,6.07157723 C187.482676,6.16951643 187.262715,6.33274842 187.076594,6.56127321 C186.890473,6.78849214 186.743398,7.08492144 186.635369,7.44664354 C186.527341,7.8096715 186.472676,8.25496837 186.472676,8.78384003 C186.472676,9.30095899 186.516929,9.73319731 186.604132,10.080555 C186.692637,10.4279127 186.813681,10.7073658 186.968565,10.9202204 C187.123449,11.1330749 187.299158,11.2845542 187.495692,11.3785758 C187.690924,11.4712916 187.89787,11.5183024 188.115228,11.5183024 Z M197.453826,7.50932463 C197.453826,7.83056519 197.443413,8.10740665 197.422589,8.33984901 C197.403065,8.57359723 197.382241,8.77861661 197.361416,8.95490716 L193.566106,8.95490716 C193.607755,9.83505407 193.796479,10.4827586 194.132279,10.896715 C194.468078,11.3106713 194.94965,11.5183024 195.579598,11.5183024 C195.796957,11.5183024 195.99349,11.4921853 196.167898,11.4412569 C196.343606,11.3890226 196.495887,11.3263416 196.626042,11.2545195 C196.754895,11.1813916 196.862924,11.1095695 196.951429,11.0364415 C197.038632,10.9646195 197.102408,10.9071618 197.144058,10.8653744 L197.60871,11.7520506 C197.556648,11.802979 197.479857,11.8787186 197.377034,11.9766578 C197.272911,12.074597 197.133645,12.1738421 196.957936,12.2717813 C196.782228,12.3697205 196.566171,12.455907 196.308465,12.5290349 C196.049457,12.600857 195.744895,12.6374209 195.394779,12.6374209 C194.928825,12.6374209 194.508426,12.5590696 194.132279,12.4036727 C193.75483,12.2482759 193.434649,12.0079984 193.171737,11.6815344 C192.908825,11.3550704 192.704482,10.9411141 192.56001,10.4383595 C192.415538,9.93560498 192.342652,9.33229953 192.342652,8.62844317 C192.342652,7.96506835 192.418141,7.39310345 192.567819,6.9112426 C192.717497,6.42938176 192.920539,6.03240155 193.179546,5.72160784 C193.437253,5.41081412 193.736608,5.18098347 194.077614,5.03081004 C194.418619,4.8806366 194.784353,4.80489696 195.177421,4.80489696 C195.889367,4.80489696 196.44773,5.03081004 196.849908,5.48133034 C197.253388,5.93185064 197.453826,6.60828402 197.453826,7.50932463 Z M195.099328,5.83129973 C194.6555,5.83129973 194.300178,6.01673128 194.030758,6.39020608 C193.762639,6.76368088 193.607755,7.30169353 193.566106,8.00685574 L196.277227,8.00685574 C196.28764,7.95462151 196.295449,7.87888186 196.300655,7.78094266 C196.305862,7.68300347 196.308465,7.57592328 196.308465,7.46231381 C196.308465,6.943889 196.204341,6.54299123 195.998696,6.25831463 C195.791751,5.97363803 195.492395,5.83129973 195.099328,5.83129973 Z M202.333324,6.49859212 C202.250025,6.40587635 202.100347,6.27920832 201.884291,6.11858804 C201.666932,5.95796776 201.383195,5.87700469 201.031778,5.87700469 C200.701185,5.87700469 200.448685,5.95535605 200.272976,6.11075291 C200.097267,6.26614977 200.010063,6.45288717 200.010063,6.66965925 C200.010063,6.94911243 200.089458,7.18024893 200.249548,7.36176291 C200.409638,7.54327688 200.654329,7.73654356 200.984922,7.94417466 L201.449574,8.22362783 C201.955876,8.5239747 202.354149,8.84782697 202.643092,9.19518466 C202.932036,9.54254234 203.076508,9.99045093 203.076508,10.5389104 C203.076508,11.1304632 202.872165,11.6266884 202.464781,12.0315038 C202.056095,12.4350133 201.470399,12.6374209 200.706391,12.6374209 C200.407035,12.6374209 200.144123,12.6060804 199.916352,12.5433993 C199.689883,12.4820241 199.490746,12.4088961 199.320244,12.3266272 C199.149741,12.2430524 199.007872,12.1529484 198.894638,12.0550092 C198.781403,11.9557641 198.687692,11.8656601 198.616107,11.7820853 L199.220025,10.7883289 C199.281197,10.8497041 199.356687,10.9228321 199.443891,11.005101 C199.532396,11.0886758 199.637821,11.168333 199.761468,11.2466844 C199.885115,11.3237299 200.025682,11.3890226 200.180566,11.4412569 C200.33545,11.4921853 200.515064,11.5183024 200.72201,11.5183024 C201.094252,11.5183024 201.377989,11.4360335 201.574523,11.2701898 C201.769755,11.1043461 201.868672,10.9019384 201.868672,10.6642726 C201.868672,10.487982 201.845244,10.3351969 201.798389,10.2046113 C201.752835,10.0753316 201.682551,9.95911039 201.590141,9.85594777 C201.49643,9.75147929 201.383195,9.65354009 201.249136,9.56082432 C201.115077,9.46680269 200.960193,9.36364007 200.784484,9.25003061 L200.319832,8.95490716 C199.855179,8.65325444 199.490746,8.33854315 199.227834,8.00685574 C198.964921,7.67516833 198.832164,7.25076515 198.832164,6.73234034 C198.832164,6.45288717 198.886829,6.19563354 198.994857,5.96319119 C199.104187,5.72944297 199.256468,5.52834115 199.4517,5.35727403 C199.648233,5.1862069 199.878607,5.05170373 200.14152,4.95245868 C200.404432,4.85451949 200.685566,4.80489696 200.984922,4.80489696 C201.273865,4.80489696 201.522461,4.83362579 201.729407,4.89108345 C201.935051,4.94723526 202.113363,5.02036319 202.263041,5.10785554 C202.412719,5.19665374 202.536366,5.28414609 202.635283,5.37163844 C202.732899,5.46043665 202.813595,5.53487043 202.874768,5.59755152 L202.333324,6.49859212 Z M207.815439,6.09508264 C207.784202,6.07418894 207.717823,6.04807182 207.615001,6.01673128 C207.510877,5.98669659 207.371612,5.97102632 207.195903,5.97102632 C206.804137,5.97102632 206.496972,6.07680065 206.274408,6.28965517 C206.053145,6.50120384 205.895658,6.73234034 205.801946,6.98045297 L205.801946,12.4506835 L204.547255,12.4506835 L204.547255,4.99163436 L205.693918,4.99163436 L205.693918,6.00236686 L205.725155,6.00236686 C205.775915,5.856111 205.843596,5.7137727 205.926895,5.57404611 C206.008892,5.43431953 206.111714,5.31026321 206.235361,5.20187717 C206.36031,5.09218527 206.507385,5.00730463 206.677887,4.94462355 C206.84839,4.88324832 207.051431,4.85190777 207.289614,4.85190777 C207.465323,4.85190777 207.607192,4.86757805 207.71522,4.89891859 C207.823248,4.92895327 207.90915,4.95507039 207.970323,4.97596409 L207.815439,6.09508264 Z M213.639861,7.50932463 C213.639861,7.83056519 213.629448,8.10740665 213.608624,8.33984901 C213.587799,8.57359723 213.566974,8.77861661 213.546149,8.95490716 L209.752141,8.95490716 C209.792489,9.83505407 209.981213,10.4827586 210.317012,10.896715 C210.652811,11.3106713 211.135685,11.5183024 211.765633,11.5183024 C211.98169,11.5183024 212.178224,11.4921853 212.353932,11.4412569 C212.529641,11.3890226 212.681922,11.3263416 212.810775,11.2545195 C212.939629,11.1813916 213.048958,11.1095695 213.136162,11.0364415 C213.223366,10.9646195 213.288443,10.9071618 213.330093,10.8653744 L213.794745,11.7520506 C213.742683,11.802979 213.665892,11.8787186 213.561768,11.9766578 C213.458946,12.074597 213.31968,12.1738421 213.143971,12.2717813 C212.968263,12.3697205 212.750904,12.455907 212.493198,12.5290349 C212.235492,12.600857 211.93093,12.6374209 211.579512,12.6374209 C211.11486,12.6374209 210.69446,12.5590696 210.317012,12.4036727 C209.940865,12.2482759 209.620684,12.0079984 209.35647,11.6815344 C209.093558,11.3550704 208.889215,10.9411141 208.744743,10.4383595 C208.600272,9.93560498 208.528687,9.33229953 208.528687,8.62844317 C208.528687,7.96506835 208.602875,7.39310345 208.752553,6.9112426 C208.902231,6.42938176 209.106573,6.03240155 209.36428,5.72160784 C209.623287,5.41081412 209.922643,5.18098347 210.263648,5.03081004 C210.603352,4.8806366 210.970388,4.80489696 211.362154,4.80489696 C212.075402,4.80489696 212.632463,5.03081004 213.035943,5.48133034 C213.438121,5.93185064 213.639861,6.60828402 213.639861,7.50932463 Z M211.285363,5.83129973 C210.841535,5.83129973 210.484911,6.01673128 210.216793,6.39020608 C209.947373,6.76368088 209.792489,7.30169353 209.752141,8.00685574 L212.461961,8.00685574 C212.472373,7.95462151 212.480183,7.87888186 212.485389,7.78094266 C212.490595,7.68300347 212.493198,7.57592328 212.493198,7.46231381 C212.493198,6.943889 212.390376,6.54299123 212.18343,6.25831463 C211.976484,5.97363803 211.677128,5.83129973 211.285363,5.83129973 Z M220.639579,5.97102632 L219.711576,5.97102632 C219.948458,6.36408896 220.066898,6.80938584 220.066898,7.30691696 C220.066898,7.70128545 220.003123,8.05517241 219.874269,8.37118955 C219.744115,8.68720669 219.5632,8.95490716 219.331524,9.17167925 C219.099849,9.38975719 218.825223,9.5556009 218.510248,9.66921037 C218.195274,9.78281983 217.856872,9.84027749 217.496344,9.84027749 C217.423457,9.84027749 217.357078,9.84027749 217.294604,9.84027749 C217.23213,9.84027749 217.165751,9.83505407 217.092864,9.82460722 C216.969217,9.87684146 216.840364,9.95911039 216.706305,10.0727199 C216.572245,10.1876352 216.504565,10.3378086 216.504565,10.5232402 C216.504565,10.678637 216.564436,10.8066109 216.682877,10.9045501 C216.801318,11.0024893 216.995248,11.0521118 217.263367,11.0521118 L218.20829,11.0521118 C218.559707,11.0521118 218.885094,11.0886758 219.18445,11.1604979 C219.483805,11.2336258 219.744115,11.349847 219.966679,11.5104673 C220.187942,11.6710875 220.361048,11.8761069 220.485996,12.1242195 C220.609643,12.3723322 220.670816,12.6739849 220.670816,13.0252602 C220.670816,13.4300755 220.586215,13.797021 220.415713,14.1287084 C220.24521,14.4603958 220.005726,14.7450724 219.695958,14.9840441 C219.386189,15.2217099 219.008741,15.4084473 218.564913,15.5429504 C218.121086,15.6774536 217.625197,15.7453581 217.077246,15.7453581 C216.283302,15.7453581 215.678083,15.5716792 215.265492,15.2243216 C214.852902,14.8769639 214.645956,14.3781269 214.645956,13.7251989 C214.645956,13.4457458 214.695415,13.2041624 214.793031,13.0030606 C214.891949,12.8006529 215.007786,12.6243624 215.141846,12.4741889 C215.275905,12.3240155 215.412567,12.2051826 215.551833,12.1163844 C215.691098,12.0288921 215.803031,11.9583758 215.885029,11.9074475 L215.885029,11.8761069 C215.564848,11.6371353 215.404758,11.2910835 215.404758,10.8340339 C215.404758,10.6381555 215.443804,10.4670883 215.521897,10.3221383 C215.598688,10.1771883 215.685892,10.0570496 215.78481,9.96433381 C215.882426,9.87161804 215.981343,9.79587839 216.078959,9.73842073 C216.176575,9.68226892 216.252065,9.64309325 216.302825,9.62219955 L216.302825,9.59085901 C215.921472,9.41456846 215.614307,9.13772699 215.382632,8.76033463 C215.149655,8.3816364 215.033817,7.89716384 215.033817,7.30691696 C215.033817,6.89296062 215.100196,6.52732095 215.234255,6.21130382 C215.369616,5.89528668 215.54923,5.63411549 215.777,5.42648439 C216.003469,5.22015915 216.270287,5.06345644 216.574848,4.96029382 C216.87941,4.8571312 217.2074,4.80489696 217.557516,4.80489696 C217.908934,4.80489696 218.239527,4.86757805 218.549295,4.99163436 L220.810081,4.99163436 L220.639579,5.97102632 Z M217.186575,12.2182412 C216.969217,12.2182412 216.77789,12.2025709 216.613895,12.1712304 C216.520184,12.2234646 216.430377,12.2848398 216.341872,12.3579678 C216.254668,12.4297898 216.173972,12.518588 216.102387,12.6217507 C216.0295,12.7249133 215.970931,12.8463579 215.924075,12.9873903 C215.877219,13.1271169 215.853792,13.2903489 215.853792,13.4757805 C215.853792,14.2736584 216.293714,14.6732504 217.170957,14.6732504 C217.924552,14.6732504 218.481614,14.5256886 218.843444,14.2305652 C219.205274,13.9354417 219.386189,13.5959192 219.386189,13.2119976 C219.386189,12.8489696 219.271653,12.5930218 219.045184,12.4428484 C218.817413,12.292675 218.512852,12.2182412 218.131498,12.2182412 L217.186575,12.2182412 Z M218.843444,7.30691696 C218.843444,6.76890431 218.717194,6.38498266 218.464694,6.15645787 C218.210893,5.92923893 217.91414,5.81562946 217.573135,5.81562946 C217.212606,5.81562946 216.902838,5.92923893 216.64383,6.15645787 C216.386124,6.38498266 216.257271,6.76890431 216.257271,7.30691696 C216.257271,7.84623546 216.386124,8.22885125 216.64383,8.45737605 C216.902838,8.68459498 217.202194,8.79820445 217.543199,8.79820445 C217.903728,8.79820445 218.210893,8.68459498 218.464694,8.45737605 C218.717194,8.22885125 218.843444,7.84623546 218.843444,7.30691696 Z M222.064773,12.4506835 L223.319464,12.4506835 L223.319464,4.99163436 L222.064773,4.99163436 L222.064773,12.4506835 Z M222.699927,3.18955315 C222.442221,3.18955315 222.235275,3.10597837 222.080391,2.94013467 C221.925507,2.77429096 221.848716,2.55751887 221.848716,2.28720669 C221.848716,2.02864721 221.925507,1.8157927 222.080391,1.64994899 C222.235275,1.48541114 222.442221,1.40183636 222.699927,1.40183636 C222.948523,1.40183636 223.148961,1.48541114 223.303845,1.64994899 C223.458729,1.8157927 223.536822,2.02864721 223.536822,2.28720669 C223.536822,2.55751887 223.458729,2.77429096 223.303845,2.94013467 C223.148961,3.10597837 222.948523,3.18955315 222.699927,3.18955315 Z M230.010715,7.50932463 C230.010715,7.83056519 230.000303,8.10740665 229.979478,8.33984901 C229.958653,8.57359723 229.937829,8.77861661 229.918305,8.95490716 L226.122995,8.95490716 C226.164645,9.83505407 226.353369,10.4827586 226.687866,10.896715 C227.023666,11.3106713 227.506539,11.5183024 228.136488,11.5183024 C228.353846,11.5183024 228.549078,11.4921853 228.724787,11.4412569 C228.900496,11.3890226 229.052777,11.3263416 229.18163,11.2545195 C229.311785,11.1813916 229.419813,11.1095695 229.507017,11.0364415 C229.595522,10.9646195 229.659298,10.9071618 229.700947,10.8653744 L230.165599,11.7520506 C230.113537,11.802979 230.036746,11.8787186 229.932622,11.9766578 C229.8298,12.074597 229.690535,12.1738421 229.514826,12.2717813 C229.339117,12.3697205 229.12306,12.455907 228.864053,12.5290349 C228.606346,12.600857 228.301784,12.6374209 227.950367,12.6374209 C227.485715,12.6374209 227.065315,12.5590696 226.687866,12.4036727 C226.311719,12.2482759 225.991539,12.0079984 225.728627,11.6815344 C225.464413,11.3550704 225.261371,10.9411141 225.1169,10.4383595 C224.971126,9.93560498 224.899541,9.33229953 224.899541,8.62844317 C224.899541,7.96506835 224.973729,7.39310345 225.124709,6.9112426 C225.274387,6.42938176 225.477428,6.03240155 225.736436,5.72160784 C225.994142,5.41081412 226.293498,5.18098347 226.634503,5.03081004 C226.975508,4.8806366 227.341243,4.80489696 227.73431,4.80489696 C228.446256,4.80489696 229.00462,5.03081004 229.406798,5.48133034 C229.808975,5.93185064 230.010715,6.60828402 230.010715,7.50932463 Z M227.656217,5.83129973 C227.21239,5.83129973 226.855766,6.01673128 226.587647,6.39020608 C226.319529,6.76368088 226.164645,7.30169353 226.122995,8.00685574 L228.834117,8.00685574 C228.844529,7.95462151 228.852339,7.87888186 228.857545,7.78094266 C228.861449,7.68300347 228.864053,7.57592328 228.864053,7.46231381 C228.864053,6.943889 228.76123,6.54299123 228.554284,6.25831463 C228.34864,5.97363803 228.049284,5.83129973 227.656217,5.83129973 Z M234.951387,6.09508264 C234.920149,6.07418894 234.853771,6.04807182 234.749647,6.01673128 C234.646825,5.98669659 234.507559,5.97102632 234.33185,5.97102632 C233.940085,5.97102632 233.63292,6.07680065 233.410355,6.28965517 C233.189092,6.50120384 233.030304,6.73234034 232.937894,6.98045297 L232.937894,12.4506835 L231.683203,12.4506835 L231.683203,4.99163436 L232.829865,4.99163436 L232.829865,6.00236686 L232.861103,6.00236686 C232.911863,5.856111 232.979543,5.7137727 233.061541,5.57404611 C233.14484,5.43431953 233.247662,5.31026321 233.371309,5.20187717 C233.494956,5.09218527 233.643332,5.00730463 233.812533,4.94462355 C233.983036,4.88324832 234.187379,4.85190777 234.42426,4.85190777 C234.599969,4.85190777 234.743139,4.86757805 234.851167,4.89891859 C234.959196,4.92895327 235.045098,4.95507039 235.106271,4.97596409 L234.951387,6.09508264 Z M241.394043,12.4506835 L240.248682,12.4506835 L240.248682,11.6110182 L240.217445,11.6110182 C240.186207,11.6736992 240.119829,11.7638033 240.015705,11.8839421 C239.912883,12.0027749 239.781426,12.1163844 239.621336,12.2247705 C239.461246,12.3344624 239.267315,12.4297898 239.040846,12.5133646 C238.813076,12.5956335 238.560576,12.6374209 238.282045,12.6374209 C237.951452,12.6374209 237.654699,12.5877984 237.390485,12.4898592 C237.127573,12.3906142 236.903707,12.2326056 236.717585,12.0158335 C236.531464,11.7977556 236.389596,11.5156907 236.29198,11.168333 C236.193062,10.8222812 236.143603,10.3939604 236.143603,9.88598245 L236.143603,4.99163436 L237.398294,4.99163436 L237.398294,9.79326668 C237.398294,10.4148541 237.499815,10.8575393 237.700253,11.122628 C237.901993,11.3864109 238.214364,11.5183024 238.637367,11.5183024 C238.999197,11.5183024 239.303759,11.4281983 239.551053,11.2466844 C239.799648,11.0651704 239.99488,10.8862681 240.140653,10.7099776 L240.140653,4.99163436 L241.394043,4.99163436 L241.394043,12.4506835 Z M247.373348,12.4506835 L247.373348,7.64905121 C247.373348,7.01701694 247.267923,6.56388492 247.055771,6.28965517 C246.843619,6.01411957 246.520835,5.87700469 246.08742,5.87700469 C245.716479,5.87700469 245.406711,5.97102632 245.158116,6.15645787 C244.910822,6.34319527 244.714288,6.52470924 244.569817,6.7009998 L244.569817,12.4506835 L243.315126,12.4506835 L243.315126,4.99163436 L244.461788,4.99163436 L244.461788,5.83129973 L244.491724,5.83129973 C244.522961,5.76861865 244.590642,5.67851459 244.693464,5.55837584 C244.796286,5.43954295 244.931647,5.32593348 245.096943,5.21754744 C245.26224,5.10785554 245.457472,5.01252806 245.685242,4.92895327 C245.911711,4.84668435 246.170719,4.80489696 246.459663,4.80489696 C246.790255,4.80489696 247.089611,4.85451949 247.35773,4.95245868 C247.625848,5.05170373 247.853619,5.2097123 248.03974,5.42648439 C248.22456,5.64456233 248.370333,5.92662722 248.473155,6.2739849 C248.575978,6.62134258 248.628039,7.04835748 248.628039,7.55633544 L248.628039,12.4506835 L247.373348,12.4506835 Z M255.829497,5.97102632 L254.900193,5.97102632 C255.138376,6.36408896 255.256817,6.80938584 255.256817,7.30691696 C255.256817,7.70128545 255.191739,8.05517241 255.062886,8.37118955 C254.934033,8.68720669 254.753118,8.95490716 254.521443,9.17167925 C254.288466,9.38975719 254.015141,9.5556009 253.700167,9.66921037 C253.385193,9.78281983 253.046791,9.84027749 252.686262,9.84027749 C252.613375,9.84027749 252.546997,9.84027749 252.484522,9.84027749 C252.422048,9.84027749 252.355669,9.83505407 252.282783,9.82460722 C252.159136,9.87684146 252.030283,9.95911039 251.896223,10.0727199 C251.762164,10.1876352 251.694483,10.3378086 251.694483,10.5232402 C251.694483,10.678637 251.754355,10.8066109 251.872795,10.9045501 C251.991236,11.0024893 252.185167,11.0521118 252.453285,11.0521118 L253.398208,11.0521118 C253.749626,11.0521118 254.075012,11.0886758 254.374368,11.1604979 C254.673724,11.2336258 254.934033,11.349847 255.156598,11.5104673 C255.377861,11.6710875 255.550966,11.8761069 255.674613,12.1242195 C255.79826,12.3723322 255.860735,12.6739849 255.860735,13.0252602 C255.860735,13.4300755 255.776134,13.797021 255.605631,14.1287084 C255.435129,14.4603958 255.194343,14.7450724 254.884574,14.9840441 C254.574806,15.2217099 254.198659,15.4084473 253.754832,15.5429504 C253.311004,15.6774536 252.815115,15.7453581 252.267164,15.7453581 C251.471919,15.7453581 250.868001,15.5716792 250.455411,15.2243216 C250.042821,14.8769639 249.835875,14.3781269 249.835875,13.7251989 C249.835875,13.4457458 249.885334,13.2041624 249.98295,13.0030606 C250.080566,12.8006529 250.197705,12.6243624 250.331764,12.4741889 C250.465823,12.3240155 250.602486,12.2051826 250.741751,12.1163844 C250.881017,12.0288921 250.99295,11.9583758 251.074947,11.9074475 L251.074947,11.8761069 C250.754767,11.6371353 250.594676,11.2910835 250.594676,10.8340339 C250.594676,10.6381555 250.633723,10.4670883 250.710514,10.3221383 C250.788607,10.1771883 250.875811,10.0570496 250.974728,9.96433381 C251.072344,9.87161804 251.16996,9.79587839 251.268878,9.73842073 C251.366494,9.68226892 251.441983,9.64309325 251.492744,9.62219955 L251.492744,9.59085901 C251.111391,9.41456846 250.804226,9.13772699 250.571249,8.76033463 C250.339573,8.3816364 250.222434,7.89716384 250.222434,7.30691696 C250.222434,6.89296062 250.290115,6.52732095 250.424174,6.21130382 C250.558233,5.89528668 250.739148,5.63411549 250.966919,5.42648439 C251.193388,5.22015915 251.460205,5.06345644 251.764767,4.96029382 C252.069329,4.8571312 252.397319,4.80489696 252.747435,4.80489696 C253.098852,4.80489696 253.429445,4.86757805 253.739213,4.99163436 L256,4.99163436 L255.829497,5.97102632 Z M252.376494,12.2182412 C252.159136,12.2182412 251.967808,12.2025709 251.802512,12.1712304 C251.710102,12.2234646 251.618994,12.2848398 251.53179,12.3579678 C251.444587,12.4297898 251.363891,12.518588 251.292306,12.6217507 C251.219419,12.7249133 251.160849,12.8463579 251.113994,12.9873903 C251.067138,13.1271169 251.04371,13.2903489 251.04371,13.4757805 C251.04371,14.2736584 251.482331,14.6732504 252.360875,14.6732504 C253.114471,14.6732504 253.671533,14.5256886 254.033363,14.2305652 C254.395193,13.9354417 254.574806,13.5959192 254.574806,13.2119976 C254.574806,12.8489696 254.461572,12.5930218 254.235103,12.4428484 C254.007332,12.292675 253.70277,12.2182412 253.321417,12.2182412 L252.376494,12.2182412 Z M254.033363,7.30691696 C254.033363,6.76890431 253.907113,6.38498266 253.653311,6.15645787 C253.400811,5.92923893 253.104059,5.81562946 252.763053,5.81562946 C252.401223,5.81562946 252.091455,5.92923893 251.833749,6.15645787 C251.576043,6.38498266 251.44719,6.76890431 251.44719,7.30691696 C251.44719,7.84623546 251.576043,8.22885125 251.833749,8.45737605 C252.091455,8.68459498 252.392113,8.79820445 252.731816,8.79820445 C253.093646,8.79820445 253.400811,8.68459498 253.653311,8.45737605 C253.907113,8.22885125 254.033363,7.84623546 254.033363,7.30691696 Z M55.363971,21.6870027 L53.845066,21.6870027 L53.845066,28.1209549 L52.5916765,28.1209549 L52.5916765,21.6870027 L51.6923077,21.6870027 L51.6923077,20.8486431 L52.5916765,20.677576 L52.5916765,19.1862885 C52.5916765,18.7814732 52.647643,18.4341155 52.7608775,18.1442155 C52.8754137,17.8543154 53.0250915,17.6166497 53.2099112,17.4299123 C53.3960323,17.2431749 53.6133906,17.1086717 53.8606845,17.0250969 C54.1092799,16.942828 54.3721924,16.9010406 54.6507234,16.9010406 C54.918842,16.9010406 55.1466127,16.9376046 55.3327339,17.0107325 C55.518855,17.0825546 55.642502,17.1400122 55.7036747,17.1804938 L55.4407622,18.2225668 C55.3795895,18.1807794 55.2910844,18.1363803 55.1778498,18.0893695 C55.0633137,18.0436646 54.9240482,18.0201592 54.7600533,18.0201592 C54.459396,18.0201592 54.2329269,18.1128749 54.0780428,18.2996123 C53.9231588,18.4863497 53.845066,18.828484 53.845066,19.3260151 L53.845066,20.6619057 L55.518855,20.6619057 L55.363971,21.6870027 Z M61.8066272,28.1209549 L60.6599646,28.1209549 L60.6599646,27.2812895 L60.630029,27.2812895 C60.5987919,27.3439706 60.5311114,27.4340747 60.4282892,27.5542134 C60.325467,27.6730463 60.1927093,27.7866558 60.0339206,27.8950418 C59.8725288,28.0047337 59.6798999,28.1000612 59.4521292,28.183636 C59.2256601,28.2659049 58.9718585,28.3076923 58.6933275,28.3076923 C58.3627346,28.3076923 58.0659819,28.2580698 57.8030695,28.1601306 C57.5401571,28.0608855 57.3149895,27.902877 57.1288683,27.6861049 C56.9427471,27.4680269 56.8008785,27.185962 56.7032625,26.8386044 C56.6056465,26.4912467 56.5561878,26.0642318 56.5561878,25.5562538 L56.5561878,20.6619057 L57.8108788,20.6619057 L57.8108788,25.4635381 C57.8108788,26.0851255 57.9110979,26.5278107 58.1128376,26.7928994 C58.3145774,27.0566823 58.625647,27.1885738 59.0499513,27.1885738 C59.4117813,27.1885738 59.7150416,27.0984697 59.9636371,26.9169557 C60.2109309,26.7354417 60.4074645,26.5565395 60.5519362,26.3802489 L60.5519362,20.6619057 L61.8066272,20.6619057 L61.8066272,28.1209549 Z M58.7245646,18.5176903 C58.7245646,18.755356 58.651678,18.9473169 58.5072063,19.0922669 C58.3627346,19.2372169 58.1870258,19.3103448 57.9813814,19.3103448 C57.7744355,19.3103448 57.5987267,19.2372169 57.454255,19.0922669 C57.3097833,18.9473169 57.2368967,18.755356 57.2368967,18.5176903 C57.2368967,18.2787186 57.3097833,18.0880637 57.454255,17.9418078 C57.5987267,17.7968578 57.7744355,17.7250357 57.9813814,17.7250357 C58.1870258,17.7250357 58.3627346,17.7968578 58.5072063,17.9418078 C58.651678,18.0880637 58.7245646,18.2787186 58.7245646,18.5176903 Z M61.1102997,18.5176903 C61.1102997,18.755356 61.0374131,18.9473169 60.8929414,19.0922669 C60.7484697,19.2372169 60.5727609,19.3103448 60.365815,19.3103448 C60.1601706,19.3103448 59.9844618,19.2372169 59.8399901,19.0922669 C59.6955184,18.9473169 59.6226318,18.755356 59.6226318,18.5176903 C59.6226318,18.2787186 59.6955184,18.0880637 59.8399901,17.9418078 C59.9844618,17.7968578 60.1601706,17.7250357 60.365815,17.7250357 C60.5727609,17.7250357 60.7484697,17.7968578 60.8929414,17.9418078 C61.0374131,18.0880637 61.1102997,18.2787186 61.1102997,18.5176903 Z M66.995894,21.765354 C66.9646568,21.7444603 66.8969764,21.7183432 66.7941542,21.6870027 C66.6900305,21.656968 66.550765,21.6412977 66.3763577,21.6412977 C65.9832906,21.6412977 65.6761256,21.747072 65.4548626,21.9599265 C65.2322982,22.1714752 65.074811,22.4026117 64.9824012,22.6507243 L64.9824012,28.1209549 L63.7277102,28.1209549 L63.7277102,20.6619057 L64.8730713,20.6619057 L64.8730713,21.6726382 L64.9043084,21.6726382 C64.9563703,21.5263824 65.0227491,21.3840441 65.1060481,21.2443175 C65.1880456,21.1045909 65.2921693,20.9805346 65.4158162,20.8721485 C65.5394632,20.7624566 65.686538,20.677576 65.8570406,20.6148949 C66.0275432,20.5535197 66.2305845,20.5221791 66.4687675,20.5221791 C66.6444763,20.5221791 66.7863449,20.5378494 66.8943733,20.56919 C67.0037032,20.5992246 67.0883038,20.6253418 67.150778,20.6462355 L66.995894,21.765354 Z M74.7088598,22.6350541 L78.3323658,28.1209549 L76.6754969,28.1209549 L73.5778157,23.2409712 L72.7721583,23.2409712 L72.7721583,28.1209549 L71.4250574,28.1209549 L71.4250574,17.3985717 L72.7721583,17.3985717 L72.7721583,22.1688635 L73.5934342,22.1688635 L76.583087,17.3985717 L78.085072,17.3985717 L74.7088598,22.6350541 Z M84.4196998,28.1209549 L83.2730372,28.1209549 L83.2730372,27.2812895 L83.2431016,27.2812895 C83.2118645,27.3439706 83.144184,27.4340747 83.0413618,27.5542134 C82.9385397,27.6730463 82.8057819,27.7866558 82.6469932,27.8950418 C82.4856014,28.0047337 82.2929725,28.1000612 82.0652018,28.183636 C81.8387327,28.2659049 81.5849311,28.3076923 81.3064001,28.3076923 C80.9758072,28.3076923 80.6790546,28.2580698 80.4161421,28.1601306 C80.1532297,28.0608855 79.9280621,27.902877 79.7419409,27.6861049 C79.5558197,27.4680269 79.4139511,27.185962 79.3163351,26.8386044 C79.2187191,26.4912467 79.1692604,26.0642318 79.1692604,25.5562538 L79.1692604,20.6619057 L80.4239514,20.6619057 L80.4239514,25.4635381 C80.4239514,26.0851255 80.5241705,26.5278107 80.7259102,26.7928994 C80.92765,27.0566823 81.2387196,27.1885738 81.6630239,27.1885738 C82.0248539,27.1885738 82.3294158,27.0984697 82.5767097,26.9169557 C82.8240035,26.7354417 83.0205371,26.5565395 83.1650088,26.3802489 L83.1650088,20.6619057 L84.4196998,20.6619057 L84.4196998,28.1209549 Z M87.5798552,26.3802489 C87.5798552,26.6910426 87.6228063,26.9091206 87.7113115,27.0331769 C87.7985151,27.1572332 87.950796,27.2199143 88.1681543,27.2199143 C88.2813889,27.2199143 88.3777034,27.2094675 88.4544946,27.1885738 C88.5325874,27.1676801 88.591157,27.1467864 88.6328065,27.1258927 L88.7408349,28.0582738 C88.6796622,28.0896144 88.5651261,28.1314018 88.3998297,28.183636 C88.2345332,28.2345644 88.0132703,28.2606815 87.7347393,28.2606815 C87.3104351,28.2606815 86.9707314,28.1314018 86.7117236,27.8728423 C86.4540173,27.6129769 86.3251642,27.1520098 86.3251642,26.488635 L86.3251642,17.1347888 L87.5798552,16.9950622 L87.5798552,26.3802489 Z M93.0463514,21.6870027 L91.4207196,21.6870027 L91.4207196,25.8213426 C91.4207196,26.3489084 91.4870985,26.7093246 91.6211578,26.9012855 C91.7565186,27.0932463 91.9829878,27.1885738 92.3031683,27.1885738 C92.4892894,27.1885738 92.6493797,27.1624566 92.783439,27.1115283 C92.9174983,27.059294 93.0164159,27.0122832 93.0775886,26.9704958 L93.2480912,27.9812283 C93.1960293,28.0230157 93.0723824,28.0870027 92.8758488,28.1758009 C92.6806168,28.2632932 92.4164028,28.3076923 92.08581,28.3076923 C91.4467505,28.3076923 90.9664798,28.12879 90.6462993,27.7709855 C90.3261188,27.4144868 90.1660286,26.8203224 90.1660286,25.9924097 L90.1660286,21.6870027 L89.2679613,21.6870027 L89.2679613,20.8486431 L90.1660286,20.6619057 L90.3052941,18.5790655 L91.4207196,18.5790655 L91.4207196,20.6619057 L93.2012355,20.6619057 L93.0463514,21.6870027 Z M99.6751288,28.1209549 L98.5297677,28.1209549 L98.5297677,27.2812895 L98.4985306,27.2812895 C98.4672935,27.3439706 98.4009146,27.4340747 98.2967909,27.5542134 C98.1939687,27.6730463 98.0625125,27.7866558 97.9024222,27.8950418 C97.742332,28.0047337 97.5484015,28.1000612 97.3219324,28.183636 C97.0941617,28.2659049 96.8416616,28.3076923 96.5631307,28.3076923 C96.2325378,28.3076923 95.9357851,28.2580698 95.6715712,28.1601306 C95.4086587,28.0608855 95.1847927,27.902877 94.9986715,27.6861049 C94.8125503,27.4680269 94.6706817,27.185962 94.5730657,26.8386044 C94.4741482,26.4912467 94.4246894,26.0642318 94.4246894,25.5562538 L94.4246894,20.6619057 L95.6793804,20.6619057 L95.6793804,25.4635381 C95.6793804,26.0851255 95.7809011,26.5278107 95.9813393,26.7928994 C96.183079,27.0566823 96.4954502,27.1885738 96.9184529,27.1885738 C97.2802829,27.1885738 97.5848448,27.0984697 97.8321387,26.9169557 C98.0807341,26.7354417 98.2772677,26.5565395 98.4217394,26.3802489 L98.4217394,20.6619057 L99.6751288,20.6619057 L99.6751288,28.1209549 Z M104.864396,21.765354 C104.833158,21.7444603 104.76678,21.7183432 104.662656,21.6870027 C104.559834,21.656968 104.420568,21.6412977 104.244859,21.6412977 C103.853094,21.6412977 103.545929,21.747072 103.323364,21.9599265 C103.1008,22.1714752 102.943313,22.4026117 102.850903,22.6507243 L102.850903,28.1209549 L101.596212,28.1209549 L101.596212,20.6619057 L102.742874,20.6619057 L102.742874,21.6726382 L102.77281,21.6726382 C102.824872,21.5263824 102.892552,21.3840441 102.97455,21.2443175 C103.057849,21.1045909 103.160671,20.9805346 103.284318,20.8721485 C103.407965,20.7624566 103.55504,20.677576 103.725542,20.6148949 C103.896045,20.5535197 104.100388,20.5221791 104.337269,20.5221791 C104.512978,20.5221791 104.654847,20.5378494 104.764176,20.56919 C104.872205,20.5992246 104.956805,20.6253418 105.01928,20.6462355 L104.864396,21.765354 Z M114.235532,28.1209549 L113.088869,28.1209549 L113.088869,27.2812895 L113.057632,27.2812895 C113.026395,27.3439706 112.960016,27.4340747 112.855892,27.5542134 C112.75307,27.6730463 112.621614,27.7866558 112.461524,27.8950418 C112.301434,28.0047337 112.107503,28.1000612 111.881034,28.183636 C111.653263,28.2659049 111.400763,28.3076923 111.122232,28.3076923 C110.791639,28.3076923 110.494887,28.2580698 110.230673,28.1601306 C109.96776,28.0608855 109.743894,27.902877 109.557773,27.6861049 C109.371652,27.4680269 109.229783,27.185962 109.132167,26.8386044 C109.03325,26.4912467 108.983791,26.0642318 108.983791,25.5562538 L108.983791,20.6619057 L110.238482,20.6619057 L110.238482,25.4635381 C110.238482,26.0851255 110.340003,26.5278107 110.540441,26.7928994 C110.742181,27.0566823 111.054552,27.1885738 111.477554,27.1885738 C111.839384,27.1885738 112.143946,27.0984697 112.39124,26.9169557 C112.639836,26.7354417 112.836369,26.5565395 112.980841,26.3802489 L112.980841,20.6619057 L114.235532,20.6619057 L114.235532,28.1209549 Z M120.213536,28.1209549 L120.213536,23.3193226 C120.213536,22.6872883 120.108111,22.2341563 119.895959,21.9599265 C119.683806,21.6843909 119.361023,21.5472761 118.927608,21.5472761 C118.556667,21.5472761 118.246899,21.6412977 117.998303,21.8267292 C117.75101,22.0134666 117.554476,22.1949806 117.410004,22.3712712 L117.410004,28.1209549 L116.155313,28.1209549 L116.155313,20.6619057 L117.301976,20.6619057 L117.301976,21.5015711 L117.333213,21.5015711 C117.363149,21.43889 117.430829,21.348786 117.533651,21.2286472 C117.637775,21.1098143 117.771834,20.9962049 117.937131,20.8878188 C118.101126,20.7781269 118.297659,20.6827994 118.52543,20.5992246 C118.751899,20.5169557 119.010907,20.4751683 119.29985,20.4751683 C119.630443,20.4751683 119.929799,20.5247909 120.197917,20.6227301 C120.466036,20.7219751 120.693807,20.8799837 120.879928,21.0967558 C121.064748,21.3148337 121.210521,21.5968986 121.313343,21.9442563 C121.416165,22.291614 121.468227,22.7186289 121.468227,23.2266068 L121.468227,28.1209549 L120.213536,28.1209549 Z M123.001449,24.4998164 C123.001449,23.7437258 123.099065,23.1116915 123.295599,22.6037135 C123.492132,22.0970414 123.744632,21.6870027 124.0544,21.3762089 C124.364168,21.0654152 124.715586,20.8460314 125.107352,20.7167517 C125.500419,20.5861661 125.892184,20.5221791 126.285251,20.5221791 C126.522133,20.5221791 126.729079,20.5404611 126.904788,20.5770251 C127.080496,20.6122832 127.224968,20.6566823 127.338203,20.7089165 L127.338203,17.1347888 L128.592894,16.9950622 L128.592894,28.1209549 L127.446231,28.1209549 L127.446231,27.3283003 L127.414994,27.3283003 C127.385058,27.3909814 127.32779,27.4758621 127.244491,27.5842481 C127.162494,27.69394 127.049259,27.8023261 126.904788,27.9107121 C126.760316,28.020404 126.579401,28.1131198 126.362043,28.1914711 C126.145986,28.2685166 125.892184,28.3076923 125.603241,28.3076923 C125.251823,28.3076923 124.919929,28.2371761 124.604955,28.0974495 C124.28998,27.9577229 124.012751,27.7344215 123.775869,27.4288513 C123.537686,27.123281 123.350264,26.7302183 123.210998,26.2483575 C123.071733,25.7664966 123.001449,25.1840849 123.001449,24.4998164 Z M125.944246,27.1885738 C126.14078,27.1885738 126.316489,27.1624566 126.470071,27.1115283 C126.626257,27.059294 126.760316,26.9940012 126.873551,26.9169557 C126.986785,26.8386044 127.0831,26.7589472 127.159891,26.6753724 C127.237984,26.5931034 127.296553,26.5199755 127.338203,26.4586003 L127.338203,21.8580698 C127.224968,21.7862477 127.093512,21.7235666 126.942532,21.6726382 C126.792855,21.620404 126.605432,21.5942869 126.377661,21.5942869 C126.088718,21.5942869 125.817996,21.6439094 125.564195,21.7418486 C125.311694,21.8397878 125.091733,22.0030198 124.906913,22.2315446 C124.720792,22.4587635 124.573717,22.7551928 124.465689,23.1169149 C124.356359,23.4799429 124.301694,23.9252397 124.301694,24.4541114 C124.301694,24.9712304 124.345947,25.4047745 124.434452,25.7508264 C124.521656,26.098184 124.642699,26.3776372 124.797584,26.5904917 C124.952468,26.8020404 125.128176,26.9548255 125.32471,27.0488472 C125.521243,27.1415629 125.726888,27.1885738 125.944246,27.1885738 Z M142.965874,17.3985717 L142.965874,28.1209549 L141.664327,28.1209549 L141.664327,23.0241991 C141.664327,22.7029586 141.664327,22.3869414 141.664327,22.0761477 C141.664327,21.765354 141.66693,21.475454 141.672137,21.2051418 C141.677343,20.9361355 141.685152,20.6984697 141.695564,20.4908386 C141.705977,20.2832075 141.716389,20.1238931 141.726802,20.0089778 L141.679946,20.0089778 C141.629186,20.2479494 141.522459,20.6331769 141.362369,21.167272 C141.202278,21.7000612 141.020062,22.273332 140.813116,22.8844726 L139.046917,28.1209549 L137.978347,28.1209549 L136.21345,22.8844726 C136.006504,22.273332 135.822986,21.7000612 135.662895,21.167272 C135.502805,20.6331769 135.39738,20.2479494 135.345318,20.0089778 L135.299764,20.0089778 C135.308875,20.1330341 135.319287,20.2988778 135.3297,20.5065089 C135.340112,20.71414 135.347921,20.949194 135.353127,21.2129769 C135.358334,21.4780657 135.360937,21.765354 135.360937,22.0761477 C135.360937,22.3869414 135.360937,22.7029586 135.360937,23.0241991 L135.360937,28.1209549 L134.060691,28.1209549 L134.060691,17.3985717 L135.562676,17.3985717 L138.086375,24.7949398 C138.200912,25.1370741 138.301131,25.4713732 138.389636,25.7978372 C138.476839,26.1243012 138.531504,26.406366 138.552329,26.6453377 L138.582265,26.6453377 C138.592677,26.406366 138.642136,26.1269129 138.72934,25.8056723 C138.817845,25.4844317 138.918064,25.1527443 139.031298,24.8106101 L141.556299,17.3985717 L142.965874,17.3985717 Z M149.858865,23.179596 C149.858865,23.5008366 149.848453,23.777678 149.827628,24.0101204 C149.806804,24.2438686 149.785979,24.448888 149.765154,24.6251785 L145.971145,24.6251785 C146.011493,25.5053254 146.200218,26.15303 146.536017,26.5669863 C146.871816,26.9809427 147.35469,27.1885738 147.984638,27.1885738 C148.200695,27.1885738 148.397229,27.1624566 148.572937,27.1115283 C148.748646,27.059294 148.900927,26.9966129 149.02978,26.9247909 C149.158633,26.8516629 149.266662,26.7798408 149.355167,26.7067129 C149.442371,26.6348908 149.507448,26.5774332 149.547796,26.5356458 L150.01375,27.422322 C149.961688,27.4732504 149.883595,27.54899 149.780773,27.6469292 C149.67795,27.7448684 149.538685,27.8441134 149.362976,27.9420526 C149.187267,28.0399918 148.969909,28.1261783 148.712203,28.1993063 C148.454497,28.2711283 148.148633,28.3076923 147.798517,28.3076923 C147.333865,28.3076923 146.912164,28.229341 146.536017,28.0739441 C146.158568,27.9185472 145.839689,27.6782697 145.575475,27.3518058 C145.312563,27.0253418 145.10822,26.6113854 144.963748,26.1086309 C144.819277,25.6058764 144.74639,25.0025709 144.74639,24.2987145 C144.74639,23.6353397 144.82188,23.0633748 144.971558,22.581514 C145.121235,22.0996531 145.325578,21.7026729 145.583285,21.3918792 C145.840991,21.0810855 146.140347,20.8512548 146.481352,20.7010814 C146.822357,20.550908 147.189393,20.4751683 147.581159,20.4751683 C148.294406,20.4751683 148.851468,20.7010814 149.253646,21.1516017 C149.657126,21.602122 149.858865,22.2785554 149.858865,23.179596 Z M147.504367,21.5015711 C147.06054,21.5015711 146.703916,21.6870027 146.435798,22.0604775 C146.166377,22.4339523 146.011493,22.9719649 145.971145,23.6771271 L148.680966,23.6771271 C148.691378,23.6248929 148.699187,23.5491532 148.704394,23.451214 C148.7096,23.3532748 148.712203,23.2461947 148.712203,23.1325852 C148.712203,22.6141604 148.609381,22.2132626 148.402435,21.928586 C148.195489,21.6439094 147.896133,21.5015711 147.504367,21.5015711 Z M151.190348,24.4998164 C151.190348,23.7437258 151.287964,23.1116915 151.484497,22.6037135 C151.681031,22.0970414 151.933531,21.6870027 152.243299,21.3762089 C152.553067,21.0654152 152.904485,20.8460314 153.29625,20.7167517 C153.689317,20.5861661 154.081083,20.5221791 154.47415,20.5221791 C154.711032,20.5221791 154.917978,20.5404611 155.093686,20.5770251 C155.269395,20.6122832 155.413867,20.6566823 155.527101,20.7089165 L155.527101,17.1347888 L156.781792,16.9950622 L156.781792,28.1209549 L155.63513,28.1209549 L155.63513,27.3283003 L155.603893,27.3283003 C155.573957,27.3909814 155.516689,27.4758621 155.43339,27.5842481 C155.351393,27.69394 155.238158,27.8023261 155.093686,27.9107121 C154.949215,28.020404 154.7683,28.1131198 154.550941,28.1914711 C154.334885,28.2685166 154.081083,28.3076923 153.79214,28.3076923 C153.440722,28.3076923 153.107526,28.2371761 152.793853,28.0974495 C152.478879,27.9577229 152.20165,27.7344215 151.964768,27.4288513 C151.726585,27.123281 151.539162,26.7302183 151.399897,26.2483575 C151.25933,25.7664966 151.190348,25.1840849 151.190348,24.4998164 Z M154.133145,27.1885738 C154.329678,27.1885738 154.505387,27.1624566 154.65897,27.1115283 C154.813854,27.059294 154.949215,26.9940012 155.062449,26.9169557 C155.175684,26.8386044 155.271998,26.7589472 155.34879,26.6753724 C155.426882,26.5931034 155.485452,26.5199755 155.527101,26.4586003 L155.527101,21.8580698 C155.413867,21.7862477 155.282411,21.7235666 155.132733,21.6726382 C154.981753,21.620404 154.794331,21.5942869 154.56656,21.5942869 C154.277617,21.5942869 154.006895,21.6439094 153.753093,21.7418486 C153.500593,21.8397878 153.280632,22.0030198 153.095812,22.2315446 C152.909691,22.4587635 152.762616,22.7551928 152.653286,23.1169149 C152.545258,23.4799429 152.491894,23.9252397 152.491894,24.4541114 C152.491894,24.9712304 152.534846,25.4047745 152.623351,25.7508264 C152.710554,26.098184 152.831598,26.3776372 152.986482,26.5904917 C153.141366,26.8020404 153.317075,26.9548255 153.513609,27.0488472 C153.710142,27.1415629 153.915787,27.1885738 154.133145,27.1885738 Z M158.701574,28.1209549 L159.956265,28.1209549 L159.956265,20.6619057 L158.701574,20.6619057 L158.701574,28.1209549 Z M159.336729,18.8598245 C159.079022,18.8598245 158.872076,18.7762497 158.717192,18.610406 C158.562308,18.4445623 158.485517,18.2277902 158.485517,17.9574781 C158.485517,17.6989186 158.562308,17.4860641 158.717192,17.3202204 C158.872076,17.1556825 159.079022,17.0721077 159.336729,17.0721077 C159.585324,17.0721077 159.785762,17.1556825 159.940646,17.3202204 C160.09553,17.4860641 160.173623,17.6989186 160.173623,17.9574781 C160.173623,18.2277902 160.09553,18.4445623 159.940646,18.610406 C159.785762,18.7762497 159.585324,18.8598245 159.336729,18.8598245 Z M166.647517,23.179596 C166.647517,23.5008366 166.637104,23.777678 166.616279,24.0101204 C166.595455,24.2438686 166.575931,24.448888 166.555107,24.6251785 L162.759797,24.6251785 C162.801446,25.5053254 162.99017,26.15303 163.325969,26.5669863 C163.660467,26.9809427 164.143341,27.1885738 164.773289,27.1885738 C164.990648,27.1885738 165.187181,27.1624566 165.361588,27.1115283 C165.537297,27.059294 165.689578,26.9966129 165.819733,26.9247909 C165.948586,26.8516629 166.056614,26.7798408 166.143818,26.7067129 C166.232323,26.6348908 166.296099,26.5774332 166.337748,26.5356458 L166.802401,27.422322 C166.750339,27.4732504 166.673547,27.54899 166.570725,27.6469292 C166.466602,27.7448684 166.327336,27.8441134 166.151627,27.9420526 C165.975918,28.0399918 165.759862,28.1261783 165.500854,28.1993063 C165.243148,28.2711283 164.938586,28.3076923 164.587168,28.3076923 C164.122516,28.3076923 163.702116,28.229341 163.325969,28.0739441 C162.948521,27.9185472 162.62834,27.6782697 162.365428,27.3518058 C162.101214,27.0253418 161.898173,26.6113854 161.753701,26.1086309 C161.609229,25.6058764 161.536343,25.0025709 161.536343,24.2987145 C161.536343,23.6353397 161.611832,23.0633748 161.76151,22.581514 C161.911188,22.0996531 162.114229,21.7026729 162.373237,21.3918792 C162.630943,21.0810855 162.930299,20.8512548 163.271304,20.7010814 C163.61231,20.550908 163.978044,20.4751683 164.371111,20.4751683 C165.083057,20.4751683 165.641421,20.7010814 166.043599,21.1516017 C166.445777,21.602122 166.647517,22.2785554 166.647517,23.179596 Z M164.293019,21.5015711 C163.849191,21.5015711 163.492567,21.6870027 163.224449,22.0604775 C162.95633,22.4339523 162.801446,22.9719649 162.759797,23.6771271 L165.470918,23.6771271 C165.481331,23.6248929 165.48914,23.5491532 165.494346,23.451214 C165.498251,23.3532748 165.500854,23.2461947 165.500854,23.1325852 C165.500854,22.6141604 165.398032,22.2132626 165.192387,21.928586 C164.985441,21.6439094 164.686086,21.5015711 164.293019,21.5015711 Z M172.378227,28.1209549 L172.378227,23.3193226 C172.378227,22.6872883 172.272801,22.2341563 172.060649,21.9599265 C171.848497,21.6843909 171.527015,21.5472761 171.092299,21.5472761 C170.721358,21.5472761 170.41159,21.6412977 170.162994,21.8267292 C169.9157,22.0134666 169.719167,22.1949806 169.574695,22.3712712 L169.574695,28.1209549 L168.320004,28.1209549 L168.320004,20.6619057 L169.466667,20.6619057 L169.466667,21.5015711 L169.497904,21.5015711 C169.529141,21.43889 169.59552,21.348786 169.698342,21.2286472 C169.802466,21.1098143 169.936525,20.9962049 170.101822,20.8878188 C170.267118,20.7781269 170.46235,20.6827994 170.690121,20.5992246 C170.91659,20.5169557 171.175598,20.4751683 171.464541,20.4751683 C171.795134,20.4751683 172.09449,20.5247909 172.362608,20.6227301 C172.630727,20.7219751 172.858497,20.8799837 173.044619,21.0967558 C173.23074,21.3148337 173.375212,21.5968986 173.478034,21.9442563 C173.580856,22.291614 173.632918,22.7186289 173.632918,23.2266068 L173.632918,28.1209549 L172.378227,28.1209549 L172.378227,28.1209549 Z" id="Fill-2" fill="#1A1919"></path>
            <polygon id="Fill-3" fill="#1A1919" points="38.1538462 27.0769231 43.0769231 27.0769231 43.0769231 1.23076923 38.1538462 1.23076923"></polygon>
            <polyline id="Fill-4" fill="#8A8B8A" points="40.2637363 28.3076923 43.0769231 28.3076923 43.0769231 54.1538462 38.1538462 54.1538462 38.1538462 28.3076923 40.2637363 28.3076923"></polyline>
            <polyline id="Fill-5" fill="#BFC0BF" points="40.967033 54.1538462 43.0769231 54.1538462 43.0769231 80 38.1538462 80 38.1538462 54.1538462 40.967033 54.1538462"></polyline>
            <path d="M26.7705746,10.3269019 C28.1197094,12.4307466 29.1750384,12.3956609 30.7692308,12.3956609 C29.4503989,11.3976666 28.5782044,10.1215854 28.1618698,9.46925054 L25.6981179,5.58123111 C25.4583303,4.38051922 24.8285584,3.25777564 23.8852181,2.42221532 C24.2014216,2.30396339 24.466242,2.1792141 24.6243437,2.06096217 C23.0156587,2.06096217 21.4214663,1.2552897 20.5440017,1.2552897 C19.9801055,1.2552897 19.6164716,1.58795446 19.6164716,2.02717591 C19.653362,2.51577728 20.1645575,3.01477443 21.1092154,3.01477443 C21.3226527,3.01477443 21.5966957,2.98748552 21.897089,2.9381056 C22.4082845,3.64111981 22.8206665,4.27656148 22.8206665,5.18359276 C22.8206665,6.88590073 20.757439,8.21266137 18.6744488,8.21266137 C18.5558725,8.21266137 18.4438838,8.20746349 18.326625,8.19966666 C18.1369029,7.77733834 17.5097661,7.06782677 17.5097661,6.26345377 C17.5097661,4.91070369 18.4043583,3.80615272 18.4043583,2.46509788 C18.4043583,1.63343597 17.9932939,1.11754569 17.8338746,0.903132857 C18.0907899,0.669227944 18.370103,0.380745219 18.4346612,0.184524987 C18.2870996,0.24689963 18.1105526,0.255995932 17.8523198,0.255995932 C16.8549614,0.255995932 16.0407375,0 15.2475939,0 C14.7943689,0 14.6731576,0.137744004 14.6731576,0.268990649 C14.6731576,0.317071104 14.6797452,0.36645103 14.6929203,0.389841521 C14.5242785,0.324867934 14.3661768,0.281985367 14.1777722,0.24689963 C13.9432547,0.204017063 13.6902919,0.181926043 13.4228365,0.181926043 C12.458416,0.181926043 12.1158622,0.580863866 12.1158622,0.921325461 C12.1158622,1.21110766 12.3464272,1.73869318 12.6086126,2.14022995 C12.9841042,1.95440549 13.4360116,1.82835673 13.6415439,1.82835673 C14.1527394,1.82835673 14.6085994,2.30916128 14.8497045,2.8783299 C14.5058333,2.91861352 14.4399576,2.93420718 14.0921338,2.93420718 C13.152746,2.93420718 12.5137516,2.60284189 12.3820001,2.60284189 C12.368825,2.60284189 12.3437922,2.60933925 12.3437922,2.62883132 C12.3437922,2.76007797 12.6112476,3.10313851 13.1356183,3.29156191 C13.8259959,3.54106048 14.8628797,3.64501822 15.0354741,3.6736066 C15.0354741,3.70349445 14.8602447,4.02576344 14.663935,4.08683861 C14.6217746,4.1011328 14.5901542,4.10243227 14.5414062,4.0920365 C13.8194083,3.95169355 13.6178286,3.89191785 12.7021561,3.54755784 C12.6731708,3.53846154 12.6573606,3.55535467 12.6573606,3.58394305 C12.6573606,3.94129778 13.5954309,4.73007712 14.436005,5.03155456 C13.7337699,5.91649482 12.8576228,6.82092714 12.4439233,8.19966666 C12.3266645,8.20746349 12.2133583,8.21266137 12.0960995,8.21266137 C10.0131093,8.21266137 7.94856424,6.88590073 7.94856424,5.18359276 C7.94856424,4.27656148 8.36226375,3.64111981 8.87345933,2.9381056 C9.17385261,2.98748552 9.44657809,3.01477443 9.66133293,3.01477443 C10.6059907,3.01477443 11.1171863,2.51577728 11.1540767,2.02717591 C11.1540767,1.58795446 10.7917603,1.2552897 10.2265466,1.2552897 C9.34908202,1.2552897 7.75620714,2.06096217 6.14488706,2.06096217 C6.3043063,2.1792141 6.56780917,2.30396339 6.88401262,2.42221532 C5.94198984,3.25777564 5.31221797,4.38051922 5.07111284,5.58123111 L2.60867847,9.46925054 C2.19366144,10.1215854 1.31883189,11.3976666 0,12.3956609 C1.5941924,12.3956609 2.65083893,12.4307466 3.99997365,10.3269019 L5.26215242,8.33351225 C5.35701346,8.59210712 5.47163721,8.84420464 5.60734119,9.09110427 L3.09484127,13.0557925 C2.6758717,13.7133252 1.81026475,14.9790107 0.486162805,15.9822029 C2.0803552,15.9822029 3.13700173,16.0185881 4.48613645,13.9160428 L6.64817755,10.5010311 C6.81023182,10.6712619 6.98019117,10.8375943 7.15937313,10.9961298 L4.10800983,15.814571 C3.68904026,16.4734032 2.82738585,17.7351903 1.49933136,18.7383824 C3.09352376,18.7383824 4.1514878,18.7760671 5.49930501,16.6722224 L8.47425248,11.9746321 C8.67056212,12.0967824 8.8708243,12.2150343 9.07767406,12.3267889 L5.44660444,18.0574593 C5.02763486,18.7175909 4.16598046,19.976779 2.83924348,20.9812707 C4.43343588,20.9812707 5.49008241,21.0189553 6.83921713,18.9164101 L10.5783229,13.01291 C10.7996654,13.0960762 11.0236428,13.1766434 11.2515728,13.2481144 L7.02630417,19.9183028 C6.61392217,20.5680386 5.73250506,21.8493178 4.42026074,22.8421142 C6.01313562,22.8421142 7.07109966,22.8771999 8.41891687,20.7759541 L12.922181,13.6678437 C12.968294,13.6743411 13.0130895,13.6821379 13.057885,13.6912342 C13.1804138,14.0758778 13.2660523,14.4332326 13.2660523,14.7918868 C13.2660523,17.0256787 11.779896,18.9982768 9.99598158,20.5212577 C10.1106053,20.5706376 10.3082325,20.5875307 10.4926845,20.5875307 C10.860271,20.5875307 11.0987411,20.5680386 11.2660654,20.5394503 C10.8523659,21.4659736 9.96436124,22.6614876 9.51640635,23.2813356 C8.93274748,23.1773779 8.08295071,23.0955112 7.52695964,23.0955112 C6.94461828,23.0955112 6.87874256,23.4320744 6.87874256,23.7322523 C6.87874256,24.2533405 7.12511775,24.667872 7.4136534,24.8991779 C7.52168958,24.6327862 7.73907945,24.276731 8.81417118,24.276731 C8.83525141,24.276731 8.87214182,24.2793299 8.92220736,24.2819289 C8.60732143,24.6275883 7.62313819,25.4124693 7.62313819,26.0440125 C7.62313819,26.4624424 8.08953828,27.0900873 8.70218246,27.0900873 C8.66529206,26.9549422 8.67056212,26.8301929 8.67056212,26.7379305 C8.67056212,26.2259386 9.13037464,25.6268821 9.51904138,25.2084522 C9.50718375,25.3332015 9.51377132,25.3202068 9.51377132,25.4657476 C9.51377132,26.6755558 9.62444253,27.2317297 10.4030935,27.2317297 C10.7851727,27.2317297 11.0486756,27.0251137 11.1395841,26.9627391 C10.6336585,26.5040255 10.6073083,26.1427724 10.6073083,25.4644481 C10.6086258,25.28772 10.6099433,25.1148903 10.6112608,24.8770869 C10.6138958,24.7211503 10.6112608,24.5158338 10.5849105,24.367694 C10.8642236,24.3300093 10.9775298,24.3300093 11.1909671,24.3300093 C11.1909671,24.3300093 12.2976792,24.2429447 12.5638171,24.8108139 C12.8642104,24.5392243 13.3016252,24.1558801 13.3016252,23.7335518 C13.3016252,23.4541654 13.1659212,23.1383937 12.596755,23.1383937 C12.3806826,23.1383937 11.7021627,23.2683409 11.134314,23.2683409 C11.2871457,22.9330772 11.9656656,21.9532755 12.5545945,21.2437639 C12.642868,21.519252 12.7825245,21.816831 13.0908229,22.0611317 C13.1343008,21.6037176 13.4057088,20.1574056 14.1303417,19.3114495 C14.2146626,19.883217 14.3279689,20.4692788 14.3279689,21.7050764 C14.3279689,24.7107545 13.5954309,26.9328512 12.0394464,27.356479 C12.2423436,27.703438 12.6692183,28.0166106 13.1145381,28.0166106 C13.6837043,28.0166106 13.9933202,27.381169 14.3095237,26.7821125 C14.4742129,27.2239329 14.9287554,28.3076923 15.3846154,28.3076923 C15.8404754,28.3076923 16.2950178,27.2239329 16.4597071,26.7821125 C16.7759106,27.381169 17.086844,28.0166106 17.6560102,28.0166106 C18.1000125,28.0166106 18.5282047,27.703438 18.7311019,27.356479 C17.1751174,26.9328512 16.4412619,24.7107545 16.4412619,21.7050764 C16.4412619,20.4692788 16.5545682,19.883217 16.6388891,19.3114495 C17.363522,20.1574056 17.637565,21.6037176 17.6784079,22.0611317 C17.9880238,21.816831 18.1276803,21.519252 18.2159538,21.2437639 C18.8035652,21.9532755 19.4834026,22.9330772 19.6362343,23.2683409 C19.0670681,23.2683409 18.3885482,23.1383937 18.1737933,23.1383937 C17.6046271,23.1383937 17.4702406,23.4541654 17.4702406,23.7335518 C17.4702406,24.1558801 17.9063379,24.5392243 18.2067312,24.8108139 C18.4715516,24.2429447 19.5795812,24.3300093 19.5795812,24.3300093 C19.7930185,24.3300093 19.9063247,24.3300093 20.1856378,24.367694 C20.1592875,24.5158338 20.15797,24.7211503 20.1592875,24.8770869 C20.160605,25.1148903 20.1619225,25.28772 20.16324,25.4644481 C20.16324,26.1427724 20.1368897,26.5040255 19.6309642,26.9627391 C19.7218727,27.0251137 19.9853756,27.2317297 20.3674548,27.2317297 C21.1461058,27.2317297 21.256777,26.6755558 21.256777,25.4657476 C21.256777,25.3202068 21.262047,25.3332015 21.2515069,25.2084522 C21.6401736,25.6268821 22.0999862,26.2259386 22.0999862,26.7379305 C22.0999862,26.8301929 22.1052562,26.9549422 22.0670483,27.0900873 C22.68101,27.0900873 23.1474101,26.4624424 23.1474101,26.0440125 C23.1474101,25.4124693 22.1632269,24.6275883 21.8470234,24.2819289 C21.8984065,24.2793299 21.9352969,24.276731 21.9550596,24.276731 C23.0314688,24.276731 23.2488587,24.6327862 23.3568949,24.8991779 C23.644113,24.667872 23.8904882,24.2533405 23.8904882,23.7322523 C23.8904882,23.4320744 23.82593,23.0955112 23.2435886,23.0955112 C22.6875976,23.0955112 21.8378008,23.1773779 21.2541419,23.2813356 C20.8048695,22.6614876 19.9181824,21.4659736 19.5044828,20.5394503 C19.6704897,20.5680386 19.9102773,20.5875307 20.2765463,20.5875307 C20.4623158,20.5875307 20.659943,20.5706376 20.7745667,20.5212577 C18.9906522,18.9982768 17.5031785,17.0256787 17.5031785,14.7918868 C17.5031785,14.4332326 17.5901345,14.0758778 17.7126633,13.6912342 C17.7561413,13.6821379 17.8022543,13.6743411 17.8483673,13.6678437 L22.3516314,20.7759541 C23.6994486,22.8771999 24.7574127,22.8421142 26.3502875,22.8421142 C25.0380432,21.8493178 24.1566261,20.5680386 23.7442441,19.9183028 L19.517658,13.2481144 C19.7469055,13.1766434 19.9708829,13.0960762 20.1922253,13.01291 L23.9313312,18.9164101 C25.2804659,21.0189553 26.3371124,20.9812707 27.9313048,20.9812707 C26.6045678,19.976779 25.7429134,18.7175909 25.3239438,18.0574593 L21.6928742,12.3267889 C21.8984065,12.2150343 22.0999862,12.0967824 22.2949783,11.9746321 L25.2712433,16.6722224 C26.620378,18.7760671 27.675707,18.7383824 29.2698994,18.7383824 C27.9431624,17.7351903 27.081508,16.4734032 26.6625385,15.814571 L23.6111752,10.9961298 C23.7903571,10.8375943 23.961634,10.6712619 24.1210532,10.5010311 L26.2844118,13.9160428 C27.6335466,16.0185881 28.6901931,15.9822029 30.2843855,15.9822029 C28.958966,14.9790107 28.0946766,13.7133252 27.675707,13.0557925 L25.1632071,9.09110427 C25.2989111,8.84420464 25.4135348,8.59210712 25.5083959,8.33351225 L26.7705746,10.3269019 Z M6.60469957,5.76185768 C6.60469957,4.2804599 7.69691899,3.10963587 8.08031568,2.77957004 C8.1738592,2.80166106 8.2660852,2.82245261 8.35831121,2.84194469 C7.94856424,3.333145 7.22788387,4.15830956 7.22788387,5.24986582 C7.22788387,7.41738467 9.57569449,9.29901975 12.2344385,9.29901975 C12.2173108,9.4848442 12.2080882,9.67976497 12.2080882,9.87988361 C12.2080882,10.2008531 12.2265334,10.4984322 12.2581538,10.7791181 C9.25158596,10.7609254 6.60469957,8.35430379 6.60469957,5.76185768 Z M10.678454,23.5295347 L10.6613263,23.5802141 L10.7140269,23.5802141 C11.5572361,23.5802141 11.9683006,23.5217379 12.2410261,23.4814543 C12.3833176,23.4645611 12.4860838,23.4489675 12.596755,23.4489675 C12.8141448,23.4489675 12.9814692,23.4684596 12.9814692,23.7335518 C12.9814692,23.9115794 12.7706669,24.1935648 12.5651346,24.3572982 C12.2542012,24.067516 11.823374,24.0103393 11.1909671,24.0103393 C10.8958439,24.0103393 10.5084947,24.0636176 10.3016449,24.092206 L10.2687071,24.0961044 L10.2318167,24.1013023 L10.2436743,24.1987627 C10.2687071,24.3715924 10.2990099,24.5860053 10.2990099,24.8757875 L10.2950573,25.1382807 L10.2911048,25.4644481 C10.2911048,26.1713608 10.3899184,26.574197 10.6402461,26.8795729 C10.5756879,26.9029634 10.4716043,26.9224554 10.4030935,26.9224554 C9.95777366,26.9224554 9.82865726,26.7301336 9.82865726,25.4657476 C9.82865726,25.2110512 9.8141646,24.9732478 9.80625951,24.8147123 L9.79308437,24.5795079 L9.73643125,24.6223905 C9.07503903,25.1200881 8.3938841,26.0089268 8.35304115,26.6729569 C8.15409648,26.5469081 7.93802412,26.2623238 7.93802412,26.0440125 C7.93802412,25.6814599 8.49138016,25.1369813 9.13037464,24.505438 L9.49927866,24.1428854 L9.54539166,24.0961044 L9.42549786,24.0662166 C9.28715885,24.0311308 9.03156106,23.9674567 8.81417118,23.9674567 C8.09612585,23.9674567 7.64685345,24.1013023 7.37017543,24.3988813 C7.27004433,24.2572389 7.18704093,23.9258736 7.18704093,23.7322523 C7.18704093,23.6062036 7.2120737,23.5178395 7.26213925,23.4671601 C7.32537994,23.4073844 7.422876,23.4073844 7.50851444,23.4073844 L7.52695964,23.4073844 C8.31746826,23.4073844 9.26344359,23.5477273 9.63234761,23.6062036 L9.65342784,23.6114015 L9.6679205,23.5932088 C9.73247871,23.5087432 11.2397152,21.5270488 11.6310169,20.4770756 C11.7219254,20.4432894 11.7996588,20.4185994 11.956443,20.4185994 C12.2542012,20.4185994 12.3372046,20.6161191 12.4228431,20.918896 C11.4795028,22.048137 10.8918914,22.9265798 10.678454,23.5295347 Z M18.8127878,20.4185994 C18.9708895,20.4185994 19.0473054,20.4432894 19.1395314,20.4770756 C19.5308331,21.5270488 21.0393871,23.5087432 21.1013103,23.5932088 L21.1158029,23.6114015 L21.1382007,23.6062036 C21.5084222,23.5477273 22.45308,23.4073844 23.2435886,23.4073844 L23.2620338,23.4073844 C23.3476723,23.4073844 23.4451683,23.4073844 23.5070915,23.4671601 C23.5584746,23.5178395 23.5835074,23.6062036 23.5835074,23.7322523 C23.5835074,23.9258736 23.5005039,24.2572389 23.4003729,24.3988813 C23.1236948,24.1013023 22.6744224,23.9674567 21.9550596,23.9674567 C21.7389872,23.9674567 21.4833894,24.0311308 21.3450504,24.0662166 L21.2883973,24.0792113 L21.2238391,24.0961044 L21.6388561,24.505438 C22.2791681,25.1369813 22.8325242,25.6814599 22.8325242,26.0440125 C22.8325242,26.2623238 22.6164518,26.5469081 22.4175071,26.6729569 C22.3753467,26.0089268 21.6955093,25.1200881 21.0327995,24.6223905 L20.9761464,24.5808074 L20.9656063,24.8147123 C20.9563837,24.9732478 20.941891,25.2110512 20.941891,25.4657476 C20.941891,26.7301336 20.8114571,26.9224554 20.3674548,26.9224554 C20.298944,26.9224554 20.1948604,26.9029634 20.1303022,26.8795729 C20.3806299,26.574197 20.4794435,26.1713608 20.4794435,25.4644481 L20.4754909,25.1382807 L20.4715384,24.8757875 C20.4715384,24.5860053 20.5018412,24.3715924 20.5255565,24.1987627 L20.5387316,24.1013023 L20.4689034,24.092206 C20.2607361,24.0636176 19.8747044,24.0103393 19.5795812,24.0103393 C18.9458567,24.0103393 18.5163471,24.067516 18.2054137,24.3572982 C17.9998814,24.1935648 17.7890791,23.9115794 17.7890791,23.7335518 C17.7890791,23.4684596 17.9550859,23.4489675 18.1737933,23.4489675 C18.2844645,23.4489675 18.3872307,23.4645611 18.5295222,23.4814543 C18.8022477,23.5217379 19.2119947,23.5802141 20.0565214,23.5802141 L20.1079044,23.5802141 L20.0920943,23.5295347 C19.8786569,22.9265798 19.2910455,22.048137 18.3490227,20.918896 C18.4333437,20.6161191 18.5163471,20.4185994 18.8127878,20.4185994 Z M15.3213747,3.13432583 C15.2265137,2.75098167 15.027569,2.35464279 14.7732887,2.05706376 C14.5414062,1.78807311 14.1580095,1.46710359 13.6415439,1.46710359 C13.4057088,1.46710359 13.0104545,1.57625922 12.7588092,1.68021696 C12.6652657,1.5125851 12.4808137,1.10585045 12.4808137,0.921325461 C12.4808137,0.732902059 12.8049222,0.541879714 13.4228365,0.541879714 C14.7825113,0.541879714 15.5941002,1.14873302 15.5941002,2.16491991 C15.5941002,2.52097517 15.4504911,2.84714257 15.3213747,3.13432583 Z M15.9313839,1.81276307 C15.8826358,1.52687929 15.7719646,1.26698494 15.6033228,1.0434758 C15.6112279,0.780982514 15.7205816,0.530184468 16.1500912,0.736800475 C15.9182087,0.970705387 16.0973907,1.3839374 16.0973907,1.3839374 C16.0973907,1.3839374 16.5703783,1.16692562 16.4728823,0.858950818 C17.1764349,1.0252832 16.6705094,1.95700444 15.9313839,1.81276307 Z M18.5769527,10.7791181 C18.6125256,10.4880364 18.6336058,10.1878584 18.6336058,9.87988361 C18.6336058,9.71355123 18.6349234,9.51863047 18.6138431,9.29772027 C21.2396493,9.26133507 23.5426644,7.39529365 23.5426644,5.24986582 C23.5426644,4.15830956 22.8206665,3.333145 22.4135546,2.84194469 C22.5044631,2.82245261 22.5966891,2.80166106 22.6889151,2.77957004 C23.0736293,3.10963587 24.1658487,4.2804599 24.1658487,5.76185768 C24.1658487,8.33611119 21.5571702,10.7258397 18.5769527,10.7791181 L18.5769527,10.7791181 Z" id="Fill-6" fill="#000000"></path>
        </g>
    </g>
</svg>