<?xml version="1.0" encoding="UTF-8"?>
<svg width="180px" height="100px" viewBox="0 0 264 100" version="1.1" xmlns="http://www.w3.org/2000/svg" xmlns:xlink="http://www.w3.org/1999/xlink">
    <!-- Generator: Sketch 60.1 (88133) - https://sketch.com -->
    <title>logo-theater_oN-inv</title>
    <desc>Created with Sketch.</desc>
    <g id="logo-theater_oN-inv" stroke="none" stroke-width="1" fill="none" fill-rule="evenodd">
        <g id="Group" transform="translate(17.000000, 20.500000)" fill-rule="nonzero">
            <g id="Group-13" transform="translate(1.200000, 0.879492)">
                <rect id="Rectangle" fill="#5C5C5C" x="129.6" y="0.69752639" width="98.4" height="25.6582353"></rect>
                <rect id="Rectangle" fill="#FFFFFF" x="0" y="0.69752639" width="129.6" height="25.6582353"></rect>
                <rect id="Rectangle" fill="#5C5C5C" x="129.6" y="33.6808594" width="2.38125" height="10.7372614"></rect>
                <polygon id="Path" fill="#FFFFFF" points="13.8202817 44.0695735 13.8202817 36.4947712 17.856338 36.4947712 17.856338 34.2138828 6.6 34.2138828 6.6 36.4947712 10.656338 36.4947712 10.656338 44.0695735"></polygon>
                <path d="M22.3790603,44.0695735 L22.3790603,39.3106828 C22.3790603,39.0384781 22.4263843,38.8390176 22.5210321,38.7123016 C22.61568,38.5855856 22.7982152,38.4987617 23.0686378,38.4518298 C23.3390603,38.4048979 23.7649758,38.381432 24.3463843,38.381432 C24.8196237,38.381432 25.1644124,38.4072445 25.3807505,38.4588696 C25.5970885,38.5104946 25.7424406,38.5996652 25.8168068,38.7263812 C25.891173,38.8530972 25.9283561,39.0478644 25.9283561,39.3106828 L25.9283561,39.3106828 L25.9283561,44.0695735 L28.8894829,44.0695735 L28.8894829,39.0713304 C28.8894829,38.3955116 28.6359617,37.9003804 28.1289195,37.585937 C27.6218772,37.2714935 26.7396237,37.1142718 25.4821589,37.1142718 C23.6027223,37.1142718 22.5683561,37.4381016 22.3790603,38.0857613 L22.3790603,38.0857613 L22.3790603,34.2138828 L19.4179336,34.2138828 L19.4179336,44.0695735 L22.3790603,44.0695735 Z" id="Path" fill="#FFFFFF"></path>
                <path d="M35.4473239,37.1142718 C37.0022535,37.1142718 38.1414085,37.2996526 38.8647887,37.6704143 C39.588169,38.041176 39.9498592,38.6677164 39.9498592,39.5500353 L39.9498592,39.5500353 L39.9498592,41.2114232 L33.5814085,41.2114232 L33.5814085,41.8309238 L33.5889202,41.9581612 C33.6289828,42.2863366 33.8292958,42.5255153 34.1898592,42.6756972 C34.595493,42.8446519 35.3256338,42.9291293 36.3802817,42.9291293 C37.3538028,42.9291293 38.4490141,42.8305724 39.6659155,42.6334586 L39.6659155,42.6334586 L39.6659155,43.9428575 L39.1452141,44.0138299 C38.0938776,44.144856 36.9829376,44.2103691 35.8123944,44.2103691 C32.3374648,44.2103691 30.6,43.4735389 30.6,41.9998785 L30.6,41.9998785 L30.6,39.5500353 L30.6060535,39.3705928 C30.6585168,38.6085726 31.051992,38.0488862 31.7864789,37.6915337 C32.5774648,37.3066924 33.7977465,37.1142718 35.4473239,37.1142718 Z M35.4067606,38.381432 C34.6901408,38.381432 34.2101408,38.4377502 33.9667606,38.5503867 C33.7098592,38.6724095 33.5814085,38.8413642 33.5814085,39.0572508 L33.5814085,39.0572508 L33.5814085,40.0428199 L37.1307042,40.0428199 L37.1307042,39.0572508 L37.1226329,38.9641533 C37.0903478,38.7848544 36.9612072,38.6469322 36.7352113,38.5503867 C36.4715493,38.4377502 36.0287324,38.381432 35.4067606,38.381432 Z" id="Combined-Shape" fill="#FFFFFF"></path>
                <path d="M45.8144782,37.1142718 C47.071943,37.1142718 48.0420839,37.1799764 48.7249008,37.3113856 C49.4077177,37.4427948 49.8978585,37.6680677 50.1953233,37.9872044 C50.4927881,38.306341 50.6415205,38.7709664 50.6415205,39.3810806 L50.6415205,39.3810806 L50.6415205,44.0695735 L47.7412388,44.0695735 L47.7412388,43.4500729 L47.6195487,43.5795267 C47.4054642,43.7842017 47.1350416,43.9334711 46.8082811,44.0273348 C46.4161684,44.1493577 45.6725064,44.2103691 44.5772951,44.2103691 C43.6578585,44.2103691 42.9716613,44.1517043 42.5187036,44.0343746 C42.0657458,43.917045 41.7479994,43.7058516 41.5654642,43.4007945 C41.3829289,43.0957374 41.2916613,42.6381518 41.2916613,42.0280376 C41.2916613,41.483628 41.3896895,41.0565481 41.5857458,40.7467978 C41.7818022,40.4370475 42.0995487,40.2141212 42.5389853,40.0780188 C42.9784219,39.9419164 43.5834923,39.8738652 44.3541965,39.8738652 L44.3541965,39.8738652 L47.6803937,39.8738652 L47.6803937,39.4092397 L47.675605,39.2700086 C47.6596426,39.0483859 47.603774,38.8789097 47.5079994,38.7615801 C47.3930698,38.6207845 47.1834923,38.5222276 46.879267,38.4659094 C46.5750416,38.4095911 46.1187036,38.381432 45.5102529,38.381432 C44.671943,38.381432 43.5226473,38.4377502 42.0623656,38.5503867 L42.0623656,38.5503867 L42.0623656,37.2550674 L42.4714853,37.2220684 C43.4460627,37.150204 44.5603937,37.1142718 45.8144782,37.1142718 Z M47.6803937,41.0002298 L45.6522247,41.0002298 L45.4634808,41.0015228 C45.1025495,41.0066949 44.8409571,41.0273833 44.6787036,41.0635878 C44.4894078,41.1058265 44.3609571,41.1903039 44.2933515,41.3170199 C44.2257458,41.4437359 44.191943,41.6666622 44.191943,41.9857989 C44.191943,42.2955492 44.2257458,42.5114357 44.2933515,42.6334586 C44.3609571,42.7554814 44.4927881,42.8352656 44.6888444,42.8728111 C44.8849008,42.9103565 45.2330698,42.9291293 45.7333515,42.9291293 L45.7333515,42.9291293 L45.9485275,42.9284693 C46.4321191,42.9253894 46.7863092,42.9115298 47.011098,42.8868906 C47.2003937,42.8681179 47.3322247,42.8399588 47.4065909,42.8024133 C47.4809571,42.7648678 47.5451825,42.7038564 47.599267,42.619379 C47.6533515,42.5536744 47.6803937,42.4551175 47.6803937,42.3237083 L47.6803937,42.3237083 L47.6803937,41.0002298 Z" id="Combined-Shape" fill="#FFFFFF"></path>
                <path d="M57.3197665,44.2103691 C57.7794848,44.2103691 58.3270904,44.1869032 58.9625834,44.1399713 L58.9625834,44.1399713 L58.9625834,42.8587315 C58.4487806,42.9056634 58.0972313,42.9291293 57.9079355,42.9291293 C57.4346961,42.9291293 57.0831468,42.8939304 56.8532876,42.8235326 C56.6234285,42.7531348 56.4679355,42.6358052 56.3868087,42.4715436 C56.305682,42.3072821 56.2651186,42.0608899 56.2651186,41.7323668 L56.2651186,41.7323668 L56.2651186,38.5222276 L58.9625834,38.5222276 L58.9625834,37.2550674 L56.2651186,37.2550674 L56.2651186,35.2839292 L53.3039918,35.2839292 L53.3039918,37.2550674 L51.3163862,37.2550674 L51.3163862,38.5222276 L53.3039918,38.5222276 L53.3039918,42.0843558 C53.3039918,42.4410379 53.3851186,42.7554814 53.5473721,43.0276862 C53.6961045,43.2905046 53.8887806,43.4970048 54.1254003,43.6471868 C54.36202,43.7973687 54.6696256,43.9146984 55.0482172,43.9991757 C55.3862454,44.0836531 55.7242735,44.1399713 56.0623017,44.1681304 C56.4003299,44.1962895 56.8194848,44.2103691 57.3197665,44.2103691 Z" id="Path" fill="#FFFFFF"></path>
                <path d="M64.898152,37.1142718 C66.4530815,37.1142718 67.5922365,37.2996526 68.3156167,37.6704143 C69.038997,38.041176 69.4006872,38.6677164 69.4006872,39.5500353 L69.4006872,39.5500353 L69.4006872,41.2114232 L63.0322365,41.2114232 L63.0322365,41.8309238 L63.0397482,41.9581612 C63.0798108,42.2863366 63.2801238,42.5255153 63.6406872,42.6756972 C64.046321,42.8446519 64.7764618,42.9291293 65.8311097,42.9291293 C66.8046308,42.9291293 67.8998421,42.8305724 69.1167435,42.6334586 L69.1167435,42.6334586 L69.1167435,43.9428575 L68.5960422,44.0138299 C67.5447056,44.144856 66.4337656,44.2103691 65.2632224,44.2103691 C61.7882928,44.2103691 60.050828,43.4735389 60.050828,41.9998785 L60.050828,41.9998785 L60.050828,39.5500353 L60.0568815,39.3705928 C60.1093448,38.6085726 60.50282,38.0488862 61.2373069,37.6915337 C62.0282928,37.3066924 63.2485745,37.1142718 64.898152,37.1142718 Z M64.8575886,38.381432 C64.1409689,38.381432 63.6609689,38.4377502 63.4175886,38.5503867 C63.1606872,38.6724095 63.0322365,38.8413642 63.0322365,39.0572508 L63.0322365,39.0572508 L63.0322365,40.0428199 L66.5815322,40.0428199 L66.5815322,39.0572508 L66.573461,38.9641533 C66.5411758,38.7848544 66.4120353,38.6469322 66.1860393,38.5503867 C65.9223773,38.4377502 65.4795604,38.381432 64.8575886,38.381432 Z" id="Combined-Shape" fill="#FFFFFF"></path>
                <path d="M74.1030886,44.2103691 L74.1030886,40.1132177 C74.1030886,39.7002173 74.3004594,39.4045466 74.695201,39.2262055 C75.0899425,39.0478644 75.7021265,38.9586939 76.5317529,38.9586939 L76.5317529,38.9586939 L77.5353331,38.9586939 L77.5353331,37.2550674 L76.4916096,37.2550674 C76.1035586,37.2550674 75.7121623,37.320772 75.3174207,37.4521812 C74.9226792,37.5835904 74.5981882,37.7525451 74.3439479,37.9590453 C74.0897076,38.1655454 73.9625874,38.3767388 73.9625874,38.5926254 L73.9625874,38.5926254 L73.9625874,37.3958629 L71.1726343,37.3958629 L71.1726343,44.2103691 L74.1030886,44.2103691 Z" id="Path" fill="#FFFFFF"></path>
                <path d="M89.5070386,37.2550674 C90.1290104,37.2550674 90.6259118,37.266911 90.9977428,37.2905984 C91.3695738,37.3142857 91.7785879,37.3735041 92.2247851,37.4682535 C92.7115456,37.5724778 93.1070386,37.7146019 93.4112639,37.8946257 C93.7154893,38.0746495 93.975771,38.3304729 94.192109,38.6620957 C94.3949259,39.0031935 94.4963344,39.4106158 94.4963344,39.8843628 L94.4963344,39.8843628 L94.4963344,41.916737 L94.4881653,42.1255805 C94.4609353,42.4664151 94.3656301,42.7710606 94.2022498,43.0395172 C94.0061935,43.3616651 93.7526724,43.612751 93.4416865,43.7927748 C93.1712639,43.9538488 92.8028132,44.0841292 92.3363344,44.183616 C91.8698555,44.2831029 91.4135175,44.3470587 90.9673203,44.3754835 C90.5616865,44.4039084 90.0749259,44.4181208 89.5070386,44.4181208 C88.8985879,44.4181208 88.3983062,44.4039084 88.0061935,44.3754835 C87.6140808,44.3470587 87.1949259,44.2902091 86.7487287,44.2049347 C86.2619682,44.1101853 85.8698555,43.9751674 85.5723907,43.799881 C85.2749259,43.6245947 85.0247851,43.3758775 84.8219682,43.0537296 C84.6191513,42.7410567 84.5177428,42.3620591 84.5177428,41.916737 L84.5177428,41.916737 L84.5177428,39.8843628 L84.5239515,39.6929303 C84.5487862,39.3170266 84.6481251,38.98289 84.8219682,38.6905205 C85.0247851,38.3494227 85.288447,38.0841245 85.6129541,37.8946257 C85.8968977,37.7335517 86.272109,37.5985339 86.7385879,37.4895721 C87.2050667,37.3806103 87.6614048,37.311917 88.107602,37.2834922 C88.6214048,37.2645423 89.0878836,37.2550674 89.5070386,37.2550674 Z M89.5070386,38.534184 C88.7228132,38.534184 88.1887287,38.6099835 87.9047851,38.7615826 C87.6208414,38.9131816 87.4788696,39.1784798 87.4788696,39.5574774 L87.4788696,39.5574774 L87.4788696,42.158348 L87.4857653,42.3044515 C87.5041541,42.4894023 87.5593203,42.6349374 87.6512639,42.7410567 C87.7661935,42.8737058 87.9656301,42.9708239 88.2495738,43.032411 C88.5335175,43.0939981 88.9526724,43.1247917 89.5070386,43.1247917 C90.0614048,43.1247917 90.4805597,43.0939981 90.7645034,43.032411 C91.048447,42.9708239 91.2478836,42.8737058 91.3628132,42.7410567 C91.4777428,42.6084075 91.5352076,42.4141713 91.5352076,42.158348 L91.5352076,42.158348 L91.5352076,39.5574774 L91.5285527,39.420683 C91.4974963,39.1139318 91.3577428,38.8942317 91.1092921,38.7615826 C90.8253484,38.6099835 90.2912639,38.534184 89.5070386,38.534184 Z" id="Combined-Shape" fill="#FFFFFF"></path>
                <polygon id="Path" fill="#FFFFFF" points="99.6568324 44.0695735 99.6568324 41.4052638 96.8028346 41.4052638 96.8028346 44.0695735"></polygon>
                <polygon id="Path" fill="#FFFFFF" points="105.66443 44.0695735 105.66443 37.5720056 112.039312 44.0695735 115.247055 44.0695735 115.247055 34.6986367 112.425053 34.6986367 112.425053 41.0951313 106.050171 34.6986367 102.842428 34.6986367 102.842428 44.0695735"></polygon>
                <polygon id="Path" fill="#FFFFFF" points="121.286649 44.0695735 121.286649 41.4052638 118.432651 41.4052638 118.432651 44.0695735"></polygon>
            </g>
            <rect id="Rectangle" stroke="#FFFFFF" stroke-width="1.5" x="0.75" y="0.75" width="228.9" height="52.1794922"></rect>
        </g>
    </g>
</svg>