<?xml version="1.0" encoding="UTF-8"?>
<svg width="180px" height="100px" viewBox="0 0 212 100" version="1.1" xmlns="http://www.w3.org/2000/svg" xmlns:xlink="http://www.w3.org/1999/xlink">
    <!-- Generator: Sketch 60.1 (88133) - https://sketch.com -->
    <title>logo-tanzpakt</title>
    <desc>Created with Sketch.</desc>
    <g id="logo-tanzpakt" stroke="none" stroke-width="1" fill="none" fill-rule="evenodd">
        <g id="Group" transform="translate(9.000000, 9.500000)" fill-rule="nonzero">
            <polygon id="Path" fill="#000000" points="43.2052144 16.7027314 43.2052144 6.57141459 47.406426 6.57141459 47.406426 3.18278302 35.5116376 3.18278302 35.5116376 6.57141459 39.7128492 6.57141459 39.7128492 16.7027314"></polygon>
            <path d="M55.918996,3.18278302 L61.365011,16.7027314 L57.561445,16.7027314 L56.8180207,14.7317927 L51.544895,14.7317927 L50.8014708,16.7027314 L46.9806158,16.7027314 L52.4612087,3.20007196 L52.4612087,3.18278302 L55.918996,3.18278302 Z M54.1901023,7.67790653 L52.7205427,11.5679173 L55.642373,11.5679173 L54.1901023,7.67790653 Z" id="Combined-Shape" fill="#000000"></path>
            <polygon id="Path" fill="#000000" points="67.0433116 16.7027314 67.0433116 9.21662189 73.0252836 16.7027314 75.9816918 16.7027314 75.9816918 3.18278302 72.5066155 3.18278302 72.5066155 10.6861815 66.5073545 3.18278302 63.5509464 3.18278302 63.5509464 16.7027314"></polygon>
            <polygon id="Path" fill="#000000" points="89.9781653 16.7027314 89.9781653 13.3313888 83.6849924 13.3313888 89.9608764 5.7242567 89.9608764 3.18278302 78.7057787 3.18278302 78.7057787 6.57141459 84.7569065 6.57141459 78.4983114 14.1612577 78.4983114 16.7027314"></polygon>
            <path d="M98.4594681,3.18278302 C101.588766,3.18278302 103.767172,5.18829967 103.767172,8.369464 C103.767172,11.6024951 101.67521,13.6425897 98.4594681,13.6425897 L98.4594681,13.6425897 L95.9871502,13.6425897 L95.9871502,16.7027314 L92.494785,16.7027314 L92.494785,3.18278302 Z M98.2692898,6.36394735 L95.9871502,6.36394735 L95.9871502,10.4614253 L98.2692898,10.4614253 C99.6005379,10.4614253 100.240229,9.68342318 100.240229,8.38675293 C100.240229,7.1419495 99.5313822,6.36394735 98.2692898,6.36394735 L98.2692898,6.36394735 Z" id="Combined-Shape" fill="#000000"></path>
            <path d="M113.014534,3.02340239 L118.460549,16.5433508 L114.656983,16.5433508 L113.913559,14.572412 L108.640433,14.572412 L107.897009,16.5433508 L104.076154,16.5433508 L109.556747,3.04069132 L109.556747,3.02340239 L113.014534,3.02340239 Z M111.28564,7.51852589 L109.816081,11.4085366 L112.737911,11.4085366 L111.28564,7.51852589 Z" id="Combined-Shape" fill="#000000"></path>
            <polygon id="Path" fill="#000000" points="124.417067 16.7027314 124.417067 12.6225424 125.316092 11.637073 129.015924 16.7027314 133.355448 16.7027314 127.736543 8.99186571 133.078825 3.18278302 128.583701 3.18278302 124.417067 7.79892909 124.417067 3.18278302 120.924702 3.18278302 120.924702 16.7027314"></polygon>
            <polygon id="Path" fill="#000000" points="142.522581 16.8621121 142.522581 6.73079523 146.723792 6.73079523 146.723792 3.34216366 134.829004 3.34216366 134.829004 6.73079523 139.030216 6.73079523 139.030216 16.8621121"></polygon>
            <g id="Group-10" transform="translate(36.321831, 23.880210)" fill="#020202">
                <polygon id="Path" points="65.2155484 11.9415484 65.2155484 11.0256774 59.5265806 11.0256774 59.5265806 0.193741935 58.5226452 0.193741935 58.5226452 11.9415484"></polygon>
                <path d="M72.5123226,0.193741935 L77.3206452,11.9415484 L76.1934194,11.9415484 L75.0133548,9.05303226 L68.7607742,9.05303226 L67.5807097,11.9415484 L66.4534839,11.9415484 L71.2618065,0.193741935 L72.5123226,0.193741935 Z M71.8782581,1.18006452 L69.0778065,8.13716129 L74.6963226,8.13716129 L71.8782581,1.18006452 Z" id="Combined-Shape"></path>
                <polygon id="Path" points="80.3022581 11.9415484 80.3022581 1.79651613 87.6996774 11.9415484 88.686 11.9415484 88.686 0.193741935 87.6820645 0.193741935 87.6820645 10.197871 80.319871 0.193741935 79.2983226 0.193741935 79.2983226 11.9415484"></polygon>
                <path d="M95.6129032,0.193741935 C99.2587742,0.193741935 101.548452,2.85329032 101.548452,6.07645161 C101.548452,9.33483871 99.2587742,11.9415484 95.6129032,11.9415484 L95.6129032,11.9415484 L91.8613548,11.9415484 L91.8613548,0.193741935 Z M95.6129032,1.1096129 L92.8652903,1.1096129 L92.8652903,11.0256774 L95.6129032,11.0256774 C98.7127742,11.0256774 100.491677,8.82406452 100.491677,6.07645161 C100.491677,3.32883871 98.7303871,1.1096129 95.6129032,1.1096129 L95.6129032,1.1096129 Z" id="Combined-Shape"></path>
                <path d="M114.579516,0.193741935 C116.534549,0.193741935 117.82029,1.33858065 117.82029,3.18793548 C117.82029,4.66741935 116.816355,5.67135484 115.759581,5.88270968 C117.010097,6.07645161 118.049258,7.39741935 118.049258,8.77122581 C118.049258,10.7262581 116.781129,11.9415484 114.667581,11.9415484 L114.667581,11.9415484 L109.753581,11.9415484 L109.753581,0.193741935 Z M114.526678,6.37587097 L110.757516,6.37587097 L110.757516,11.0256774 L114.526678,11.0256774 C116.076613,11.0256774 116.992484,10.1274194 116.992484,8.70077419 C116.992484,7.50309677 116.164678,6.37587097 114.526678,6.37587097 L114.526678,6.37587097 Z M114.456226,1.1096129 L110.757516,1.1096129 L110.757516,5.46 L114.456226,5.46 C115.970936,5.46 116.763516,4.50890323 116.763516,3.2936129 C116.763516,2.09593548 115.970936,1.1096129 114.456226,1.1096129 L114.456226,1.1096129 Z" id="Combined-Shape"></path>
                <path d="M124.659645,12.1529032 C127.689065,12.1529032 129.239,10.3387742 129.239,7.43264516 L129.239,0.193741935 L128.217452,0.193741935 L128.217452,7.41503226 C128.217452,9.79277419 126.966935,11.2370323 124.659645,11.2370323 C122.352355,11.2370323 121.101839,9.79277419 121.101839,7.41503226 L121.101839,0.193741935 L120.08029,0.193741935 L120.08029,7.43264516 C120.08029,10.3211613 121.647839,12.1529032 124.659645,12.1529032 Z" id="Path"></path>
                <polygon id="Path" points="133.767516 11.9415484 133.767516 1.79651613 141.164936 11.9415484 142.151258 11.9415484 142.151258 0.193741935 141.147323 0.193741935 141.147323 10.197871 133.785129 0.193741935 132.763581 0.193741935 132.763581 11.9415484"></polygon>
                <path d="M149.480742,0.193741935 C153.126613,0.193741935 155.41629,2.85329032 155.41629,6.07645161 C155.41629,9.33483871 153.126613,11.9415484 149.480742,11.9415484 L149.480742,11.9415484 L145.729194,11.9415484 L145.729194,0.193741935 Z M149.480742,1.1096129 L146.733129,1.1096129 L146.733129,11.0256774 L149.480742,11.0256774 C152.580613,11.0256774 154.359516,8.82406452 154.359516,6.07645161 C154.359516,3.32883871 152.598226,1.1096129 149.480742,1.1096129 L149.480742,1.1096129 Z" id="Combined-Shape"></path>
                <path d="M4.29754839,12.1529032 C7.46787097,12.1529032 8.47180645,10.3387742 8.47180645,8.84167742 C8.47180645,6.44632258 6.37587097,5.84748387 4.49129032,5.31909677 C2.88851613,4.87877419 1.42664516,4.47367742 1.42664516,3.08225806 C1.42664516,1.81412903 2.60670968,0.915870968 4.17425806,0.915870968 C5.49522581,0.915870968 6.69290323,1.37380645 7.53832258,2.39535484 L8.2076129,1.6556129 C7.29174194,0.616451613 5.97077419,0 4.22709677,0 C2.09593548,0 0.369870968,1.21529032 0.369870968,3.13509677 C0.369870968,5.30148387 2.34251613,5.82987097 4.19187097,6.34064516 C5.82987097,6.78096774 7.41503226,7.23890323 7.41503226,8.89451613 C7.41503226,9.89845161 6.72812903,11.2370323 4.31516129,11.2370323 C2.64193548,11.2370323 1.40903226,10.4092258 0.651677419,9.52858065 L-2.84217094e-14,10.2859355 C0.898258065,11.3779355 2.36012903,12.1529032 4.29754839,12.1529032 Z" id="Path"></path>
                <polygon id="Path" points="14.5709032 11.9415484 14.5709032 1.1096129 18.4105161 1.1096129 18.4105161 0.193741935 9.70974194 0.193741935 9.70974194 1.1096129 13.5493548 1.1096129 13.5493548 11.9415484"></polygon>
                <path d="M24.2605161,0.193741935 L29.0688387,11.9415484 L27.9416129,11.9415484 L26.7615484,9.05303226 L20.5089677,9.05303226 L19.3289032,11.9415484 L18.2016774,11.9415484 L23.01,0.193741935 L24.2605161,0.193741935 Z M23.6264516,1.18006452 L20.826,8.13716129 L26.4445161,8.13716129 L23.6264516,1.18006452 Z" id="Combined-Shape"></path>
                <path d="M34.7980645,0.193741935 C38.4439355,0.193741935 40.7336129,2.85329032 40.7336129,6.07645161 C40.7336129,9.33483871 38.4439355,11.9415484 34.7980645,11.9415484 L34.7980645,11.9415484 L31.0465161,11.9415484 L31.0465161,0.193741935 Z M34.7980645,1.1096129 L32.0504516,1.1096129 L32.0504516,11.0256774 L34.7980645,11.0256774 C37.8979355,11.0256774 39.6768387,8.82406452 39.6768387,6.07645161 C39.6768387,3.32883871 37.9155484,1.1096129 34.7980645,1.1096129 L34.7980645,1.1096129 Z" id="Combined-Shape"></path>
                <polygon id="Path" points="46.4779031 11.9415484 46.4779031 1.1096129 50.317516 1.1096129 50.317516 0.193741935 41.6167418 0.193741935 41.6167418 1.1096129 45.4563547 1.1096129 45.4563547 11.9415484"></polygon>
            </g>
            <g id="Group-8" fill="#000000">
                <path d="M13.9892183,15.6927259 C15.9992039,15.6927259 17.642211,17.2639478 17.7570049,19.2451569 L17.7634119,19.4669195 L17.7634119,34.3579068 C17.7634119,36.4423363 16.0736478,38.1321003 13.9892183,38.1321003 C11.9792327,38.1321003 10.3362256,36.5608784 10.2214317,34.5796693 L10.2150248,34.3579068 L10.2150248,19.4669195 C10.2150248,17.38249 11.9047888,15.6927259 13.9892183,15.6927259 Z" id="Path-2"></path>
                <path d="M1.17460211,12.1665808 L13.9803539,9.09494702e-13 L26.8645154,12.1577297 C28.3805482,13.5882858 28.4498407,15.9769682 27.0192845,17.493001 C25.6437497,18.9507249 23.3823734,19.070856 21.8627086,17.8061812 L21.6840132,17.6477701 L13.9980248,10.3939105 L6.37380047,17.6389189 C4.92077698,19.019418 2.65621468,19.0159826 1.20781807,17.6702743 L1.03803225,17.5023491 C-0.342466775,16.0493256 -0.339031445,13.7847633 1.00667687,12.3363667 L1.17460211,12.1665808 Z" id="Path-3"></path>
            </g>
        </g>
    </g>
</svg>