<?xml version="1.0" encoding="UTF-8"?>
<svg width="280px" height="120px" viewBox="0 0 280 120" version="1.1" xmlns="http://www.w3.org/2000/svg" xmlns:xlink="http://www.w3.org/1999/xlink">
    <!-- Generator: Sketch 60.1 (88133) - https://sketch.com -->
    <title>logo-purple-inv</title>
    <desc>Created with Sketch.</desc>
    <g id="logo-purple-inv" stroke="none" stroke-width="1" fill="none" fill-rule="evenodd">
        <g id="Group" transform="translate(0, 10)">
            <path d="M74.3577973,17.4276087 L74.3577973,63.0054454 L51.1209857,82.4906814 L51.1209857,36.9128447 L74.3577973,17.4276087 Z M64.7980075,34.3927682 L55.6010336,41.8909183 C55.2505562,42.1763808 54.9979359,42.4963047 54.8415772,42.8486323 C54.6846867,43.2019887 54.6065074,43.6304397 54.6065074,44.1344998 L54.6065074,69.9310576 C54.6065074,70.4361463 54.6846867,70.7365249 54.8415772,70.8347652 C54.9979359,70.9324911 55.2505562,70.8393943 55.6010336,70.5539318 L59.8540955,67.0862045 C60.2040411,66.8012563 60.4571932,66.4823612 60.6140837,66.1284904 C60.7699106,65.7761628 60.8486217,65.3471974 60.8486217,64.842623 L60.8486217,57.0399795 L64.7150417,53.887547 C65.1022155,53.5722523 65.3734499,53.4904711 65.5298086,53.6411748 C65.6861672,53.7929071 65.7648784,54.1601509 65.7648784,54.7434203 L65.7648784,60.8343171 C65.7648784,61.3388915 65.8425259,61.6402988 65.9994164,61.7380247 C66.1557751,61.836265 66.4089272,61.7421395 66.7594046,61.4566769 L71.0401218,57.9668328 C71.3895355,57.6818845 71.6426877,57.3629894 71.7995782,57.0096331 C71.955405,56.656791 72.0341162,56.2278257 72.0341162,55.7232513 L72.0341162,47.2833319 C72.0341162,45.6117042 71.7256535,44.5233461 71.10926,44.0172286 C70.4918028,43.5116256 69.6866089,43.5841485 68.6926146,44.2353118 C69.2627387,43.426244 69.6637401,42.535395 69.8940235,41.5637936 C70.123775,40.5947639 70.2391825,39.5511539 70.2391825,38.4370784 L70.2391825,36.6049745 C70.2391825,34.6417121 69.8472222,33.3615025 69.0654289,32.7653744 C68.2825719,32.1697606 66.8599209,32.7118823 64.7980075,34.3927682 Z M63.8864471,42.8388597 C64.0523788,43.0626007 64.1353446,43.439617 64.1353446,43.9699087 L64.1353446,45.3231556 C64.1353446,45.854476 64.0523788,46.3667656 63.8864471,46.85951 C63.7210473,47.3527687 63.3982252,47.7956215 62.9201081,48.1854965 L60.8486217,49.8746119 L60.8486217,44.7784622 L62.9201081,43.0898611 C63.3982252,42.6994717 63.7210473,42.6156332 63.8864471,42.8388597 Z" id="Combined-Shape" fill="#C7C7C7"></path>
            <path d="M23.2368117,34.8552175 L23.2368117,80.4330542 L8.8817842e-15,99.9182901 L8.8817842e-15,54.3404535 L23.2368117,34.8552175 Z M14.2718533,53.4640665 L5.66016236,60.4520347 C5.30329094,60.7413127 5.04575487,61.0640481 4.88597739,61.4181821 C4.72672549,61.7738602 4.64736233,62.2036593 4.64736233,62.7080943 L4.64736233,88.5238394 C4.64736233,89.0287891 4.72672549,89.3293911 4.88597739,89.4256456 C5.04575487,89.5219 5.30329094,89.4256456 5.66016236,89.1358528 L10.0219825,85.5965725 C10.3783283,85.3072945 10.6369156,84.9850739 10.7961675,84.6299105 C10.9554194,84.2752618 11.0353081,83.8454627 11.0353081,83.340513 L11.0353081,76.7272679 L14.2718533,74.1011178 C16.8230372,72.0308756 18.5674499,69.8978364 19.505617,67.702515 C20.4443097,65.5071935 20.9131305,63.2537076 20.9131305,60.9436014 L20.9131305,55.8436612 C20.9131305,53.5330403 20.4443097,52.0413541 19.505617,51.3686026 C18.5674499,50.6958511 16.8230372,51.3938243 14.2718533,53.4640665 Z M14.5808966,61.2601601 C14.7501346,61.5216427 14.834228,61.9051162 14.834228,62.4095511 L14.834228,64.5214864 C14.834228,65.0264361 14.7501346,65.5457982 14.5808966,66.0816316 C14.4121842,66.6169504 14.0553128,67.1054287 13.5118591,67.5465519 L10.9790707,69.6018669 L10.9790707,63.5857081 L13.5118591,61.5303931 C14.0553128,61.0892699 14.4121842,60.9986775 14.5808966,61.2601601 Z" id="Combined-Shape" fill="#C7C7C7"></path>
            <path d="M23.2368117,34.8552175 L51.1209857,36.5312753 L51.1209857,82.4906814 L23.2368117,80.8146236 L23.2368117,34.8552175 Z M27.8726163,44.1522687 C27.4674753,44.1329129 27.1746086,44.2344001 26.9934867,44.4541147 C26.8123648,44.6759218 26.7223334,45.0421128 26.7223334,45.5547802 L26.7223334,45.5547802 L26.7223334,65.5969366 C26.7223334,66.8393703 26.865854,67.9719468 27.1534247,68.9983278 C27.4409954,70.0241857 27.9525854,70.9129836 28.6876649,71.6626289 C29.4222148,72.4133204 30.4295067,73.0211975 31.7079519,73.4867832 C32.9863971,73.952892 34.6159646,74.2327666 36.5982432,74.3274531 C38.5794625,74.4216165 40.20903,74.2965884 41.4874752,73.952892 C42.7659204,73.6086725 43.7732123,73.0970513 44.5082919,72.4159361 C45.2433714,71.7363902 45.7544317,70.8962435 46.0420024,69.8975883 C46.3301028,68.8994563 46.4736233,67.7799581 46.4736233,66.5375243 L46.4736233,66.5375243 L46.4736233,46.495368 C46.4736233,45.9832237 46.3830624,45.6076164 46.2019405,45.3690691 C46.0208186,45.1320912 45.7274223,45.002355 45.3228108,44.9829991 L45.3228108,44.9829991 L40.4653545,44.7517757 C40.0602135,44.7324199 39.7668172,44.8339071 39.5862249,45.0541448 C39.4045734,45.2754288 39.314542,45.6421429 39.314542,46.1542872 L39.314542,46.1542872 L39.314542,64.6176373 C39.314542,65.1585537 39.1551336,65.6021679 38.8352575,65.9516187 C38.515911,66.3000233 37.7908938,66.4480691 36.6617947,66.3947098 C35.5538795,66.3418737 34.8399838,66.1252979 34.5206373,65.7460286 C34.2007612,65.3662363 34.0413528,64.9069281 34.0413528,64.3660117 L34.0413528,64.3660117 L34.0413528,45.9031848 C34.0413528,45.3910405 33.9502622,45.0154332 33.7691403,44.7768859 C33.5880184,44.539908 33.2946221,44.4101718 32.8900106,44.390816 L32.8900106,44.390816 Z" id="Combined-Shape" fill="#E7E7E7"></path>
            <path d="M125.478783,1.95399252e-13 L125.478783,45.6838022 L102.241971,65.0630727 L102.241971,19.3797867 L125.478783,1.95399252e-13 Z M111.844566,18.6265465 C111.685844,18.527863 111.428842,18.6260188 111.07461,18.9215416 L111.07461,18.9215416 L106.73553,22.5422237 C106.380773,22.8382742 106.124296,23.1686265 105.965575,23.5316973 C105.806854,23.8958236 105.727493,24.3364692 105.727493,24.8531064 L105.727493,24.8531064 L105.727493,51.3208673 C105.727493,51.8385599 105.806854,52.1467479 105.965575,52.2454315 C106.124296,52.3446427 106.380773,52.2464869 106.73553,51.9504364 L106.73553,51.9504364 L120.985224,40.0609208 C121.339456,39.7648703 121.595933,39.4355735 121.755179,39.0714472 C121.913375,38.7083763 121.993261,38.267203 121.993261,37.7495104 L121.993261,37.7495104 L121.993261,24.8837141 C121.993261,24.3665492 121.913375,24.0583612 121.755179,23.9586222 C121.595933,23.8604664 121.339456,23.9586222 120.985224,24.254145 L120.985224,24.254145 L116.925746,27.6410474 C116.570988,27.9370979 116.313986,28.2674502 116.156316,28.6305211 C115.997069,28.9946474 115.918234,29.435293 115.918234,29.9519302 L115.918234,29.9519302 L115.918234,36.5684746 L112.082647,39.7690921 L112.082647,19.5511107 C112.082647,19.0339458 112.003287,18.7262855 111.844566,18.6265465 Z" id="Combined-Shape" fill="#C7C7C7"></path>
            <path d="M74.3577973,17.4276087 L102.241971,19.3444353 L102.241971,65.0630727 L74.3577973,63.1462461 L74.3577973,17.4276087 Z M80.4398651,25.8615907 C80.2581328,26.080262 80.1670002,26.4426463 80.1670002,26.9487437 L80.1670002,52.8765411 C80.1670002,53.3836724 80.2581328,53.754328 80.4398651,53.9895418 C80.6221302,54.2247556 80.9168456,54.3519261 81.324544,54.3710534 L86.3096565,54.6041994 C86.716822,54.6233267 87.0120702,54.5235547 87.1943354,54.3054003 C87.3766006,54.087246 87.4672003,53.7253786 87.4672003,53.2182473 L87.4672003,46.5764301 L91.1663307,46.7490926 C94.0820406,46.8855683 96.0757658,46.2585038 97.1485722,44.8684161 C98.2208458,43.4783285 98.7564496,41.6224658 98.7564496,39.301862 L98.7564496,34.1804047 C98.7564496,31.859284 98.2208458,29.9543107 97.1485722,28.4634171 C96.0757658,26.9730405 94.0820406,26.1593559 91.1663307,26.0233971 L81.324544,25.5627916 C80.9168456,25.5436644 80.6221302,25.6439533 80.4398651,25.8615907 Z M87.4032476,33.3289825 L90.2981728,33.4644243 C90.9195799,33.4933737 91.3267453,33.7125619 91.5196693,34.121472 C91.7131262,34.5308991 91.8095882,34.9894368 91.8095882,35.4955342 L91.8095882,37.6165939 C91.8095882,38.1237252 91.7131262,38.5724407 91.5196693,38.9637745 C91.3267453,39.3545912 90.9195799,39.5355249 90.2981728,39.5065755 L87.4032476,39.3711337 L87.4032476,33.3289825 Z" id="Combined-Shape" fill="#E7E7E7"></path>
            <path d="M125.478783,4.01456646e-13 L149.877435,1.06832377 L149.877435,46.4736233 L125.478783,45.4052996 L125.478783,4.01456646e-13 Z M130.0565,8.13523749 C129.671818,8.11565832 129.393741,8.21831665 129.222268,8.44056666 C129.050292,8.66493333 128.964305,9.03587917 128.964305,9.55393334 L128.964305,9.55393334 L128.964305,36.094288 C128.964305,36.6134005 129.050292,36.992813 129.222268,37.2335838 C129.393741,37.4743547 129.671818,37.6045297 130.0565,37.6241088 L130.0565,37.6241088 L144.137877,38.3384838 C144.521554,38.3575338 144.799631,38.2559338 144.97211,38.0326255 C145.143582,37.8093172 145.230073,37.4389005 145.230073,36.9192588 L145.230073,36.9192588 L145.230073,32.1271254 C145.230073,31.6085421 145.143582,31.2291296 144.97211,30.9878295 C144.799631,30.7475879 144.521554,30.6168837 144.137877,30.5973045 L144.137877,30.5973045 L135.761864,30.1723837 L135.761864,26.6502503 L141.679935,26.950817 C142.063611,26.969867 142.341688,26.868267 142.514167,26.6449586 C142.685639,26.4216503 142.77213,26.0507045 142.77213,25.531592 L142.77213,25.531592 L142.77213,21.1490335 C142.77213,20.6304502 142.685639,20.2510377 142.514167,20.0097377 C142.341688,19.769496 142.063611,19.6387919 141.679935,19.6192127 L141.679935,19.6192127 L135.761864,19.3191752 L135.761864,16.1653418 L144.137877,16.5907918 C144.521554,16.6098418 144.799631,16.5082418 144.97211,16.2849335 C145.143582,16.0616251 145.230073,15.6901501 145.230073,15.1715668 L145.230073,15.1715668 L145.230073,10.3794334 C145.230073,9.86085002 145.143582,9.48143751 144.97211,9.2401375 C144.799631,8.99989583 144.521554,8.86919166 144.137877,8.8496125 L144.137877,8.8496125 Z" id="Combined-Shape" fill="#E7E7E7"></path>
            <g id="Group-2" transform="translate(158.412042, 7.600188)" fill="#FFFFFF" fill-rule="nonzero">
                <path d="M3.89110693,8.23429542 L3.89110693,0.545592813 L2.29102557,0.545592813 L2.29102557,8.23429542 L3.89110693,8.23429542 Z M7.55570883,8.23429542 L7.55570883,4.64450251 C7.82238905,4.23582372 8.07002069,3.96135089 8.29860374,3.82108402 C8.52718679,3.68081715 8.74711139,3.61068372 8.95837755,3.61068372 C9.07959583,3.61068372 9.18955813,3.6392566 9.28826445,3.69640236 C9.38697077,3.75354812 9.46489681,3.83753508 9.52204257,3.94836322 C9.57918833,4.05919137 9.60776121,4.27045752 9.60776121,4.58216168 L9.60776121,4.58216168 L9.60776121,8.23429542 L11.1455017,8.23429542 L11.1455017,4.20292162 C11.1455017,3.5795133 10.9835887,3.12321304 10.6597628,2.83402085 C10.3359368,2.54482866 9.9489041,2.40023256 9.49866476,2.40023256 C9.1523268,2.40023256 8.81118392,2.49114628 8.4752361,2.6729737 C8.13928828,2.85480113 7.83277919,3.16563944 7.55570883,3.60548865 L7.55570883,3.60548865 L7.55570883,2.5301093 L6.01796831,2.5301093 L6.01796831,8.23429542 L7.55570883,8.23429542 Z M15.2776599,8.36417215 C15.488926,8.36417215 15.7781182,8.31048977 16.1452365,8.203125 L16.1452365,8.203125 L16.1452365,7.26801252 C15.9616773,7.31649983 15.8040936,7.34074349 15.6724851,7.34074349 C15.3919514,7.34074349 15.1789536,7.26887837 15.0334916,7.12514811 C14.8880297,6.98141786 14.8152987,6.70348165 14.8152987,6.29133949 L14.8152987,6.29133949 L14.8152987,3.49119712 L16.03614,3.49119712 L16.03614,2.5301093 L14.8152987,2.5301093 L14.8152987,1.39238911 L13.2775582,1.56902147 L13.2775582,2.5301093 L12.6385647,2.5301093 L12.6385647,3.49119712 L13.2775582,3.49119712 L13.2775582,6.49394719 C13.2775582,6.96843019 13.3468258,7.32775582 13.485361,7.57192408 C13.6238961,7.81609234 13.8316989,8.00917575 14.1087693,8.15117431 C14.3858396,8.29317287 14.7754698,8.36417215 15.2776599,8.36417215 Z M20.2825897,8.36417215 C20.9371684,8.36417215 21.6298443,8.25680738 22.3606174,8.04207785 L22.3606174,8.04207785 L22.3606174,6.96150343 C21.7129654,7.20047662 21.1311177,7.31996321 20.6150741,7.31996321 C20.2133221,7.31996321 19.8929595,7.25502485 19.6539863,7.12514811 C19.4150131,6.99527138 19.2253931,6.81950487 19.0851262,6.59784858 C18.9448593,6.37619229 18.857409,6.07314658 18.8227752,5.68871145 L18.8227752,5.68871145 L22.3606174,5.68871145 C22.3606174,4.42457791 22.1424245,3.56046471 21.7060387,3.09637185 C21.2696528,2.63227899 20.6860734,2.40023256 19.9553003,2.40023256 C19.359599,2.40023256 18.8582748,2.53097514 18.4513277,2.7924603 C18.0443806,3.05394545 17.7344082,3.41067355 17.5214103,3.86264458 C17.3084125,4.31461561 17.2019136,4.80728135 17.2019136,5.3406418 C17.2019136,5.91556281 17.3274611,6.44805741 17.5785561,6.93812562 C17.8296511,7.42819383 18.1881109,7.7883853 18.6539354,8.01870004 C19.11976,8.24901478 19.6626447,8.36417215 20.2825897,8.36417215 Z M20.8488522,4.82113487 L18.8019949,4.82113487 C18.8504822,4.34318849 18.9717005,3.98039948 19.1656498,3.73276784 C19.359599,3.48513621 19.6072307,3.36132039 19.9085447,3.36132039 C20.185615,3.36132039 20.4116006,3.47388022 20.5865012,3.69899989 C20.7614019,3.92411956 20.8488522,4.29816456 20.8488522,4.82113487 L20.8488522,4.82113487 Z M25.6875398,8.23429542 L25.6875398,4.6133321 C25.881489,4.30162794 26.1031453,4.06871566 26.3525087,3.91459527 C26.601872,3.76047488 26.8789424,3.68341469 27.1837198,3.68341469 C27.3742056,3.68341469 27.5768133,3.72324355 27.7915429,3.80290128 L27.7915429,3.80290128 L27.7915429,2.43140298 C27.6945682,2.4106227 27.5993253,2.40023256 27.5058141,2.40023256 C27.1144522,2.40023256 26.7594558,2.50932902 26.4408248,2.72752193 C26.1221939,2.94571484 25.8710989,3.23837041 25.6875398,3.60548865 L25.6875398,3.60548865 L25.6875398,2.5301093 L24.1497993,2.5301093 L24.1497993,8.23429542 L25.6875398,8.23429542 Z M30.72364,8.23429542 L30.72364,4.64450251 C30.9903202,4.23582372 31.2379519,3.96135089 31.4665349,3.82108402 C31.695118,3.68081715 31.9150426,3.61068372 32.1263087,3.61068372 C32.247527,3.61068372 32.3574893,3.6392566 32.4561956,3.69640236 C32.5549019,3.75354812 32.632828,3.83753508 32.6899737,3.94836322 C32.7471195,4.05919137 32.7756924,4.27045752 32.7756924,4.58216168 L32.7756924,4.58216168 L32.7756924,8.23429542 L34.3134329,8.23429542 L34.3134329,4.20292162 C34.3134329,3.5795133 34.1515199,3.12321304 33.8276939,2.83402085 C33.5038679,2.54482866 33.1168353,2.40023256 32.6665959,2.40023256 C32.320258,2.40023256 31.9791151,2.49114628 31.6431673,2.6729737 C31.3072195,2.85480113 31.0007104,3.16563944 30.72364,3.60548865 L30.72364,3.60548865 L30.72364,2.5301093 L29.1858995,2.5301093 L29.1858995,8.23429542 L30.72364,8.23429542 Z M40.4456927,8.36417215 C40.6985194,8.36417215 40.9877116,8.31568484 41.3132693,8.21871021 L41.3132693,8.21871021 L41.2769038,7.3563287 C41.1937827,7.37018222 41.1245151,7.37710898 41.0691011,7.37710898 C40.9755898,7.37710898 40.8812127,7.34247518 40.7859698,7.27320759 C40.6907268,7.20394 40.6431054,7.01518581 40.6431054,6.70694503 L40.6431054,6.70694503 L40.6431054,4.18214134 C40.6431054,3.70419496 40.5435332,3.34486933 40.3443889,3.10416446 C40.1452446,2.86345958 39.8794302,2.68596138 39.5469457,2.57166985 C39.2144613,2.45737832 38.8369529,2.40023256 38.4144206,2.40023256 C37.7252081,2.40023256 37.0325322,2.53184099 36.3363929,2.79505783 L36.3363929,2.79505783 L36.3363929,3.85485197 C36.9494111,3.51544078 37.5503074,3.34573518 38.139082,3.34573518 C38.4369326,3.34573518 38.6828325,3.40634432 38.8767818,3.52756261 C39.0707311,3.64878089 39.1677057,3.8842907 39.1677057,4.23409203 L39.1677057,4.23409203 L39.1677057,4.75359897 L38.7572952,4.75359897 C37.7286715,4.75359897 36.9849107,4.94148731 36.5260129,5.31726399 C36.0671151,5.69304067 35.8376662,6.16146275 35.8376662,6.72253024 C35.8376662,7.18315972 35.9909208,7.57192408 36.2974299,7.88882331 C36.603939,8.20572253 37.0117519,8.36417215 37.5208687,8.36417215 C37.7182813,8.36417215 37.9053038,8.34079434 38.0819362,8.29403871 C38.2585685,8.24728309 38.4282741,8.17714965 38.591053,8.08363841 C38.7538318,7.99012716 38.9460494,7.83600677 39.1677057,7.62127724 L39.1677057,7.62127724 L39.2352416,7.62127724 C39.3460697,7.92605464 39.5045193,8.1260648 39.7105904,8.22130774 C39.9166615,8.31655068 40.1616956,8.36417215 40.4456927,8.36417215 Z M38.0611559,7.31996321 C37.8602799,7.31996321 37.6853792,7.24982978 37.5364539,7.10956291 C37.3875286,6.96929603 37.3130659,6.79006614 37.3130659,6.57187323 C37.3130659,6.30519301 37.4360159,6.08267087 37.6819159,5.90430682 C37.9278158,5.72594278 38.3018608,5.63676075 38.8040508,5.63676075 L38.8040508,5.63676075 L39.1677057,5.63676075 L39.1677057,6.79526121 C38.9806832,6.96843019 38.7945265,7.09917277 38.6092357,7.18748895 C38.4239449,7.27580513 38.2412517,7.31996321 38.0611559,7.31996321 Z M44.8999452,8.36417215 C45.1112113,8.36417215 45.4004035,8.31048977 45.7675218,8.203125 L45.7675218,8.203125 L45.7675218,7.26801252 C45.5839626,7.31649983 45.4263789,7.34074349 45.2947704,7.34074349 C45.0142367,7.34074349 44.8012389,7.26887837 44.6557769,7.12514811 C44.510315,6.98141786 44.437584,6.70348165 44.437584,6.29133949 L44.437584,6.29133949 L44.437584,3.49119712 L45.6584253,3.49119712 L45.6584253,2.5301093 L44.437584,2.5301093 L44.437584,1.39238911 L42.8998435,1.56902147 L42.8998435,2.5301093 L42.26085,2.5301093 L42.26085,3.49119712 L42.8998435,3.49119712 L42.8998435,6.49394719 C42.8998435,6.96843019 42.9691111,7.32775582 43.1076463,7.57192408 C43.2461814,7.81609234 43.4539842,8.00917575 43.7310546,8.15117431 C44.0081249,8.29317287 44.3977551,8.36417215 44.8999452,8.36417215 Z M48.8762512,1.56902147 L48.8762512,0.285839346 L47.3385107,0.285839346 L47.3385107,1.56902147 L48.8762512,1.56902147 Z M48.8762512,8.23429542 L48.8762512,2.5301093 L47.3385107,2.5301093 L47.3385107,8.23429542 L48.8762512,8.23429542 Z M53.42921,8.36417215 C54.0491549,8.36417215 54.5799179,8.24381971 55.0214987,8.00311483 C55.4630796,7.76240995 55.7998933,7.40827939 56.0319397,6.94072315 C56.2639862,6.47316691 56.3800094,5.95365998 56.3800094,5.38220236 C56.3800094,4.81420811 56.264852,4.29729871 56.0345373,3.83147416 C55.8042225,3.36564961 55.4682747,3.01065321 55.0266938,2.76648495 C54.5851129,2.52231669 54.0526183,2.40023256 53.42921,2.40023256 C52.8092651,2.40023256 52.2776363,2.52231669 51.8343237,2.76648495 C51.3910111,3.01065321 51.0550633,3.36564961 50.8264803,3.83147416 C50.5978972,4.29729871 50.4836057,4.81420811 50.4836057,5.38220236 C50.4836057,5.95365998 50.5996289,6.47316691 50.8316753,6.94072315 C51.0637218,7.40827939 51.4005354,7.76240995 51.8421163,8.00311483 C52.2836972,8.24381971 52.8127284,8.36417215 53.42921,8.36417215 Z M53.42921,7.40308432 C52.9962876,7.40308432 52.669864,7.2117326 52.4499394,6.82902916 C52.2300148,6.44632572 52.1200525,5.96405012 52.1200525,5.38220236 C52.1200525,4.80381797 52.2300148,4.32240821 52.4499394,3.93797308 C52.669864,3.55353795 52.9962876,3.36132039 53.42921,3.36132039 C53.8655958,3.36132039 54.193751,3.55353795 54.4136756,3.93797308 C54.6336002,4.32240821 54.7435625,4.80381797 54.7435625,5.38220236 C54.7435625,5.96405012 54.6336002,6.44632572 54.4136756,6.82902916 C54.193751,7.2117326 53.8655958,7.40308432 53.42921,7.40308432 Z M59.5302994,8.23429542 L59.5302994,4.64450251 C59.7969796,4.23582372 60.0446113,3.96135089 60.2731943,3.82108402 C60.5017774,3.68081715 60.721702,3.61068372 60.9329681,3.61068372 C61.0541864,3.61068372 61.1641487,3.6392566 61.262855,3.69640236 C61.3615614,3.75354812 61.4394874,3.83753508 61.4966332,3.94836322 C61.5537789,4.05919137 61.5823518,4.27045752 61.5823518,4.58216168 L61.5823518,4.58216168 L61.5823518,8.23429542 L63.1200923,8.23429542 L63.1200923,4.20292162 C63.1200923,3.5795133 62.9581793,3.12321304 62.6343533,2.83402085 C62.3105273,2.54482866 61.9234947,2.40023256 61.4732553,2.40023256 C61.1269174,2.40023256 60.7857745,2.49114628 60.4498267,2.6729737 C60.1138789,2.85480113 59.8073698,3.16563944 59.5302994,3.60548865 L59.5302994,3.60548865 L59.5302994,2.5301093 L57.9925589,2.5301093 L57.9925589,8.23429542 L59.5302994,8.23429542 Z M69.2523522,8.36417215 C69.5051789,8.36417215 69.7943711,8.31568484 70.1199287,8.21871021 L70.1199287,8.21871021 L70.0835632,7.3563287 C70.0004421,7.37018222 69.9311745,7.37710898 69.8757605,7.37710898 C69.7822492,7.37710898 69.6878721,7.34247518 69.5926292,7.27320759 C69.4973863,7.20394 69.4497648,7.01518581 69.4497648,6.70694503 L69.4497648,6.70694503 L69.4497648,4.18214134 C69.4497648,3.70419496 69.3501926,3.34486933 69.1510483,3.10416446 C68.951904,2.86345958 68.6860896,2.68596138 68.3536052,2.57166985 C68.0211207,2.45737832 67.6436123,2.40023256 67.22108,2.40023256 C66.5318675,2.40023256 65.8391916,2.53184099 65.1430523,2.79505783 L65.1430523,2.79505783 L65.1430523,3.85485197 C65.7560705,3.51544078 66.3569668,3.34573518 66.9457414,3.34573518 C67.243592,3.34573518 67.489492,3.40634432 67.6834412,3.52756261 C67.8773905,3.64878089 67.9743651,3.8842907 67.9743651,4.23409203 L67.9743651,4.23409203 L67.9743651,4.75359897 L67.5639546,4.75359897 C66.5353309,4.75359897 65.7915701,4.94148731 65.3326723,5.31726399 C64.8737746,5.69304067 64.6443257,6.16146275 64.6443257,6.72253024 C64.6443257,7.18315972 64.7975802,7.57192408 65.1040893,7.88882331 C65.4105984,8.20572253 65.8184113,8.36417215 66.3275281,8.36417215 C66.5249408,8.36417215 66.7119632,8.34079434 66.8885956,8.29403871 C67.065228,8.24728309 67.2349336,8.17714965 67.3977124,8.08363841 C67.5604912,7.99012716 67.7527088,7.83600677 67.9743651,7.62127724 L67.9743651,7.62127724 L68.041901,7.62127724 C68.1527291,7.92605464 68.3111788,8.1260648 68.5172498,8.22130774 C68.7233209,8.31655068 68.968355,8.36417215 69.2523522,8.36417215 Z M66.8678153,7.31996321 C66.6669393,7.31996321 66.4920386,7.24982978 66.3431133,7.10956291 C66.194188,6.96929603 66.1197253,6.79006614 66.1197253,6.57187323 C66.1197253,6.30519301 66.2426753,6.08267087 66.4885753,5.90430682 C66.7344752,5.72594278 67.1085202,5.63676075 67.6107102,5.63676075 L67.6107102,5.63676075 L67.9743651,5.63676075 L67.9743651,6.79526121 C67.7873426,6.96843019 67.6011859,7.09917277 67.4158951,7.18748895 C67.2306043,7.27580513 67.0479111,7.31996321 66.8678153,7.31996321 Z M73.1715125,8.23429542 L73.1715125,0.0312809493 L71.6337719,0.0312809493 L71.6337719,8.23429542 L73.1715125,8.23429542 Z M77.859543,8.36417215 C78.5141217,8.36417215 79.2067977,8.25680738 79.9375707,8.04207785 L79.9375707,8.04207785 L79.9375707,6.96150343 C79.2899188,7.20047662 78.708071,7.31996321 78.1920274,7.31996321 C77.7902754,7.31996321 77.4699128,7.25502485 77.2309396,7.12514811 C76.9919664,6.99527138 76.8023464,6.81950487 76.6620795,6.59784858 C76.5218127,6.37619229 76.4343623,6.07314658 76.3997285,5.68871145 L76.3997285,5.68871145 L79.9375707,5.68871145 C79.9375707,4.42457791 79.7193778,3.56046471 79.282992,3.09637185 C78.8466062,2.63227899 78.2630267,2.40023256 77.5322536,2.40023256 C76.9365524,2.40023256 76.4352282,2.53097514 76.0282811,2.7924603 C75.621334,3.05394545 75.3113615,3.41067355 75.0983637,3.86264458 C74.8853658,4.31461561 74.7788669,4.80728135 74.7788669,5.3406418 C74.7788669,5.91556281 74.9044144,6.44805741 75.1555094,6.93812562 C75.4066044,7.42819383 75.7650642,7.7883853 76.2308888,8.01870004 C76.6967133,8.24901478 77.2395981,8.36417215 77.859543,8.36417215 Z M78.4258056,4.82113487 L76.3789483,4.82113487 C76.4274356,4.34318849 76.5486539,3.98039948 76.7426031,3.73276784 C76.9365524,3.48513621 77.184184,3.36132039 77.485498,3.36132039 C77.7625684,3.36132039 77.9885539,3.47388022 78.1634546,3.69899989 C78.3383552,3.92411956 78.4258056,4.29816456 78.4258056,4.82113487 L78.4258056,4.82113487 Z M83.6333431,8.36417215 C84.4229936,8.36417215 85.0247558,8.18321057 85.4386297,7.8212874 C85.8525035,7.45936424 86.0594404,7.03769778 86.0594404,6.55628802 C86.0594404,6.18570641 85.9468806,5.86707549 85.7217609,5.60039527 C85.4931779,5.33717842 85.0100364,5.06530313 84.2723366,4.78476938 L84.2723366,4.78476938 L83.8255606,4.6133321 C83.5588804,4.51289409 83.3753213,4.41072439 83.2748833,4.30682301 C83.1709819,4.20292162 83.1190312,4.08343502 83.1190312,3.94836322 C83.1190312,3.77519424 83.1986889,3.63406153 83.3580044,3.52496507 C83.5173198,3.41586862 83.756293,3.36132039 84.074924,3.36132039 C84.4801394,3.36132039 84.9909878,3.46868515 85.6074694,3.68341469 L85.6074694,3.68341469 L85.6074694,2.60284027 C84.9667442,2.46776846 84.4143351,2.40023256 83.9502423,2.40023256 C83.1571284,2.40023256 82.567488,2.56127971 82.1813212,2.88337401 C81.7951544,3.20546831 81.602071,3.61414709 81.602071,4.10941037 C81.602071,4.52155254 81.730216,4.85576866 81.9865061,5.11205875 C82.2427962,5.37181222 82.6393531,5.60905372 83.176177,5.82378325 L83.176177,5.82378325 L83.6956839,6.03158602 C83.9589007,6.13548741 84.1545817,6.24112048 84.2827267,6.34848525 C84.4108718,6.4593134 84.4749443,6.59611689 84.4749443,6.75889573 C84.4749443,6.94591822 84.3892256,7.10003861 84.2177884,7.2212569 C84.0463511,7.34247518 83.8169022,7.40308432 83.5294417,7.40308432 C82.9891545,7.40308432 82.3380391,7.24376886 81.5760956,6.92513795 L81.5760956,6.92513795 L81.5760956,8.05246799 C82.2756983,8.26027076 82.9614474,8.36417215 83.6333431,8.36417215 Z M5.80289244,21.5336729 L5.80289244,14.8995694 L8.55627918,14.8995694 L8.55627918,13.8449703 L1.44422927,13.8449703 L1.44422927,14.8995694 L4.19761602,14.8995694 L4.19761602,21.5336729 L5.80289244,21.5336729 Z M13.9040835,21.6635496 C14.1569103,21.6635496 14.4461024,21.6150623 14.7716601,21.5180877 L14.7716601,21.5180877 L14.7352946,20.6557062 C14.6521735,20.6695597 14.5829059,20.6764865 14.5274919,20.6764865 C14.4339806,20.6764865 14.3396035,20.6418527 14.2443606,20.5725851 C14.1491176,20.5033175 14.1014962,20.3145633 14.1014962,20.0063225 L14.1014962,20.0063225 L14.1014962,17.4815188 C14.1014962,17.0035724 14.001924,16.6442468 13.8027797,16.4035419 C13.6036354,16.1628371 13.337821,15.9853389 13.0053366,15.8710473 C12.6728521,15.7567558 12.2953437,15.69961 11.8728114,15.69961 C11.1835989,15.69961 10.490923,15.8312185 9.79478371,16.0944353 L9.79478371,16.0944353 L9.79478371,17.1542294 C10.4078019,16.8148183 11.0086982,16.6451127 11.5974728,16.6451127 C11.8953234,16.6451127 12.1412234,16.7057218 12.3351726,16.8269401 C12.5291219,16.9481584 12.6260965,17.1836682 12.6260965,17.5334695 L12.6260965,17.5334695 L12.6260965,18.0529764 L12.215686,18.0529764 C11.1870623,18.0529764 10.4433015,18.2408648 9.98440374,18.6166415 C9.52550595,18.9924181 9.29605705,19.4608402 9.29605705,20.0219077 C9.29605705,20.4825372 9.4493116,20.8713016 9.75582069,21.1882008 C10.0623298,21.5051 10.4701427,21.6635496 10.9792595,21.6635496 C11.1766721,21.6635496 11.3636946,21.6401718 11.540327,21.5934162 C11.7169594,21.5466606 11.886665,21.4765271 12.0494438,21.3830159 C12.2122226,21.2895046 12.4044402,21.1353842 12.6260965,20.9206547 L12.6260965,20.9206547 L12.6936324,20.9206547 C12.8044605,21.2254321 12.9629102,21.4254423 13.1689812,21.5206852 C13.3750523,21.6159282 13.6200864,21.6635496 13.9040835,21.6635496 Z M11.5195467,20.6193407 C11.3186707,20.6193407 11.14377,20.5492073 10.9948447,20.4089404 C10.8459194,20.2686735 10.7714567,20.0894436 10.7714567,19.8712507 C10.7714567,19.6045705 10.8944067,19.3820483 11.1403067,19.2036843 C11.3862066,19.0253203 11.7602516,18.9361382 12.2624416,18.9361382 L12.2624416,18.9361382 L12.6260965,18.9361382 L12.6260965,20.0946387 C12.439074,20.2678077 12.2529173,20.3985502 12.0676265,20.4868664 C11.8823357,20.5751826 11.6996425,20.6193407 11.5195467,20.6193407 Z M17.8232438,21.5336729 L17.8232438,17.94388 C18.0899241,17.5352012 18.3375557,17.2607284 18.5661388,17.1204615 C18.7947218,16.9801946 19.0146464,16.9100612 19.2259126,16.9100612 C19.3471308,16.9100612 19.4570931,16.9386341 19.5557995,16.9957798 C19.6545058,17.0529256 19.7324318,17.1369126 19.7895776,17.2477407 C19.8467233,17.3585688 19.8752962,17.569835 19.8752962,17.8815392 L19.8752962,17.8815392 L19.8752962,21.5336729 L21.4130368,21.5336729 L21.4130368,17.5022991 C21.4130368,16.8788908 21.2511238,16.4225905 20.9272978,16.1333983 C20.6034718,15.8442061 20.2164391,15.69961 19.7661998,15.69961 C19.4198618,15.69961 19.0787189,15.7905238 18.7427711,15.9723512 C18.4068233,16.1541786 18.1003142,16.4650169 17.8232438,16.9048661 L17.8232438,16.9048661 L17.8232438,15.8294868 L16.2855033,15.8294868 L16.2855033,21.5336729 L17.8232438,21.5336729 Z M28.2206556,21.5336729 L28.2206556,20.5102442 L24.9685422,20.5102442 L28.1583148,16.7905746 L28.1583148,15.8294868 L23.2957299,15.8294868 L23.2957299,16.7905746 L26.3400405,16.7905746 L23.1502679,20.5102442 L23.1502679,21.5336729 L28.2206556,21.5336729 Z M31.6566744,21.5336729 L31.6566744,16.7905746 L33.1009037,16.7905746 L33.1009037,15.8294868 L31.6566744,15.8294868 L31.6566744,15.3619305 C31.6566744,14.9913489 31.6904424,14.7307296 31.7579783,14.5800726 C31.8255142,14.4294156 31.9172938,14.3220508 32.033317,14.2579783 C32.1493402,14.1939058 32.2887412,14.1618695 32.4515201,14.1618695 C32.797858,14.1618695 33.1892199,14.2536491 33.6256057,14.4372082 L33.6256057,14.4372082 L33.6256057,13.3981943 C33.144196,13.2665859 32.6766397,13.2007817 32.222937,13.2007817 C31.5510414,13.2007817 31.0324003,13.3713531 30.6670137,13.712496 C30.3016272,14.0536389 30.1189339,14.622499 30.1189339,15.4190763 L30.1189339,15.4190763 L30.1189339,15.8294868 L29.3344785,15.8294868 L29.3344785,16.7905746 L30.1189339,16.7905746 L30.1189339,21.5336729 L31.6566744,21.5336729 Z M37.1343555,21.6635496 C37.7889343,21.6635496 38.4816102,21.5561849 39.2123833,21.3414553 L39.2123833,21.3414553 L39.2123833,20.2608809 C38.5647313,20.4998541 37.9828835,20.6193407 37.46684,20.6193407 C37.065088,20.6193407 36.7447253,20.5544023 36.5057522,20.4245256 C36.266779,20.2946489 36.0771589,20.1188823 35.9368921,19.8972261 C35.7966252,19.6755698 35.7091749,19.3725241 35.6745411,18.9880889 L35.6745411,18.9880889 L39.2123833,18.9880889 C39.2123833,17.7239554 38.9941904,16.8598422 38.5578045,16.3957493 C38.1214187,15.9316565 37.5378393,15.69961 36.8070662,15.69961 C36.2113649,15.69961 35.7100407,15.8303526 35.3030936,16.0918378 C34.8961465,16.3533229 34.586174,16.710051 34.3731762,17.1620221 C34.1601784,17.6139931 34.0536794,18.1066588 34.0536794,18.6400193 C34.0536794,19.2149403 34.1792269,19.7474349 34.430322,20.2375031 C34.681417,20.7275713 35.0398768,21.0877628 35.5057013,21.3180775 C35.9715259,21.5483923 36.5144106,21.6635496 37.1343555,21.6635496 Z M37.7006181,18.1205123 L35.6537608,18.1205123 C35.7022481,17.642566 35.8234664,17.279777 36.0174156,17.0321453 C36.2113649,16.7845137 36.4589965,16.6606979 36.7603106,16.6606979 C37.0373809,16.6606979 37.2633664,16.7732577 37.4382671,16.9983774 C37.6131678,17.223497 37.7006181,17.597542 37.7006181,18.1205123 L37.7006181,18.1205123 Z M42.9081556,21.6635496 C43.6978061,21.6635496 44.2995683,21.482588 44.7134422,21.1206649 C45.127316,20.7587417 45.334253,20.3370753 45.334253,19.8556655 C45.334253,19.4850839 45.2216931,19.166453 44.9965735,18.8997727 C44.7679904,18.6365559 44.284849,18.3646806 43.5471491,18.0841469 L43.5471491,18.0841469 L43.1003732,17.9127096 C42.8336929,17.8122716 42.6501338,17.7101019 42.5496958,17.6062005 C42.4457944,17.5022991 42.3938437,17.3828125 42.3938437,17.2477407 C42.3938437,17.0745717 42.4735015,16.933439 42.6328169,16.8243425 C42.7921324,16.7152461 43.0311056,16.6606979 43.3497365,16.6606979 C43.7549519,16.6606979 44.2658004,16.7680626 44.8822819,16.9827922 L44.8822819,16.9827922 L44.8822819,15.9022177 C44.2415567,15.7671459 43.6891477,15.69961 43.2250548,15.69961 C42.4319409,15.69961 41.8423005,15.8606572 41.4561337,16.1827515 C41.0699669,16.5048458 40.8768835,16.9135246 40.8768835,17.4087878 C40.8768835,17.82093 41.0050285,18.1551461 41.2613186,18.4114362 C41.5176087,18.6711897 41.9141657,18.9084312 42.4509895,19.1231607 L42.4509895,19.1231607 L42.9704964,19.3309635 C43.2337133,19.4348649 43.4293942,19.540498 43.5575393,19.6478627 C43.6856843,19.7586909 43.7497568,19.8954944 43.7497568,20.0582732 C43.7497568,20.2452957 43.6640382,20.3994161 43.4926009,20.5206344 C43.3211636,20.6418527 43.0917147,20.7024618 42.8042542,20.7024618 C42.263967,20.7024618 41.6128516,20.5431463 40.8509081,20.2245154 L40.8509081,20.2245154 L40.8509081,21.3518455 C41.5505108,21.5596482 42.23626,21.6635496 42.9081556,21.6635496 Z M49.2897788,21.6635496 C49.5010449,21.6635496 49.7902371,21.6098672 50.1573553,21.5025025 L50.1573553,21.5025025 L50.1573553,20.56739 C49.9737962,20.6158773 49.8162124,20.640121 49.684604,20.640121 C49.4040703,20.640121 49.1910724,20.5682558 49.0456105,20.4245256 C48.9001486,20.2807953 48.8274176,20.0028591 48.8274176,19.590717 L48.8274176,19.590717 L48.8274176,16.7905746 L50.0482589,16.7905746 L50.0482589,15.8294868 L48.8274176,15.8294868 L48.8274176,14.6917666 L47.2896771,14.8683989 L47.2896771,15.8294868 L46.6506835,15.8294868 L46.6506835,16.7905746 L47.2896771,16.7905746 L47.2896771,19.7933247 C47.2896771,20.2678077 47.3589447,20.6271333 47.4974798,20.8713016 C47.636015,21.1154698 47.8438178,21.3085532 48.1208882,21.4505518 C48.3979585,21.5925503 48.7875887,21.6635496 49.2897788,21.6635496 Z M53.2660848,14.8683989 L53.2660848,13.5852168 L51.7283443,13.5852168 L51.7283443,14.8683989 L53.2660848,14.8683989 Z M53.2660848,21.5336729 L53.2660848,15.8294868 L51.7283443,15.8294868 L51.7283443,21.5336729 L53.2660848,21.5336729 Z M58.3333554,21.5336729 L60.5308698,15.8294868 L59.4191249,15.8294868 L57.8346288,19.9439817 L56.2397425,15.8294868 L54.6188809,15.8294868 L56.7956149,21.5336729 L58.3333554,21.5336729 Z M65.9721854,21.6635496 C66.2250121,21.6635496 66.5142043,21.6150623 66.839762,21.5180877 L66.839762,21.5180877 L66.8033965,20.6557062 C66.7202754,20.6695597 66.6510078,20.6764865 66.5955937,20.6764865 C66.5020824,20.6764865 66.4077054,20.6418527 66.3124624,20.5725851 C66.2172195,20.5033175 66.169598,20.3145633 66.169598,20.0063225 L66.169598,20.0063225 L66.169598,17.4815188 C66.169598,17.0035724 66.0700259,16.6442468 65.8708815,16.4035419 C65.6717372,16.1628371 65.4059228,15.9853389 65.0734384,15.8710473 C64.7409539,15.7567558 64.3634456,15.69961 63.9409133,15.69961 C63.2517007,15.69961 62.5590248,15.8312185 61.8628855,16.0944353 L61.8628855,16.0944353 L61.8628855,17.1542294 C62.4759037,16.8148183 63.0768001,16.6451127 63.6655746,16.6451127 C63.9634252,16.6451127 64.2093252,16.7057218 64.4032744,16.8269401 C64.5972237,16.9481584 64.6941983,17.1836682 64.6941983,17.5334695 L64.6941983,17.5334695 L64.6941983,18.0529764 L64.2837878,18.0529764 C63.2551641,18.0529764 62.5114034,18.2408648 62.0525056,18.6166415 C61.5936078,18.9924181 61.3641589,19.4608402 61.3641589,20.0219077 C61.3641589,20.4825372 61.5174134,20.8713016 61.8239225,21.1882008 C62.1304316,21.5051 62.5382446,21.6635496 63.0473613,21.6635496 C63.244774,21.6635496 63.4317965,21.6401718 63.6084288,21.5934162 C63.7850612,21.5466606 63.9547668,21.4765271 64.1175456,21.3830159 C64.2803245,21.2895046 64.472542,21.1353842 64.6941983,20.9206547 L64.6941983,20.9206547 L64.7617342,20.9206547 C64.8725624,21.2254321 65.031012,21.4254423 65.2370831,21.5206852 C65.4431542,21.6159282 65.6881883,21.6635496 65.9721854,21.6635496 Z M63.5876486,20.6193407 C63.3867725,20.6193407 63.2118719,20.5492073 63.0629466,20.4089404 C62.9140212,20.2686735 62.8395586,20.0894436 62.8395586,19.8712507 C62.8395586,19.6045705 62.9625085,19.3820483 63.2084085,19.2036843 C63.4543084,19.0253203 63.8283534,18.9361382 64.3305435,18.9361382 L64.3305435,18.9361382 L64.6941983,18.9361382 L64.6941983,20.0946387 C64.5071758,20.2678077 64.3210192,20.3985502 64.1357284,20.4868664 C63.9504376,20.5751826 63.7677443,20.6193407 63.5876486,20.6193407 Z M69.8913457,21.5336729 L69.8913457,13.3306584 L68.3536052,13.3306584 L68.3536052,21.5336729 L69.8913457,21.5336729 Z M77.3088657,21.5336729 L77.3088657,16.7905746 L78.7530949,16.7905746 L78.7530949,15.8294868 L77.3088657,15.8294868 L77.3088657,15.3619305 C77.3088657,14.9913489 77.3426336,14.7307296 77.4101695,14.5800726 C77.4777054,14.4294156 77.569485,14.3220508 77.6855082,14.2579783 C77.8015314,14.1939058 77.9409324,14.1618695 78.1037113,14.1618695 C78.4500492,14.1618695 78.8414111,14.2536491 79.2777969,14.4372082 L79.2777969,14.4372082 L79.2777969,13.3981943 C78.7963872,13.2665859 78.3288309,13.2007817 77.8751282,13.2007817 C77.2032326,13.2007817 76.6845915,13.3713531 76.319205,13.712496 C75.9538184,14.0536389 75.7711251,14.622499 75.7711251,15.4190763 L75.7711251,15.4190763 L75.7711251,15.8294868 L74.9866697,15.8294868 L74.9866697,16.7905746 L75.7711251,16.7905746 L75.7711251,21.5336729 L77.3088657,21.5336729 Z M82.204699,14.8683989 L82.204699,13.7774344 L81.1137344,13.7774344 L81.1137344,14.8683989 L82.204699,14.8683989 Z M84.3190922,14.8683989 L84.3190922,13.7774344 L83.2281277,13.7774344 L83.2281277,14.8683989 L84.3190922,14.8683989 Z M81.8046787,21.6635496 C82.15448,21.6635496 82.4973546,21.5717701 82.8333024,21.388211 C83.1692502,21.2046518 83.4740276,20.8946794 83.7476346,20.4582935 L83.7476346,20.4582935 L83.7476346,21.5336729 L85.2853751,21.5336729 L85.2853751,15.8294868 L83.7476346,15.8294868 L83.7476346,19.4192797 C83.4809544,19.8279585 83.2333227,20.1024313 83.0047397,20.2426982 C82.7761566,20.382965 82.556232,20.4530985 82.3449659,20.4530985 C82.2237476,20.4530985 82.1137853,20.4245256 82.015079,20.3673798 C81.9163726,20.3102341 81.8384466,20.2262471 81.7813008,20.115419 C81.7241551,20.0045908 81.6955822,19.7933247 81.6955822,19.4816205 L81.6955822,19.4816205 L81.6955822,15.8294868 L80.1578417,15.8294868 L80.1578417,19.8608606 C80.1578417,20.4842689 80.3197547,20.9405691 80.6435807,21.2297613 C80.9674067,21.5189535 81.3544393,21.6635496 81.8046787,21.6635496 Z M88.9447819,21.5336729 L88.9447819,17.9127096 C89.1387312,17.6010054 89.3603875,17.3680931 89.6097508,17.2139727 C89.8591141,17.0598524 90.1361845,16.9827922 90.4409619,16.9827922 C90.6314478,16.9827922 90.8340555,17.022621 91.048785,17.1022788 L91.048785,17.1022788 L91.048785,15.7307805 C90.9518104,15.7100002 90.8565675,15.69961 90.7630562,15.69961 C90.3716943,15.69961 90.0166979,15.8087065 89.698067,16.0268994 C89.3794361,16.2450923 89.1283411,16.5377479 88.9447819,16.9048661 L88.9447819,16.9048661 L88.9447819,15.8294868 L87.4070414,15.8294868 L87.4070414,21.5336729 L88.9447819,21.5336729 Z M3.9118872,28.1677764 L3.9118872,26.8845943 L2.37414668,26.8845943 L2.37414668,28.1677764 L3.9118872,28.1677764 Z M1.68320246,37.0149795 C2.22002629,37.0149795 2.64515613,36.9318584 2.95859198,36.7656162 C3.27202783,36.5993739 3.50926933,36.3690592 3.67031648,36.0746719 C3.83136363,35.7802847 3.9118872,35.331777 3.9118872,34.729149 L3.9118872,34.729149 L3.9118872,29.1288642 L2.37414668,29.1288642 L2.37414668,34.8330504 C2.37414668,35.3698742 2.29102557,35.7066879 2.12478335,35.8434914 C1.95854114,35.9802948 1.76805526,36.0486966 1.55332573,36.0486966 C1.23123143,36.0486966 0.8467963,35.9465269 0.400020338,35.7421875 L0.400020338,35.7421875 L0.400020338,36.7708112 C0.905673753,36.9335901 1.33340113,37.0149795 1.68320246,37.0149795 Z M7.61804966,34.9629271 C7.967851,34.9629271 8.31072557,34.8711475 8.64667339,34.6875884 C8.9826212,34.5040293 9.2873986,34.1940568 9.56100559,33.757671 L9.56100559,33.757671 L9.56100559,34.8330504 L11.0987461,34.8330504 L11.0987461,29.1288642 L9.56100559,29.1288642 L9.56100559,32.7186572 C9.29432536,33.1273359 9.04669373,33.4018088 8.81811067,33.5420756 C8.58952762,33.6823425 8.36960302,33.7524759 8.15833687,33.7524759 C8.03711859,33.7524759 7.92715629,33.7239031 7.82844997,33.6667573 C7.72974365,33.6096115 7.65181761,33.5256246 7.59467185,33.4147964 C7.53752609,33.3039683 7.5089532,33.0927021 7.5089532,32.780998 L7.5089532,32.780998 L7.5089532,29.1288642 L5.97121268,29.1288642 L5.97121268,33.160238 C5.97121268,33.7836464 6.13312568,34.2399466 6.45695167,34.5291388 C6.78077765,34.818331 7.16781032,34.9629271 7.61804966,34.9629271 Z M14.7581529,34.8330504 L14.7581529,31.2432575 C15.0248332,30.8345787 15.2724648,30.5601058 15.5010479,30.419839 C15.7296309,30.2795721 15.9495555,30.2094387 16.1608217,30.2094387 C16.2820399,30.2094387 16.3920022,30.2380115 16.4907086,30.2951573 C16.5894149,30.3523031 16.6673409,30.43629 16.7244867,30.5471182 C16.7816324,30.6579463 16.8102053,30.8692125 16.8102053,31.1809166 L16.8102053,31.1809166 L16.8102053,34.8330504 L18.3479458,34.8330504 L18.3479458,30.8016766 C18.3479458,30.1782683 18.1860329,29.721968 17.8622069,29.4327758 C17.5383809,29.1435836 17.1513482,28.9989875 16.7011089,28.9989875 C16.3547709,28.9989875 16.013628,29.0899012 15.6776802,29.2717287 C15.3417324,29.4535561 15.0352233,29.7643944 14.7581529,30.2042436 L14.7581529,30.2042436 L14.7581529,29.1288642 L13.2204124,29.1288642 L13.2204124,34.8330504 L14.7581529,34.8330504 Z M22.5995906,37.0097844 C23.1952919,37.0097844 23.7225914,36.9084806 24.1814892,36.7058729 C24.640387,36.5032652 24.9815299,36.202817 25.2049179,35.8045283 C25.4283058,35.4062397 25.5399998,34.6321744 25.5399998,33.4823323 L25.5399998,33.4823323 L25.5399998,29.1288642 L24.1581114,29.1288642 L23.9970642,29.7055169 C23.7754079,29.4942508 23.5866538,29.3444596 23.4308017,29.2561434 C23.2749496,29.1678273 23.1121708,29.1028889 22.9424652,29.0613283 C22.7727596,29.0197678 22.5857371,28.9989875 22.3813977,28.9989875 C21.6125274,28.9989875 21.0116311,29.2873139 20.5787086,29.8639666 C20.1457862,30.4406193 19.929325,31.156673 19.929325,32.0121277 C19.929325,32.5593417 20.0193728,33.0554708 20.1994686,33.5005151 C20.3795643,33.9455594 20.6375861,34.2789096 20.9735339,34.5005659 C21.3094817,34.7222222 21.6991119,34.8330504 22.1424245,34.8330504 C22.5788103,34.8330504 22.9554528,34.7187588 23.2723521,34.4901758 C23.5892513,34.2615927 23.830822,33.9654738 23.9970642,33.6018189 L23.9970642,33.6018189 L23.9970642,34.3810793 C23.9970642,34.9594637 23.8619924,35.3612157 23.5918488,35.5863354 C23.3217052,35.8114551 22.9182215,35.9240149 22.3813977,35.9240149 C21.80994,35.9240149 21.207312,35.778553 20.5735135,35.4876291 L20.5735135,35.4876291 L20.4488319,36.604569 C21.2177021,36.8747126 21.9346217,37.0097844 22.5995906,37.0097844 Z M22.6411511,33.6018189 C22.2948132,33.6018189 22.0289988,33.4537595 21.843708,33.1576405 C21.6584172,32.8615216 21.5657718,32.4554403 21.5657718,31.9393968 C21.5657718,31.3367687 21.6809292,30.8588223 21.9112439,30.5055576 C22.1415586,30.1522929 22.4489336,29.9756605 22.8333687,29.9756605 C23.0100011,29.9756605 23.1926943,30.0180869 23.3814485,30.1029397 C23.5702027,30.1877925 23.7754079,30.3549006 23.9970642,30.6042639 L23.9970642,30.6042639 L23.9970642,32.708267 C23.7927248,33.0061177 23.5779953,33.2295056 23.3528756,33.378431 C23.127756,33.5273563 22.8905145,33.6018189 22.6411511,33.6018189 Z M30.1916649,34.9629271 C30.8462436,34.9629271 31.5389195,34.8555623 32.2696926,34.6408328 L32.2696926,34.6408328 L32.2696926,33.5602584 C31.6220407,33.7992316 31.0401929,33.9187182 30.5241493,33.9187182 C30.1223973,33.9187182 29.8020347,33.8537798 29.5630615,33.7239031 C29.3240883,33.5940263 29.1344683,33.4182598 28.9942014,33.1966035 C28.8539345,32.9749472 28.7664842,32.6719015 28.7318504,32.2874664 L28.7318504,32.2874664 L32.2696926,32.2874664 C32.2696926,31.0233329 32.0514997,30.1592197 31.6151139,29.6951268 C31.1787281,29.2310339 30.5951486,28.9989875 29.8643755,28.9989875 C29.2686742,28.9989875 28.7673501,29.1297301 28.360403,29.3912152 C27.9534559,29.6527004 27.6434834,30.0094285 27.4304856,30.4613995 C27.2174877,30.9133706 27.1109888,31.4060363 27.1109888,31.9393968 C27.1109888,32.5143178 27.2365363,33.0468124 27.4876313,33.5368806 C27.7387263,34.0269488 28.0971861,34.3871403 28.5630107,34.617455 C29.0288352,34.8477697 29.57172,34.9629271 30.1916649,34.9629271 Z M30.7579275,31.4198898 L28.7110701,31.4198898 C28.7595575,30.9419434 28.8807757,30.5791544 29.074725,30.3315228 C29.2686742,30.0838912 29.5163059,29.9600753 29.8176199,29.9600753 C30.0946903,29.9600753 30.3206758,30.0726352 30.4955765,30.2977548 C30.6704771,30.5228745 30.7579275,30.8969195 30.7579275,31.4198898 L30.7579275,31.4198898 Z M35.9654649,34.9629271 C36.7551155,34.9629271 37.3568777,34.7819655 37.7707515,34.4200424 C38.1846254,34.0581192 38.3915623,33.6364527 38.3915623,33.155043 C38.3915623,32.7844614 38.2790025,32.4658304 38.0538828,32.1991502 C37.8252998,31.9359334 37.3421583,31.6640581 36.6044585,31.3835243 L36.6044585,31.3835243 L36.1576825,31.212087 C35.8910023,31.111649 35.7074432,31.0094793 35.6070052,30.905578 C35.5031038,30.8016766 35.4511531,30.68219 35.4511531,30.5471182 C35.4511531,30.3739492 35.5308108,30.2328165 35.6901263,30.12372 C35.8494417,30.0146236 36.0884149,29.9600753 36.4070458,29.9600753 C36.8122612,29.9600753 37.3231097,30.0674401 37.9395913,30.2821696 L37.9395913,30.2821696 L37.9395913,29.2015952 C37.2988661,29.0665234 36.746457,28.9989875 36.2823642,28.9989875 C35.4892503,28.9989875 34.8996099,29.1600347 34.5134431,29.482129 C34.1272763,29.8042233 33.9341928,30.212902 33.9341928,30.7081653 C33.9341928,31.1203075 34.0623379,31.4545236 34.318628,31.7108137 C34.5749181,31.9705672 34.971475,32.2078087 35.5082988,32.4225382 L35.5082988,32.4225382 L36.0278058,32.630341 C36.2910226,32.7342424 36.4867036,32.8398754 36.6148486,32.9472402 C36.7429937,33.0580683 36.8070662,33.1948718 36.8070662,33.3576507 C36.8070662,33.5446732 36.7213475,33.6987936 36.5499102,33.8200118 C36.378473,33.9412301 36.1490241,34.0018393 35.8615636,34.0018393 C35.3212764,34.0018393 34.670161,33.8425238 33.9082175,33.5238929 L33.9082175,33.5238929 L33.9082175,34.6512229 C34.6078202,34.8590257 35.2935693,34.9629271 35.9654649,34.9629271 Z M45.4402324,34.8330504 L45.4402324,31.8199102 L46.1052013,31.8199102 C47.033387,31.8199102 47.7736844,31.5947905 48.3260934,31.1445511 C48.8785024,30.6943118 49.154707,30.0397331 49.154707,29.1808149 C49.154707,28.734039 49.0741834,28.3634574 48.9131362,28.0690701 C48.7520891,27.7746828 48.5131159,27.5469656 48.1962167,27.3859185 C47.8793174,27.2248713 47.3312376,27.1443478 46.5519772,27.1443478 L46.5519772,27.1443478 L43.8713214,27.1443478 L43.8713214,34.8330504 L45.4402324,34.8330504 Z M45.7519365,30.7653111 L45.4402324,30.7653111 L45.4402324,28.1989468 L46.0636407,28.1989468 C46.4792463,28.1989468 46.7814261,28.2491658 46.9701803,28.3496038 C47.1589345,28.4500419 47.2983355,28.5877112 47.3883834,28.7626119 C47.4784313,28.9375125 47.5234552,29.1323276 47.5234552,29.3470572 C47.5234552,29.7280289 47.3805908,30.0596475 47.094862,30.3419129 C46.8091332,30.6241784 46.3614913,30.7653111 45.7519365,30.7653111 L45.7519365,30.7653111 Z M52.1803153,34.9629271 C52.5301167,34.9629271 52.8729912,34.8711475 53.2089391,34.6875884 C53.5448869,34.5040293 53.8496643,34.1940568 54.1232713,33.757671 L54.1232713,33.757671 L54.1232713,34.8330504 L55.6610118,34.8330504 L55.6610118,29.1288642 L54.1232713,29.1288642 L54.1232713,32.7186572 C53.856591,33.1273359 53.6089594,33.4018088 53.3803763,33.5420756 C53.1517933,33.6823425 52.9318687,33.7524759 52.7206025,33.7524759 C52.5993843,33.7524759 52.489422,33.7239031 52.3907156,33.6667573 C52.2920093,33.6096115 52.2140833,33.5256246 52.1569375,33.4147964 C52.0997918,33.3039683 52.0712189,33.0927021 52.0712189,32.780998 L52.0712189,32.780998 L52.0712189,29.1288642 L50.5334784,29.1288642 L50.5334784,33.160238 C50.5334784,33.7836464 50.6953913,34.2399466 51.0192173,34.5291388 C51.3430433,34.818331 51.730076,34.9629271 52.1803153,34.9629271 Z M60.9516704,34.9629271 C61.7205406,34.9629271 62.3197053,34.6633448 62.7491644,34.0641801 C63.1786234,33.4650154 63.393353,32.7186572 63.393353,31.8251052 C63.393353,30.9800406 63.2011354,30.2977548 62.8167003,29.7782479 C62.4322651,29.258741 61.8885145,28.9989875 61.1854485,28.9989875 C60.7629162,28.9989875 60.395798,29.0994255 60.0840938,29.3003015 C59.7723896,29.5011775 59.5178312,29.8024916 59.3204186,30.2042436 L59.3204186,30.2042436 L59.3204186,26.6300359 L57.7826781,26.6300359 L57.7826781,34.8330504 L59.0346898,34.8330504 L59.3204186,34.2563977 C59.5039777,34.4468835 59.6762809,34.5888821 59.837328,34.6823934 C59.9983752,34.7759046 60.1706783,34.846038 60.3542374,34.8927937 C60.5377965,34.9395493 60.7369408,34.9629271 60.9516704,34.9629271 Z M60.5152846,33.9654738 C60.3178719,33.9654738 60.1239227,33.9221815 59.9334368,33.8355971 C59.7429509,33.7490126 59.5386115,33.584502 59.3204186,33.3420655 L59.3204186,33.3420655 L59.3204186,31.0822103 C59.5143679,30.8120667 59.7247682,30.598203 59.9516195,30.4406193 C60.1784709,30.2830355 60.4044564,30.2042436 60.6295761,30.2042436 C60.9897676,30.2042436 61.2677038,30.3600957 61.4633847,30.6717998 C61.6590657,30.983504 61.7569061,31.4112314 61.7569061,31.954982 C61.7569061,32.4814157 61.6547364,32.948106 61.450397,33.3550531 C61.2460576,33.7620002 60.9343535,33.9654738 60.5152846,33.9654738 Z M66.5696184,34.8330504 L66.5696184,26.6300359 L65.0318778,26.6300359 L65.0318778,34.8330504 L66.5696184,34.8330504 Z M70.2290252,28.1677764 L70.2290252,26.8845943 L68.6912847,26.8845943 L68.6912847,28.1677764 L70.2290252,28.1677764 Z M70.2290252,34.8330504 L70.2290252,29.1288642 L68.6912847,29.1288642 L68.6912847,34.8330504 L70.2290252,34.8330504 Z M73.888432,34.8330504 L73.888432,31.9809573 L73.9871383,31.9809573 L76.0132154,34.8330504 L77.8834403,34.8330504 L75.4209775,31.5705468 L77.2963975,29.1288642 L76.0184104,29.1288642 L73.9871383,31.7887397 L73.888432,31.7887397 L73.888432,26.6300359 L72.3506915,26.6300359 L72.3506915,34.8330504 L73.888432,34.8330504 Z M80.8674882,34.9629271 C81.2172895,34.9629271 81.5601641,34.8711475 81.8961119,34.6875884 C82.2320597,34.5040293 82.5368371,34.1940568 82.8104441,33.757671 L82.8104441,33.757671 L82.8104441,34.8330504 L84.3481846,34.8330504 L84.3481846,29.1288642 L82.8104441,29.1288642 L82.8104441,32.7186572 C82.5437639,33.1273359 82.2961322,33.4018088 82.0675492,33.5420756 C81.8389661,33.6823425 81.6190415,33.7524759 81.4077754,33.7524759 C81.2865571,33.7524759 81.1765948,33.7239031 81.0778885,33.6667573 C80.9791821,33.6096115 80.9012561,33.5256246 80.8441103,33.4147964 C80.7869646,33.3039683 80.7583917,33.0927021 80.7583917,32.780998 L80.7583917,32.780998 L80.7583917,29.1288642 L79.2206512,29.1288642 L79.2206512,33.160238 C79.2206512,33.7836464 79.3825642,34.2399466 79.7063902,34.5291388 C80.0302161,34.818331 80.4172488,34.9629271 80.8674882,34.9629271 Z M87.9452506,34.8330504 L87.9452506,31.212087 C88.1634435,30.8761392 88.384234,30.6250442 88.6076219,30.458802 C88.8310099,30.2925598 89.0552637,30.2094387 89.2803834,30.2094387 C89.4674059,30.2094387 89.6275872,30.2735112 89.7609273,30.4016562 C89.8942674,30.5298013 89.9609375,30.80514 89.9609375,31.2276723 L89.9609375,31.2276723 L89.9609375,34.8330504 L91.4363372,34.8330504 L91.4363372,31.212087 C91.6545301,30.8796026 91.8770522,30.6302393 92.1039036,30.4639971 C92.330755,30.2977548 92.5602039,30.2146337 92.7922503,30.2146337 C92.9619559,30.2146337 93.1152104,30.2769746 93.2520139,30.4016562 C93.3888174,30.5263379 93.4572192,30.8016766 93.4572192,31.2276723 L93.4572192,31.2276723 L93.4572192,34.8330504 L94.9326188,34.8330504 L94.9326188,30.7237505 C94.9326188,30.1176591 94.7880227,29.6786758 94.4988306,29.4068005 C94.2096384,29.1349252 93.8329958,28.9989875 93.368903,28.9989875 C92.9498341,28.9989875 92.5939718,29.0924988 92.3013162,29.2795213 C92.0086607,29.4665438 91.7203343,29.7747845 91.4363372,30.2042436 C91.3913133,29.9341 91.2900094,29.7081145 91.1324256,29.5262871 C90.9748419,29.3444596 90.7938803,29.2111195 90.5895409,29.1262667 C90.3852015,29.0414139 90.1444966,28.9989875 89.8674263,28.9989875 C89.4102602,28.9989875 89.0240933,29.113279 88.7089258,29.3418621 C88.3937583,29.5704451 88.1391999,29.8579056 87.9452506,30.2042436 L87.9452506,30.2042436 L87.9452506,29.1288642 L86.4698509,29.1288642 L86.4698509,34.8330504 L87.9452506,34.8330504 Z" id="InternationalesTanzfestivalfrjungesPublikum"></path>
            </g>
        </g>
    </g>
</svg>