<?xml version="1.0" encoding="UTF-8"?>
<svg width="230px" height="80px" viewBox="0 0 230 100" version="1.1" xmlns="http://www.w3.org/2000/svg" xmlns:xlink="http://www.w3.org/1999/xlink">
    <!-- Generator: Sketch 64 (93537) - https://sketch.com -->
    <title>logo-himbeer</title>
    <desc>Created with Sketch.</desc>
    <g id="logo-himbeer" stroke="none" stroke-width="1" fill="none" fill-rule="evenodd">
        <g id="Group-4" transform="translate(15.500000, 21.500000)" fill="#000000">
            <polygon id="Fill-1" points="32.4954159 34.0248808 40.8581059 34.0248808 40.8581059 3.21135796e-14 32.4954159 3.21135796e-14"></polygon>
            <polygon id="Fill-2" points="63.60444 15.0053034 55.9584866 3.56817551e-14 47.7388697 3.56817551e-14 47.7388697 34.0248808 56.1020168 34.0248808 56.1020168 17.7291771 60.928562 26.1398629 60.9340472 26.1398629 63.5907269 30.7735108 66.2752898 26.1398629 66.280775 26.1398629 66.8667804 25.1182388 71.1073202 17.7981996 71.1073202 34.0248808 79.4700102 34.0248808 79.4700102 3.56817551e-14 71.2508504 3.56817551e-14"></polygon>
            <polyline id="Fill-3" points="17.251505 13.0937008 8.36314713 13.0937008 8.36314713 3.56817551e-14 7.13635101e-15 3.56817551e-14 7.13635101e-15 34.0248808 8.36314713 34.0248808 8.36314713 20.5485853 17.251505 20.5485853 17.251505 34.0248808 25.6146521 34.0248808 25.6146521 3.56817551e-14 17.251505 3.56817551e-14 17.251505 13.0937008"></polyline>
            <path d="M100.353195,26.5220006 L94.7143782,26.5220006 L94.7143782,20.5485853 L100.353195,20.5485853 C102.646935,20.5485853 103.411667,22.0775931 103.411667,23.5115236 C103.411667,24.944997 102.646935,26.5220006 100.353195,26.5220006 Z M94.7143782,7.50242314 L99.9230611,7.50242314 C102.216801,7.50242314 102.933995,8.93635365 102.933995,10.2742926 C102.933995,11.6122316 102.216801,13.0461621 99.9230611,13.0461621 L94.7143782,13.0461621 L94.7143782,7.50242314 Z M107.569472,16.582307 C108.620807,15.8655703 111.296685,13.7149031 111.296685,9.84415919 C111.296685,3.96627829 107.521476,3.56817551e-14 100.448729,3.56817551e-14 L86.3516882,3.56817551e-14 L86.3516882,34.0248808 L101.165466,34.0248808 C107.234415,34.0248808 111.774357,30.4882789 111.774357,23.9891957 C111.774357,19.2101892 108.955406,17.4425739 107.569472,16.582307 L107.569472,16.582307 Z" id="Fill-4"></path>
            <path d="M36.6961878,50.0897478 C37.9705895,50.0897478 38.7321223,49.2354232 38.7321223,48.1475193 C38.7321223,47.0285324 37.9705895,46.2825412 36.6961878,46.2825412 L34.3343392,46.2825412 L34.3343392,50.0897478 L36.6961878,50.0897478 Z M37.0381004,55.0474814 C38.2969607,55.0474814 39.0895764,54.1926997 39.0895764,53.0732557 C39.0895764,51.9702674 38.1570873,51.1621102 36.9759345,51.1621102 L34.3032562,51.1621102 L34.3032562,55.0474814 L37.0381004,55.0474814 Z M38.5456244,50.5719909 C39.3693231,50.9134465 40.3950611,51.6749792 40.3950611,53.0892543 C40.3950611,54.8294435 39.042952,56.0883037 37.1158079,56.0883037 L33.4640161,56.0883037 C33.2935169,56.0883037 33.1687279,55.9488875 33.1687279,55.7934726 L33.1687279,45.505924 C33.1687279,45.3505092 33.2935169,45.2101787 33.4640161,45.2101787 L36.8982271,45.2101787 C38.7942882,45.2101787 40.0531485,46.437956 40.0531485,48.0698119 C40.0531485,49.3286721 39.2605327,50.1052893 38.5456244,50.5404508 L38.5456244,50.5719909 L38.5456244,50.5719909 Z" id="Fill-8"></path>
            <path d="M44.0166841,45.505924 C44.0166841,45.3505092 44.1405589,45.2101787 44.3115152,45.2101787 L50.4348602,45.2101787 C50.6053594,45.2101787 50.7296913,45.3505092 50.7296913,45.505924 L50.7296913,45.95617 C50.7296913,46.1115848 50.6053594,46.2519153 50.4348602,46.2519153 L45.2133784,46.2519153 L45.2133784,50.0435804 L49.6733274,50.0435804 C49.8282852,50.0435804 49.9681585,50.1829967 49.9681585,50.3384115 L49.9681585,50.7891146 C49.9681585,50.9600709 49.8282852,51.0844028 49.6733274,51.0844028 L45.2133784,51.0844028 L45.2133784,55.0474814 L50.4348602,55.0474814 C50.6053594,55.0474814 50.7296913,55.1873547 50.7296913,55.3423125 L50.7296913,55.7934726 C50.7296913,55.9488875 50.6053594,56.0883037 50.4348602,56.0883037 L44.3115152,56.0883037 C44.1405589,56.0883037 44.0166841,55.9488875 44.0166841,55.7934726 L44.0166841,45.505924" id="Fill-9"></path>
            <path d="M58.3765588,50.8051132 C59.572796,50.8051132 60.6140755,49.8104582 60.6140755,48.5360564 C60.6140755,47.3549036 59.572796,46.3451642 58.3765588,46.3451642 L55.3615108,46.3451642 L55.3615108,50.8051132 L58.3765588,50.8051132 Z M54.1337335,45.505924 C54.1337335,45.3505092 54.2585225,45.2101787 54.4290217,45.2101787 L58.4542662,45.2101787 C60.3187873,45.2101787 61.8418528,46.6715354 61.8418528,48.5205149 C61.8418528,49.9498744 60.8938222,51.1470258 59.541713,51.6905207 L61.6708964,55.6376007 C61.7796868,55.83964 61.6708964,56.0883037 61.4066912,56.0883037 L60.6606999,56.0883037 C60.4742021,56.0883037 60.3964947,56.0105963 60.3187873,55.8551815 L58.2988514,51.8303941 L55.3308849,51.8303941 L55.3308849,55.7934726 C55.3308849,55.9488875 55.1905545,56.0883037 55.0351396,56.0883037 L54.4290217,56.0883037 C54.2585225,56.0883037 54.1337335,55.9488875 54.1337335,55.7934726 L54.1337335,45.505924 L54.1337335,45.505924 Z" id="Fill-10"></path>
            <path d="M65.4013098,45.505924 C65.4013098,45.3505092 65.5251846,45.2101787 65.696141,45.2101787 L66.302716,45.2101787 C66.4576737,45.2101787 66.5980042,45.3505092 66.5980042,45.505924 L66.5980042,55.0474814 L71.0734946,55.0474814 C71.244451,55.0474814 71.3687828,55.1873547 71.3687828,55.3423125 L71.3687828,55.7934726 C71.3687828,55.9488875 71.244451,56.0883037 71.0734946,56.0883037 L65.696141,56.0883037 C65.5251846,56.0883037 65.4013098,55.9488875 65.4013098,55.7934726 L65.4013098,45.505924" id="Fill-11"></path>
            <path d="M74.2444146,45.505924 C74.2444146,45.3505092 74.3838308,45.2101787 74.5392457,45.2101787 L75.1609051,45.2101787 C75.3163199,45.2101787 75.4561933,45.3505092 75.4561933,45.505924 L75.4561933,55.7934726 C75.4561933,55.9488875 75.3163199,56.0883037 75.1609051,56.0883037 L74.5392457,56.0883037 C74.3838308,56.0883037 74.2444146,55.9488875 74.2444146,55.7934726 L74.2444146,45.505924" id="Fill-12"></path>
            <path d="M79.6057697,45.3349677 C79.6057697,45.1795529 79.745643,45.055221 79.9010579,45.055221 L80.1341802,45.055221 C80.2429705,45.055221 80.320678,45.086304 80.3828439,45.1795529 L87.2978904,53.7886211 C87.3134318,53.7886211 87.3134318,53.7886211 87.3294304,53.7886211 L87.3294304,45.505924 C87.3294304,45.3505092 87.4533052,45.2101787 87.6242615,45.2101787 L88.1682135,45.2101787 C88.3236283,45.2101787 88.4635017,45.3505092 88.4635017,45.505924 L88.4635017,55.9639719 C88.4635017,56.1198438 88.3236283,56.2437186 88.1682135,56.2437186 L88.0438816,56.2437186 C87.9350912,56.2437186 87.8573838,56.2130927 87.7952179,56.1198438 L80.7558395,47.3398192 L80.739841,47.3398192 L80.739841,55.7934726 C80.739841,55.9488875 80.6159662,56.0883037 80.4450098,56.0883037 L79.9010579,56.0883037 C79.745643,56.0883037 79.6057697,55.9488875 79.6057697,55.7934726 L79.6057697,45.3349677" id="Fill-13"></path>
            <path d="M98.8305861,45.2728018 C98.8616691,45.1484699 98.9855439,45.055221 99.1103329,45.055221 L99.3589966,45.055221 C99.4673299,45.055221 99.5921189,45.1324713 99.6232019,45.2261773 L102.699502,53.7886211 C102.731042,53.7886211 102.746583,53.7886211 102.777209,53.7886211 L105.807799,45.2261773 C105.838881,45.1324713 105.963213,45.055221 106.072004,45.055221 L106.320668,45.055221 C106.444999,45.055221 106.569331,45.1484699 106.600414,45.2728018 L108.604809,55.7157652 C108.65189,55.9328889 108.558641,56.0883037 108.325062,56.0883037 L107.70386,56.0883037 C107.579528,56.0883037 107.455196,55.9795134 107.423656,55.8711801 L106.040921,47.8677726 C106.025379,47.8677726 105.994296,47.8677726 105.978755,47.8677726 L103.119122,56.0727623 C103.088496,56.1660112 102.948165,56.2437186 102.854916,56.2437186 L102.575627,56.2437186 C102.482378,56.2437186 102.342505,56.1660112 102.311422,56.0727623 L99.4211626,47.8677726 C99.405164,47.8677726 99.374081,47.8677726 99.3589966,47.8677726 L98.0068875,55.8711801 C97.991346,55.9795134 97.8514726,56.0883037 97.7271407,56.0883037 L97.1054813,56.0883037 C96.8723591,56.0883037 96.7791102,55.9328889 96.8257346,55.7157652 L98.8305861,45.2728018" id="Fill-14"></path>
            <polyline id="Fill-5" points="117.556704 34.0248808 140.686547 34.0248808 140.686547 26.5699963 125.919851 26.5699963 125.919851 20.596581 138.53588 20.596581 138.53588 13.1416965 125.919851 13.1416965 125.919851 7.45488448 140.686547 7.45488448 140.686547 3.56817551e-14 117.556704 3.56817551e-14 117.556704 34.0248808"></polyline>
            <polygon id="Fill-6" points="169.740895 34.0248808 169.740895 26.5699963 154.974199 26.5699963 154.974199 20.596581 167.589771 20.596581 167.589771 13.1416965 154.974199 13.1416965 154.974199 7.45488448 169.740895 7.45488448 169.740895 3.56817551e-14 146.611052 3.56817551e-14 146.611052 34.0248808"></polygon>
            <path d="M188.759101,14.3841011 L184.028091,14.3841011 L184.028091,7.50242314 L188.759101,7.50242314 C191.053299,7.50242314 192.391238,9.17496115 192.391238,10.9434907 C192.391238,12.7115631 191.053299,14.3841011 188.759101,14.3841011 Z M195.210646,19.8318486 C197.886981,18.4939096 200.753928,15.578967 200.753928,10.9434907 C200.753928,5.35221304 196.692115,3.56817551e-14 189.141696,3.56817551e-14 L175.665401,3.56817551e-14 L175.665401,34.0248808 L184.028091,34.0248808 L184.028091,21.3613135 L186.847499,21.3613135 L192.86891,34.0248808 L202.569996,34.0248808 L195.210646,19.8318486 L195.210646,19.8318486 Z" id="Fill-7"></path>
            <path d="M112.071474,45.505924 C112.071474,45.3505092 112.211347,45.2101787 112.366762,45.2101787 L112.988422,45.2101787 C113.143836,45.2101787 113.28371,45.3505092 113.28371,45.505924 L113.28371,55.7934726 C113.28371,55.9488875 113.143836,56.0883037 112.988422,56.0883037 L112.366762,56.0883037 C112.211347,56.0883037 112.071474,55.9488875 112.071474,55.7934726 L112.071474,45.505924" id="Fill-15"></path>
            <path d="M119.344889,46.2519153 L116.641127,46.2519153 C116.469714,46.2519153 116.345382,46.1115848 116.345382,45.95617 L116.345382,45.505924 C116.345382,45.3505092 116.469714,45.2101787 116.641127,45.2101787 L123.229803,45.2101787 C123.400759,45.2101787 123.524634,45.3505092 123.524634,45.505924 L123.524634,45.95617 C123.524634,46.1115848 123.400759,46.2519153 123.229803,46.2519153 L120.526042,46.2519153 L120.526042,55.7934726 C120.526042,55.9488875 120.385711,56.0883037 120.230296,56.0883037 L119.63972,56.0883037 C119.484305,56.0883037 119.344889,55.9488875 119.344889,55.7934726 L119.344889,46.2519153" id="Fill-16"></path>
            <path d="M131.482788,45.5836315 C131.482788,45.3811351 131.638203,45.2101787 131.856241,45.2101787 L132.306487,45.2101787 C132.508526,45.2101787 132.679483,45.3811351 132.679483,45.5836315 L132.679483,50.0746634 L137.527969,45.3655936 C137.590135,45.2878861 137.730008,45.2101787 137.823257,45.2101787 L138.584332,45.2101787 C138.864536,45.2101787 139.019951,45.5210084 138.771287,45.7545878 L133.860178,50.4316605 L139.003953,55.6065177 C139.1132,55.7157652 139.08166,56.0883037 138.739747,56.0883037 L137.947589,56.0883037 C137.838798,56.0883037 137.698925,56.0261378 137.667842,55.9795134 L132.679483,50.866822 L132.679483,55.7157652 C132.679483,55.9173474 132.508526,56.0883037 132.306487,56.0883037 L131.856241,56.0883037 C131.638203,56.0883037 131.482788,55.9173474 131.482788,55.7157652 L131.482788,45.5836315" id="Fill-17"></path>
            <path d="M141.988832,45.505924 C141.988832,45.3505092 142.128248,45.2101787 142.283663,45.2101787 L142.905779,45.2101787 C143.060737,45.2101787 143.20061,45.3505092 143.20061,45.505924 L143.20061,55.7934726 C143.20061,55.9488875 143.060737,56.0883037 142.905779,56.0883037 L142.283663,56.0883037 C142.128248,56.0883037 141.988832,55.9488875 141.988832,55.7934726 L141.988832,45.505924" id="Fill-18"></path>
            <path d="M147.350187,45.3349677 C147.350187,45.1795529 147.49006,45.055221 147.645475,45.055221 L147.878597,45.055221 C147.987388,45.055221 148.065095,45.086304 148.127261,45.1795529 L155.042308,53.7886211 C155.057849,53.7886211 155.057849,53.7886211 155.073848,53.7886211 L155.073848,45.505924 C155.073848,45.3505092 155.197722,45.2101787 155.368679,45.2101787 L155.913088,45.2101787 C156.068046,45.2101787 156.207919,45.3505092 156.207919,45.505924 L156.207919,55.9639719 C156.207919,56.1198438 156.068046,56.2437186 155.913088,56.2437186 L155.788299,56.2437186 C155.679966,56.2437186 155.601801,56.2130927 155.539635,56.1198438 L148.500257,47.3398192 L148.484715,47.3398192 L148.484715,55.7934726 C148.484715,55.9488875 148.360383,56.0883037 148.189427,56.0883037 L147.645475,56.0883037 C147.49006,56.0883037 147.350187,55.9488875 147.350187,55.7934726 L147.350187,45.3349677" id="Fill-19"></path>
            <path d="M163.979118,55.0159413 C166.527922,55.0159413 168.314735,53.1980447 168.314735,50.6341569 C168.314735,48.0853534 166.527922,46.2674568 163.979118,46.2674568 L161.539562,46.2674568 L161.539562,55.0159413 L163.979118,55.0159413 Z M160.358409,45.505924 C160.358409,45.3505092 160.483198,45.2101787 160.638156,45.2101787 L164.119449,45.2101787 C167.118041,45.2101787 169.573596,47.6501918 169.573596,50.6341569 C169.573596,53.6482907 167.118041,56.0883037 164.119449,56.0883037 L160.638156,56.0883037 C160.483198,56.0883037 160.358409,55.9488875 160.358409,55.7934726 L160.358409,45.505924 L160.358409,45.505924 Z" id="Fill-20"></path>
        </g>
    </g>
</svg>