<?xml version="1.0" encoding="UTF-8"?>
<svg width="335px" height="147px" viewBox="0 0 335 147" version="1.1" xmlns="http://www.w3.org/2000/svg" xmlns:xlink="http://www.w3.org/1999/xlink">
    <!-- Generator: Sketch 61 (89581) - https://sketch.com -->
    <title>offensive-tanz</title>
    <desc>Created with Sketch.</desc>
    <g id="offensive-tanz" stroke="none" stroke-width="1" fill="none" fill-rule="evenodd">
        <path d="M124.738314,147 C135.579305,147 140.531362,140.852727 140.531362,127.622727 L140.531362,36.6163636 C140.531362,31.5381818 141.869756,29.1327273 145.48342,29.1327273 C147.892529,29.1327273 150.167799,30.87 152.576908,34.6118182 L180.281662,76.44 C184.698362,83.1218182 188.713544,86.8636364 195.539353,86.8636364 C204.774271,86.8636364 211.332401,81.6518182 211.332401,67.2190909 L211.332401,3.60818182 C211.332401,1.60363636 209.726328,0 207.718738,0 C205.711147,0 204.105074,1.60363636 204.105074,3.60818182 L204.105074,67.2190909 C204.105074,76.0390909 200.759089,79.5136364 196.877747,79.5136364 C191.925689,79.5136364 190.587295,78.0436364 188.312026,74.7027273 L159.001199,30.4690909 C154.986017,24.4554545 151.104674,21.9163636 145.48342,21.9163636 C138.122253,21.9163636 133.170196,27.2618182 133.170196,35.5472727 L133.170196,127.622727 C133.170196,135.908182 130.894926,139.65 125.809029,139.65 C120.856972,139.65 118.98322,137.912727 116.306432,132.166364 L89.8062325,75.9054545 C86.0587295,67.8872727 82.8465841,64.68 76.5561326,64.68 C68.3919297,64.68 64.5105873,69.8918182 64.5105873,76.8409091 L64.5105873,119.470909 C64.5105873,121.475455 66.11666,123.212727 68.2580903,123.212727 C70.2656812,123.212727 71.8717539,121.475455 71.8717539,119.470909 L71.8717539,76.8409091 C71.8717539,73.5 73.2101478,72.03 76.5561326,72.03 C78.8314023,72.03 80.5713144,73.7672727 83.2481023,79.5136364 L108.677587,133.903636 C112.692769,142.723636 117.243308,147 124.738314,147 Z M17.6667998,59.4681818 C27.8385937,59.4681818 35.1997603,51.45 35.1997603,41.4272727 C35.1997603,31.4045455 27.8385937,23.2527273 17.6667998,23.2527273 C7.3611666,23.2527273 0,31.4045455 0,41.4272727 C0,51.45 7.3611666,59.4681818 17.6667998,59.4681818 Z M230.203755,59.4681818 C236.761886,59.4681818 241.847783,54.5236364 241.847783,47.7081818 C241.847783,41.9618182 238.635637,39.1554545 234.085098,37.4181818 C229.936077,35.8145455 226.99161,35.5472727 226.99161,32.6072727 C226.99161,30.87 228.330004,29.5336364 230.203755,29.5336364 C232.077507,29.5336364 233.415901,30.4690909 234.085098,32.0727273 L239.304834,28.4645455 C237.564922,25.2572727 234.620455,23.2527273 230.203755,23.2527273 C224.448662,23.2527273 220.29964,27.1281818 220.29964,32.8745455 C220.29964,37.6854545 223.377946,40.2245455 227.259289,41.6945455 C231.274471,43.1645455 235.155813,43.4318182 235.155813,47.9754545 C235.155813,50.9154545 233.282062,53.0536364 230.203755,53.0536364 C226.99161,53.0536364 225.251698,50.7818182 225.251698,47.9754545 L218.425889,47.9754545 C218.425889,54.39 223.511786,59.4681818 230.203755,59.4681818 Z M49.6544147,59.2009091 L49.6544147,44.3672727 L59.290851,44.3672727 L59.290851,38.0863636 L49.6544147,38.0863636 L49.6544147,29.8009091 L66.11666,29.8009091 L66.11666,23.52 L42.9624451,23.52 L42.9624451,59.2009091 L49.6544147,59.2009091 Z M79.7682781,59.2009091 L79.7682781,44.3672727 L89.4047143,44.3672727 L89.4047143,38.0863636 L79.7682781,38.0863636 L79.7682781,29.8009091 L96.096684,29.8009091 L96.096684,23.52 L73.0763084,23.52 L73.0763084,59.2009091 L79.7682781,59.2009091 Z M126.076708,59.2009091 L126.076708,52.92 L109.614463,52.92 L109.614463,44.3672727 L119.920096,44.3672727 L119.920096,38.0863636 L109.614463,38.0863636 L109.614463,29.8009091 L125.67519,29.8009091 L125.67519,23.52 L102.922493,23.52 L102.922493,59.2009091 L126.076708,59.2009091 Z M266.206552,59.2009091 L266.206552,52.92 L260.719137,52.92 L260.719137,29.8009091 L266.206552,29.8009091 L266.206552,23.52 L248.673592,23.52 L248.673592,29.8009091 L254.161007,29.8009091 L254.161007,52.92 L248.673592,52.92 L248.673592,59.2009091 L266.206552,59.2009091 Z M291.903716,59.2009091 L305.153815,23.52 L298.194167,23.52 L288.69157,49.8463636 L279.188973,23.52 L272.229325,23.52 L285.479425,59.2009091 L291.903716,59.2009091 Z M335,59.2009091 L335,52.92 L318.537755,52.92 L318.537755,44.3672727 L328.843388,44.3672727 L328.843388,38.0863636 L318.537755,38.0863636 L318.537755,29.8009091 L334.598482,29.8009091 L334.598482,23.52 L311.845785,23.52 L311.845785,59.2009091 L335,59.2009091 Z M17.6667998,53.0536364 C11.242509,53.0536364 6.69196964,47.9754545 6.69196964,41.4272727 C6.69196964,34.7454545 11.242509,29.6672727 17.6667998,29.6672727 C24.0910907,29.6672727 28.5077907,34.7454545 28.5077907,41.4272727 C28.5077907,47.9754545 24.0910907,53.0536364 17.6667998,53.0536364 Z M175.731123,120.272727 L175.731123,113.991818 L155.789053,113.991818 L173.455853,90.2045455 L173.455853,84.5918182 L149.364762,84.5918182 L149.364762,90.8727273 L165.023971,90.8727273 L147.357171,114.793636 L147.357171,120.272727 L175.731123,120.272727 Z M16.7299241,120.272727 L16.7299241,91.0063636 L24.4926089,91.0063636 L24.4926089,84.7254545 L2.27526968,84.7254545 L2.27526968,91.0063636 L10.0379545,91.0063636 L10.0379545,120.272727 L16.7299241,120.272727 Z M32.389133,120.272727 L34.3967239,114.793636 L49.9220935,114.793636 L51.9296844,120.272727 L58.8893328,120.272727 L45.3715541,84.7254545 L38.9472633,84.7254545 L25.4294846,120.272727 L32.389133,120.272727 Z M47.6468238,108.512727 L36.6719936,108.512727 L42.1594087,93.6790909 L47.6468238,108.512727 Z" id="M" fill="#000000" fill-rule="nonzero"></path>
        <path d="M6.653,138 L6.653,129.836 L8.733,129.836 L8.733,128.9 L3.559,128.9 L3.559,129.836 L5.639,129.836 L5.639,138 L6.653,138 Z M11.604667,138 L12.228667,136.232 L16.219667,136.232 L16.843667,138 L17.922667,138 L14.646667,128.9 L13.801667,128.9 L10.525667,138 L11.604667,138 Z M15.894667,135.296 L12.553667,135.296 L14.230667,130.512 L15.894667,135.296 Z M22.081334,138 L22.081334,130.928 L25.578334,138 L26.683334,138 L26.683334,128.9 L25.669334,128.9 L25.669334,135.972 L22.159334,128.9 L21.067334,128.9 L21.067334,138 L22.081334,138 Z M36.536001,138 L36.536001,137.064 L31.297001,137.064 L36.016001,129.693 L36.016001,128.9 L30.608001,128.9 L30.608001,129.836 L34.781001,129.836 L30.075001,137.194 L30.075001,138 L36.536001,138 Z M40.954668,138 L40.954668,134.516 L42.605668,134.516 C44.282668,134.516 45.439668,133.359 45.439668,131.721 C45.439668,130.07 44.282668,128.9 42.605668,128.9 L39.940668,128.9 L39.940668,138 L40.954668,138 Z M42.514668,133.58 L40.954668,133.58 L40.954668,129.836 L42.514668,129.836 C43.853668,129.836 44.399668,130.733 44.399668,131.721 C44.399668,132.696 43.853668,133.58 42.514668,133.58 Z M48.116335,138 L48.740335,136.232 L52.731335,136.232 L53.355335,138 L54.434335,138 L51.158335,128.9 L50.313335,128.9 L47.037335,138 L48.116335,138 Z M52.406335,135.296 L49.065335,135.296 L50.742335,130.512 L52.406335,135.296 Z M58.593002,138 L58.593002,134.295 L59.490002,133.034 L62.181002,138 L63.377002,138 L60.153002,132.098 L62.428002,128.9 L61.219002,128.9 L58.593002,132.67 L58.593002,128.9 L57.579002,128.9 L57.579002,138 L58.593002,138 Z M68.653669,138 L68.653669,129.836 L70.733669,129.836 L70.733669,128.9 L65.559669,128.9 L65.559669,129.836 L67.639669,129.836 L67.639669,138 L68.653669,138 Z" id="TANZPAKT" fill="#000000" fill-rule="nonzero"></path>
        <path d="M151.367,138.078 C153.031,138.078 154.214,136.843 154.214,135.218 C154.214,133.541 152.966,132.878 152.134,132.553 C151.003,132.111 150.145,131.864 150.145,130.941 C150.145,130.239 150.691,129.797 151.38,129.797 C151.9,129.797 152.368,130.044 152.68,130.629 L153.46,130.044 C153.109,129.329 152.355,128.822 151.367,128.822 C150.119,128.835 149.118,129.68 149.118,131.006 C149.118,132.267 150.08,132.852 150.873,133.164 C152.017,133.593 153.174,133.892 153.174,135.309 C153.174,136.401 152.485,137.103 151.406,137.103 C150.223,137.103 149.547,136.245 149.547,135.153 L148.507,135.153 C148.507,136.765 149.651,138.078 151.367,138.078 Z M159.724,138 L159.724,129.836 L161.804,129.836 L161.804,128.9 L156.63,128.9 L156.63,129.836 L158.71,129.836 L158.71,138 L159.724,138 Z M164.649,138 L165.273,136.232 L169.264,136.232 L169.888,138 L170.967,138 L167.691,128.9 L166.846,128.9 L163.57,138 L164.649,138 Z M168.939,135.296 L165.598,135.296 L167.275,130.512 L168.939,135.296 Z M176.23,138 C178.83,138 180.715,136.258 180.715,133.45 C180.715,130.642 178.83,128.9 176.23,128.9 L174.085,128.9 L174.085,138 L176.23,138 Z M176.204,137.064 L175.099,137.064 L175.099,129.836 L176.204,129.836 C178.362,129.836 179.675,131.409 179.675,133.45 C179.675,135.491 178.362,137.064 176.204,137.064 Z M185.965,138 L185.965,129.836 L188.045,129.836 L188.045,128.9 L182.871,128.9 L182.871,129.836 L184.951,129.836 L184.951,138 L185.965,138 Z M201.691,138 L201.691,137.064 L197.44,137.064 L197.44,128.9 L196.426,128.9 L196.426,138 L201.691,138 Z M205.615,138 L206.239,136.232 L210.23,136.232 L210.854,138 L211.933,138 L208.657,128.9 L207.812,128.9 L204.536,138 L205.615,138 Z M209.905,135.296 L206.564,135.296 L208.241,130.512 L209.905,135.296 Z M216.065,138 L216.065,130.928 L219.562,138 L220.667,138 L220.667,128.9 L219.653,128.9 L219.653,135.972 L216.143,128.9 L215.051,128.9 L215.051,138 L216.065,138 Z M226.541,138 C229.141,138 231.026,136.258 231.026,133.45 C231.026,130.642 229.141,128.9 226.541,128.9 L224.396,128.9 L224.396,138 L226.541,138 Z M226.515,137.064 L225.41,137.064 L225.41,129.836 L226.515,129.836 C228.673,129.836 229.986,131.409 229.986,133.45 C229.986,135.491 228.673,137.064 226.515,137.064 Z M242.215,138 C243.853,138 245.049,136.908 245.049,135.257 C245.049,133.944 244.295,133.125 243.489,132.839 C244.009,132.579 244.49,131.994 244.49,131.162 C244.49,129.823 243.58,128.9 242.072,128.9 L239.485,128.9 L239.485,138 L242.215,138 Z M242.098,132.462 L240.499,132.462 L240.499,129.836 L242.098,129.836 C242.969,129.836 243.463,130.382 243.463,131.149 C243.463,131.916 242.969,132.462 242.098,132.462 Z M242.098,137.064 L240.499,137.064 L240.499,133.398 L242.098,133.398 C243.437,133.398 244.022,134.23 244.022,135.218 C244.022,136.219 243.437,137.064 242.098,137.064 Z M251.157,138.078 C252.86,138.078 253.939,136.908 253.939,135.335 L253.939,128.9 L252.925,128.9 L252.925,135.309 C252.925,136.401 252.249,137.129 251.157,137.129 C250.065,137.129 249.402,136.401 249.402,135.309 L249.402,128.9 L248.388,128.9 L248.388,135.335 C248.388,136.908 249.454,138.078 251.157,138.078 Z M258.682,138 L258.682,130.928 L262.179,138 L263.284,138 L263.284,128.9 L262.27,128.9 L262.27,135.972 L258.76,128.9 L257.668,128.9 L257.668,138 L258.682,138 Z M269.158,138 C271.758,138 273.643,136.258 273.643,133.45 C273.643,130.642 271.758,128.9 269.158,128.9 L267.013,128.9 L267.013,138 L269.158,138 Z M269.132,137.064 L268.027,137.064 L268.027,129.836 L269.132,129.836 C271.29,129.836 272.603,131.409 272.603,133.45 C272.603,135.491 271.29,137.064 269.132,137.064 Z" id="STADTLANDBUND" fill="#000000" fill-rule="nonzero"></path>
    </g>
</svg>