<svg width="400px" height="160px" xmlns="http://www.w3.org/2000/svg"><path d="M131.688 150.8c10.854 0 15.812-6.164 15.812-19.43V40.116c0-5.092 1.34-7.504 4.958-7.504 2.412 0 4.69 1.742 7.102 5.494l27.738 41.942c4.422 6.7 8.442 10.452 15.276 10.452 9.246 0 15.812-5.226 15.812-19.698V7.018a3.603 3.603 0 00-3.618-3.618 3.603 3.603 0 00-3.618 3.618v63.784c0 8.844-3.35 12.328-7.236 12.328-4.958 0-6.298-1.474-8.576-4.824l-29.346-44.354c-4.02-6.03-7.906-8.576-13.534-8.576-7.37 0-12.328 5.36-12.328 13.668v92.326c0 8.308-2.278 12.06-7.37 12.06-4.958 0-6.834-1.742-9.514-7.504L96.714 79.512c-3.752-8.04-6.968-11.256-13.266-11.256-8.174 0-12.06 5.226-12.06 12.194v42.746c0 2.01 1.608 3.752 3.752 3.752 2.01 0 3.618-1.742 3.618-3.752V80.45c0-3.35 1.34-4.824 4.69-4.824 2.278 0 4.02 1.742 6.7 7.504l25.46 54.538c4.02 8.844 8.576 13.132 16.08 13.132zm-107.2-87.77c10.184 0 17.554-8.04 17.554-18.09s-7.37-18.224-17.554-18.224C14.17 26.716 6.8 34.89 6.8 44.94s7.37 18.09 17.688 18.09zm212.792 0c6.566 0 11.658-4.958 11.658-11.792 0-5.762-3.216-8.576-7.772-10.318-4.154-1.608-7.102-1.876-7.102-4.824 0-1.742 1.34-3.082 3.216-3.082 1.876 0 3.216.938 3.886 2.546l5.226-3.618c-1.742-3.216-4.69-5.226-9.112-5.226-5.762 0-9.916 3.886-9.916 9.648 0 4.824 3.082 7.37 6.968 8.844 4.02 1.474 7.906 1.742 7.906 6.298 0 2.948-1.876 5.092-4.958 5.092-3.216 0-4.958-2.278-4.958-5.092h-6.834c0 6.432 5.092 11.524 11.792 11.524zm-180.766-.268V47.888h9.648V41.59h-9.648v-8.308h16.482v-6.298H49.814v35.778h6.7zm30.15 0V47.888h9.648V41.59h-9.648v-8.308h16.348v-6.298H79.964v35.778h6.7zm46.364 0v-6.298h-16.482v-8.576h10.318V41.59h-10.318v-8.308h16.08v-6.298h-22.78v35.778h23.182zm140.298 0v-6.298h-5.494V33.282h5.494v-6.298h-17.554v6.298h5.494v23.182h-5.494v6.298h17.554zm25.728 0l13.266-35.778h-6.968l-9.514 26.398-9.514-26.398h-6.968l13.266 35.778h6.432zm43.148 0v-6.298H325.72v-8.576h10.318V41.59H325.72v-8.308h16.08v-6.298h-22.78v35.778h23.182zM24.488 56.598c-6.432 0-10.988-5.092-10.988-11.658 0-6.7 4.556-11.792 10.988-11.792 6.432 0 10.854 5.092 10.854 11.792 0 6.566-4.422 11.658-10.854 11.658zM182.742 124v-6.298h-19.966l17.688-23.852v-5.628h-24.12v6.298h15.678l-17.688 23.986V124h28.408zM23.55 124V94.654h7.772v-6.298H9.078v6.298h7.772V124h6.7zm15.678 0l2.01-5.494h15.544l2.01 5.494h6.968L52.226 88.356h-6.432L32.26 124h6.968zm15.276-11.792H43.516l5.494-14.874 5.494 14.874z" fill="#000" fill-rule="nonzero"/></svg>