<svg width="600" height="200" xmlns="http://www.w3.org/2000/svg"><g fill="none" fill-rule="evenodd"><g fill-rule="nonzero"><path fill="#000" d="M54.408 28V17.509H59V14H46v3.509h4.592V28zM67.32 14L73 28h-3.966l-.776-2.04H62.76L61.984 28H58l5.715-13.982V14h3.606zm-1.802 4.655l-1.532 4.028h3.046l-1.514-4.028zM79.652 28v-7.752L85.908 28H89V14h-3.634v7.77L79.092 14H76v14zM104 28v-3.491h-6.578l6.56-7.877V14H92.217v3.509h6.325L92 25.369V28zM112.35 14c3.331 0 5.65 2.077 5.65 5.37 0 3.349-2.227 5.461-5.65 5.461h-2.632V28H106V14zm-.203 3.294h-2.43v4.243h2.43c1.417 0 2.098-.806 2.098-2.148 0-1.29-.754-2.095-2.098-2.095zM128.32 14L134 28h-3.966l-.776-2.04h-5.498l-.776 2.04H119l5.715-13.982V14h3.606zm-1.802 4.655l-1.532 4.028h3.046l-1.514-4.028zM139.652 28v-4.225l.94-1.02 3.87 5.245H149l-5.876-7.985L148.71 14h-4.701l-4.358 4.78V14H136v14zM159.408 29V18.509H164V15h-13v3.509h4.592V29z"/><g fill="#020202"><path d="M115.56 48.86v-.986h-5.98V36.209h-1.056V48.86zM123.23 36.209l5.056 12.651H127.1l-1.24-3.11h-6.574l-1.24 3.11h-1.186l5.055-12.651h1.315zm-.666 1.062l-2.944 7.492h5.907l-2.963-7.492zM131.42 48.86V37.935l7.777 10.925h1.037V36.21h-1.055v10.773l-7.74-10.773h-1.074V48.86zM147.516 36.209c3.833 0 6.24 2.864 6.24 6.335 0 3.509-2.407 6.316-6.24 6.316h-3.944V36.21zm0 .986h-2.888v10.679h2.888c3.259 0 5.13-2.371 5.13-5.33 0-2.96-1.853-5.349-5.13-5.349zM167.455 36.209c2.056 0 3.407 1.233 3.407 3.224 0 1.593-1.055 2.675-2.166 2.902 1.315.209 2.407 1.631 2.407 3.11 0 2.106-1.333 3.415-3.555 3.415h-5.166V36.21zm-.055 6.657h-3.963v5.008h3.963c1.63 0 2.592-.968 2.592-2.504 0-1.29-.87-2.504-2.592-2.504zm-.074-5.671h-3.889v4.685h3.889c1.592 0 2.425-1.024 2.425-2.333 0-1.29-.833-2.352-2.425-2.352zM178.052 49.088c3.185 0 4.815-1.954 4.815-5.084V36.21h-1.074v7.776c0 2.561-1.315 4.116-3.74 4.116-2.426 0-3.74-1.555-3.74-4.116V36.21h-1.075v7.795c0 3.111 1.648 5.084 4.814 5.084zM187.627 48.86V37.935l7.777 10.925h1.037V36.21h-1.055v10.773l-7.74-10.773h-1.074V48.86zM204.146 36.209c3.833 0 6.24 2.864 6.24 6.335 0 3.509-2.407 6.316-6.24 6.316h-3.944V36.21zm0 .986h-2.888v10.679h2.888c3.26 0 5.13-2.371 5.13-5.33 0-2.96-1.852-5.349-5.13-5.349zM51.518 49.088c3.333 0 4.388-1.954 4.388-3.566 0-2.58-2.203-3.225-4.184-3.794-1.685-.474-3.222-.91-3.222-2.409 0-1.365 1.24-2.333 2.888-2.333 1.389 0 2.648.493 3.537 1.594l.704-.797C54.666 36.663 53.277 36 51.444 36c-2.24 0-4.055 1.309-4.055 3.376 0 2.333 2.074 2.902 4.018 3.452 1.722.475 3.388.968 3.388 2.75 0 1.082-.722 2.523-3.259 2.523-1.759 0-3.055-.891-3.85-1.84l-.686.816c.944 1.176 2.481 2.01 4.518 2.01zM62.318 48.86V37.195h4.037v-.986h-9.147v.986h4.036V48.86zM72.505 36.209L77.56 48.86h-1.185l-1.241-3.11H68.56l-1.24 3.11h-1.186L71.19 36.21h1.315zm-.667 1.062l-2.944 7.492h5.907l-2.963-7.492zM83.583 36.209c3.832 0 6.24 2.864 6.24 6.335 0 3.509-2.408 6.316-6.24 6.316h-3.944V36.21zm0 .986h-2.889v10.679h2.889c3.258 0 5.129-2.371 5.129-5.33 0-2.96-1.852-5.349-5.13-5.349zM95.861 48.86V37.195h4.037v-.986H90.75v.986h4.036V48.86z"/></g><g fill="#000"><path d="M23.954 27.497c2.149 0 3.905 1.652 4.028 3.735l.006.233V47.12c0 2.191-1.806 3.968-4.034 3.968-2.149 0-3.905-1.652-4.028-3.735l-.006-.233V31.465c0-2.191 1.806-3.968 4.034-3.968z"/><path d="M10.256 23.79L23.945 11l13.772 12.781a3.922 3.922 0 01.166 5.61c-1.47 1.532-3.888 1.658-5.513.328l-.19-.166-8.217-7.626-8.15 7.616a4.084 4.084 0 01-5.522.033l-.181-.176a3.92 3.92 0 01-.034-5.431l.18-.178z"/></g></g><path d="M298.848 22.602V11.514h2.119c.913 0 1.709.096 2.387.29.68.193 1.245.498 1.696.916.45.418.784.96 1.002 1.63.218.67.326 1.482.326 2.435 0 1.018-.13 1.893-.391 2.628-.26.733-.63 1.337-1.109 1.808a4.377 4.377 0 01-1.751 1.044c-.69.225-1.465.337-2.323.337h-1.956zm1.417-9.979v8.822h.539c.652 0 1.228-.082 1.728-.248a3.041 3.041 0 001.271-.804c.348-.37.611-.852.79-1.446.18-.596.269-1.315.269-2.162 0-.782-.086-1.438-.26-1.969-.174-.53-.428-.959-.758-1.285a2.825 2.825 0 00-1.223-.699 5.994 5.994 0 00-1.654-.209h-.702zm7.89 9.98h1.32v-7.714h-1.32v7.713zm.668-9.577c-.271 0-.489-.087-.652-.258-.163-.172-.245-.396-.245-.676 0-.267.082-.487.245-.659.163-.17.38-.256.652-.256.26 0 .473.086.636.256a.919.919 0 01.245.66c0 .279-.082.503-.245.675a.838.838 0 01-.636.258zm7.693 4.467c0 .332-.01.618-.032.858-.022.242-.044.454-.066.636h-3.993c.044.91.241 1.58.595 2.008.353.429.861.643 1.524.643a2.26 2.26 0 001.442-.498c.092-.074.16-.134.204-.177l.49.917-.246.232a2.174 2.174 0 01-.44.305c-.184.102-.413.19-.684.266a3.665 3.665 0 01-.962.113c-.489 0-.931-.082-1.328-.242a2.52 2.52 0 01-1.011-.747c-.277-.338-.492-.766-.644-1.286-.152-.52-.227-1.143-.227-1.871 0-.686.078-1.278.235-1.776.158-.498.373-.909.644-1.23a2.58 2.58 0 01.945-.714 2.884 2.884 0 011.158-.234c.75 0 1.336.234 1.76.7.424.465.636 1.165.636 2.097zm-2.477-1.736c-.467 0-.843.192-1.125.578-.282.387-.445.943-.489 1.672h2.852a1.73 1.73 0 00.025-.234 6.15 6.15 0 00.008-.329c0-.536-.108-.95-.326-1.245-.218-.294-.533-.442-.945-.442zm13.87-1.415c0 .386-.049.724-.146 1.013a2.412 2.412 0 01-.4.747c-.169.209-.365.378-.586.506a2.876 2.876 0 01-.693.29v.031c.293.055.568.156.823.306.254.15.478.337.668.563.19.225.343.49.456.795.114.305.171.64.171 1.005 0 .439-.076.84-.228 1.204-.152.365-.388.681-.708.948-.32.269-.726.477-1.215.627-.49.151-1.07.225-1.744.225h-2.298V11.514h2.168c.663 0 1.23.068 1.702.202.473.133.862.324 1.166.57.304.247.525.544.66.892.136.349.204.736.204 1.164zm-1.434.049a1.63 1.63 0 00-.554-1.27c-.37-.332-.951-.498-1.744-.498h-.75v3.824h.734c.76 0 1.336-.182 1.727-.545.391-.365.587-.868.587-1.511zm.211 5.11c0-.6-.198-1.074-.594-1.422-.397-.349-.964-.523-1.704-.523h-.962v3.89h.881c.837 0 1.442-.164 1.818-.491.375-.327.561-.812.561-1.454zm8.281-2.008c0 .332-.01.618-.033.858-.022.242-.044.454-.065.636h-3.993c.042.91.241 1.58.594 2.008.354.429.862.643 1.525.643a2.26 2.26 0 001.442-.498c.092-.074.16-.134.204-.177l.488.917a14.19 14.19 0 01-.244.232 2.174 2.174 0 01-.44.305c-.185.102-.413.19-.684.266a3.672 3.672 0 01-.962.113c-.489 0-.931-.082-1.329-.242a2.51 2.51 0 01-1.01-.747c-.277-.338-.492-.766-.644-1.286-.152-.52-.229-1.143-.229-1.871 0-.686.08-1.278.237-1.776.158-.498.373-.909.644-1.23.271-.321.586-.56.945-.714a2.884 2.884 0 011.157-.234c.75 0 1.337.234 1.76.7.425.465.637 1.165.637 2.097zm-2.478-1.736c-.467 0-.842.192-1.124.578-.284.387-.447.943-.489 1.672h2.852a1.73 1.73 0 00.024-.234 6.15 6.15 0 00.009-.329c0-.536-.109-.95-.326-1.245-.218-.294-.533-.442-.946-.442zm3.78 4.885c0-.45.088-.825.262-1.125.174-.3.407-.543.702-.73a3.024 3.024 0 011.034-.403c.397-.08.817-.12 1.264-.12h.407v-.739c0-.654-.117-1.103-.35-1.35-.234-.246-.563-.37-.987-.37-.39 0-.716.083-.978.25a5.95 5.95 0 00-.62.441l-.554-.868c.088-.085.199-.181.334-.29.137-.106.302-.209.498-.304a3.39 3.39 0 011.516-.338c.804 0 1.412.22 1.826.659.412.439.619 1.146.619 2.121v3.52c0 .332.01.656.032.972.022.316.044.528.065.634h-1.255l-.05-.852h-.03c-.044.098-.11.207-.196.33a1.62 1.62 0 01-.326.337c-.13.102-.288.19-.473.266a1.745 1.745 0 01-.652.113c-.293 0-.568-.055-.823-.161a2.003 2.003 0 01-1.108-1.133 2.312 2.312 0 01-.156-.86zm2.365 1.045c.185 0 .348-.027.489-.081.14-.053.263-.118.367-.193a1.26 1.26 0 00.26-.249c.071-.09.133-.169.188-.233v-1.703l-.424.016c-.63.022-1.109.128-1.435.321-.326.194-.489.504-.489.932 0 .397.093.694.278.893.185.197.44.297.766.297zm10.072.915h-1.205v-.868h-.033a2.095 2.095 0 01-.627.635 2.788 2.788 0 01-.612.298 2.36 2.36 0 01-.799.129c-.348 0-.66-.052-.937-.153a1.726 1.726 0 01-.71-.49 2.284 2.284 0 01-.447-.877c-.103-.358-.155-.8-.155-1.326v-5.06h1.32v4.964c0 .643.106 1.101.318 1.375.212.273.541.41.986.41.381 0 .702-.094.962-.282.261-.187.467-.372.619-.555V14.89h1.32v7.713zm5.315-6.653h-1.599v6.653h-1.319V15.95h-.946v-.867l.946-.177v-1.542c0-.418.06-.778.178-1.077.12-.3.278-.546.473-.74.196-.192.424-.331.685-.418a2.67 2.67 0 01.831-.128c.284 0 .522.038.718.113.196.075.326.134.39.176l-.277 1.078a1.604 1.604 0 00-.276-.138 1.204 1.204 0 00-.441-.072c-.315 0-.554.096-.717.29-.163.192-.245.546-.245 1.06v1.382h1.762l-.163 1.06zm4.644 0h-1.71v4.275c0 .546.07.919.21 1.117.141.199.381.297.718.297.196 0 .364-.027.505-.08.141-.053.244-.102.31-.145l.18 1.045c-.055.043-.186.11-.392.201-.207.09-.484.137-.832.137-.674 0-1.178-.185-1.515-.555-.337-.37-.505-.984-.505-1.84V15.95h-.945v-.867l.945-.193.147-2.154h1.173v2.154h1.874l-.163 1.06zm4.94.081a.968.968 0 00-.213-.08 1.65 1.65 0 00-.44-.048c-.414 0-.737.11-.97.33-.234.218-.4.457-.497.714v5.656h-1.32V14.89h1.207v1.045h.031c.055-.151.125-.298.212-.443a1.6 1.6 0 01.326-.385c.13-.113.285-.2.465-.266.18-.063.394-.095.643-.095a1.7 1.7 0 01.45.048c.113.031.202.058.268.08l-.163 1.157zm.765 4.612c0-.45.087-.825.26-1.125.174-.3.408-.543.701-.73a3.02 3.02 0 011.036-.403c.396-.08.817-.12 1.263-.12h.408v-.739c0-.654-.118-1.103-.351-1.35-.234-.246-.563-.37-.986-.37-.392 0-.718.083-.978.25a5.804 5.804 0 00-.62.441l-.554-.868c.088-.085.199-.181.334-.29.136-.106.302-.209.498-.304a3.433 3.433 0 011.516-.338c.804 0 1.412.22 1.824.659.414.439.62 1.146.62 2.121v3.52c0 .332.01.656.032.972.022.316.044.528.066.634h-1.255l-.05-.852h-.032a1.893 1.893 0 01-.196.33 1.553 1.553 0 01-.326.337c-.13.102-.287.19-.472.266a1.74 1.74 0 01-.652.113c-.293 0-.567-.055-.823-.161a2.007 2.007 0 01-1.108-1.133 2.34 2.34 0 01-.155-.86zm2.364 1.045c.183 0 .346-.027.489-.081.14-.053.263-.118.365-.193.105-.075.19-.158.262-.249.07-.09.133-.169.188-.233v-1.703l-.425.016c-.63.022-1.108.128-1.434.321-.326.194-.489.504-.489.932 0 .397.092.694.277.893.185.197.44.297.767.297zm10.202-5.785h-.978c.251.406.376.867.376 1.381 0 .408-.069.774-.204 1.1a2.312 2.312 0 01-.57.829 2.487 2.487 0 01-.864.514 3.175 3.175 0 01-1.069.177h-.21c-.066 0-.138-.005-.213-.016-.13.054-.266.139-.408.256a.58.58 0 00-.211.466c0 .161.062.293.188.395.124.1.327.152.61.152h.995c.368 0 .71.038 1.026.112.315.076.59.196.823.362.234.166.416.378.546.635.13.256.196.568.196.932 0 .418-.09.798-.268 1.14-.18.344-.433.638-.759.885a3.711 3.711 0 01-1.19.578c-.467.14-.99.21-1.564.21-.837 0-1.473-.18-1.907-.54-.436-.359-.652-.874-.652-1.55 0-.289.05-.538.155-.746a2.303 2.303 0 01.798-.917c.147-.09.263-.164.351-.216v-.033c-.337-.247-.505-.605-.505-1.077 0-.203.04-.38.121-.53.083-.15.174-.274.277-.37.104-.096.207-.174.311-.233a2.12 2.12 0 01.236-.12v-.033a2.192 2.192 0 01-.97-.859c-.244-.391-.367-.892-.367-1.503 0-.428.071-.806.212-1.133.141-.326.332-.597.57-.811.24-.214.52-.376.84-.482.32-.107.665-.161 1.035-.161.37 0 .716.065 1.044.193h2.379l-.18 1.013zm-3.635 6.46c-.227 0-.428-.016-.602-.049a1.887 1.887 0 00-.285.194 1.36 1.36 0 00-.441.65 1.607 1.607 0 00-.073.505c0 .826.462 1.239 1.385 1.239.794 0 1.38-.153 1.761-.458.38-.305.57-.656.57-1.053 0-.376-.12-.64-.359-.796-.238-.155-.559-.232-.961-.232h-.995zm1.745-5.079c0-.556-.134-.953-.4-1.19a1.369 1.369 0 00-.937-.352c-.38 0-.706.118-.977.353-.272.236-.409.633-.409 1.19 0 .557.137.953.409 1.189a1.4 1.4 0 00.945.352c.38 0 .704-.117.97-.352.265-.236.4-.632.4-1.19zm6.73-1.334h-1.71v4.275c0 .546.07.919.212 1.117.141.199.38.297.717.297.196 0 .364-.027.505-.08.141-.053.245-.102.31-.145l.18 1.045c-.056.043-.186.11-.393.201-.205.09-.483.137-.831.137-.673 0-1.178-.185-1.515-.555-.337-.37-.505-.984-.505-1.84V15.95h-.945v-.867l.945-.193.146-2.154h1.174v2.154h1.874l-.163 1.06zm6.407 1.544c0 .332-.011.618-.033.858-.022.242-.043.454-.065.636h-3.994c.044.91.243 1.58.596 2.008.352.429.86.643 1.523.643a2.252 2.252 0 001.1-.273c.136-.075.25-.15.343-.225.093-.074.16-.134.204-.177l.489.917-.244.232c-.11.102-.256.204-.441.305-.185.102-.412.19-.685.266a3.665 3.665 0 01-.962.113 3.5 3.5 0 01-1.327-.242 2.501 2.501 0 01-1.01-.747c-.279-.338-.492-.766-.644-1.286-.152-.52-.229-1.143-.229-1.871 0-.686.08-1.278.237-1.776.157-.498.371-.909.644-1.23.27-.321.586-.56.945-.714a2.88 2.88 0 011.157-.234c.75 0 1.337.234 1.76.7.423.465.636 1.165.636 2.097zm-2.478-1.736c-.467 0-.842.192-1.125.578-.282.387-.445.943-.489 1.672h2.854c.01-.054.019-.132.023-.234a6.15 6.15 0 00.008-.329c0-.536-.108-.95-.326-1.245-.216-.294-.531-.442-.945-.442zm7.334 3.1c0-.781.105-1.435.31-1.96.207-.524.473-.948.799-1.27a2.785 2.785 0 011.109-.681 3.96 3.96 0 011.238-.201c.25 0 .467.018.652.056.185.037.337.083.456.137v-3.696l1.32-.145v11.505h-1.205v-.82h-.033a1.88 1.88 0 01-.538.603c-.152.113-.342.21-.571.29-.227.08-.493.12-.799.12-.368 0-.719-.072-1.05-.217a2.27 2.27 0 01-.873-.691c-.249-.316-.447-.723-.594-1.221-.147-.498-.22-1.1-.22-1.808zm3.097 2.781a1.8 1.8 0 00.555-.08 1.748 1.748 0 00.725-.45 1.7 1.7 0 00.187-.225v-4.757a1.955 1.955 0 00-.415-.192 1.862 1.862 0 00-.596-.08 2.38 2.38 0 00-.854.152c-.267.101-.497.27-.693.506-.196.235-.351.542-.465.916-.115.375-.17.836-.17 1.383 0 .534.044.981.137 1.34.092.36.221.649.384.869.163.22.347.377.553.474.207.096.425.144.652.144zm9.829-4.145c0 .332-.011.618-.033.858-.022.242-.044.454-.064.636h-3.994c.044.91.242 1.58.594 2.008.354.429.862.643 1.525.643a2.252 2.252 0 001.1-.273 2.686 2.686 0 00.546-.402l.489.917-.245.232a2.174 2.174 0 01-.44.305c-.185.102-.412.19-.685.266a3.665 3.665 0 01-.961.113c-.49 0-.932-.082-1.329-.242a2.506 2.506 0 01-1.01-.747c-.277-.338-.49-.766-.643-1.286-.153-.52-.229-1.143-.229-1.871 0-.686.078-1.278.237-1.776.158-.498.371-.909.644-1.23.271-.321.586-.56.945-.714a2.875 2.875 0 011.157-.234c.75 0 1.336.234 1.76.7.424.465.636 1.165.636 2.097zm-2.478-1.736c-.467 0-.842.192-1.124.578-.282.387-.445.943-.49 1.672h2.852a1.73 1.73 0 00.025-.234 6.15 6.15 0 00.008-.329c0-.536-.108-.95-.326-1.245-.216-.294-.531-.442-.945-.442zm7.677.273a.94.94 0 00-.212-.08 1.65 1.65 0 00-.44-.048c-.413 0-.735.11-.97.33-.234.218-.4.457-.497.714v5.656h-1.32V14.89h1.207v1.045h.033c.053-.151.124-.298.21-.443a1.6 1.6 0 01.326-.385c.13-.113.285-.2.465-.266.18-.063.394-.095.644-.095a1.7 1.7 0 01.449.048c.113.031.202.058.268.08l-.163 1.157zm10.562-1.688c0 .386-.05.724-.147 1.013a2.41 2.41 0 01-.398.747c-.169.209-.365.378-.588.506a2.831 2.831 0 01-.693.29v.031a2.56 2.56 0 011.492.868c.19.226.342.491.457.796.114.305.17.64.17 1.005 0 .439-.076.84-.228 1.204-.152.365-.389.681-.709.948-.32.269-.725.477-1.214.627-.489.151-1.07.225-1.745.225h-2.298V11.514h2.168c.663 0 1.232.068 1.704.202.473.133.86.324 1.164.57.306.247.525.544.662.892.136.349.203.736.203 1.164zm-1.434.049a1.63 1.63 0 00-.555-1.27c-.368-.332-.95-.498-1.744-.498h-.749v3.824h.733c.761 0 1.337-.182 1.728-.545.39-.365.587-.868.587-1.511zm.212 5.11c0-.6-.199-1.074-.596-1.422-.396-.349-.964-.523-1.702-.523h-.962v3.89h.88c.836 0 1.442-.164 1.817-.491.375-.327.563-.812.563-1.454zm8.736 3.101h-1.206v-.868h-.033a1.637 1.637 0 01-.212.282c-.108.123-.248.24-.415.353a2.788 2.788 0 01-.612.298 2.366 2.366 0 01-.799.129c-.347 0-.66-.052-.936-.153a1.726 1.726 0 01-.71-.49 2.284 2.284 0 01-.448-.877c-.102-.358-.155-.8-.155-1.326v-5.06h1.32v4.964c0 .643.106 1.101.319 1.375.212.273.54.41.986.41.38 0 .701-.094.961-.282.26-.187.467-.372.62-.555V14.89h1.32v7.713zm6.292 0v-4.965c0-.653-.112-1.122-.334-1.406-.224-.285-.563-.426-1.02-.426-.391 0-.717.097-.977.289-.262.193-.467.38-.62.563v5.945h-1.32V14.89h1.206v.868h.032a2.01 2.01 0 01.636-.635c.174-.113.38-.211.62-.298.239-.085.51-.128.814-.128.348 0 .663.051.946.153.283.102.52.266.717.49.196.225.348.517.456.876.11.36.163.8.163 1.326v5.061h-1.32zm2.934-3.744c0-.782.102-1.436.31-1.96.205-.525.472-.949.798-1.27a2.78 2.78 0 011.108-.682 3.96 3.96 0 011.238-.201c.25 0 .467.018.652.056.185.037.337.083.457.137v-3.696l1.32-.145v11.505h-1.206v-.82h-.033a1.765 1.765 0 01-.18.265 1.758 1.758 0 01-.358.338c-.152.113-.342.21-.57.29-.229.08-.494.12-.798.12-.37 0-.72-.072-1.052-.217a2.257 2.257 0 01-.871-.691c-.251-.316-.45-.723-.596-1.221-.147-.498-.22-1.1-.22-1.808zm3.097 2.78c.205 0 .39-.027.553-.08a1.748 1.748 0 00.726-.45c.08-.086.144-.161.187-.225v-4.757a2 2 0 00-.416-.192 1.859 1.859 0 00-.594-.08c-.304 0-.59.05-.856.152-.266.101-.498.27-.693.506-.196.235-.351.542-.465.916-.113.375-.171.836-.171 1.383 0 .534.047.981.138 1.34.093.36.22.649.384.869.163.22.348.377.555.474.205.096.423.144.652.144zm9.827-4.145c0 .332-.011.618-.033.858-.02.242-.042.454-.064.636h-3.994c.043.91.242 1.58.595 2.008.354.429.86.643 1.524.643a2.245 2.245 0 001.1-.273 2.394 2.394 0 00.546-.402l.489.917-.244.232c-.11.102-.256.204-.441.305a3.24 3.24 0 01-.683.266 3.68 3.68 0 01-.962.113c-.49 0-.933-.082-1.329-.242a2.501 2.501 0 01-1.01-.747c-.277-.338-.492-.766-.644-1.286-.152-.52-.229-1.143-.229-1.871 0-.686.08-1.278.237-1.776.158-.498.371-.909.644-1.23.271-.321.586-.56.945-.714a2.88 2.88 0 011.157-.234c.75 0 1.337.234 1.76.7.425.465.636 1.165.636 2.097zm-2.478-1.736c-.467 0-.84.192-1.124.578-.283.387-.446.943-.49 1.672h2.854a1.73 1.73 0 00.024-.234 6.15 6.15 0 00.009-.329c0-.536-.11-.95-.326-1.245-.218-.294-.533-.442-.947-.442zm7.613.69a3.447 3.447 0 00-.473-.393c-.229-.166-.527-.25-.897-.25-.348 0-.614.082-.798.242a.74.74 0 00-.277.578c0 .29.083.528.252.716.168.188.426.388.774.602l.489.29c.533.31.952.645 1.256 1.004.304.36.456.822.456 1.39 0 .611-.215 1.124-.644 1.543-.43.417-1.046.627-1.85.627-.315 0-.592-.033-.832-.098a3.68 3.68 0 01-.627-.224 2.09 2.09 0 01-.448-.28 2.932 2.932 0 01-.293-.283l.635-1.028c.065.064.144.14.236.225a2.123 2.123 0 00.775.451c.163.052.352.08.57.08.392 0 .69-.086.897-.257a.79.79 0 00.31-.627c0-.182-.025-.34-.074-.475a1.067 1.067 0 00-.22-.36 2.016 2.016 0 00-.358-.306 15.91 15.91 0 00-.49-.321l-.488-.306c-.49-.311-.873-.637-1.15-.98-.276-.343-.416-.782-.416-1.318 0-.289.058-.555.172-.795a1.89 1.89 0 01.48-.627c.207-.177.45-.316.726-.418.277-.102.573-.153.888-.153.304 0 .565.03.783.09a2.35 2.35 0 01.953.496c.103.092.188.169.252.234l-.57.931zm5.769-.417a.948.948 0 00-.211-.08 1.668 1.668 0 00-.441-.048c-.412 0-.736.11-.97.33a1.938 1.938 0 00-.497.714v5.656h-1.32V14.89h1.206v1.045h.033c.053-.151.125-.298.212-.443.087-.144.195-.272.325-.385.131-.113.286-.2.466-.266.18-.063.393-.095.643-.095.185 0 .335.016.448.048.114.031.204.058.269.08l-.163 1.157zm6.129 1.463c0 .332-.011.618-.033.858-.022.242-.044.454-.066.636h-3.992c.042.91.24 1.58.594 2.008.354.429.862.643 1.525.643a2.26 2.26 0 001.442-.498c.092-.074.16-.134.204-.177l.489.917-.245.232a2.174 2.174 0 01-.44.305c-.185.102-.414.19-.685.266a3.665 3.665 0 01-.961.113c-.49 0-.932-.082-1.329-.242a2.52 2.52 0 01-1.01-.747c-.277-.338-.492-.766-.644-1.286-.152-.52-.228-1.143-.228-1.871 0-.686.078-1.278.236-1.776.157-.498.372-.909.644-1.23.272-.321.587-.56.946-.714a2.873 2.873 0 011.156-.234c.75 0 1.337.234 1.761.7.424.465.636 1.165.636 2.097zm-2.478-1.736c-.467 0-.842.192-1.124.578-.284.387-.447.943-.49 1.672h2.852a1.73 1.73 0 00.025-.234 6.15 6.15 0 00.008-.329c0-.536-.108-.95-.326-1.245-.217-.294-.532-.442-.945-.442zm9.844.145h-.977c.25.406.374.867.374 1.381 0 .408-.067.774-.202 1.1a2.332 2.332 0 01-.571.829 2.475 2.475 0 01-.865.514 3.173 3.173 0 01-1.067.177h-.212a1.52 1.52 0 01-.212-.016c-.13.054-.266.139-.407.256a.58.58 0 00-.212.466c0 .161.063.293.187.395.125.1.329.152.611.152h.994c.37 0 .713.038 1.028.112.315.076.589.196.823.362.233.166.415.378.546.635.13.256.195.568.195.932 0 .418-.09.798-.269 1.14-.179.344-.431.638-.757.885a3.725 3.725 0 01-1.19.578c-.467.14-.99.21-1.566.21-.835 0-1.472-.18-1.906-.54-.435-.359-.652-.874-.652-1.55 0-.289.052-.538.154-.746.105-.21.226-.392.368-.547.14-.156.284-.278.431-.37l.35-.216v-.033c-.336-.247-.505-.605-.505-1.077 0-.203.041-.38.124-.53.08-.15.172-.274.276-.37.103-.096.207-.174.31-.233.102-.058.182-.099.235-.12v-.033a2.196 2.196 0 01-.968-.859c-.245-.391-.367-.892-.367-1.503 0-.428.07-.806.21-1.133.143-.326.332-.597.572-.811.238-.214.52-.376.84-.482.32-.107.665-.161 1.034-.161.37 0 .717.065 1.043.193h2.38l-.18 1.013zm-3.634 6.46c-.228 0-.43-.016-.602-.049a1.898 1.898 0 00-.287.194 1.421 1.421 0 00-.44.65c-.049.145-.073.314-.073.505 0 .826.463 1.239 1.386 1.239.793 0 1.38-.153 1.76-.458.38-.305.571-.656.571-1.053 0-.376-.12-.64-.359-.796-.24-.155-.56-.232-.961-.232h-.995zm1.744-5.079c0-.556-.133-.953-.399-1.19a1.375 1.375 0 00-.938-.352c-.38 0-.705.118-.978.353-.271.236-.407.633-.407 1.19 0 .557.136.953.407 1.189.273.235.588.352.947.352.379 0 .702-.117.97-.352.265-.236.398-.632.398-1.19zm3.39 5.32h1.32v-7.714h-1.32v7.713zm.668-9.577c-.271 0-.489-.087-.652-.258-.163-.172-.244-.396-.244-.676 0-.267.081-.487.244-.659.163-.17.381-.256.652-.256a.84.84 0 01.636.256.919.919 0 01.245.66c0 .279-.082.503-.245.675a.836.836 0 01-.636.258zm7.694 4.467c0 .332-.011.618-.033.858-.022.242-.044.454-.065.636h-3.994c.044.91.243 1.58.595 2.008.353.429.861.643 1.524.643a2.252 2.252 0 001.1-.273c.137-.075.25-.15.343-.225.093-.074.16-.134.204-.177l.489.917c-.055.053-.136.13-.246.232a2.174 2.174 0 01-.44.305c-.184.102-.412.19-.684.266a3.665 3.665 0 01-.962.113c-.489 0-.931-.082-1.328-.242a2.506 2.506 0 01-1.01-.747c-.278-.338-.491-.766-.643-1.286-.154-.52-.23-1.143-.23-1.871 0-.686.079-1.278.238-1.776.157-.498.371-.909.644-1.23.27-.321.586-.56.945-.714a2.88 2.88 0 011.157-.234c.75 0 1.337.234 1.76.7.423.465.636 1.165.636 2.097zm-2.478-1.736c-.467 0-.842.192-1.125.578-.282.387-.445.943-.489 1.672h2.853a1.73 1.73 0 00.025-.234c.004-.1.007-.212.007-.329 0-.536-.108-.95-.326-1.245-.216-.294-.531-.442-.945-.442zm7.677.273a.94.94 0 00-.212-.08 1.65 1.65 0 00-.44-.048c-.412 0-.736.11-.97.33-.233.218-.4.457-.497.714v5.656h-1.32V14.89h1.206v1.045h.033c.054-.151.125-.298.211-.443a1.6 1.6 0 01.326-.385c.13-.113.286-.2.464-.266.18-.063.395-.095.644-.095.185 0 .336.016.45.048.113.031.203.058.268.08l-.163 1.157zm6.78 6.572h-1.206v-.868h-.033a2.094 2.094 0 01-.627.635 2.807 2.807 0 01-.61.298c-.24.085-.506.129-.8.129-.347 0-.66-.052-.937-.153a1.722 1.722 0 01-.709-.49 2.265 2.265 0 01-.447-.877c-.105-.358-.157-.8-.157-1.326v-5.06h1.32v4.964c0 .643.108 1.101.319 1.375.212.273.54.41.986.41.38 0 .701-.094.961-.282.262-.187.467-.372.62-.555V14.89h1.32v7.713zm6.292 0v-4.965c0-.653-.111-1.122-.334-1.406-.224-.285-.563-.426-1.02-.426-.39 0-.716.097-.977.289-.26.193-.467.38-.62.563v5.945h-1.32V14.89h1.207v.868h.031a2.02 2.02 0 01.637-.635 2.98 2.98 0 01.62-.298 2.42 2.42 0 01.814-.128c.348 0 .663.051.945.153.283.102.522.266.718.49.195.225.348.517.456.876.108.36.163.8.163 1.326v5.061h-1.32zm8.899-6.7h-.978c.25.406.375.867.375 1.381 0 .408-.069.774-.204 1.1a2.312 2.312 0 01-.57.829 2.487 2.487 0 01-.864.514 3.173 3.173 0 01-1.067.177h-.212a1.52 1.52 0 01-.213-.016c-.13.054-.265.139-.407.256a.58.58 0 00-.212.466c0 .161.063.293.188.395.124.1.329.152.61.152h.995c.37 0 .712.038 1.027.112.315.076.59.196.823.362.233.166.415.378.546.635.13.256.195.568.195.932 0 .418-.089.798-.268 1.14-.18.344-.433.638-.759.885a3.717 3.717 0 01-1.189.578c-.467.14-.989.21-1.565.21-.837 0-1.473-.18-1.907-.54-.434-.359-.652-.874-.652-1.55 0-.289.052-.538.155-.746.103-.21.226-.392.367-.547.141-.156.285-.278.432-.37l.35-.216v-.033c-.337-.247-.505-.605-.505-1.077 0-.203.04-.38.122-.53.082-.15.174-.274.278-.37.102-.096.205-.174.31-.233.102-.058.181-.099.235-.12v-.033a2.206 2.206 0 01-.97-.859c-.244-.391-.367-.892-.367-1.503 0-.428.071-.806.212-1.133.141-.326.332-.597.572-.811.238-.214.519-.376.84-.482.32-.107.665-.161 1.033-.161.37 0 .718.065 1.044.193H513l-.18 1.013zm-3.634 6.46c-.229 0-.43-.016-.604-.049a1.887 1.887 0 00-.285.194 1.421 1.421 0 00-.44.65c-.049.145-.074.314-.074.505 0 .826.462 1.239 1.386 1.239.793 0 1.38-.153 1.76-.458.381-.305.57-.656.57-1.053 0-.376-.119-.64-.357-.796-.24-.155-.56-.232-.962-.232h-.994zm1.743-5.079c0-.556-.132-.953-.4-1.19a1.369 1.369 0 00-.936-.352c-.381 0-.707.118-.978.353-.271.236-.407.633-.407 1.19 0 .557.136.953.407 1.189.27.235.587.352.945.352.38 0 .704-.117.97-.352.267-.236.4-.632.4-1.19zm-209.066 14.87h-1.599v6.654h-1.319v-6.653H298v-.867l.946-.177v-1.542c0-.419.06-.778.178-1.078.121-.3.279-.546.473-.739.196-.193.425-.332.685-.418a2.67 2.67 0 01.831-.129c.282 0 .522.038.718.114.196.074.326.134.39.175l-.276 1.078a1.604 1.604 0 00-.277-.138 1.206 1.206 0 00-.44-.071c-.316 0-.554.096-.717.289-.163.193-.246.547-.246 1.061v1.382h1.762l-.163 1.06zm6.78 6.654h-1.207v-.868h-.032a1.637 1.637 0 01-.212.282c-.108.123-.248.24-.415.352-.17.114-.372.212-.612.299a2.366 2.366 0 01-.799.128c-.347 0-.66-.051-.936-.153a1.726 1.726 0 01-.71-.49 2.265 2.265 0 01-.448-.876c-.103-.36-.155-.8-.155-1.326v-5.061h1.32v4.965c0 .643.106 1.1.319 1.375.212.272.54.409.986.409.38 0 .7-.093.961-.281.26-.188.467-.373.62-.555v-5.913h1.32v7.713zm-3.244-9.93a.798.798 0 01-.228.593.76.76 0 01-.554.226.761.761 0 01-.555-.226.798.798 0 01-.228-.594c0-.247.076-.444.228-.595a.76.76 0 01.555-.224.76.76 0 01.554.224.801.801 0 01.228.595zm2.51 0a.798.798 0 01-.228.593.761.761 0 01-.555.226.76.76 0 01-.553-.226.798.798 0 01-.229-.594c0-.247.077-.444.23-.595a.76.76 0 01.552-.224.76.76 0 01.555.224.801.801 0 01.229.595zm6.194 3.358a.968.968 0 00-.212-.081 1.664 1.664 0 00-.44-.048c-.413 0-.736.11-.97.33-.233.219-.4.458-.496.714v5.657h-1.32v-7.713h1.205v1.045h.032c.055-.151.125-.299.213-.443a1.57 1.57 0 01.326-.385c.13-.113.285-.201.464-.266.18-.064.393-.096.644-.096.185 0 .334.016.448.049.115.03.204.058.27.08l-.164 1.157zm8.117.899l3.813 5.673h-1.743l-3.26-5.046h-.848v5.046h-1.418V27.719h1.418v4.933h.864l3.146-4.933h1.581l-3.553 5.415zm10.22 5.673h-1.208v-.868h-.031a1.637 1.637 0 01-.212.282c-.109.123-.248.24-.415.352-.17.114-.373.212-.613.299a2.366 2.366 0 01-.798.128c-.348 0-.66-.051-.937-.153a1.726 1.726 0 01-.71-.49 2.265 2.265 0 01-.447-.876c-.103-.36-.155-.8-.155-1.326v-5.061h1.32v4.965c0 .643.106 1.1.318 1.375.212.272.54.409.986.409.381 0 .701-.093.962-.281.26-.188.467-.373.619-.555v-5.913h1.32v7.713zm3.325-1.8c0 .321.045.547.138.675.092.128.252.193.48.193.12 0 .221-.01.302-.032.082-.022.144-.043.188-.065l.113.964a2.738 2.738 0 01-.358.13 2.49 2.49 0 01-.7.08c-.447 0-.804-.134-1.077-.402-.271-.268-.407-.745-.407-1.431v-9.673l1.32-.144v9.705zm5.752-4.853h-1.71v4.275c0 .545.07.918.21 1.117.143.198.381.297.718.297.196 0 .365-.027.506-.08.14-.054.245-.103.31-.146l.179 1.045c-.055.044-.185.11-.392.202-.206.09-.484.136-.832.136-.672 0-1.177-.185-1.514-.555-.337-.369-.506-.983-.506-1.84v-4.451h-.945v-.867l.945-.193.147-2.154h1.174v2.154h1.873l-.163 1.06zm6.976 6.653h-1.205v-.868h-.033a2.094 2.094 0 01-.627.635 2.806 2.806 0 01-.611.298c-.24.085-.506.128-.799.128-.348 0-.66-.051-.938-.153a1.722 1.722 0 01-.708-.49 2.265 2.265 0 01-.448-.876c-.104-.36-.156-.8-.156-1.326v-5.061h1.32v4.965c0 .643.107 1.1.318 1.375.212.272.54.409.986.409.38 0 .701-.093.962-.281a3.34 3.34 0 00.62-.555v-5.913h1.319v7.713zm5.46-6.572a.94.94 0 00-.211-.081 1.65 1.65 0 00-.44-.048c-.412 0-.736.11-.97.33-.234.219-.4.458-.497.714v5.657h-1.32v-7.713h1.206v1.045h.032c.055-.151.126-.299.212-.443a1.6 1.6 0 01.326-.385c.13-.113.285-.201.464-.266.18-.064.395-.096.644-.096a1.7 1.7 0 01.45.049c.113.03.202.058.268.08l-.163 1.157zm9.862 6.572h-1.206v-.868h-.033a2.094 2.094 0 01-.627.635 2.807 2.807 0 01-.611.298c-.24.085-.506.128-.799.128-.348 0-.66-.051-.938-.153a1.722 1.722 0 01-.708-.49 2.265 2.265 0 01-.448-.876c-.104-.36-.156-.8-.156-1.326v-5.061h1.32v4.965c0 .643.107 1.1.318 1.375.212.272.54.409.986.409.38 0 .701-.093.962-.281a3.34 3.34 0 00.62-.555v-5.913h1.32v7.713zm6.291 0v-4.965c0-.654-.11-1.123-.334-1.406-.223-.285-.563-.427-1.019-.427-.39 0-.716.097-.978.29-.26.192-.467.38-.619.562v5.946h-1.32v-7.713h1.206v.868h.033c.032-.065.103-.158.211-.282.11-.123.25-.24.425-.353.172-.113.38-.212.619-.298a2.42 2.42 0 01.815-.129c.348 0 .663.052.945.153.282.103.522.266.718.49.194.226.347.517.456.877.108.359.163.8.163 1.326v5.06h-1.32zm2.934-3.745c0-.782.103-1.435.31-1.96.206-.524.472-.948.798-1.27a2.79 2.79 0 011.108-.682 3.968 3.968 0 011.24-.2c.249 0 .467.018.652.056.185.036.337.082.456.136v-3.696l1.32-.144v11.505h-1.207v-.82h-.032a1.664 1.664 0 01-.18.265 1.747 1.747 0 01-.357.337c-.152.114-.343.21-.571.29-.228.08-.495.121-.799.121-.37 0-.72-.073-1.05-.217a2.26 2.26 0 01-.873-.692c-.25-.316-.448-.722-.594-1.22-.147-.499-.22-1.101-.22-1.809zm3.097 2.78a1.734 1.734 0 001.28-.53c.081-.085.143-.16.187-.224V32.33a1.936 1.936 0 00-.417-.192 1.853 1.853 0 00-.594-.081c-.304 0-.589.051-.856.152a1.65 1.65 0 00-.692.507c-.196.235-.35.541-.464.915-.115.376-.173.836-.173 1.383 0 .535.047.983.14 1.341.092.36.22.648.382.868.163.219.348.377.555.474.207.096.423.145.652.145zM394.05 27.72v11.088h-1.37v-5.27-.981c0-.321.003-.621.009-.9.005-.279.014-.525.025-.74.01-.214.021-.379.032-.498h-.049c-.053.247-.166.646-.334 1.198-.169.551-.36 1.144-.578 1.776l-1.859 5.415h-1.124l-1.857-5.415a53.413 53.413 0 01-.58-1.776c-.168-.552-.28-.95-.334-1.198h-.048a22.264 22.264 0 01.056 1.245c.006.275.008.572.008.893v6.25h-1.368V27.72h1.58l2.656 7.648c.121.354.226.7.32 1.038.091.337.149.629.17.876h.032c.011-.247.063-.536.155-.868.093-.333.199-.676.318-1.03l2.657-7.664h1.483zm7.254 5.978c0 .332-.01.619-.033.859-.022.242-.044.454-.066.636h-3.992c.042.91.24 1.58.594 2.008.354.428.862.643 1.525.643a2.26 2.26 0 001.442-.499c.092-.074.16-.133.203-.176l.49.916-.245.233a2.174 2.174 0 01-.44.305c-.185.101-.413.19-.685.266a3.672 3.672 0 01-.961.112c-.49 0-.933-.081-1.329-.242a2.51 2.51 0 01-1.01-.746c-.277-.338-.492-.766-.644-1.286-.152-.52-.229-1.144-.229-1.872 0-.686.08-1.277.237-1.775.157-.499.373-.91.644-1.23.27-.322.586-.56.945-.715a2.884 2.884 0 011.157-.234c.75 0 1.337.234 1.76.7.425.466.637 1.165.637 2.097zm-2.478-1.735c-.467 0-.842.192-1.124.578-.284.386-.447.942-.49 1.672h2.852a1.73 1.73 0 00.025-.234 6.15 6.15 0 00.008-.33c0-.536-.108-.95-.326-1.245-.217-.294-.532-.441-.945-.441zm3.88 3.1c0-.782.102-1.435.309-1.96.207-.524.472-.948.798-1.27a2.79 2.79 0 011.108-.682 3.968 3.968 0 011.24-.2c.25 0 .467.018.652.056.185.036.337.082.456.136v-3.696l1.32-.144v11.505h-1.206v-.82h-.033a1.664 1.664 0 01-.18.265 1.747 1.747 0 01-.357.337c-.152.114-.343.21-.571.29-.228.08-.495.121-.799.121-.37 0-.72-.073-1.05-.217a2.26 2.26 0 01-.873-.692c-.25-.316-.448-.722-.594-1.22-.148-.499-.22-1.101-.22-1.809zm3.096 2.78c.207 0 .392-.026.553-.079a1.758 1.758 0 00.914-.675V32.33a1.955 1.955 0 00-.415-.192 1.868 1.868 0 00-.596-.081c-.304 0-.589.051-.856.152a1.65 1.65 0 00-.692.507c-.195.235-.35.541-.465.915-.114.376-.17.836-.17 1.383 0 .535.045.983.138 1.341.092.36.22.648.382.868.163.219.348.377.555.474.207.096.423.145.652.145zm4.808.965h1.32v-7.713h-1.32v7.713zm.668-9.577c-.271 0-.489-.086-.652-.258-.163-.171-.244-.396-.244-.675 0-.267.081-.488.244-.659.163-.17.38-.257.652-.257a.84.84 0 01.635.257.919.919 0 01.246.659c0 .28-.083.504-.246.675a.836.836 0 01-.635.258zm7.693 4.467c0 .332-.01.619-.033.859-.021.242-.042.454-.064.636h-3.994c.044.91.243 1.58.596 2.008.352.428.86.643 1.523.643a2.245 2.245 0 001.101-.273 2.686 2.686 0 00.545-.402l.49.916-.244.233c-.11.101-.257.204-.442.305-.184.101-.412.19-.684.266a3.665 3.665 0 01-.962.112 3.5 3.5 0 01-1.327-.242 2.501 2.501 0 01-1.01-.746c-.279-.338-.493-.766-.645-1.286-.152-.52-.228-1.144-.228-1.872 0-.686.08-1.277.237-1.775.157-.499.37-.91.643-1.23.272-.322.587-.56.945-.715a2.88 2.88 0 011.158-.234c.749 0 1.337.234 1.76.7.423.466.635 1.165.635 2.097zm-2.477-1.735c-.467 0-.843.192-1.125.578-.282.386-.445.942-.489 1.672h2.853a1.73 1.73 0 00.025-.234c.004-.101.007-.212.007-.33 0-.536-.109-.95-.325-1.245-.218-.294-.533-.441-.946-.441zm8.508 6.845v-4.965c0-.654-.111-1.123-.334-1.406-.224-.285-.562-.427-1.02-.427-.39 0-.716.097-.977.29-.26.192-.467.38-.62.562v5.946h-1.32v-7.713h1.207v.868h.033a1.61 1.61 0 01.21-.282c.11-.123.251-.24.425-.353a2.98 2.98 0 01.62-.298 2.42 2.42 0 01.814-.129c.348 0 .663.052.946.153.282.103.521.266.717.49.196.226.348.517.456.877.109.359.163.8.163 1.326v5.06h-1.32zM284 37h5V10h-5z" fill="#1A1919"/><path fill="#8A8B8A" d="M286.143 39H289v27h-5V39h2.143"/><path fill="#BFC0BF" d="M286.857 66H289v27h-5V66h2.857"/><path d="M271.841 19.944c1.403 2.23 2.501 2.193 4.159 2.193-1.372-1.058-2.279-2.41-2.712-3.102l-2.562-4.12a6.102 6.102 0 00-1.885-3.348c.328-.125.604-.258.768-.383-1.673 0-3.33-.854-4.243-.854-.587 0-.965.353-.965.818.038.518.57 1.047 1.553 1.047.222 0 .507-.029.819-.081.532.745.96 1.418.96 2.38 0 1.804-2.145 3.21-4.312 3.21-.123 0-.24-.006-.361-.014-.198-.448-.85-1.2-.85-2.052 0-1.434.93-2.604.93-4.026 0-.88-.427-1.428-.593-1.655.267-.248.558-.553.625-.761-.153.066-.337.075-.606.075-1.037 0-1.884-.271-2.709-.271-.47 0-.597.146-.597.285 0 .051.007.103.02.128a2.87 2.87 0 00-.535-.151 4.296 4.296 0 00-.785-.07c-1.003 0-1.36.424-1.36.784 0 .308.24.867.513 1.292.39-.197.86-.33 1.074-.33.532 0 1.006.51 1.257 1.112-.358.043-.426.06-.788.06-.977 0-1.642-.352-1.779-.352-.013 0-.04.007-.04.028 0 .14.279.503.824.702.718.265 1.796.375 1.976.405 0 .032-.182.373-.387.438a.21.21 0 01-.127.006c-.75-.15-.96-.212-1.913-.577-.03-.01-.046.008-.046.038 0 .379.975 1.215 1.85 1.534-.73.938-1.642 1.897-2.072 3.358-.122.008-.24.014-.362.014-2.166 0-4.313-1.406-4.313-3.21 0-.962.43-1.635.961-2.38.313.052.596.081.82.081.982 0 1.514-.529 1.552-1.047 0-.465-.377-.818-.964-.818-.913 0-2.57.854-4.245.854.165.125.44.258.768.383a6.12 6.12 0 00-1.885 3.348l-2.561 4.12c-.432.692-1.341 2.044-2.713 3.102 1.658 0 2.757.037 4.16-2.193l1.313-2.112c.098.274.218.54.359.803l-2.613 4.201c-.436.697-1.336 2.038-2.713 3.102 1.658 0 2.756.038 4.16-2.19l2.248-3.62c.169.181.345.357.532.526l-3.174 5.106c-.435.698-1.332 2.035-2.713 3.099 1.658 0 2.759.04 4.16-2.19l3.094-4.978c.204.129.413.254.628.373l-3.777 6.073c-.435.7-1.331 2.034-2.711 3.099 1.658 0 2.757.04 4.16-2.189L255 22.791c.23.088.464.173.7.25l-4.394 7.068c-.429.689-1.345 2.047-2.71 3.099 1.657 0 2.757.037 4.159-2.19l4.683-7.533c.048.007.095.015.141.025.128.407.217.786.217 1.166 0 2.368-1.546 4.458-3.401 6.072.119.052.325.07.516.07.383 0 .63-.02.805-.05-.43.981-1.354 2.248-1.82 2.905a13.48 13.48 0 00-2.069-.197c-.606 0-.674.357-.674.675 0 .552.256.992.556 1.237.113-.283.339-.66 1.457-.66.022 0 .06.003.112.006-.327.366-1.35 1.198-1.35 1.867 0 .443.484 1.109 1.121 1.109-.038-.144-.033-.276-.033-.374 0-.542.479-1.177.883-1.62-.013.132-.006.118-.006.272 0 1.282.115 1.872.925 1.872.398 0 .672-.22.766-.285-.526-.486-.553-.87-.553-1.588l.004-.623c.002-.165 0-.383-.028-.54.29-.04.409-.04.63-.04 0 0 1.152-.092 1.428.51.313-.288.768-.694.768-1.142 0-.296-.141-.63-.733-.63-.225 0-.93.137-1.521.137.159-.355.864-1.393 1.477-2.145.092.292.237.607.557.866.046-.485.328-2.018 1.082-2.914.087.606.205 1.227.205 2.537 0 3.185-.762 5.54-2.38 5.989.211.368.655.7 1.118.7.592 0 .914-.674 1.243-1.309.171.468.644 1.617 1.118 1.617.474 0 .947-1.149 1.118-1.617.329.635.652 1.309 1.244 1.309.462 0 .907-.332 1.118-.7-1.618-.449-2.381-2.804-2.381-5.99 0-1.309.118-1.93.205-2.536.754.896 1.04 2.43 1.082 2.914.322-.259.467-.574.559-.866.61.752 1.318 1.79 1.477 2.145-.592 0-1.298-.137-1.521-.137-.592 0-.732.334-.732.63 0 .448.454.854.766 1.142.275-.602 1.428-.51 1.428-.51.222 0 .34 0 .63.04-.027.157-.029.375-.027.54l.004.623c0 .719-.028 1.102-.554 1.588.095.066.369.285.766.285.81 0 .925-.59.925-1.872 0-.154.006-.14-.005-.273.404.444.882 1.079.882 1.621 0 .098.005.23-.034.374.638 0 1.123-.666 1.123-1.109 0-.67-1.023-1.501-1.352-1.867.053-.003.092-.006.112-.006 1.12 0 1.346.377 1.458.66.299-.245.555-.685.555-1.237 0-.318-.067-.675-.673-.675-.578 0-1.462.087-2.069.197-.467-.657-1.39-1.924-1.82-2.906.173.03.423.051.804.051.193 0 .398-.018.518-.07-1.856-1.614-3.403-3.704-3.403-6.072 0-.38.09-.759.218-1.166.045-.01.093-.018.141-.025l4.684 7.533c1.401 2.227 2.502 2.19 4.158 2.19-1.364-1.052-2.281-2.41-2.71-3.099l-4.396-7.069c.239-.076.472-.161.702-.25l3.889 6.257c1.403 2.229 2.502 2.189 4.16 2.189-1.38-1.065-2.276-2.4-2.712-3.099l-3.776-6.073c.213-.119.423-.244.626-.373l3.095 4.978c1.403 2.23 2.5 2.19 4.159 2.19-1.38-1.064-2.276-2.4-2.712-3.099l-3.173-5.106c.186-.169.364-.345.53-.525l2.25 3.619c1.403 2.228 2.502 2.19 4.16 2.19-1.379-1.064-2.278-2.405-2.713-3.102l-2.613-4.201a5.89 5.89 0 00.359-.803l1.312 2.112zm-20.972-4.838c0-1.57 1.136-2.81 1.535-3.16l.289.066c-.426.52-1.176 1.395-1.176 2.552 0 2.297 2.442 4.29 5.207 4.29a6.854 6.854 0 00-.028.617c0 .34.02.655.052.953-3.126-.02-5.88-2.57-5.88-5.318zm4.237 18.83l-.018.054h.055c.877 0 1.304-.062 1.588-.105.148-.018.255-.034.37-.034.226 0 .4.02.4.301 0 .19-.22.488-.433.661-.324-.307-.772-.367-1.43-.367-.306 0-.71.056-.924.087l-.035.004-.038.005.012.103c.026.184.058.41.058.718l-.004.278-.004.346c0 .749.103 1.176.363 1.5a.84.84 0 01-.247.045c-.463 0-.597-.204-.597-1.544 0-.27-.015-.522-.023-.69l-.014-.25-.06.046c-.687.528-1.395 1.47-1.438 2.174-.207-.134-.431-.436-.431-.667 0-.384.575-.961 1.24-1.63l.383-.385.048-.05-.124-.031a2.754 2.754 0 00-.636-.105c-.747 0-1.214.142-1.502.458-.104-.15-.19-.502-.19-.707 0-.134.026-.227.078-.28.065-.064.167-.064.256-.064h.019c.822 0 1.806.148 2.19.21l.022.006.015-.02c.067-.089 1.634-2.189 2.041-3.302a.824.824 0 01.339-.062c.31 0 .396.21.485.53-.981 1.197-1.592 2.128-1.814 2.767zm8.46-3.297c.164 0 .243.026.34.062.406 1.113 1.975 3.213 2.04 3.303l.014.019.024-.006c.385-.062 1.367-.21 2.19-.21h.019c.089 0 .19 0 .254.063.054.054.08.147.08.281 0 .205-.086.556-.19.707-.288-.316-.756-.458-1.504-.458-.224 0-.49.068-.634.105l-.06.014-.066.018.431.433c.666.67 1.242 1.247 1.242 1.631 0 .231-.225.533-.432.667-.044-.704-.75-1.646-1.44-2.174l-.059-.044-.01.248c-.01.168-.025.42-.025.69 0 1.34-.136 1.544-.598 1.544a.84.84 0 01-.246-.045c.26-.324.363-.751.363-1.5l-.004-.346-.005-.278c0-.307.032-.534.057-.718l.013-.103-.072-.01c-.217-.03-.618-.086-.925-.086-.66 0-1.106.06-1.43.367-.213-.173-.432-.472-.432-.66 0-.282.172-.302.4-.302.115 0 .222.016.37.034.283.043.71.105 1.588.105h.053l-.016-.054c-.222-.639-.833-1.57-1.813-2.767.088-.32.174-.53.482-.53zm-3.632-18.317a2.908 2.908 0 00-.57-1.142c-.24-.285-.64-.625-1.177-.625-.245 0-.656.115-.918.226-.097-.178-.289-.609-.289-.805 0-.2.337-.402.98-.402 1.414 0 2.258.643 2.258 1.72 0 .378-.15.723-.284 1.028zm.635-1.4a1.879 1.879 0 00-.342-.816c.009-.278.122-.544.57-.325-.242.248-.056.686-.056.686s.492-.23.39-.557c.732.177.206 1.164-.562 1.011zm2.751 9.502c.037-.309.059-.627.059-.953 0-.177.001-.383-.02-.617 2.73-.039 5.125-2.017 5.125-4.29 0-1.157-.75-2.032-1.174-2.552.095-.02.19-.043.286-.066.4.35 1.536 1.59 1.536 3.16 0 2.728-2.713 5.261-5.812 5.318z" fill="#000"/><text font-family="RaisonnePro-Book, Raisonne Pro" font-size="10" font-weight="300" letter-spacing=".417" fill="#000"><tspan x="49" y="121">Gefördert von TANZPAKT Stadt-Land-Bund aus Mitteln der Beauftragten </tspan> <tspan x="49" y="134">der Bundesregierung für Kultur und Medien.</tspan></text></g></svg>