<?xml version="1.0" encoding="UTF-8"?>
<svg width="24px" height="24px" viewBox="0 0 36 36" version="1.1" xmlns="http://www.w3.org/2000/svg" xmlns:xlink="http://www.w3.org/1999/xlink">

    <title>vimeo</title>

    <g id="vimeo" stroke="none" stroke-width="1" fill="none" fill-rule="evenodd">
        <path d="M31,1 C33.209139,1 35,2.790861 35,5 L35,31 C35,33.209139 33.209139,35 31,35 L5,35 C2.790861,35 1,33.209139 1,31 L1,5 C1,2.790861 2.790861,1 5,1 L31,1 Z M27.0468892,8.95898438 L26.7550487,8.95898438 C23.2804001,8.9714762 20.9307095,10.8614887 19.7084712,14.6352678 C20.3906797,14.3891789 21.0279896,14.2617623 21.6253897,14.2617623 C22.8027294,14.2617623 23.3938936,14.7976614 23.3938936,15.8732072 C23.3938936,16.0131156 23.3851633,16.1642666 23.3614669,16.3254111 C23.286636,17.1198909 22.7054492,18.3403418 21.6253897,19.988013 C20.5203866,21.5919628 19.7022353,22.3939377 19.1709359,22.3939377 C18.4787499,22.3839442 17.8352041,21.147254 17.237804,18.6863653 C17.1305464,18.3178565 16.9958507,17.6707802 16.8349643,16.7413888 C16.6690891,15.8144956 16.4645513,14.6077858 16.2176092,13.1237574 C15.7748597,10.5217112 14.6461601,9.22131261 12.8389936,9.22131261 C12.7192642,9.22131261 12.6020291,9.22506016 12.484794,9.23755198 C11.6042836,9.34623082 10.3209335,10.0782515 8.63349643,11.4323649 L8.63349643,11.4323649 L6.74900465,13.0100819 L4.83333333,14.6040382 L6.06804336,16.0668304 C7.2266753,15.3098261 7.90140068,14.9300747 8.09596105,14.9300747 C8.98520171,14.9300747 9.81831918,16.2292241 10.5978078,18.8325196 L10.5978078,18.8325196 L11.655418,22.4251672 L12.7255001,26.0228116 C13.7444476,28.6473432 15.0140788,29.9589844 16.5431237,29.9589844 C19.0013191,29.9477417 21.9945556,27.8028961 25.522833,23.5182016 C28.9438528,19.4283794 30.7061208,16.1967454 30.81712,13.8245486 C30.8270974,13.628427 30.8333333,13.4373021 30.8333333,13.2536724 C30.8208615,10.4555045 29.562455,9.02519103 27.0468892,8.95898438 L27.0468892,8.95898438 Z" id="Combined-Shape" fill="#000"></path>
        <g id="5" transform="translate(4.000000, 8.000000)"></g>
    </g>
</svg>